<svg width="500" height="500" viewBox="0 0 500 500" fill="none" xmlns="http://www.w3.org/2000/svg">
<path d="M95.6992 374H59.4992C52.1992 374 46.1992 369.1 46.1992 363.1C46.1992 357.3 51.6992 352.6 58.6992 352.2C59.7992 342.8 69.5992 335.5 81.2992 335.5C82.5992 335.5 83.9992 335.6 85.2992 335.8C87.5992 331.9 92.4992 329.4 97.7992 329.4C105.199 329.4 111.299 334.2 111.699 340.2C113.299 339.7 114.999 339.4 116.699 339.4C124.399 339.4 130.599 344.5 130.599 350.8C130.599 351.6 130.499 352.3 130.299 353C130.199 353.4 129.799 353.6 129.399 353.5C129.099 353.4 128.899 353.1 128.899 352.7C129.099 352.1 129.099 351.4 129.099 350.8C129.099 345.3 123.499 340.8 116.499 340.8C114.599 340.8 112.799 341.1 110.999 341.8C110.699 341.9 110.299 341.8 110.099 341.4C110.099 341.3 109.999 341.2 110.099 341.1V340.8C110.099 335.3 104.499 330.8 97.4992 330.8C92.4992 330.8 87.9992 333.2 85.9992 336.9C85.8992 337.2 85.5992 337.3 85.2992 337.3C83.8992 337.1 82.4992 337 80.9992 337C69.7992 337 60.4992 344 59.7992 353C59.7992 353.4 59.4992 353.6 59.0992 353.6C52.5992 353.7 47.2992 357.9 47.2992 363.1C47.2992 368.3 52.5992 372.6 59.1992 372.6H95.3992C95.7992 372.6 96.0992 372.9 96.0992 373.3C96.3992 373.8 96.0992 374.1 95.6992 374Z" fill="#B5B9C4"/>
<path d="M172 216.6C171.6 216.6 171.3 216.4 171.2 216C171.1 215.6 171.4 215.3 171.8 215.2C171.9 215.2 171.9 215.2 172 215.2C180.7 215.2 187.8 209.5 187.8 202.5C187.8 195.5 180.8 189.9 172.2 189.8C171.8 189.8 171.6 189.5 171.5 189.2C170.6 177.3 158.3 168 143.5 168C141.6 168 139.7 168.1 137.9 168.4C137.6 168.5 137.3 168.3 137.2 168C134.6 163.1 128.6 159.9 121.9 159.9C112.7 159.9 105.3 165.9 105.3 173.3C105.3 173.4 105.3 173.4 105.3 173.5V173.7C105.3 174.1 105 174.4 104.7 174.4C104.6 174.4 104.5 174.4 104.4 174.4C102.1 173.5 99.6 173.1 97.2 173.1C88 173.1 80.6 179.1 80.6 186.5C80.6 187.4 80.7 188.2 80.9 189.1C80.9 189.3 80.9 189.5 80.8 189.7C80.7 189.9 80.5 190 80.3 190C72.4 190.8 66.4 196.2 66.4 202.6C66.4 209.6 73.5 215.3 82.2 215.3H118.7C119.1 215.3 119.4 215.5 119.5 215.9C119.5 216.3 119.3 216.6 118.9 216.7C118.8 216.7 118.8 216.7 118.7 216.7H82.2C72.7 216.7 65 210.4 65 202.6C65 195.7 71.1 189.8 79.3 188.7C79.2 188 79.1 187.3 79.1 186.6C79.1 178.5 87.2 171.9 97.1 171.9C99.4 171.9 101.7 172.3 103.9 173C104.2 165.1 112.2 158.8 121.9 158.8C128.8 158.8 135.1 162.1 138.1 167.2C139.9 166.9 141.7 166.8 143.5 166.8C158.8 166.8 171.5 176.4 172.9 188.7C182 189.1 189.2 195.3 189.2 202.8C189.2 210.3 181.5 216.6 172 216.6Z" fill="#B5B9C4"/>
<path d="M436.198 360.3C435.798 360.3 435.498 360 435.498 359.6C435.498 359.2 435.798 358.9 436.198 358.9C446.898 358.9 455.598 351.9 455.598 343.3C455.598 335.4 448.298 328.8 438.598 327.8C438.398 327.8 438.198 327.7 438.098 327.5C437.998 327.3 437.998 327.1 437.998 326.9C438.198 325.9 438.398 324.8 438.398 323.8C438.398 314.7 429.298 307.4 417.998 307.4C414.998 307.4 411.998 307.9 409.198 309C408.998 309.1 408.698 309.1 408.598 308.9C408.398 308.8 408.298 308.6 408.298 308.3V308C408.298 307.9 408.298 307.8 408.298 307.7C408.298 298.6 399.198 291.3 387.898 291.3C379.798 291.3 372.398 295.2 369.198 301.2C369.098 301.5 368.798 301.6 368.498 301.6C366.198 301.2 363.898 301 361.598 301.1C343.498 301.1 328.498 312.5 327.298 327.1C327.298 327.5 326.998 327.7 326.598 327.7C316.098 327.8 307.498 334.8 307.498 343.3C307.498 343.7 307.198 344 306.798 344C306.398 344 306.098 343.7 306.098 343.3C306.098 334.2 314.998 326.7 325.998 326.3C327.598 311.3 342.998 299.7 361.598 299.7C363.798 299.7 365.998 299.9 368.198 300.2C371.798 294 379.398 290 387.898 290C399.698 290 409.398 297.8 409.698 307.4C412.398 306.5 415.198 306 418.098 306C430.098 306 439.898 314 439.898 323.8C439.898 324.7 439.798 325.6 439.598 326.5C449.598 327.8 457.098 334.9 457.098 343.3C456.898 352.7 447.598 360.3 436.198 360.3Z" fill="#B5B9C4"/>
<path d="M285.898 225C285.898 225 287.698 220.4 287.598 219.4C287.498 218.4 286.098 215.3 286.798 212.5C287.498 209.7 289.198 207.8 290.798 207.7C292.398 207.6 295.698 207 295.698 207C295.598 205.8 296.398 204.6 297.598 204.2C299.598 203.9 301.598 204.5 303.098 205.8C303.698 206.5 305.298 213.6 304.698 216.5C304.098 219.4 300.198 221.8 298.098 224.6C296.798 226.3 295.898 228.3 295.298 230.4" fill="white"/>
<path d="M295.301 231.1H295.201C294.901 231 294.701 230.7 294.701 230.4C295.301 228.2 296.201 226.2 297.601 224.4C298.501 223.3 299.401 222.2 300.501 221.3C302.201 219.7 303.701 218.1 304.101 216.5C304.701 213.7 303.101 207 302.601 206.3C302.101 205.6 299.501 204.4 297.701 204.9C296.801 205.2 296.201 206.1 296.301 207.1C296.301 207.4 296.101 207.7 295.801 207.8C295.701 207.8 292.501 208.4 290.901 208.5C289.701 208.6 288.101 210.1 287.501 212.8C287.201 214.6 287.401 216.5 288.001 218.2C288.101 218.6 288.201 219.1 288.301 219.5C288.401 220.5 287.001 224.2 286.601 225.3C286.501 225.6 286.101 225.8 285.801 225.7C285.501 225.6 285.301 225.2 285.401 224.9C286.101 223.2 286.601 221.4 287.001 219.6C286.901 219.2 286.901 218.9 286.701 218.5C286.001 216.6 285.901 214.5 286.201 212.5C286.901 209.5 288.801 207.3 290.801 207.2C292.001 207.1 294.101 206.8 295.101 206.6C295.201 205.2 296.101 204.1 297.401 203.7C299.601 203.4 301.901 204 303.601 205.5C304.401 206.4 305.901 213.7 305.301 216.7C304.901 218.7 303.101 220.4 301.401 222.1C300.401 223 299.501 224 298.701 225.1C297.501 226.8 296.601 228.6 296.001 230.6C295.801 230.9 295.601 231.1 295.301 231.1Z" fill="#1A1C21"/>
<path d="M292.301 218.8C292.101 218.8 292.001 218.7 291.901 218.6C291.701 218.4 291.601 218 291.901 217.7C293.301 216.3 293.301 214 291.801 212.6C291.601 212.4 291.301 212.2 291.101 212.1C290.801 211.9 290.701 211.5 290.901 211.2C291.001 211 291.201 210.9 291.401 210.9C293.501 210.6 296.101 210 296.801 209.4C296.701 208.9 296.401 208.5 296.001 208.2C295.701 207.9 295.301 207.8 295.001 207.8C294.701 207.9 294.301 207.6 294.301 207.3C294.201 207 294.501 206.6 294.801 206.6C296.001 206.5 297.201 207.2 297.701 208.2C297.901 208.6 298.401 209.5 297.901 210.1C297.201 211 294.701 211.6 293.001 211.9C293.701 212.6 294.101 213.5 294.201 214.5C294.401 216 293.901 217.5 292.801 218.6C292.601 218.7 292.501 218.8 292.301 218.8Z" fill="#1A1C21"/>
<path d="M298.801 219.9C298.401 219.9 298.001 219.8 297.701 219.5C295.901 218.4 294.301 212.4 294.301 210.7C294.301 210.4 294.601 210.1 294.901 210.1C295.201 210.1 295.501 210.4 295.501 210.7C295.401 212.4 297.101 217.7 298.301 218.4C298.401 218.5 298.601 218.6 298.801 218.6C299.001 218.6 299.101 218.5 299.301 218.4C300.201 217.9 301.001 217.2 301.801 216.5C302.001 216.3 302.401 216.3 302.701 216.5C302.901 216.7 302.901 217.1 302.701 217.4C301.901 218.2 301.001 218.8 300.001 219.4C299.701 219.6 299.401 219.7 299.001 219.8L298.801 219.9Z" fill="#1A1C21"/>
<path d="M191.7 337.1C191.7 337.1 190.2 340.8 190.3 342.7C190.4 344.6 191.8 347.7 191.1 349.8C190.7 350.8 187.5 347.1 187.3 346.4C186.6 348.2 186.8 350.3 186.9 352.2C187.1 353.3 186.7 354.5 185.9 355.3C184.8 356.2 183.1 355.6 181.7 355C177.3 352.8 178.6 348.8 179.2 344.5C179.8 340 180.9 335.5 182.5 331.3" fill="white"/>
<path d="M184.399 356.4C183.299 356.3 182.299 356 181.399 355.5C177.199 353.4 177.699 349.7 178.299 346.1C178.399 345.6 178.499 345 178.499 344.5C179.099 339.9 180.199 335.4 181.899 331.1C181.999 330.8 182.399 330.6 182.699 330.7C182.999 330.8 183.199 331.2 183.099 331.5C181.499 335.7 180.399 340.1 179.799 344.5C179.699 345.1 179.599 345.6 179.599 346.2C178.999 349.8 178.599 352.7 181.999 354.3C183.699 355.1 184.799 355.3 185.499 354.7C186.099 354 186.399 353 186.299 352.1V351.2C186.099 349.5 186.299 347.8 186.799 346.1C186.899 345.9 187.099 345.7 187.399 345.7C187.699 345.7 187.899 345.9 187.999 346.1C188.799 347.2 189.699 348.3 190.799 349.1C190.899 347.7 190.799 346.3 190.399 344.9C190.199 344.1 189.999 343.4 189.999 342.6C189.899 340.6 191.399 336.9 191.399 336.7C191.499 336.4 191.799 336.2 192.199 336.3C192.499 336.4 192.699 336.7 192.599 337.1C192.599 337.1 192.599 337.2 192.499 337.2C192.099 338.2 191.099 341.1 191.199 342.5C191.299 343.2 191.399 343.9 191.599 344.6C191.999 346.3 192.499 348.3 191.899 349.8C191.799 350.2 191.399 350.4 191.099 350.4C190.199 350.4 188.699 348.9 187.799 347.7C187.699 348.8 187.599 349.9 187.699 351.1V352.1C187.899 353.4 187.399 354.8 186.499 355.7C185.699 356.2 185.099 356.4 184.399 356.4Z" fill="#1A1C21"/>
<path d="M250.298 411.3C250.298 411.3 253.098 420.1 252.398 424.8C251.698 429.5 245.498 443.9 241.498 441.3C237.498 438.7 239.598 415.6 239.598 415.6L250.298 411.3Z" fill="white"/>
<path d="M242.498 442.2C241.998 442.2 241.498 442.1 241.098 441.8C236.998 439 238.698 417.9 238.998 415.6C238.998 415.4 239.198 415.2 239.398 415.1L249.998 410.8C250.298 410.7 250.698 410.8 250.798 411.2C250.898 411.6 253.598 420.2 252.898 425C252.298 429 247.598 440.3 243.598 442.1C243.198 442.1 242.898 442.2 242.498 442.2ZM240.198 416C239.398 424.8 239.198 439 241.798 440.7C242.198 441 242.698 441 243.098 440.7C246.398 439.2 250.998 428.7 251.698 424.6C252.298 420.8 250.498 414.1 249.898 412.1L240.198 416Z" fill="#1A1C21"/>
<path d="M259.701 421.1C259.701 421.1 258.201 431.6 260.901 437.8C263.601 444 268.401 445.3 271.101 440.3C273.801 435.3 274.301 427.3 271.901 419.1" fill="white"/>
<path d="M266.998 444H266.798C264.298 443.9 261.998 441.7 260.398 438C257.598 431.7 258.998 421.4 259.098 420.9C259.098 420.6 259.398 420.3 259.798 420.3C260.198 420.3 260.398 420.6 260.398 421V421.1C260.398 421.2 258.998 431.5 261.598 437.5C262.998 440.7 264.998 442.6 266.898 442.7C268.298 442.8 269.698 441.8 270.698 439.9C273.498 434.9 273.698 426.9 271.398 419.1C271.298 418.8 271.498 418.4 271.798 418.3C272.098 418.2 272.498 418.4 272.598 418.7C274.998 426.8 274.698 435.1 271.798 440.4C270.498 442.8 268.898 444 266.998 444Z" fill="#1A1C21"/>
<path d="M174.399 308.1C169.399 308.2 164.399 307.3 159.799 305.3C153.399 302.4 148.699 297.1 147.299 291.2C144.899 281 152.099 271.3 159.099 266.1C163.499 263 168.199 260.2 173.099 257.9C176.799 256.1 180.399 254.1 183.999 251.9C190.399 247.8 195.199 242 199.799 236.3C205.899 228.8 212.299 221.1 222.499 217.4C223.999 216.9 228.799 215.4 231.399 218.2C233.599 216.6 236.499 216.3 238.899 217.5C241.299 218.8 243.299 220.7 244.699 223.1C249.999 231.1 252.299 240.8 251.099 250.4C251.099 250.7 250.699 251 250.399 250.9C250.099 250.8 249.799 250.5 249.899 250.2C250.999 240.9 248.899 231.6 243.699 223.8C242.399 221.6 240.599 219.9 238.399 218.7C236.399 217.8 233.499 217.8 231.899 219.6C231.799 219.7 231.599 219.8 231.399 219.8C231.199 219.8 230.999 219.7 230.899 219.5C228.999 216.7 224.399 218.1 222.999 218.6C212.999 222 206.999 229.3 200.699 237C195.999 242.7 191.199 248.6 184.599 252.8C180.999 255 177.399 257 173.599 258.9C168.799 261.2 164.099 263.9 159.799 267C153.199 272 146.199 281.2 148.499 290.9C149.799 296.5 154.199 301.4 160.299 304.2C165.299 306.4 171.299 307.3 178.599 306.7C178.899 306.7 179.199 306.9 179.299 307.2C179.299 307.5 179.099 307.8 178.699 307.9C177.299 308 175.799 308.1 174.399 308.1Z" fill="#1A1C21"/>
<path d="M256.798 319.2L248.898 255.5L219.098 257.9L222.598 322.1L256.798 319.2Z" fill="white"/>
<path d="M222.598 322.7C222.298 322.7 221.998 322.4 221.998 322.1L218.598 257.9C218.598 257.6 218.798 257.3 219.198 257.2L248.898 254.8C249.198 254.8 249.498 255 249.598 255.4L257.498 319.1C257.498 319.3 257.498 319.4 257.398 319.6C257.298 319.7 257.098 319.8 256.998 319.8L222.598 322.7ZM219.798 258.5L223.198 321.4L256.098 318.6L248.398 256.2L219.798 258.5Z" fill="#1A1C21"/>
<path d="M219.398 321.9C219.398 321.9 218.598 358.6 219.798 373.2C220.998 387.8 238.298 422.7 238.298 422.7L252.198 414.1C252.198 414.1 244.498 368.8 245.298 352.3C245.298 352.3 258.498 403.1 257.798 421.6C257.798 421.6 260.498 426.5 266.998 425.3C273.498 424.1 274.898 421.9 274.898 421.9C274.898 421.9 276.398 346.6 264.798 315.5" fill="#1A1C21"/>
<path d="M265.001 426.1C261.801 426.1 258.801 424.5 257.101 421.9C257.001 421.8 257.001 421.7 257.001 421.6C257.601 406.7 248.901 370.1 245.701 357.1C246.201 376 252.601 413.6 252.601 414C252.601 414.2 252.501 414.5 252.301 414.6L238.401 423.2C238.301 423.3 238.101 423.3 237.901 423.3C237.701 423.3 237.601 423.1 237.501 423C236.801 421.6 220.001 387.9 218.901 373.3C217.801 358.7 218.501 322.3 218.501 321.9C218.501 321.6 218.801 321.3 219.101 321.3C219.401 321.3 219.701 321.6 219.701 321.9C219.701 322.3 219.001 358.8 220.101 373.2C221.101 386.5 236.001 417.2 238.301 421.8L251.201 413.8C250.401 409.3 243.601 367.8 244.301 352.3C244.301 352 244.601 351.7 245.001 351.8C245.201 351.8 245.501 352 245.501 352.2C245.601 352.7 258.701 403 258.001 421.5C258.501 422.3 261.001 425.7 266.501 424.8C271.801 423.9 273.501 422.3 273.901 421.8C274.001 417.5 275.001 345.7 263.801 315.8C263.701 315.5 263.801 315.2 264.101 315C264.401 314.9 264.801 315 264.901 315.3C276.401 346.2 275.101 421.2 275.001 421.9C275.001 422 275.001 422.1 274.901 422.2C274.801 422.4 273.301 424.7 266.601 425.9C266.401 426 265.701 426.1 265.001 426.1Z" fill="#1A1C21"/>
<path d="M212.298 288.5L210.098 324.1L230.398 326.3L229.698 262L243.198 263.5C243.198 264.1 250.498 308.3 252.298 322.4L271.198 318.7L262.098 285.8C262.098 285.8 253.798 251.2 254.198 251.2C253.798 251.2 212.298 254.7 204.698 265C197.098 275.3 212.298 288.5 212.298 288.5Z" fill="url(#paint0_linear_5782_101137)"/>
<path d="M241.798 251.2L244.898 261.4C244.898 261.4 245.698 267.4 238.998 267.7C234.898 267.8 230.998 266.1 228.398 263.1C228.398 263.1 221.198 238 220.598 236.2C221.798 236.4 225.098 236.6 226.098 235.8C227.098 235 226.198 231.5 225.898 230.4C227.298 231.6 228.498 233 229.298 234.6L233.598 233.4C233.698 231.7 233.398 230 232.798 228.5C234.098 229.6 235.198 230.9 235.898 232.5C237.098 232.1 241.298 230 242.398 230.8C243.898 231.9 247.798 241.5 246.098 245.9C244.398 250.3 241.798 251.2 241.798 251.2Z" fill="white"/>
<path d="M238.398 268.3C234.298 268.3 230.498 266.5 227.898 263.4C227.798 263.3 227.798 263.3 227.798 263.2C227.498 262.2 220.498 238.1 219.998 236.3C219.898 236.1 219.998 235.9 220.098 235.7C220.198 235.5 220.398 235.5 220.698 235.5C222.298 235.7 225.098 235.7 225.698 235.2C225.898 235 226.098 234.3 225.398 230.8L225.298 230.3C225.298 230 225.398 229.8 225.598 229.7C225.798 229.5 226.098 229.5 226.298 229.7C227.598 230.8 228.798 232.2 229.598 233.7L232.998 232.8C232.998 231.4 232.798 229.9 232.198 228.6C232.098 228.3 232.198 228 232.398 227.9C232.598 227.7 232.898 227.7 233.198 227.9C234.498 228.9 235.498 230.2 236.298 231.6L237.098 231.3C239.698 230.2 241.798 229.4 242.798 230.2C244.598 231.5 248.498 241.5 246.698 246C245.998 248.3 244.498 250.2 242.498 251.5C242.798 252.4 243.498 254.8 245.498 261.2C245.698 263 245.298 264.7 244.198 266.1C242.898 267.5 240.998 268.3 238.998 268.3H238.398ZM228.998 262.8C231.498 265.6 235.198 267.2 238.998 267.1C240.598 267.2 242.198 266.5 243.298 265.4C244.098 264.3 244.498 262.9 244.398 261.5C244.398 261.5 241.298 251.6 241.298 251.4C241.198 251.1 241.398 250.8 241.698 250.6C241.698 250.6 244.198 249.5 245.698 245.5C247.198 241.5 243.398 232 242.198 231.2C241.698 230.9 238.698 232.1 237.698 232.5C237.098 232.7 236.598 232.9 236.298 233C235.998 233.1 235.698 233 235.498 232.7C235.098 231.9 234.698 231.2 234.098 230.5C234.298 231.4 234.298 232.4 234.298 233.4C234.298 233.7 234.098 233.9 233.798 234L229.498 235.2C229.198 235.3 228.898 235.1 228.798 234.9C228.298 233.9 227.698 233 226.898 232.2C227.198 234 227.298 235.6 226.498 236.3C225.498 237.1 222.898 237.1 221.498 236.9C222.798 241.5 228.398 261 228.998 262.8Z" fill="#1A1C21"/>
<path d="M224.3 242.9C223.9 242.2 223.3 241.6 222.5 241.3C221.8 241 221 240.9 220.3 240.9C219.9 240.8 219.5 240.9 219.1 241C218.8 241.1 218.6 241.3 218.4 241.5C217.9 242 217.6 242.6 217.5 243.3C217.5 243.9 217.6 244.4 217.9 244.9C218.1 245.5 218.4 246 218.8 246.5C220.4 248.4 223.3 248.7 225.2 247.1" fill="white"/>
<path d="M222.201 248.7H221.701C220.301 248.6 219.101 247.9 218.201 246.8C217.801 246.3 217.501 245.7 217.201 245.1C216.901 244.5 216.801 243.9 216.801 243.2C216.901 242.4 217.301 241.6 217.901 241.1C218.101 240.8 218.401 240.6 218.801 240.5C219.301 240.3 219.801 240.3 220.301 240.3C221.101 240.3 221.901 240.5 222.701 240.8C223.501 241.2 224.201 241.8 224.701 242.6C224.801 242.9 224.701 243.2 224.401 243.3C224.201 243.4 223.901 243.3 223.701 243.1C223.401 242.5 222.801 242 222.201 241.8C221.601 241.6 220.901 241.4 220.201 241.4C219.901 241.4 219.501 241.4 219.201 241.5C219.001 241.6 218.801 241.7 218.701 241.9C218.301 242.3 218.001 242.8 217.901 243.3C217.901 243.8 218.001 244.2 218.201 244.6C218.401 245.1 218.701 245.6 219.001 246C220.401 247.7 222.901 248 224.601 246.6C224.901 246.4 225.201 246.5 225.401 246.8C225.501 247 225.501 247.3 225.301 247.5C224.601 248.3 223.401 248.7 222.201 248.7Z" fill="#1A1C21"/>
<path d="M242.898 255.2C242.898 255.2 239.098 257.7 235.498 255.8C233.498 254.9 231.998 253.1 231.398 251C231.398 251 237.898 253.4 241.798 251.3L242.898 255.2Z" fill="#1A1C21"/>
<path d="M238.401 257.2C237.301 257.2 236.201 256.9 235.201 256.4C233.001 255.4 231.401 253.5 230.801 251.2C230.801 251 230.801 250.8 231.001 250.6C231.201 250.5 231.401 250.4 231.601 250.5C231.701 250.5 237.901 252.7 241.501 250.9C241.701 250.8 241.901 250.8 242.001 250.9C242.201 251 242.301 251.1 242.301 251.3L243.301 255.2C243.401 255.5 243.301 255.7 243.001 255.9C241.701 256.6 240.101 257.1 238.401 257.2ZM232.401 252C233.201 253.4 234.301 254.6 235.801 255.3C238.401 256.7 241.201 255.4 242.201 254.9L241.501 252.2C238.401 253.4 234.401 252.5 232.401 252Z" fill="#1A1C21"/>
<path d="M234.801 236.4C234.801 236.4 239.701 240.2 239.201 241.3C238.701 242.4 236.301 242.5 236.301 242.5" fill="white"/>
<path d="M236.301 243.2C236.001 243.2 235.701 243 235.701 242.6C235.701 242.3 235.901 242 236.301 242C237.101 241.9 238.401 241.6 238.701 241.1C238.701 240.6 236.701 238.6 234.501 236.9C234.201 236.7 234.201 236.3 234.401 236.1C234.601 235.8 235.001 235.8 235.301 236C237.701 237.9 240.401 240.4 239.901 241.7C239.401 243 236.601 243.2 236.301 243.2Z" fill="#1A1C21"/>
<path d="M240.998 243.8C240.998 243.8 239.498 249.1 232.898 246.6L240.998 243.8Z" fill="white"/>
<path d="M236.198 247.9C234.998 247.9 233.898 247.6 232.798 247.2C232.498 247.1 232.398 246.7 232.498 246.4C232.598 246.1 232.898 246 233.198 246.1C235.198 246.9 236.898 246.9 238.298 246.3C239.298 245.7 240.098 244.8 240.498 243.7C240.598 243.4 240.898 243.2 241.298 243.3C241.598 243.4 241.798 243.7 241.698 244C241.198 245.4 240.198 246.6 238.898 247.3C237.998 247.7 237.098 247.9 236.198 247.9Z" fill="#1A1C21"/>
<path d="M217.299 315.3C216.999 315.3 216.699 315 216.699 314.7C216.699 314.5 216.799 314.3 216.999 314.2L224.399 309.2C224.599 308.9 224.999 308.9 225.299 309.1C225.599 309.3 225.599 309.7 225.399 310C225.299 310.1 225.299 310.1 225.199 310.2L217.799 315.2C217.499 315.3 217.399 315.3 217.299 315.3Z" fill="#1A1C21"/>
<path d="M266.8 312.7C266.7 312.7 266.6 312.7 266.6 312.7L255 308C254.7 307.9 254.5 307.5 254.6 307.2C254.7 306.9 255.1 306.7 255.4 306.8L267 311.5C267.3 311.6 267.5 312 267.3 312.3C267.2 312.6 267 312.7 266.8 312.7Z" fill="#1A1C21"/>
<path d="M249.298 252.5C251.098 253.3 263.998 245.9 285.298 223.7L297.198 228.2C297.198 228.2 282.698 262.1 249.098 283.4L249.298 252.5Z" fill="url(#paint1_linear_5782_101137)"/>
<path d="M204 266.2C204.1 267.7 179 311.2 179 338.1L193.5 338.9C193.5 338.9 208 301.2 216.2 289.2L204 266.2Z" fill="url(#paint2_linear_5782_101137)"/>
<path d="M213.599 285.9C213.299 285.9 212.999 285.6 212.999 285.3L212.199 270.2C212.199 269.9 212.499 269.6 212.799 269.5C213.099 269.5 213.399 269.7 213.399 270.1L214.199 285.2C214.299 285.6 213.999 285.8 213.599 285.9Z" fill="#1A1C21"/>
<path d="M226.901 239.3C226.801 239.3 226.701 239.3 226.601 239.2C226.301 239 226.201 238.7 226.401 238.4C227.101 237.2 229.001 235.1 231.401 236.1C231.701 236.2 231.901 236.6 231.701 236.9C231.601 237.2 231.201 237.4 230.901 237.2C228.901 236.4 227.501 238.9 227.401 239C227.301 239.1 227.101 239.3 226.901 239.3Z" fill="#1A1C21"/>
<path d="M238.1 236.2C238 236.2 237.8 236.2 237.7 236.1C237.4 235.9 237.4 235.5 237.6 235.2C238.3 234.2 240.2 232.7 242 233.9C242.3 234.1 242.4 234.5 242.2 234.7C242 235 241.6 235.1 241.4 234.9C240.1 234 238.7 235.8 238.6 235.9C238.4 236.1 238.3 236.2 238.1 236.2Z" fill="#1A1C21"/>
<path d="M222.698 338C222.398 338 222.098 337.7 222.098 337.4C222.098 337.2 222.198 337.1 222.298 337C224.298 335 225.598 332.4 225.998 329.7C225.998 329.4 226.398 329.1 226.698 329.1C226.998 329.1 227.298 329.4 227.298 329.8C226.898 332.9 225.398 335.7 223.198 337.9C222.998 337.9 222.898 338 222.698 338Z" fill="white"/>
<path d="M265.998 328.5C263.298 328 260.798 326.9 258.698 325.3C258.398 325.1 258.398 324.7 258.698 324.4C258.898 324.2 259.198 324.1 259.498 324.3C261.498 325.8 263.698 326.8 266.198 327.3C266.498 327.3 266.798 327.7 266.698 328C266.598 328.3 266.298 328.5 265.998 328.5Z" fill="white"/>
<path d="M245.199 352.9C244.899 352.9 244.599 352.7 244.599 352.4L240.899 325.9C240.799 325.6 241.099 325.2 241.399 325.2C241.699 325.2 242.099 325.4 242.099 325.7L245.799 352.2C245.899 352.5 245.599 352.9 245.299 352.9C245.299 352.9 245.299 352.9 245.199 352.9Z" fill="white"/>
<path d="M295.3 207.5C295 207.5 294.8 207.3 294.8 207.1L285.5 141.4C285.5 141.1 285.7 140.9 286 140.9C286.2 140.9 286.4 141.1 286.5 141.3L295.8 206.9C295.8 207.2 295.6 207.4 295.3 207.5Z" fill="#B5B9C4"/>
<path d="M293.9 207.9C293.7 207.9 293.6 207.8 293.5 207.7L231.6 134.2C231.4 134 231.4 133.7 231.7 133.5C231.9 133.3 232.2 133.3 232.4 133.6L294.3 207.1C294.5 207.3 294.5 207.6 294.2 207.8C294.1 207.8 294 207.9 293.9 207.9Z" fill="#B5B9C4"/>
<path d="M296.002 207.4C295.902 207.4 295.902 207.4 295.802 207.4C295.502 207.3 295.402 207 295.502 206.7L319.602 147C319.702 146.7 320.002 146.6 320.302 146.7C320.602 146.8 320.702 147.1 320.602 147.4L296.602 207C296.502 207.3 296.202 207.4 296.002 207.4Z" fill="#B5B9C4"/>
<path d="M295.302 207.5C295.102 207.5 295.002 207.4 294.902 207.3L235.302 108.9C235.202 108.7 235.202 108.3 235.502 108.2C235.702 108.1 236.102 108.1 236.202 108.4L295.902 206.8C296.002 207 296.002 207.4 295.702 207.5C295.402 207.5 295.402 207.5 295.302 207.5Z" fill="#B5B9C4"/>
<path d="M256.417 131.964C269.656 123.657 272.844 104.901 263.539 90.0727C254.234 75.2439 235.958 69.9571 222.72 78.2642C209.482 86.5714 206.293 105.327 215.599 120.156C224.904 134.984 243.179 140.271 256.417 131.964Z" fill="white"/>
<path d="M242.601 136.5C239.801 136.5 237.001 136.1 234.401 135.3C217.901 130.2 207.601 113.8 210.201 96.6996C211.401 88.8996 215.901 81.9996 222.501 77.7996C236.001 69.2996 254.701 74.6996 264.101 89.7996C268.601 96.7996 270.401 105.3 269.101 113.6C267.901 121.4 263.401 128.3 256.801 132.5C252.501 135.1 247.601 136.5 242.601 136.5ZM236.601 74.9996C231.801 74.9996 227.201 76.2996 223.101 78.7996C216.801 82.8996 212.501 89.3996 211.401 96.8996C209.001 113.4 218.901 129.2 234.801 134.1C248.201 138.4 262.601 131 266.901 117.5C267.301 116.1 267.701 114.7 267.901 113.3C269.201 105.3 267.501 97.1996 263.101 90.3996C256.801 80.5996 246.601 74.9996 236.601 74.9996Z" fill="#1A1C21"/>
<path d="M351.9 130.926C356.671 112.821 349.238 95.1672 335.299 91.4944C321.36 87.8216 306.193 99.5208 301.423 117.625C296.652 135.73 304.085 153.384 318.024 157.057C331.963 160.73 347.13 149.031 351.9 130.926Z" fill="white"/>
<path d="M323.299 158.4C321.499 158.4 319.599 158.2 317.899 157.7C310.999 155.9 305.399 150.7 302.199 143C298.999 135.3 298.499 126.4 300.899 117.5C303.299 108.6 307.999 101 314.599 95.9997C321.199 90.9997 328.599 89.1997 335.499 90.9997C342.399 92.7997 347.999 97.9997 351.299 105.7C354.499 113.8 354.999 122.8 352.599 131.2C350.299 140.1 345.399 147.7 338.899 152.8C334.399 156.3 328.999 158.3 323.299 158.4ZM330.099 91.4997C324.699 91.5997 319.499 93.5997 315.299 96.9997C308.999 101.8 304.299 109.3 301.999 117.9C299.699 126.1 300.099 134.7 303.299 142.6C306.399 149.9 311.699 154.8 318.199 156.5C324.699 158.2 331.799 156.5 337.999 151.7C344.199 146.9 348.999 139.4 351.299 130.8C353.599 122.2 353.099 113.4 349.999 106.1C346.899 98.7997 341.599 93.8997 335.099 92.1997C333.499 91.7997 331.799 91.4997 330.099 91.4997Z" fill="#1A1C21"/>
<path d="M255.02 165.398C269.649 155.581 271.381 132.529 258.887 113.909C246.393 95.2892 224.405 88.1528 209.775 97.9695C195.145 107.786 193.414 130.839 205.907 149.458C218.401 168.078 240.39 175.215 255.02 165.398Z" fill="white"/>
<path d="M240.1 170.4C227.7 170.4 214.2 162.9 205.4 149.8C199.3 140.7 196.3 130.2 197.1 120.4C197.9 110.6 202.2 102.4 209.5 97.4998C224.4 87.4998 246.8 94.7998 259.4 113.6C272.1 132.5 270.3 155.9 255.4 165.9C250.9 168.9 245.5 170.5 240.1 170.4ZM224.6 94.1998C219.4 94.0998 214.4 95.5998 210.1 98.4998C203.2 103.1 199 110.9 198.3 120.5C197.6 130.1 200.5 140.2 206.4 149.1C218.7 167.4 240.3 174.5 254.6 164.9C268.9 155.3 270.5 132.6 258.3 114.3C249.8 101.6 236.6 94.1998 224.6 94.1998Z" fill="#1A1C21"/>
<path d="M287.003 163.692C309.501 161.68 325.674 136.95 323.126 108.456C320.577 79.9625 300.274 58.4946 277.775 60.5065C255.277 62.5184 239.105 87.2483 241.653 115.742C244.201 144.236 264.505 165.704 287.003 163.692Z" fill="url(#paint3_linear_5782_101137)"/>
<path d="M300.6 264.7C300.4 264.7 300.2 264.6 300.1 264.3C297.7 256.8 296.8 235.5 296.3 224.1C296.2 221.3 296.1 219 296 217.9C296 217.6 296.2 217.4 296.5 217.4C296.8 217.4 297 217.5 297.1 217.8C297.7 220.8 298.3 224 298.8 227.3C300.6 237.8 302.4 248.7 308.1 257.1C308.3 257.3 308.2 257.7 308 257.8C307.8 258 307.4 257.9 307.3 257.7C301.5 249.2 299.6 238.2 297.8 227.5C297.7 226.8 297.6 226.1 297.4 225.4C297.9 237 298.7 257 301 264.1C301.1 264.4 300.9 264.7 300.7 264.7H300.6Z" fill="#B5B9C4"/>
<path d="M306.802 241.8C306.602 241.8 306.502 241.7 306.402 241.6C303.002 236.8 300.902 230.7 298.902 224.9C298.102 222.7 297.402 220.7 296.702 218.7C296.602 218.4 296.702 218.1 297.002 218C297.302 217.9 297.602 218 297.702 218.3C298.502 220.3 299.202 222.4 299.902 224.6C301.902 230.4 303.902 236.4 307.202 241.1C307.402 241.3 307.302 241.6 307.102 241.8C307.002 241.7 306.902 241.8 306.802 241.8Z" fill="#B5B9C4"/>
<defs>
<linearGradient id="paint0_linear_5782_101137" x1="236.884" y1="251.2" x2="236.884" y2="326.3" gradientUnits="userSpaceOnUse">
<stop stop-color="#AA91FC"/>
<stop offset="1" stop-color="#EAE3FE"/>
</linearGradient>
<linearGradient id="paint1_linear_5782_101137" x1="273.148" y1="223.7" x2="273.148" y2="283.4" gradientUnits="userSpaceOnUse">
<stop stop-color="#AA91FC"/>
<stop offset="1" stop-color="#EAE3FE"/>
</linearGradient>
<linearGradient id="paint2_linear_5782_101137" x1="197.6" y1="266.2" x2="197.6" y2="338.9" gradientUnits="userSpaceOnUse">
<stop stop-color="#AA91FC"/>
<stop offset="1" stop-color="#EAE3FE"/>
</linearGradient>
<linearGradient id="paint3_linear_5782_101137" x1="277.775" y1="60.5065" x2="287.003" y2="163.692" gradientUnits="userSpaceOnUse">
<stop stop-color="#AA91FC"/>
<stop offset="1" stop-color="#EAE3FE"/>
</linearGradient>
</defs>
</svg>
