<svg xmlns="http://www.w3.org/2000/svg" width="88" height="89" viewBox="0 0 88 89" fill="#FFF"><path fill-rule="evenodd" clip-rule="evenodd" d="M52 75.351L44.5 84.151C44.1 84.651 44.1 85.351 44.6 85.751C45.1 86.151 45.8 86.151 46.2 85.651L53.7 76.851C54.1 76.351 54.1 75.651 53.6 75.251C53.1 74.851 52.4 74.851 52 75.351ZM42.9 75.951L36.6 82.151C36.1 82.651 36.1 83.351 36.6 83.751C37.1 84.251 37.8 84.251 38.2 83.751L44.5 77.551C45 77.051 45 76.351 44.5 75.951C44.1 75.451 43.3 75.451 42.9 75.951ZM43 14.351C56.6 3.95097 74.5 2.65097 82.7 1.05097C83.8 0.850967 85 1.25097 85.8 2.05097C86.6 2.85097 87 4.05097 86.8 5.15097C85.2 13.351 83.9 31.251 73.5 44.851L74.5 48.751C75.7 53.251 74.5 58.051 71.6 61.551L60.7 74.651C60 75.451 58.8 75.751 57.8 75.351C56.8 74.951 56.2 73.851 56.3 72.751C56.4 71.651 56.5 70.551 56.6 69.551C56.6 68.951 57.2 68.451 57.8 68.451C58.4 68.451 58.9 69.051 58.9 69.651C58.9 70.751 58.7 71.851 58.6 73.051C58.6 73.051 58.6 73.151 58.6 73.251C58.6 73.251 58.7 73.251 58.8 73.251L69.7 60.151C71.9 57.551 72.9 54.051 72.4 50.751C70.6 53.351 58 64.451 58 64.351C57.9 64.351 57.8 64.351 57.7 64.351C57.1 64.351 56.5 63.951 56.4 63.351C56.2 61.851 56 60.451 55.6 59.051C52.3 60.951 49.1 62.551 46.6 63.951L43.4 72.451C43 73.451 42.2 74.151 41.2 74.351C40.2 74.551 39.2 74.351 38.4 73.551L31.2 66.351C28.1 68.751 22 69.851 19 70.351C18.6 70.351 18.1 70.351 17.8 69.951C17.5 69.651 17.4 69.251 17.4 68.751C17.8 65.751 19 59.651 21.4 56.551L18.3 53.451C16.8 55.151 15.7 57.551 14.9 60.051C13.4 64.551 12.7 69.551 12.5 72.851C12.5 73.551 12.7 74.151 13.2 74.651C13.7 75.151 14.3 75.351 15 75.251C19.5 74.851 26.9 73.751 32 70.951C32.6 70.651 33.3 70.851 33.6 71.451C33.9 72.051 33.7 72.751 33.1 73.051C27.7 76.051 19.9 77.151 15.1 77.551C13.8 77.651 12.4 77.151 11.5 76.251C10.5 75.251 10.1 73.951 10.2 72.651C10.5 69.151 11.2 63.951 12.8 59.251C13.8 56.351 15.1 53.651 16.8 51.751L14.4 49.351C13.7 48.651 13.4 47.551 13.6 46.551C13.8 45.551 14.5 44.751 15.5 44.351L24 41.151C25.4 38.651 27.1 35.451 28.9 32.151C24.7 31.051 20.1 30.951 15.1 31.551C14 31.651 13 31.051 12.5 30.051C12.1 29.051 12.4 27.851 13.2 27.151L20.9 20.751C21.4 20.351 22.1 20.451 22.5 20.951C22.9 21.451 22.8 22.151 22.3 22.551L14.6 28.951C14.6 28.951 14.6 29.051 14.6 29.151C14.6 29.151 14.6 29.251 14.8 29.151C18.2 28.751 21.5 28.651 24.6 28.951C29.2 22.451 35.5 17.651 38.6 15.551C34.8 14.551 30.8 15.551 27.8 17.951C26.5 19.051 25.4 19.951 25.4 19.951C24.9 20.351 24.2 20.251 23.8 19.751C23.4 19.251 23.5 18.551 24 18.151C24 18.151 25 17.251 26.4 16.151C30 13.151 34.7 12.151 39.2 13.251L43.1 14.251L43 14.351ZM56.1 56.151C60.4 53.651 64.8 50.851 68 47.551C81.5 34.051 82.8 13.551 84.5 4.65097C84.5 4.25097 84.5 3.85097 84.2 3.65097C83.9 3.35097 83.5 3.25097 83.2 3.35097C79.3 4.05097 73.2 4.75097 66.4 6.35097C67.2 9.45097 69.2 12.851 72.1 15.751C74.2 17.851 76.5 19.451 78.8 20.451C79.4 20.751 79.6 21.451 79.4 21.951C79.1 22.551 78.4 22.751 77.9 22.551C75.4 21.351 72.8 19.651 70.5 17.351C67.3 14.151 65.1 10.451 64.2 6.95097C56.1 9.15097 47.3 12.851 40.3 19.851C34.3 25.851 29.6 35.851 26.1 42.051L42.3 58.251C42.8 58.751 42.8 59.451 42.3 59.851C41.8 60.351 41.1 60.351 40.7 59.851L24.3 43.451L16.2 46.451C16 46.451 15.8 46.751 15.8 46.951C15.8 47.151 15.8 47.451 16 47.551L40.2 71.751C40.4 71.951 40.6 71.951 40.8 71.951C41 71.951 41.2 71.751 41.3 71.551L44.5 63.051C44.5 62.651 44.7 62.351 45.1 62.151C47.9 60.551 51.7 58.651 55.6 56.451C55.7 56.351 55.9 56.251 56.1 56.151ZM9.59997 43.651L3.39997 49.951C2.99997 50.451 2.99997 51.151 3.39997 51.551C3.89997 51.951 4.59997 51.951 4.99997 51.551L11.2 45.251C11.6 44.751 11.6 44.051 11.2 43.651C10.7 43.151 9.99997 43.251 9.59997 43.651ZM10.4 34.451L1.59997 41.951C1.09997 42.351 1.09997 43.051 1.49997 43.551C1.89997 44.051 2.59997 44.051 3.09997 43.651L11.9 36.151C12.4 35.751 12.4 35.051 12 34.551C11.6 34.051 10.9 34.051 10.4 34.451ZM60.8 26.951C63.6 29.751 63.6 34.251 60.8 37.051C58 39.851 53.5 39.851 50.7 37.051C47.9 34.251 47.9 29.751 50.7 26.951C53.5 24.151 58 24.151 60.8 26.951Z" fill="#1D49C3"></path></svg>