<svg width="24" height="24" viewBox="0 0 24 24" fill="none" xmlns="http://www.w3.org/2000/svg" class="{{class-name}}"><path fill-rule="evenodd" clip-rule="evenodd" d="M12 5C9.23858 5 7 7.23858 7 10C7 11.2742 7.4753 12.4349 8.25982 13.3184L8.84139 13.9166C9.21042 14.2962 9.47243 14.7666 9.60083 15.2802L9.78078 16H14.2192L14.3992 15.2802C14.5276 14.7666 14.7896 14.2962 15.1586 13.9166L15.7402 13.3184C16.5247 12.4349 17 11.2741 17 10C17 7.23858 14.7614 5 12 5ZM5 10C5 6.13401 8.13401 3 12 3C15.866 3 19 6.13401 19 10C19 11.7922 18.3252 13.4291 17.2173 14.6669L17.2036 14.6823L16.5926 15.3107C16.4696 15.4373 16.3823 15.5941 16.3395 15.7653L16.008 17.091C15.8745 17.6252 15.3945 18 14.8438 18H9.15616C8.60552 18 8.12554 17.6252 7.99198 17.091L7.66054 15.7653C7.61774 15.5941 7.53041 15.4373 7.4074 15.3107L6.79641 14.6823L6.78265 14.6669C5.67482 13.4291 5 11.7922 5 10ZM7.99991 20C7.99991 19.4477 8.44762 19 8.99991 19H15C15.5523 19 16 19.4477 16 20C16 20.5523 15.5523 21 15 21H8.99991C8.44762 21 7.99991 20.5523 7.99991 20Z" fill="#0B0C0F"/></svg>