<svg xmlns="http://www.w3.org/2000/svg" width="85" height="85" viewBox="0 0 85 85" fill="none"><g clip-path="url(#clip0_140_27)"><path d="M70.2744 0.232422C68.5146 0.796875 67.1533 2.04199 66.5888 3.55273L66.2734 4.39941L63.1523 4.48242C59.6826 4.58203 59.3007 4.68164 58.5703 5.67773L58.1884 6.22559L58.1386 14.7256L58.0888 23.2422H54.3701C51.1162 23.2422 50.6347 23.209 50.6347 22.9932C50.6347 22.4619 49.9541 21.416 49.4394 21.1504C49.1572 21.001 48.2939 20.7852 47.5136 20.6523C46.7334 20.5361 46.0527 20.3701 45.9863 20.3037C45.9365 20.2207 45.7539 19.7227 45.5879 19.1748C45.4218 18.627 44.9902 17.5977 44.6416 16.8838C44.2763 16.1699 43.9941 15.5225 43.9941 15.4727C43.9941 15.4062 44.3593 14.8418 44.8242 14.2109C46.4345 12.0029 46.3349 11.1396 44.1601 9.06445C42.2841 7.27148 41.4707 7.18848 39.5283 8.59961C38.9306 9.04785 38.3496 9.46289 38.25 9.5127C38.1504 9.5791 37.6191 9.37988 37.0879 9.09766C36.5566 8.81543 35.4443 8.33398 34.6308 8.05176L33.1201 7.53711L32.9209 6.12598C32.705 4.49902 32.3564 3.76855 31.6259 3.32031C31.1611 3.03809 30.7959 2.98828 29.0527 2.98828C27.3095 2.98828 26.9443 3.03809 26.4795 3.32031C25.749 3.76855 25.4004 4.49902 25.1845 6.12598L24.9853 7.53711L23.4746 8.05176C22.6611 8.33398 21.5488 8.81543 21.0175 9.09766C20.4863 9.37988 19.955 9.5791 19.8554 9.5127C19.7558 9.46289 19.1748 9.04785 18.5771 8.59961C16.6347 7.18848 15.8213 7.27148 13.9453 9.06445C11.7705 11.1396 11.6709 12.0029 13.2812 14.2109C13.7461 14.8418 14.1113 15.4062 14.1113 15.4561C14.1113 15.5225 13.8457 16.1201 13.5136 16.7676C13.1816 17.415 12.7334 18.4775 12.5341 19.1416L12.1523 20.3369L10.9404 20.5527C7.95211 21.1006 7.58688 21.4824 7.50387 24.1553C7.40426 27.293 7.8193 27.8906 10.542 28.3555L12.1357 28.6377L12.6338 30.1318C12.916 30.9453 13.3476 32.0244 13.6298 32.5225C13.8955 33.0205 14.1113 33.502 14.1113 33.585C14.1113 33.6514 13.7793 34.166 13.3642 34.7139C11.7041 36.8555 11.7373 37.6025 13.58 39.5449C15.041 41.0723 15.4726 41.3379 16.4853 41.3379C17.2324 41.3379 17.415 41.2383 19.1748 39.9766L19.9882 39.3789L21.25 40.0098C21.9306 40.3418 23.0429 40.8066 23.707 41.0225C25.0351 41.4541 24.9521 41.3213 25.2343 43.2471C25.583 45.5215 26.413 46.1523 29.0527 46.1523C31.6923 46.1523 32.5224 45.5215 32.8711 43.2471C33.1533 41.3213 33.0703 41.4541 34.3984 41.0225C35.0625 40.8066 36.1748 40.3418 36.8554 40.0098L38.1171 39.3789L38.9306 39.9766C40.6904 41.2383 40.873 41.3379 41.6201 41.3379C42.6162 41.3379 43.0478 41.0723 44.4257 39.6445C46.3349 37.6855 46.4013 36.8887 44.8076 34.7969C44.3593 34.1992 43.9941 33.6514 43.9941 33.5684C43.9941 33.4854 44.2099 33.0205 44.4755 32.5225C44.7578 32.0244 45.1894 30.9453 45.4716 30.1318L45.9697 28.6377L47.5302 28.3721C48.3935 28.2227 49.2402 28.0068 49.4394 27.9072C49.9043 27.6582 50.4521 26.8613 50.5683 26.2471L50.6845 25.7324H54.3867H58.0888L58.1386 34.249L58.1884 42.7822L58.6699 43.3965C59.417 44.3926 59.8486 44.4922 63.2519 44.4922C65.958 44.4922 66.2568 44.5254 66.3398 44.791C66.8212 46.3516 67.9834 47.7461 69.3779 48.4268C70.1914 48.8252 70.5068 48.8916 71.8017 48.8916C73.0634 48.8916 73.4453 48.8252 74.2255 48.46C75.4209 47.8955 76.4502 46.8662 77.0146 45.6709C77.3798 44.8906 77.4463 44.5088 77.4463 43.3301C77.4463 42.0684 77.3798 41.7861 76.8984 40.8066C75.9355 38.8643 74.375 37.8516 72.1337 37.7188C70.4902 37.6357 69.3115 38.0342 68.1494 39.0469C67.3691 39.7441 66.4062 41.1885 66.4062 41.7031C66.4062 41.9688 66.1572 42.002 63.5009 42.002H60.5957V33.8672V25.7324L63.4345 25.7656L66.2734 25.8154L66.6054 26.6787C67.2695 28.4883 69.3115 29.9824 71.3867 30.165C73.6113 30.3809 75.9521 29.0195 76.9814 26.9277C77.3964 26.0977 77.4463 25.7988 77.4297 24.4873C77.4297 23.2754 77.3632 22.8438 77.0478 22.2129C76.1679 20.4033 74.3584 19.0752 72.4326 18.8428C70.042 18.5439 67.4853 20.1211 66.5556 22.4785L66.2734 23.1592L63.4345 23.209L60.5957 23.2422L60.6289 15.1572L60.6787 7.05566L63.4345 7.00586L66.207 6.97266L66.705 8.03516C68.7968 12.5176 74.9062 12.4844 77.0146 7.98535C77.5957 6.74023 77.6289 4.64844 77.081 3.45312C76.583 2.37402 75.3379 1.0791 74.292 0.564453C73.2129 0.0498047 71.3369 -0.116211 70.2744 0.232422ZM73.1298 2.80566C76.2509 4.2168 75.2216 8.88184 71.8017 8.84863C70.8554 8.84863 70.1748 8.5498 69.5439 7.85254C68.8798 7.13867 68.7138 6.70703 68.7138 5.71094C68.7138 3.33691 71.0048 1.84277 73.1298 2.80566ZM30.5966 7.32129C30.7793 8.64941 30.9453 9.26367 31.1611 9.46289C31.3271 9.62891 32.1572 9.94434 32.9873 10.1934C34.3652 10.5752 35.3945 11.0234 37.4033 12.1357C37.7851 12.3516 38.167 12.4512 38.3994 12.3848C38.6152 12.335 39.4453 11.8037 40.2421 11.1895L41.7031 10.0938L42.5166 10.8906C42.9648 11.3389 43.33 11.7539 43.33 11.8369C43.33 11.9365 42.8486 12.667 42.2509 13.4971C41.6367 14.3438 41.1718 15.1738 41.1718 15.3896C41.1718 15.6055 41.5039 16.3525 41.9189 17.0498C42.5996 18.2285 43.2138 19.7891 43.6621 21.5488C43.7617 21.9473 43.9941 22.3457 44.2099 22.4785C44.4921 22.6611 47.414 23.2422 48.0449 23.2422C48.0947 23.2422 48.1445 23.79 48.1445 24.4707C48.1445 25.8818 48.3271 25.749 45.9365 26.0811C45.123 26.1973 44.3095 26.3965 44.1435 26.5459C43.9443 26.7119 43.6787 27.3428 43.4795 28.123C43.0976 29.584 42.4004 31.2275 41.6699 32.3896C40.9394 33.502 41.0058 33.8506 42.2509 35.5273C42.8486 36.3242 43.33 37.0381 43.33 37.1377C43.33 37.2207 42.9648 37.6523 42.5166 38.084L41.7031 38.8975L40.1591 37.7686C39.1962 37.0547 38.4492 36.6396 38.2002 36.6396C37.9677 36.6396 37.1709 36.9717 36.4404 37.4033C35.1289 38.1504 34.0498 38.582 32.1904 39.0801C31.6757 39.2295 31.1777 39.4453 31.0615 39.5615C30.9619 39.6943 30.7461 40.6406 30.58 41.6865L30.2978 43.5791H29.0527H27.8076L27.5254 41.6865C27.3593 40.6406 27.1435 39.6943 27.0439 39.5615C26.9277 39.4453 26.4296 39.2295 25.915 39.0801C24.0556 38.582 22.9765 38.1504 21.665 37.4033C20.9345 36.9717 20.1377 36.6396 19.9052 36.6396C19.6562 36.6396 18.9091 37.0547 17.9463 37.7686L16.4023 38.8975L15.5888 38.084C15.1406 37.6523 14.7754 37.2207 14.7754 37.1377C14.7754 37.0381 15.2568 36.3242 15.8545 35.5273C16.5351 34.6143 16.9336 33.917 16.9336 33.6514C16.9336 33.4023 16.7177 32.8379 16.4355 32.4062C15.6552 31.1445 14.9912 29.5674 14.6259 28.123C14.4267 27.3428 14.1611 26.7119 13.9619 26.5459C13.7959 26.3965 12.9824 26.1973 12.1689 26.0811C9.77828 25.749 9.9609 25.8818 9.9609 24.4707C9.9609 23.79 10.0107 23.2422 10.0605 23.2422C10.6914 23.2422 13.6132 22.6611 13.8955 22.4785C14.1113 22.3457 14.3437 21.9473 14.4433 21.5488C14.9414 19.6396 15.3896 18.4443 16.1367 17.166C16.5683 16.4023 16.9336 15.5889 16.9336 15.373C16.9336 15.1738 16.4521 14.3271 15.8545 13.4971C15.2568 12.667 14.7754 11.9365 14.7754 11.8369C14.7754 11.7539 15.1406 11.3389 15.5888 10.8906L16.3857 10.0938L17.8632 11.1895C18.6767 11.8037 19.5068 12.335 19.706 12.3848C19.9384 12.4512 20.3369 12.3516 20.7021 12.1357C22.7109 11.0234 23.7402 10.5752 25.1181 10.1934C25.9482 9.94434 26.7783 9.62891 26.9443 9.46289C27.1601 9.26367 27.3261 8.64941 27.5087 7.32129L27.7744 5.47852H29.0527H30.331L30.5966 7.32129ZM73.3789 21.7314C75.1054 22.6113 75.5371 25.0518 74.2421 26.5957C72.3496 28.8369 68.7138 27.459 68.7138 24.5039C68.7138 22.0469 71.1709 20.5859 73.3789 21.7314ZM73.3125 40.5078C75.1552 41.4043 75.5703 43.8281 74.1591 45.4385C72.4824 47.3477 69.3115 46.5176 68.7636 44.0273C68.166 41.4043 70.8554 39.3291 73.3125 40.5078Z" fill="#1D49C3
"></path><path d="M27.3096 15.2735C23.6241 16.0703 20.7354 18.8594 19.9219 22.3955C19.6397 23.5908 19.6895 25.749 20.005 26.961C20.6358 29.3184 22.628 31.792 24.753 32.8213C27.0606 33.9502 29.9659 34.166 32.1241 33.3692C33.3526 32.9209 33.7178 32.5723 33.7344 31.9082C33.7676 30.7959 32.9708 30.4141 31.5928 30.9121C26.5626 32.7051 21.6319 28.8369 22.2628 23.5742C22.6944 19.8223 26.6954 16.9502 30.3643 17.7471C32.8546 18.2783 34.8966 20.1377 35.627 22.5449C36.0255 23.8399 35.9425 25.6992 35.4278 26.9942C35.1954 27.6084 34.9962 28.2891 34.9962 28.5215C34.9962 29.0196 35.71 29.7168 36.2081 29.7168C37.503 29.7168 38.6817 26.1973 38.3331 23.3916C37.9844 20.5196 36.2911 17.8965 33.8839 16.4688C32.0411 15.3897 29.169 14.8584 27.3096 15.2735Z" fill="#1D49C3
"></path><path d="M55.2665 49.2402C55.0341 49.29 51.0829 51.2988 46.4843 53.7061L38.1337 58.0723L37.453 57.8398C32.5888 56.1133 26.4794 55.9307 21.6151 57.3252C20.8681 57.541 20.1044 57.8564 19.9218 58.0225C19.2577 58.6201 19.706 60.0977 20.5526 60.0977C20.7021 60.0977 21.7314 59.8652 22.8271 59.5996C27.2265 58.4707 31.8251 58.6699 36.54 60.1973L38.2997 60.7617H46.8827C54.2372 60.7617 55.5321 60.7949 55.9472 61.0107C57.2255 61.6748 57.2753 63.833 56.0302 64.6465C55.6982 64.8623 53.0585 65.2607 45.1894 66.2402C32.788 67.8174 33.6347 67.6846 33.2694 68.083C32.8876 68.5146 32.9042 69.3281 33.3192 69.7432C33.6181 70.042 34.3817 70.1748 39.0302 70.7559C43.7782 71.3535 44.8241 71.4365 47.9784 71.4365C51.9628 71.4365 54.6191 71.1211 58.1054 70.2412C62.5546 69.0957 64.746 68.1162 72.8642 63.6006C76.3671 61.6582 79.455 59.998 79.7372 59.915C81.8456 59.3174 83.4062 62.2061 81.7958 63.7168C81.5966 63.8994 78.8573 65.46 75.703 67.1533C68.3817 71.1211 68.7304 70.8887 68.7304 71.7021C68.7304 72.2168 68.83 72.4326 69.162 72.6982C69.411 72.8975 69.7265 73.0469 69.8759 73.0469C70.0087 73.0469 73.0302 71.4697 76.5829 69.5273C82.1112 66.5059 83.1405 65.9082 83.7714 65.1943C85.3984 63.3848 85.3984 60.7949 83.7548 58.9688C82.5761 57.6572 80.7997 57.1094 79.0067 57.4912L78.4257 57.6074L78.2099 56.7607C77.8778 55.499 76.6327 54.2539 75.3212 53.8721C73.9599 53.4736 73.1464 53.6396 71.038 54.7188C70.0751 55.2168 69.245 55.6152 69.1952 55.6152C69.1454 55.6152 69.0624 55.333 68.996 54.9678C68.8466 53.9883 67.9501 52.8262 66.9042 52.2451C66.1737 51.8135 65.8251 51.7305 64.8954 51.7305C63.8661 51.7139 63.6503 51.7803 62.2558 52.5107C61.4091 52.9424 60.7118 53.291 60.6952 53.2578C60.6786 53.2246 60.5624 52.8926 60.4628 52.5107C59.8153 50.2695 57.5575 48.8418 55.2665 49.2402ZM57.0097 51.8799C57.6405 52.1787 58.1054 52.9092 58.1054 53.5898C58.1054 54.5527 57.5243 55.0674 54.4862 56.7109L51.6142 58.2715H47.5136C44.9569 58.2715 43.496 58.2051 43.5956 58.1221C43.7284 57.9727 55.1171 51.9463 55.6317 51.7471C56.0468 51.5811 56.4618 51.6309 57.0097 51.8799ZM66.1239 54.7852C66.6884 55.416 66.7382 56.3623 66.2401 56.9932C66.0575 57.2256 64.3974 58.2051 62.5546 59.1846L59.2011 60.9609L58.9355 60.5791C58.4374 59.8154 57.79 59.168 57.2089 58.8525C56.8769 58.6699 56.6112 58.4873 56.6112 58.4375C56.6112 58.3545 57.956 57.624 62.6542 55.1504C64.8954 53.9551 65.3105 53.9053 66.1239 54.7852ZM74.873 56.3623C75.5204 56.6943 75.8691 57.2422 75.8691 57.9062C75.8691 59.0186 75.5868 59.2344 70.4901 62.0566C64.5634 65.3438 63.1025 66.041 59.9814 67.0703C55.4491 68.5479 49.9706 69.3115 46.2187 68.9795L44.7411 68.8467L50.3026 68.1328C53.3573 67.7344 56.1962 67.2861 56.6112 67.1367C57.6073 66.7715 58.8359 65.4932 59.2011 64.4307L59.4999 63.6006L64.6464 60.8945C73.2626 56.3623 73.7441 56.1133 74.0761 56.1133C74.2421 56.1133 74.6073 56.2295 74.873 56.3623Z" fill="#1B1D22
"></path><path d="M14.6592 60.2637C13.2314 61.0439 11.8701 61.8906 10.6748 62.7705L9.81152 63.418H5.3125H0.813477L0.415039 63.833L0 64.2314V72.8477C0 81.3145 0 81.4805 0.348633 81.9121L0.680664 82.3438H5.19629C9.49609 82.3438 10.4424 82.4102 24.5537 83.6719C32.7217 84.4023 39.9102 85 40.5244 85C42.2012 85 45.1729 84.5684 47.248 84.0205C51.5146 82.8916 55.6816 80.999 63.5508 76.6494C66.29 75.1387 66.7383 74.7734 66.7383 74.0762C66.7383 73.5947 66.041 72.8809 65.5762 72.8809C65.377 72.8809 63.6836 73.7275 61.791 74.7734C53.623 79.2559 49.3398 81.0986 44.8242 82.0117C41.8691 82.6094 40.4414 82.6094 33.1201 81.9453C29.4678 81.6133 23.9727 81.1152 20.918 80.8496C17.8633 80.5674 14.1611 80.2354 12.7168 80.1025C11.2559 79.9697 8.36719 79.8535 6.27539 79.8535H2.49023V72.8809V65.9082H6.49121C9.21387 65.9082 10.5918 65.8418 10.8408 65.709C11.04 65.6094 11.7373 65.1279 12.3682 64.6631C13.0156 64.1816 14.3438 63.3184 15.3232 62.7539C17.1162 61.708 17.4316 61.4092 17.4316 60.7617C17.4316 60.2969 16.7178 59.5996 16.2363 59.5996C16.0205 59.5996 15.3232 59.8984 14.6592 60.2637Z" fill="#1B1D22
"></path></g><defs><clipPath id="clip0_140_27"><rect width="85" height="85" fill="#1B1D22
"></rect></clipPath></defs></svg>