<svg width="24" height="24" viewBox="0 0 24 24" fill="none" xmlns="http://www.w3.org/2000/svg" class="{{class-name}}"><path fill-rule="evenodd" clip-rule="evenodd" d="M16.2071 10.2071C16.5976 9.81658 16.5976 9.18342 16.2071 8.79289C15.8166 8.40237 15.1834 8.40237 14.7929 8.79289L11 12.5858L9.95719 11.543L9.70711 11.2929C9.31658 10.9024 8.68342 10.9024 8.2929 11.2929C7.90237 11.6834 7.90237 12.3166 8.2929 12.7071L10.2779 14.6921L10.2929 14.7071C10.6834 15.0976 11.3166 15.0976 11.7071 14.7071L16.2071 10.2071Z" fill="#0B0C0F"/><path fill-rule="evenodd" clip-rule="evenodd" d="M9.86061 1.23085C9.11753 0.923049 8.28261 0.923049 7.53953 1.23085C6.79645 1.53866 6.20608 2.12905 5.8983 2.87214L5.17575 4.61659C5.0706 4.86887 4.86916 5.06941 4.6166 5.17384L2.87267 5.89623C2.50465 6.04858 2.17025 6.27194 1.88856 6.55355C1.6068 6.83523 1.3833 7.16967 1.23084 7.53776C1.07838 7.90585 0.999938 8.30038 1 8.69879C1.00007 9.09699 1.0788 9.49188 1.23121 9.85975L1.95265 11.6065C2.0049 11.7324 2.03115 11.8662 2.03144 12C2.03147 12.1342 2.00573 12.2687 1.9532 12.3955L1.23084 14.1395C0.923054 14.8826 0.923054 15.7175 1.23084 16.4606C1.53863 17.2037 2.12899 17.7941 2.87207 18.1019L4.61701 18.8247C4.86958 18.9298 5.07016 19.1308 5.1747 19.3836C5.18041 19.3974 5.18641 19.411 5.19267 19.4245L5.89787 21.127C6.20571 21.8699 6.79599 22.4602 7.53893 22.7679C8.28166 23.0756 9.11675 23.0755 9.85959 22.7681L11.6042 22.0485L11.6062 22.0477C11.859 21.9428 12.1433 21.9427 12.3963 22.0471L14.1394 22.7691C14.8825 23.077 15.7174 23.077 16.4605 22.7691C17.2036 22.4613 17.7939 21.871 18.1017 21.1279L18.8243 19.3834C18.9294 19.1311 19.1308 18.9306 19.3834 18.8262L21.1273 18.1038C21.4954 17.9514 21.8298 17.7281 22.1114 17.4465C22.3932 17.1648 22.6167 16.8303 22.7692 16.4622C22.9216 16.0941 23.0001 15.6996 23 15.3012C22.9999 14.903 22.9212 14.5081 22.7688 14.1402L22.0474 12.3935C21.9951 12.2676 21.9684 12.1338 21.9681 12C21.9681 11.8658 21.9943 11.7313 22.0468 11.6045L22.7692 9.86048C23.077 9.11739 23.077 8.28247 22.7692 7.53939C22.4614 6.7963 21.871 6.20591 21.1279 5.8981L19.383 5.1753C19.1304 5.07024 18.9298 4.86924 18.8253 4.61641C18.8196 4.60259 18.8136 4.58896 18.8073 4.57552L18.1021 2.87295C17.7943 2.13006 17.204 1.53984 16.4611 1.23209C15.7183 0.924429 14.8833 0.924529 14.1404 1.23192L12.3958 1.95149L12.3938 1.95231C12.141 2.0572 11.8567 2.05733 11.6037 1.9529L9.86061 1.23085ZM9.09522 3.0786C8.84221 2.9738 8.55793 2.9738 8.30492 3.0786C8.05191 3.18341 7.85088 3.38444 7.74607 3.63748L7.0226 5.38416C6.71403 6.12587 6.12379 6.71486 5.38142 7.02183L3.63806 7.74398C3.51271 7.79585 3.39852 7.87204 3.30258 7.96796C3.20663 8.06388 3.13053 8.17776 3.07861 8.3031C3.02669 8.42845 2.99998 8.5628 3 8.69847C3.00002 8.83415 3.02678 8.96849 3.07874 9.09382L3.07925 9.09505L3.79994 10.84L3.80035 10.841C3.95414 11.212 4.0312 11.606 4.0315 12C4.03152 12.3949 3.95478 12.7895 3.80097 13.1609L3.07861 14.9049C2.9738 15.1579 2.9738 15.4422 3.07861 15.6953C3.18342 15.9483 3.38445 16.1493 3.63746 16.2541L5.38346 16.9774C6.10808 17.2783 6.68715 17.848 7.00019 18.5658C7.00803 18.5822 7.01547 18.5989 7.02249 18.6158L7.74553 20.3614C7.85037 20.6143 8.0514 20.8154 8.30432 20.9202C8.55728 21.0249 8.8415 21.025 9.09447 20.9202L10.8397 20.2004L10.8408 20.2C11.5832 19.8923 12.4173 19.8918 13.16 20.1987L14.9048 20.9214C15.1578 21.0262 15.4421 21.0262 15.6951 20.9214C15.9481 20.8166 16.1491 20.6156 16.2539 20.3625L16.9774 18.6158C17.286 17.8741 17.8762 17.2851 18.6186 16.9782L20.3619 16.256C20.4873 16.2041 20.6015 16.128 20.6974 16.032C20.7934 15.9361 20.8695 15.8222 20.9214 15.6969C20.9733 15.5716 21 15.4372 21 15.3015C21 15.1659 20.9732 15.0315 20.9213 14.9062L20.9208 14.905L20.2001 13.16L20.1997 13.159C20.0459 12.788 19.9684 12.394 19.9681 12C19.9681 11.6051 20.0452 11.2105 20.199 10.8391L20.9214 9.09514C21.0262 8.84209 21.0262 8.55777 20.9214 8.30473C20.8166 8.05169 20.6156 7.85066 20.3625 7.74585L18.6165 7.02261C17.8919 6.7217 17.3129 6.152 16.9998 5.43417C16.992 5.4178 16.9845 5.40114 16.9775 5.3842L16.2545 3.63857C16.1496 3.38566 15.9486 3.18461 15.6957 3.07984C15.4427 2.97506 15.1585 2.97504 14.9055 3.07978L13.1603 3.79958L13.1592 3.80005C12.4168 4.10775 11.5827 4.10822 10.84 3.80133L9.09522 3.0786Z" fill="#0B0C0F"/></svg>