<svg xmlns="http://www.w3.org/2000/svg" width="228" height="228" viewBox="0 0 228 228" fill="none"><rect width="228" height="228" rx="114" fill="#1D49C3"></rect><path fill-rule="evenodd" clip-rule="evenodd" d="M114.002 158.67C109.51 158.67 105.486 155.233 102.768 149.804C97.6953 153.148 92.4971 154.111 88.6051 151.862C84.7196 149.619 82.9517 144.625 83.308 138.57C77.2457 138.926 72.2585 137.165 70.0157 133.273C67.7729 129.387 68.7359 124.182 72.0805 119.116C66.6515 116.398 63.2146 112.374 63.2146 107.882C63.2146 103.39 66.6515 99.3659 72.0805 96.6482C68.736 91.5819 67.7729 86.3772 70.0223 82.4917C72.2651 78.5997 77.2589 76.8383 83.3146 77.1946C82.9583 71.1324 84.7197 66.1452 88.6117 63.9023C92.4971 61.6595 97.7019 62.6226 102.775 65.9606C105.493 60.5316 109.516 57.0947 114.009 57.0947C118.501 57.0947 122.525 60.5316 125.243 65.9606C130.316 62.6226 135.514 61.6529 139.406 63.9023C143.298 66.1452 145.059 71.139 144.703 77.1946C150.765 76.8384 155.752 78.5997 157.995 82.4917C160.238 86.3772 159.275 91.5819 155.937 96.6482C161.366 99.366 164.803 103.39 164.803 107.882C164.803 112.374 161.366 116.399 155.937 119.116C159.275 124.182 160.245 129.387 157.995 133.273C155.752 137.165 150.759 138.926 144.703 138.57C145.059 144.632 143.298 149.619 139.406 151.862C135.514 154.105 130.316 153.142 125.243 149.804C122.518 155.233 118.494 158.67 114.002 158.67ZM114.002 72.9591C104.358 72.9591 95.6303 76.8709 89.311 83.1839C82.9913 89.5036 79.0861 98.231 79.0861 107.875C79.0861 117.519 82.9979 126.247 89.311 132.566C95.6306 138.886 104.358 142.791 114.002 142.791C123.646 142.791 132.374 138.879 138.693 132.566C145.013 126.247 148.918 117.519 148.918 107.875C148.918 98.231 145.006 89.5032 138.693 83.1839C132.374 76.8709 123.646 72.9591 114.002 72.9591ZM117.729 88.4481C117.465 87.6367 116.964 86.9573 116.311 86.4822C115.651 86.0007 114.853 85.7302 114.002 85.7302C113.151 85.7302 112.353 86.0007 111.693 86.4822C111.04 86.9572 110.539 87.6366 110.275 88.4481L106.798 99.2139C106.752 99.359 106.667 99.4777 106.554 99.5569C106.442 99.6426 106.297 99.6822 106.145 99.6822L94.8387 99.6624C93.9812 99.6624 93.183 99.9263 92.5299 100.395C91.8768 100.87 91.3755 101.542 91.1116 102.361C90.8477 103.179 90.8543 104.016 91.105 104.788C91.3557 105.56 91.8438 106.246 92.5365 106.747L101.699 113.377C101.825 113.469 101.917 113.588 101.957 113.713C101.996 113.839 101.996 113.991 101.95 114.142L98.434 124.895C98.1701 125.706 98.1767 126.544 98.4274 127.316C98.6781 128.088 99.1662 128.78 99.8589 129.282C100.552 129.783 101.35 130.034 102.161 130.034C102.966 130.034 103.771 129.783 104.463 129.275L113.6 122.613C113.719 122.527 113.864 122.481 114.002 122.481C114.147 122.481 114.286 122.527 114.405 122.613L123.541 129.275C124.234 129.783 125.039 130.034 125.843 130.034C126.655 130.034 127.46 129.783 128.146 129.282C128.838 128.78 129.326 128.088 129.577 127.316C129.828 126.544 129.834 125.706 129.571 124.895L126.055 114.142C126.008 113.991 126.002 113.845 126.048 113.713C126.088 113.588 126.173 113.469 126.305 113.377L135.468 106.747C136.161 106.246 136.649 105.56 136.9 104.788C137.15 104.023 137.157 103.179 136.893 102.361C136.629 101.543 136.128 100.87 135.475 100.395C134.828 99.9263 134.03 99.6558 133.166 99.6624L121.859 99.6822C121.707 99.6822 121.562 99.636 121.45 99.5569C121.338 99.4777 121.252 99.359 121.206 99.2139L117.729 88.4481ZM118.125 100.203L114.649 89.4375C114.602 89.2858 114.517 89.1671 114.404 89.0879C114.299 89.0154 114.16 88.9692 113.995 88.9692C113.831 88.9692 113.692 89.0088 113.586 89.0879C113.481 89.1671 113.395 89.2858 113.342 89.4375L109.866 100.203C109.602 101.028 109.101 101.707 108.448 102.176C107.795 102.644 107.003 102.915 106.139 102.915L94.8322 102.895C94.6804 102.895 94.5353 102.941 94.4232 103.02C94.311 103.099 94.2253 103.218 94.1791 103.363C94.1329 103.508 94.1329 103.66 94.1725 103.792C94.2121 103.917 94.2978 104.036 94.4298 104.128L103.593 110.758C104.285 111.259 104.773 111.945 105.031 112.717C105.281 113.489 105.288 114.334 105.024 115.145L101.508 125.897C101.462 126.049 101.455 126.201 101.501 126.326C101.541 126.452 101.627 126.564 101.752 126.656C101.884 126.748 102.023 126.801 102.155 126.801C102.293 126.801 102.432 126.755 102.557 126.663L111.693 120C112.393 119.492 113.197 119.235 113.996 119.235C114.8 119.235 115.599 119.492 116.298 120L125.434 126.663C125.56 126.755 125.705 126.801 125.837 126.801C125.969 126.801 126.107 126.755 126.239 126.656C126.365 126.564 126.457 126.445 126.49 126.326C126.529 126.201 126.529 126.049 126.483 125.897L122.967 115.145C122.697 114.334 122.71 113.489 122.961 112.717C123.211 111.946 123.7 111.259 124.399 110.758L133.562 104.128C133.687 104.036 133.779 103.917 133.819 103.792C133.858 103.667 133.858 103.515 133.812 103.363C133.766 103.218 133.68 103.099 133.568 103.014C133.456 102.928 133.317 102.888 133.159 102.888L121.852 102.908C120.995 102.908 120.197 102.644 119.544 102.169C118.891 101.701 118.389 101.021 118.125 100.203ZM136.397 85.4795C130.665 79.747 122.742 76.2045 113.994 76.2045C105.247 76.2045 97.3245 79.7536 91.5982 85.4795C85.8657 91.2119 82.3232 99.1345 82.3232 107.876C82.3232 116.623 85.8723 124.545 91.5982 130.279C97.3306 136.011 105.253 139.553 113.994 139.553C122.742 139.553 130.664 136.011 136.397 130.279C142.13 124.546 145.672 116.623 145.672 107.876C145.679 99.135 142.136 91.2124 136.397 85.4795ZM115.703 161.791C115.149 161.87 114.582 161.909 114.001 161.909C108.632 161.909 104.443 158.466 101.586 154.211C96.9885 156.46 91.6255 157.351 86.9881 154.673C85.1543 153.617 83.749 152.186 82.7002 150.53L73.8342 183.613L93.7952 176.336L107.444 192.624L115.703 161.791ZM119.358 160.682L115.677 174.41L120.552 192.61L134.2 176.322L154.161 183.599L145.295 150.516C144.247 152.172 142.835 153.603 141.008 154.659C136.37 157.337 131 156.446 126.409 154.197C124.595 156.921 122.227 159.31 119.358 160.682ZM115.624 50.142C115.624 51.0392 114.899 51.7648 114.002 51.7648C113.104 51.7648 112.379 51.0392 112.379 50.142V41.916C112.379 41.0188 113.104 40.2932 114.002 40.2932C114.899 40.2932 115.624 41.0188 115.624 41.916V50.142ZM144.274 58.6913L148.384 51.5668C148.832 50.795 148.568 49.8054 147.797 49.3569C147.025 48.9084 146.035 49.1722 145.587 49.944L141.477 57.0685C141.028 57.8403 141.292 58.8299 142.064 59.2784C142.836 59.727 143.825 59.4631 144.274 58.6913ZM164.809 80.4136L171.934 76.3039C172.705 75.8619 172.976 74.8724 172.527 74.1006C172.085 73.3288 171.096 73.0583 170.324 73.5069L163.199 77.6166C162.428 78.0586 162.157 79.0481 162.606 79.8199C163.048 80.5851 164.037 80.8556 164.809 80.4136ZM171.742 109.499C170.852 109.499 170.126 108.773 170.126 107.883C170.126 106.992 170.852 106.267 171.742 106.267H179.968C180.859 106.267 181.584 106.992 181.584 107.883C181.584 108.773 180.859 109.499 179.968 109.499H171.742ZM163.193 138.155L170.317 142.265C171.089 142.714 172.079 142.45 172.527 141.678C172.976 140.906 172.712 139.917 171.94 139.468L164.816 135.358C164.044 134.91 163.054 135.174 162.606 135.945C162.157 136.717 162.421 137.707 163.193 138.155ZM63.1938 135.352L56.0693 139.461C55.2975 139.903 55.027 140.893 55.4756 141.665C55.9176 142.436 56.9071 142.707 57.6789 142.258L64.8034 138.149C65.5752 137.707 65.8457 136.717 65.3971 135.945C64.9551 135.173 63.9656 134.91 63.1938 135.352ZM56.2606 106.266C57.1512 106.266 57.8768 106.992 57.8768 107.883C57.8768 108.773 57.1512 109.499 56.2606 109.499H48.0346C47.144 109.499 46.4184 108.773 46.4184 107.883C46.4184 106.992 47.144 106.266 48.0346 106.266H56.2606ZM64.8099 77.6167L57.6854 73.507C56.9136 73.0584 55.9241 73.3223 55.4755 74.0941C55.027 74.8659 55.2908 75.8555 56.0627 76.304L63.1871 80.4137C63.9589 80.8623 64.9485 80.5985 65.397 79.8266C65.8456 79.0482 65.5817 78.0587 64.8099 77.6167ZM86.5323 57.0748L82.4225 49.9503C81.9806 49.1785 80.9911 48.9081 80.2192 49.3566C79.4474 49.7986 79.177 50.7881 79.6255 51.5599L83.7353 58.6844C84.1772 59.4562 85.1667 59.7267 85.9386 59.2781C86.7104 58.8361 86.9743 57.8466 86.5323 57.0748ZM100.623 51.6919C100.854 52.5561 100.339 53.4467 99.475 53.6776C98.6109 53.9085 97.7268 53.3939 97.496 52.5297L93.4654 37.4168C93.2346 36.5526 93.7491 35.6686 94.6133 35.4312C95.4774 35.2003 96.3615 35.7148 96.5923 36.579L100.623 51.6919ZM130.505 52.5297C130.274 53.3939 129.39 53.9084 128.526 53.6775C127.662 53.4466 127.147 52.5561 127.378 51.6919L131.442 36.5856C131.673 35.7214 132.563 35.2068 133.421 35.4377C134.285 35.6686 134.8 36.5592 134.569 37.4234L130.505 52.5297ZM155.968 68.2033L167.037 57.1538C167.671 56.5272 167.677 55.5047 167.044 54.8713C166.417 54.238 165.388 54.238 164.761 54.8647L153.692 65.9142C153.059 66.5409 153.059 67.57 153.686 68.1967C154.312 68.83 155.335 68.83 155.968 68.2033ZM170.191 94.5039C169.326 94.7347 168.442 94.2202 168.205 93.356C167.974 92.4919 168.489 91.6013 169.353 91.377L184.466 87.3465C185.33 87.1156 186.214 87.6301 186.445 88.4943C186.676 89.3584 186.161 90.2425 185.297 90.4733L170.191 94.5039ZM169.353 124.386C168.489 124.155 167.974 123.271 168.205 122.407C168.436 121.543 169.326 121.028 170.191 121.259L185.297 125.323C186.161 125.554 186.676 126.444 186.445 127.308C186.214 128.173 185.323 128.687 184.466 128.456L169.353 124.386ZM57.8094 121.259C58.6736 121.028 59.5642 121.543 59.795 122.407C60.0259 123.271 59.5114 124.155 58.6472 124.386L43.5343 128.417C42.6701 128.648 41.7861 128.133 41.5552 127.269C41.3244 126.405 41.8389 125.521 42.7031 125.29L57.8094 121.259ZM58.6472 91.377C59.5113 91.6079 60.0259 92.4918 59.795 93.356C59.5641 94.2202 58.6736 94.7347 57.8094 94.5038L42.703 90.4404C41.8389 90.2095 41.3243 89.3189 41.5552 88.4547C41.7861 87.5906 42.6766 87.076 43.5408 87.3069L58.6472 91.377ZM74.3208 65.914L63.2713 54.8448C62.6446 54.2115 61.6221 54.2115 60.9888 54.8382C60.3554 55.4649 60.3555 56.494 60.9822 57.1207L72.0317 68.19C72.6583 68.8232 73.6874 68.8232 74.3142 68.1965C74.9409 67.5699 74.9475 66.5474 74.3208 65.914Z" fill="white"></path></svg>