<svg width="56" height="56" viewBox="0 0 56 56" fill="none" xmlns="http://www.w3.org/2000/svg">
<g clip-path="url(#clip0_125_14)">
<rect width="56" height="56" fill="#FF5700"/>
<circle cx="7.87262" cy="21.0919" r="41.5381" transform="rotate(-0.403168 7.87262 21.0919)" fill="url(#paint0_linear_125_14)" stroke="url(#paint1_linear_125_14)" stroke-width="0.085853"/>
<circle cx="28.0909" cy="50.775" r="41.5381" transform="rotate(-0.403168 28.0909 50.775)" fill="url(#paint2_linear_125_14)" stroke="url(#paint3_radial_125_14)" stroke-width="0.085853"/>
<g clip-path="url(#clip1_125_14)">
<path d="M41.7654 23.9629C41.6422 23.5762 41.4054 23.2356 41.0857 22.9855C40.7661 22.7354 40.3784 22.5875 39.9733 22.561L32.6485 22.0484L29.9313 15.2063C29.7841 14.828 29.5264 14.503 29.1913 14.2738C28.8565 14.0446 28.4601 13.922 28.0542 13.9219H28.0523C27.6471 13.9226 27.2516 14.0456 26.9174 14.2747C26.5832 14.5039 26.3259 14.8286 26.1792 15.2063L23.4216 22.0879L16.1372 22.561C15.7321 22.5874 15.3445 22.7354 15.0248 22.9855C14.7051 23.2356 14.4682 23.5762 14.345 23.9629C14.215 24.3552 14.2062 24.7775 14.3196 25.1748C14.4331 25.5721 14.6635 25.9261 14.9809 26.1907L20.5849 30.9274L18.918 37.4843C18.8031 37.9259 18.8242 38.392 18.9786 38.8216C19.133 39.251 19.4134 39.6238 19.7832 39.8912C20.1403 40.151 20.5672 40.2973 21.0085 40.311C21.4499 40.3248 21.8851 40.2054 22.2576 39.9683L28.0389 36.3059C28.0465 36.3002 28.0542 36.2963 28.0717 36.3059L34.2923 40.2469C34.6299 40.4626 35.0249 40.5714 35.4254 40.559C35.8261 40.5466 36.2136 40.4136 36.5373 40.1774C36.8725 39.9352 37.1265 39.5974 37.2665 39.2085C37.4064 38.8194 37.4256 38.3971 37.3216 37.997L35.5507 30.8339L41.1296 26.1907C41.447 25.9261 41.6774 25.5721 41.7909 25.1748C41.9043 24.7775 41.8955 24.3552 41.7654 23.9629Z" fill="white"/>
</g>
</g>
<defs>
<linearGradient id="paint0_linear_125_14" x1="7.87262" y1="-20.4892" x2="7.87262" y2="62.673" gradientUnits="userSpaceOnUse">
<stop stop-color="#FF5700" stop-opacity="0.56"/>
<stop offset="1" stop-color="white" stop-opacity="0.2"/>
</linearGradient>
<linearGradient id="paint1_linear_125_14" x1="51.4246" y1="16.9578" x2="-44.9089" y2="38.3012" gradientUnits="userSpaceOnUse">
<stop stop-color="#FFD3BC"/>
<stop offset="1" stop-color="#FFD9C6" stop-opacity="0"/>
</linearGradient>
<linearGradient id="paint2_linear_125_14" x1="28.0909" y1="9.19393" x2="28.0909" y2="92.3561" gradientUnits="userSpaceOnUse">
<stop stop-color="#FFCDB3" stop-opacity="0.5"/>
<stop offset="1" stop-color="#FF935A" stop-opacity="0.08"/>
</linearGradient>
<radialGradient id="paint3_radial_125_14" cx="0" cy="0" r="1" gradientUnits="userSpaceOnUse" gradientTransform="translate(28.0909 50.775) rotate(89.968) scale(86.1425)">
<stop offset="0.046875" stop-color="white" stop-opacity="0.06"/>
<stop offset="1" stop-color="#FFD1B9"/>
</radialGradient>
<clipPath id="clip0_125_14">
<rect width="56" height="56" fill="white"/>
</clipPath>
<clipPath id="clip1_125_14">
<rect width="32" height="32" fill="white" transform="translate(12 12)"/>
</clipPath>
</defs>
</svg>
