<svg xmlns="http://www.w3.org/2000/svg" width="228" height="228" viewBox="0 0 228 228" fill="none"><rect width="228" height="228" rx="114" fill="#1D49C3"></rect><path d="M54.607 178.512C56.8766 176.072 59.8004 172.798 63.6987 168.322C64.4163 167.471 65.8548 167.838 66.0351 168.976C66.6025 172.504 67.8808 175.128 69.2992 176.216C70.3873 177.067 71.1049 176.566 71.7791 175.515C73.3678 173.018 74.3824 167.304 73.7483 157.103C73.4546 152.43 70.9747 150.224 66.3021 150.461C56.149 150.982 50.5986 152.617 48.2689 154.473C47.3143 155.241 46.8404 156.005 47.7849 157.01C48.9565 158.248 51.5598 159.213 54.9575 159.443C56.0656 159.52 56.623 160.862 55.8453 161.686C55.3914 162.17 51.6933 166.446 48.0386 171.63C46.0828 174.417 44.1436 177.454 42.7718 180.245C38.8835 188.192 45.0047 187.718 49.6407 183.529C50.8322 182.458 52.3842 180.909 54.607 178.512ZM178.51 173.395C176.07 171.136 172.796 168.202 168.32 164.303C167.459 163.586 167.829 162.157 168.974 161.977C172.492 161.399 175.115 160.121 176.213 158.702C177.064 157.614 176.564 156.897 175.512 156.222C173.016 154.633 167.302 153.619 157.102 154.253C152.419 154.547 150.223 157.027 150.46 161.7C150.971 171.853 152.616 177.408 154.472 179.734C155.24 180.689 156.004 181.163 157.009 180.218C158.247 179.046 159.211 176.443 159.442 173.045C159.565 171.9 160.85 171.379 161.685 172.164C162.159 172.608 166.444 176.309 171.627 179.961C174.418 181.92 177.455 183.86 180.245 185.231C188.192 189.13 187.718 182.998 183.529 178.362C182.455 177.171 180.903 175.618 178.51 173.395ZM173.39 49.4849C171.12 51.9249 168.196 55.1993 164.298 59.6753C163.58 60.5365 162.142 60.166 161.962 59.0211C161.394 55.503 160.116 52.8795 158.697 51.7813C157.609 50.9302 156.892 51.4309 156.218 52.4923C154.629 54.9823 153.618 60.6967 154.248 70.8938C154.542 75.5768 157.012 77.7731 161.695 77.5361C171.838 77.0254 177.401 75.3798 179.718 73.524C180.682 72.7563 181.156 71.9919 180.208 70.9973C179.034 69.7489 176.434 68.7843 173.026 68.5573C172.041 68.6241 171.35 67.1654 172.145 66.3143C172.599 65.8403 176.297 61.5645 179.941 56.3709C181.911 53.5804 183.84 50.553 185.211 47.7526C189.11 39.8052 182.989 40.2858 178.353 44.4681C177.168 45.5496 175.616 47.0917 173.39 49.4849ZM49.4905 54.6051C51.9303 56.8749 55.2045 59.7988 59.6802 63.6974C60.5313 64.4251 60.1642 65.8536 59.0261 66.0339C55.5082 66.6013 52.8748 67.8897 51.7868 69.2983C50.9357 70.3964 51.4363 71.1041 52.4877 71.7783C54.9842 73.3671 60.6982 74.3785 70.898 73.7476C75.5806 73.4539 77.7768 70.9839 77.5398 66.3009C77.0192 56.1572 75.3837 50.5931 73.528 48.2766C72.7604 47.322 71.996 46.838 70.9914 47.7859C69.7532 48.9575 68.7886 51.561 68.5583 54.9656C68.5583 56.1005 67.3 56.7714 66.3154 55.8468C65.8415 55.4029 61.556 51.6945 56.3726 48.0496C53.5824 46.0803 50.5452 44.151 47.7549 42.7792C39.808 38.8806 40.282 45.0022 44.4707 49.6384C45.5454 50.83 47.0974 52.3821 49.4905 54.6051ZM130.541 152.36C135.745 147.374 139.443 140.514 140.814 133.789C142.45 125.811 138.365 120.117 131.846 116.702C121.847 111.462 106.15 111.462 96.1504 116.702C89.632 120.117 85.5434 125.815 87.1722 133.789C88.554 140.514 92.2521 147.377 97.4554 152.36C107.598 162.107 120.402 162.107 130.541 152.36ZM129.056 82.9601C129.056 75.8738 125.178 71.3511 120.211 69.3817C116.313 67.8296 111.687 67.8296 107.779 69.3817C102.822 71.3511 98.9407 75.8738 98.9407 82.9601C98.9407 89.2419 103.246 99.8696 108.6 103.558C112.054 105.931 115.942 105.931 119.394 103.558C124.754 99.8696 129.056 89.2452 129.056 82.9601ZM151.431 67.339C151.261 60.6032 151.922 55.977 153.01 53.0697C141.752 45.84 128.365 41.651 113.993 41.651C100.853 41.651 88.5339 45.1624 77.9103 51.284C78.9316 54.4149 79.736 58.8075 80.1131 64.7021C89.7455 58.0698 101.421 54.1812 113.993 54.1812C128.168 54.1779 141.185 59.1079 151.431 67.339ZM160.657 151.436C167.392 151.266 172.018 151.926 174.932 153.015C182.151 141.756 186.343 128.368 186.343 114.005C186.343 100.864 182.832 88.5343 176.711 77.9199C173.58 78.9313 169.188 79.7357 163.293 80.1162C169.925 89.7492 173.813 101.425 173.813 114.009C173.817 128.168 168.887 141.189 160.657 151.436ZM76.5686 160.668C76.7388 167.394 76.078 172.024 74.9899 174.938C86.2477 182.157 99.6349 186.35 113.997 186.35C127.147 186.35 139.466 182.838 150.09 176.717C149.068 173.586 148.264 169.203 147.887 163.298C138.254 169.941 126.579 173.819 113.997 173.819C99.8318 173.819 86.8151 168.899 76.5686 160.668ZM51.2895 150.091C54.4201 149.069 58.8124 148.265 64.7067 147.888C58.0748 138.255 54.1865 126.579 54.1865 114.005C54.1865 99.8328 59.1062 86.8219 67.3467 76.5748C60.6114 76.735 55.9855 76.0741 53.0717 74.996C45.8525 86.2445 41.6604 99.6326 41.6604 114.005C41.6571 127.146 45.1683 139.466 51.2895 150.091Z" fill="white"></path></svg>