<svg width="24" height="24" viewBox="0 0 24 24" fill="none" xmlns="http://www.w3.org/2000/svg" class="{{class-name}}"><path fill-rule="evenodd" clip-rule="evenodd" d="M17.7008 1.9092C18.9131 0.696933 20.8785 0.696935 22.0908 1.9092C23.3031 3.12147 23.3031 5.08694 22.0908 6.29921L12.5805 15.8095C12.5608 15.8292 12.5413 15.8487 12.522 15.8681C12.2361 16.1545 11.984 16.407 11.6802 16.5933C11.4132 16.7568 11.1222 16.8774 10.8178 16.9505C10.4712 17.0337 10.1145 17.0333 9.70978 17.033C9.68239 17.0329 9.65478 17.0329 9.62694 17.0329H7.96158C7.41233 17.0329 6.96707 16.5876 6.96707 16.0384V14.3731C6.96707 14.3452 6.96704 14.3176 6.96702 14.2902C6.96664 13.8855 6.96631 13.5288 7.0495 13.1822C7.12259 12.8778 7.24314 12.5868 7.40672 12.3198C7.59293 12.016 7.84545 11.7639 8.13186 11.478C8.15125 11.4587 8.17079 11.4392 8.19048 11.4195L17.7008 1.9092ZM20.6843 3.31566C20.2488 2.88016 19.5428 2.88016 19.1073 3.31566L9.59693 12.826C9.21945 13.2034 9.14985 13.2821 9.10265 13.3591C9.04812 13.4481 9.00794 13.5451 8.98358 13.6466C8.96249 13.7344 8.9561 13.8392 8.9561 14.3731V15.0439H9.62694C10.1608 15.0439 10.2656 15.0375 10.3534 15.0164C10.4549 14.992 10.5519 14.9519 10.6409 14.8973C10.7179 14.8501 10.7966 14.7805 11.174 14.403L20.6843 4.89275C21.1198 4.45725 21.1198 3.75116 20.6843 3.31566ZM6.72712 3.10969L10.9452 3.10969C11.4944 3.10969 11.9397 3.55495 11.9397 4.1042C11.9397 4.65346 11.4944 5.09872 10.9452 5.09872H6.76819C5.91631 5.09872 5.33721 5.09949 4.88959 5.13606C4.45358 5.17169 4.2306 5.23626 4.07506 5.31551C3.7008 5.50621 3.39652 5.81049 3.20582 6.18475C3.12657 6.34029 3.062 6.56326 3.02638 6.99928C2.98981 7.4469 2.98903 8.026 2.98903 8.87788V17.2318C2.98903 18.0837 2.98981 18.6628 3.02638 19.1104C3.062 19.5464 3.12657 19.7694 3.20582 19.9249C3.39652 20.2992 3.7008 20.6035 4.07506 20.7942C4.2306 20.8734 4.45358 20.938 4.88959 20.9736C5.33721 21.0102 5.91631 21.011 6.76819 21.011H15.1221C15.974 21.011 16.5531 21.0102 17.0007 20.9736C17.4367 20.938 17.6597 20.8734 17.8153 20.7942C18.1895 20.6035 18.4938 20.2992 18.6845 19.9249C18.7637 19.7694 18.8283 19.5464 18.8639 19.1104C18.9005 18.6628 18.9013 18.0837 18.9013 17.2318V13.0548C18.9013 12.5056 19.3465 12.0603 19.8958 12.0603C20.4451 12.0603 20.8903 12.5056 20.8903 13.0548V17.2729C20.8903 18.0735 20.8903 18.7342 20.8464 19.2724C20.8007 19.8314 20.7027 20.3453 20.4567 20.8279C20.0753 21.5765 19.4668 22.185 18.7183 22.5664C18.2356 22.8124 17.7217 22.9104 17.1627 22.956C16.6245 23 15.9638 23 15.1632 23H6.72709C5.92655 23 5.26584 23 4.72762 22.956C4.1686 22.9104 3.65473 22.8124 3.17206 22.5664C2.42354 22.185 1.81497 21.5765 1.43358 20.8279C1.18765 20.3453 1.08963 19.8314 1.04395 19.2724C0.999977 18.7342 0.999988 18.0734 1 17.2729V8.83681C0.999988 8.03625 0.999977 7.37553 1.04395 6.83731C1.08963 6.27829 1.18765 5.76442 1.43358 5.28175C1.81497 4.53323 2.42354 3.92466 3.17206 3.54327C3.65473 3.29734 4.1686 3.19931 4.72762 3.15364C5.26585 3.10966 5.92656 3.10967 6.72712 3.10969Z" fill="#0B0C0F"/></svg>