<svg width="56" height="56" viewBox="0 0 56 56" fill="none" xmlns="http://www.w3.org/2000/svg">
<g clip-path="url(#clip0_125_23)">
<rect width="56" height="56" fill="#FF5700"/>
<circle cx="7.87262" cy="21.2874" r="41.5381" transform="rotate(-0.403168 7.87262 21.2874)" fill="url(#paint0_linear_125_23)" stroke="url(#paint1_linear_125_23)" stroke-width="0.085853"/>
<circle cx="28.0909" cy="50.9706" r="41.5381" transform="rotate(-0.403168 28.0909 50.9706)" fill="url(#paint2_linear_125_23)" stroke="url(#paint3_radial_125_23)" stroke-width="0.085853"/>
<g clip-path="url(#clip1_125_23)">
<path d="M39.3637 33.7815L28.0706 40.3692L16.7774 33.7815C16.5524 33.6503 16.2844 33.6138 16.0324 33.6801C15.7805 33.7463 15.5652 33.91 15.4339 34.1351C15.3026 34.3601 15.2661 34.6281 15.3324 34.8801C15.3987 35.1321 15.5623 35.3473 15.7874 35.4786L27.5756 42.3551C27.7258 42.4426 27.8967 42.4889 28.0706 42.4889C28.2445 42.4889 28.4154 42.4426 28.5656 42.3551L40.3538 35.4786C40.4652 35.4137 40.5628 35.3273 40.6408 35.2245C40.7189 35.1218 40.776 35.0049 40.8088 34.8801C40.8416 34.7553 40.8496 34.6253 40.8322 34.4975C40.8148 34.3697 40.7724 34.2465 40.7072 34.1351C40.6423 34.0236 40.556 33.9261 40.4533 33.8481C40.3506 33.77 40.2335 33.7129 40.1087 33.6801C39.984 33.6473 39.854 33.6393 39.7261 33.6567C39.5983 33.6741 39.4752 33.7165 39.3637 33.7815Z" fill="white"/>
<path d="M39.3637 27.8874L28.0706 34.4751L16.7774 27.8874C16.5524 27.7561 16.2844 27.7196 16.0324 27.7859C15.7805 27.8522 15.5652 28.0159 15.4339 28.2408C15.3026 28.4659 15.2661 28.7339 15.3324 28.9859C15.3987 29.2378 15.5623 29.4531 15.7874 29.5845L27.5756 36.4608C27.7258 36.5485 27.8967 36.5947 28.0706 36.5947C28.2445 36.5947 28.4154 36.5485 28.5656 36.4608L40.3538 29.5845C40.5788 29.4531 40.7424 29.2378 40.8088 28.9859C40.8751 28.7339 40.8386 28.4659 40.7072 28.2408C40.576 28.0159 40.3607 27.8522 40.1087 27.7859C39.8568 27.7196 39.5888 27.7561 39.3637 27.8874Z" fill="white"/>
<path d="M15.7874 23.6905L27.5756 30.567C27.7258 30.6545 27.8966 30.7008 28.0706 30.7008C28.2445 30.7008 28.4154 30.6545 28.5656 30.567L40.3538 23.6905C40.5021 23.604 40.6252 23.4801 40.7106 23.3312C40.7962 23.1823 40.8412 23.0136 40.8412 22.842C40.8412 22.6703 40.7962 22.5016 40.7106 22.3527C40.6252 22.2038 40.5021 22.0799 40.3538 21.9934L28.5656 15.117C28.4154 15.0293 28.2445 14.9832 28.0706 14.9832C27.8966 14.9832 27.7258 15.0293 27.5756 15.117L15.7874 21.9934C15.6391 22.0799 15.5161 22.2038 15.4305 22.3527C15.345 22.5016 15.3 22.6703 15.3 22.842C15.3 23.0136 15.345 23.1823 15.4305 23.3312C15.5161 23.4801 15.6391 23.604 15.7874 23.6905Z" fill="white"/>
</g>
</g>
<defs>
<linearGradient id="paint0_linear_125_23" x1="7.87262" y1="-20.2936" x2="7.87262" y2="62.8685" gradientUnits="userSpaceOnUse">
<stop stop-color="#FF5700" stop-opacity="0.56"/>
<stop offset="1" stop-color="white" stop-opacity="0.2"/>
</linearGradient>
<linearGradient id="paint1_linear_125_23" x1="51.4246" y1="17.1534" x2="-44.9089" y2="38.4967" gradientUnits="userSpaceOnUse">
<stop stop-color="#FFD3BC"/>
<stop offset="1" stop-color="#FFD9C6" stop-opacity="0"/>
</linearGradient>
<linearGradient id="paint2_linear_125_23" x1="28.0909" y1="9.38949" x2="28.0909" y2="92.5516" gradientUnits="userSpaceOnUse">
<stop stop-color="#FFCDB3" stop-opacity="0.5"/>
<stop offset="1" stop-color="#FF935A" stop-opacity="0.08"/>
</linearGradient>
<radialGradient id="paint3_radial_125_23" cx="0" cy="0" r="1" gradientUnits="userSpaceOnUse" gradientTransform="translate(28.0909 50.9706) rotate(89.968) scale(86.1425)">
<stop offset="0.046875" stop-color="white" stop-opacity="0.06"/>
<stop offset="1" stop-color="#FFD1B9"/>
</radialGradient>
<clipPath id="clip0_125_23">
<rect width="56" height="56" fill="white"/>
</clipPath>
<clipPath id="clip1_125_23">
<rect width="32" height="32" fill="white" transform="translate(12 12)"/>
</clipPath>
</defs>
</svg>
