<svg xmlns="http://www.w3.org/2000/svg" width="160" height="181" viewBox="0 0 160 181" fill="none"><path d="M90.5 0L150.689 34.75V104.25L90.5 139L30.3112 104.25V34.75L90.5 0Z" fill="#F4EBFC"></path><circle cx="73" cy="104" r="41" fill="#F4EBFC"></circle><path d="M65.2508 31.1816C63.198 31.7095 61.849 32.7945 60.8226 34.7301C60.3534 35.6098 60.2654 36.6949 60.1187 42.0323L59.9721 48.3081L57.626 48.9533C53.1098 50.185 48.183 52.2671 43.9307 54.7305L42.2298 55.6983L37.9188 51.3873C33.4319 46.9298 32.3175 46.1673 30.294 46.1673C27.6546 46.1673 27.1267 46.5485 21.6134 51.9739C15.9828 57.5752 15.2496 58.6016 15.2496 61.065C15.2496 63.5577 15.8362 64.4668 20.3817 69.0417L24.634 73.294L23.0211 76.2267C20.9096 80.0391 19.5606 83.3236 18.2409 87.7225L17.1558 91.3297H10.9973C4.01769 91.3297 3.19656 91.5349 1.55429 93.4998C0.146631 95.23 0 96.1685 0 103.969C0 111.858 0.146631 112.533 1.93553 114.292C3.66578 116.022 3.98837 116.11 10.9094 116.198L17.3025 116.286L17.5957 117.518C18.6808 121.946 21.1149 127.987 23.4023 131.946L24.6047 133.97L20.4404 138.252C18.1236 140.598 16.0414 142.973 15.7482 143.589C15.0737 145.026 15.103 147.665 15.8068 149.044C16.1294 149.63 18.7981 152.533 21.7601 155.437C26.8628 160.51 27.2147 160.774 28.6517 161.097C31.8483 161.742 33.08 161.097 38.2414 155.877L42.3177 151.771L43.8134 152.68C47.5964 154.909 53.7256 157.46 58.1246 158.633L60.0601 159.161L60.1774 165.349C60.2947 172.094 60.4413 172.827 62.0543 174.44C63.8725 176.258 64.4883 176.376 72.729 176.376C79.3274 176.376 80.3538 176.288 81.3802 175.818C82.6413 175.261 84.2835 173.56 84.8114 172.299C85.0167 171.859 85.1927 168.927 85.2806 165.32L85.3979 159.132L86.8936 158.751C87.744 158.575 89.093 158.164 89.9142 157.871L91.4391 157.372L91.9084 159.191C94.4891 168.692 101.997 176.346 111.733 179.455C115.076 180.511 116.601 180.54 117.334 179.631C118.625 178.047 117.627 176.376 115.047 175.818C105.369 173.678 97.7149 165.877 95.7501 156.17C95.3395 154.264 95.2809 152.827 95.3982 150.011C95.5741 145.671 96.0434 143.765 97.8029 140.099C100.296 134.967 104.372 130.92 109.504 128.427C113.668 126.433 115.252 126.081 120.531 126.081C124.46 126.111 125.37 126.199 127.276 126.785C136.132 129.542 142.115 135.524 144.784 144.322C145.458 146.58 145.546 147.431 145.575 151.008C145.605 155.847 145.047 158.193 142.965 162.446C139.798 168.81 134.666 173.091 127.422 175.349C124.988 176.141 124.431 176.405 124.109 177.08C123.581 178.135 123.874 179.162 124.812 179.807C125.487 180.247 125.78 180.247 127.364 179.924C131.645 179.044 136.807 176.317 140.355 173.062C152.76 161.625 153.405 142.651 141.822 130.685C137.775 126.492 133.229 123.794 127.95 122.415C127.246 122.239 126.689 122.005 126.689 121.858C126.689 121.741 126.865 120.978 127.1 120.187C127.334 119.395 127.686 118.192 127.862 117.489L128.185 116.257H133.962C137.276 116.257 140.238 116.11 140.912 115.934C142.555 115.465 144.696 113.266 145.165 111.565C145.663 109.747 145.399 107.752 144.578 107.107C143.053 105.875 141.059 107.078 141.059 109.219C141.059 110.098 140.883 110.597 140.326 111.125L139.622 111.858H132.877H126.103L125.223 112.65C124.49 113.324 124.167 114.057 123.493 116.697C122.114 121.917 122.584 121.418 118.713 121.624C116.894 121.712 114.431 122.034 113.287 122.327C112.114 122.65 111.146 122.855 111.146 122.797C111.146 122.738 111.469 122.064 111.85 121.301C112.789 119.424 114.226 115.055 114.871 112.093C115.633 108.603 115.604 99.2477 114.841 95.7286C113.962 91.6816 112.965 88.7783 111.146 85.0245C108.947 80.479 106.425 76.9598 102.788 73.294C96.7765 67.2528 89.181 63.2351 80.5005 61.5342C76.9813 60.8304 69.2978 60.8304 65.4268 61.5342C52.1127 63.939 40.4702 72.6195 34.3997 84.6726C33.0213 87.4586 31.2324 92.9426 30.6166 96.3151C29.9127 100.215 29.9127 107.87 30.6166 111.418C33.08 123.94 40.1476 133.999 51.0276 140.539C57.714 144.527 64.8989 146.492 72.8756 146.522C79.0048 146.522 84.8114 145.319 89.6796 143.09C90.8819 142.504 91.9377 142.093 91.9963 142.152C92.055 142.24 91.879 143.061 91.6151 144C91.3805 144.938 91.0579 147.372 90.9699 149.366L90.7646 153.003L88.5945 153.677C87.3921 154.029 85.5446 154.557 84.4595 154.821C81.0577 155.642 81.1163 155.525 80.9404 163.765C80.7937 170.1 80.7351 170.804 80.2365 171.361C79.7087 171.947 79.4154 171.977 72.729 171.977C66.0426 171.977 65.7494 171.947 65.2215 171.361C64.723 170.804 64.6643 170.1 64.5177 163.765C64.3417 155.319 64.5177 155.671 60.324 154.645C55.1919 153.413 50.3238 151.36 45.0157 148.252C41.6726 146.287 41.7605 146.258 36.2472 151.712C31.3204 156.58 30.5872 157.138 29.7075 156.844C29.4142 156.727 27.0388 154.528 24.4287 151.918C20.3524 147.9 19.6486 147.079 19.6486 146.316C19.6486 145.554 20.3231 144.762 24.0768 141.038C26.5109 138.604 28.681 136.257 28.945 135.788C29.5902 134.556 29.2969 133.12 27.8892 130.832C25.1912 126.404 23.4903 122.357 21.9653 116.697C21.2615 114.116 20.9389 113.324 20.2351 112.65L19.3553 111.858H12.6396C6.30514 111.858 5.89457 111.829 5.16141 111.242L4.39893 110.656V103.764C4.39893 97.2829 4.42826 96.8723 4.98546 96.3151C5.54265 95.7579 5.95322 95.7286 11.7891 95.7286C15.2203 95.7286 18.5342 95.582 19.15 95.406C20.5577 95.0248 21.0269 94.2623 21.8774 90.9777C23.1384 85.9923 25.2205 81.0068 27.8599 76.6079C30.2353 72.6782 30.294 72.8541 24.4874 66.9889C20.1471 62.6193 19.6486 62.0034 19.6486 61.0943C19.6486 60.2145 20.1471 59.628 24.4287 55.3464C28.4171 51.358 29.3262 50.5662 30.0594 50.5662C30.7632 50.5662 31.7016 51.3287 35.6314 55.2291C38.2121 57.8098 40.6755 60.0386 41.1154 60.2145C42.1418 60.5958 43.2855 60.2439 45.7196 58.8362C50.4118 56.0502 54.3708 54.4079 59.9721 52.883C61.8197 52.3844 63.4619 51.7686 63.7845 51.4167C64.3417 50.8888 64.371 50.3609 64.5177 43.6745C64.635 37.3108 64.723 36.4603 65.1922 35.9911C65.6614 35.5219 66.4239 35.4632 72.2011 35.3752C79.3861 35.2873 80.1192 35.4046 80.6178 36.8415C80.8231 37.3694 80.9404 40.39 80.9404 44.1438C80.9404 52.0032 80.7351 51.5926 85.4859 52.883C91.0579 54.3786 95.0169 56.0502 99.7385 58.8362C102.173 60.2439 103.316 60.5958 104.343 60.2145C104.783 60.0386 107.246 57.8098 109.827 55.2291C113.756 51.3287 114.695 50.5662 115.399 50.5662C116.132 50.5662 117.041 51.358 121.029 55.3464C125.311 59.628 125.809 60.2145 125.809 61.0943C125.809 62.0034 125.311 62.6193 120.971 66.9889C115.164 72.8835 115.223 72.6195 117.686 76.8132C120.472 81.5933 122.085 85.5817 123.815 91.8869C124.842 95.6406 124.607 95.5526 133.2 95.7286C141.118 95.9045 141.059 95.8752 141.059 98.1333C141.059 100.362 143.259 101.477 144.725 99.9809C145.311 99.4237 145.458 98.9838 145.458 97.8694C145.458 96.2565 144.461 93.881 143.376 92.8839C141.851 91.5056 140.912 91.3297 134.343 91.3297H128.214L127.569 88.9249C126.308 84.262 124.021 78.778 121.821 75.1709L120.765 73.382L125.018 69.0711C127.569 66.5197 129.475 64.3202 129.769 63.675C130.326 62.2967 130.326 59.9506 129.769 58.5429C129.241 57.3406 120.883 48.7187 118.83 47.2817C117.95 46.6952 117.1 46.3726 115.985 46.2552C113.199 45.962 112.173 46.5778 107.275 51.3873L102.964 55.6103L100.941 54.4079C97.0698 52.1498 93.1107 50.5076 88.2719 49.0999L85.4859 48.3081L85.3393 42.1789C85.1927 37.2228 85.0754 35.8151 84.6648 34.8767C83.9903 33.381 83.1398 32.5013 81.6735 31.7095C80.5591 31.0936 80.0606 31.0643 73.3155 31.0056C69.3565 30.9763 65.7494 31.0643 65.2508 31.1816ZM70.3829 67.7221C70.3829 70.5374 70.7935 70.1855 67.0104 70.8013C64.5177 71.2119 61.3504 72.121 59.4149 73.0301L57.9486 73.7046L57.4794 72.9128C57.2154 72.4729 56.6582 71.5051 56.2184 70.772L55.4265 69.3936L57.8899 68.3379C60.6759 67.1649 65.1628 65.9331 68.1834 65.5519C69.3272 65.4053 70.2656 65.288 70.3243 65.2587C70.3536 65.2587 70.3829 66.3437 70.3829 67.7221ZM81.087 66.2264C83.3451 66.725 86.483 67.7514 88.6238 68.7191L90.0315 69.3643L89.2104 70.772C88.7705 71.5345 88.2133 72.4729 87.9786 72.8248L87.5094 73.4993L84.7528 72.4729C82.2894 71.5638 79.3274 70.86 75.8962 70.3614L74.7819 70.1855V67.898C74.7819 66.637 74.8405 65.5519 74.9285 65.4933C75.1338 65.288 78.7116 65.6985 81.087 66.2264ZM52.9631 73.9392L54.0482 75.8747L53.3444 76.4319C50.4997 78.6314 47.8311 81.3001 45.485 84.2914L44.8984 85.0245L42.9629 83.9981C41.8778 83.4409 40.9394 82.8544 40.8514 82.7371C40.6461 82.3852 43.6667 78.5728 45.9542 76.3146C48.183 74.1152 51.3502 71.6518 51.6728 71.857C51.7901 71.945 52.3766 72.8835 52.9631 73.9392ZM96.0727 73.2061C99.2106 75.5815 104.695 81.4467 104.695 82.4438C104.695 82.7077 101.146 84.8779 100.706 84.8779C100.56 84.8779 100.12 84.3793 99.7091 83.7928C98.712 82.2972 94.577 78.1915 92.8761 76.9598C92.1136 76.4319 91.5271 75.8161 91.5564 75.6695C91.7031 75.0829 93.6973 71.6811 93.8732 71.6811C93.9612 71.6811 94.9583 72.3556 96.0727 73.2061ZM79.6207 75.4642C83.785 76.5786 88.008 78.6314 90.53 80.7136C92.7881 82.6198 95.7794 85.699 96.8352 87.2826C102.29 95.318 103.346 106.11 99.5332 114.967C97.5097 119.659 97.8616 120.685 102.29 123.237L104.988 124.82L104.401 125.641C104.079 126.111 103.258 126.902 102.554 127.43C100.648 128.897 98.9173 130.597 97.2751 132.65C94.0492 136.697 86.5417 140.363 78.9168 141.624C74.9285 142.299 68.1541 142.123 64.5177 141.243C57.1568 139.454 50.793 135.964 45.7782 130.979C43.9893 129.16 40.7634 125.201 40.7634 124.791C40.7634 124.703 41.8778 123.97 43.2268 123.207C44.6052 122.445 46.0422 121.418 46.4527 120.92C47.4498 119.747 47.4498 118.104 46.4821 116.022C42.6696 107.84 42.9043 98.104 47.0686 90.2153C51.1449 82.4438 58.975 76.6666 67.3037 75.2296C68.2714 75.0536 69.3858 74.8483 69.7964 74.7897C71.4387 74.4964 77.6265 74.907 79.6207 75.4642ZM40.6168 87.7225C41.6726 88.3384 42.523 88.9836 42.523 89.2182C42.523 89.4234 42.3471 89.9513 42.1124 90.3912C41.3793 91.7989 40.2649 95.582 39.8837 97.8107C39.2678 101.711 39.6197 101.301 36.8337 101.301C34.4583 101.301 34.3997 101.271 34.4876 100.626C35.0155 96.8137 35.3674 94.9368 35.9246 92.9426C36.6284 90.5378 38.2707 86.6375 38.564 86.6375C38.652 86.6375 39.5904 87.136 40.6168 87.7225ZM108.155 88.749C109.68 92.532 110.589 95.9925 111 99.5996L111.176 101.301H108.712H106.22L106.014 99.5996C105.721 97.1069 104.841 93.6758 103.815 91.1537C103.316 89.922 102.964 88.8663 102.994 88.8369C103.375 88.485 106.689 86.6668 106.953 86.6375C107.129 86.6375 107.686 87.6052 108.155 88.749ZM39.4144 106.462C39.5024 106.726 39.5904 107.312 39.5904 107.752C39.5904 109.131 40.7048 113.53 41.6432 115.876C42.1418 117.078 42.523 118.163 42.523 118.31C42.523 118.456 41.6139 119.072 40.4702 119.747L38.4173 120.92L37.8015 119.541C36.2179 116.022 35.0448 111.477 34.517 106.931L34.3997 105.993H36.8337C38.7399 105.993 39.2678 106.081 39.4144 106.462ZM111 107.811C110.618 111.359 109.475 115.582 107.979 119.043C107.569 120.011 107.187 120.832 107.187 120.89C107.099 120.978 102.935 118.603 102.935 118.456C102.935 118.398 103.346 117.342 103.815 116.14C104.841 113.618 105.721 110.186 106.014 107.664L106.22 105.993H108.712H111.205L111 107.811Z" fill="#807E7E"></path><path d="M70.3831 67.7218C70.3831 70.5371 70.7936 70.1852 67.0106 70.8011C64.5178 71.2117 61.3506 72.1208 59.4151 73.0299L57.9488 73.7044L57.4796 72.9126C57.2156 72.4727 56.6584 71.5049 56.2185 70.7718L55.4267 69.3934L57.8901 68.3377C60.6761 67.1646 65.163 65.9329 68.1836 65.5517C69.3273 65.4051 70.2658 65.2878 70.3244 65.2584C70.3538 65.2584 70.3831 66.3435 70.3831 67.7218ZM81.0872 66.2262C83.3453 66.7247 86.4832 67.7512 88.624 68.7189L90.0316 69.3641L89.2105 70.7718C88.7706 71.5342 88.2134 72.4727 87.9788 72.8246L87.5096 73.4991L84.7529 72.4727C82.2895 71.5636 79.3276 70.8597 75.8964 70.3612L74.782 70.1852V67.8978C74.782 66.6368 74.8407 65.5517 74.9286 65.493C75.1339 65.2878 78.7117 65.6983 81.0872 66.2262ZM52.9633 73.939L54.0484 75.8745L53.3446 76.4317C50.4999 78.6312 47.8312 81.2999 45.4851 84.2911L44.8986 85.0243L42.9631 83.9979C41.878 83.4407 40.9396 82.8542 40.8516 82.7369C40.6463 82.3849 43.6669 78.5725 45.9543 76.3144C48.1831 74.115 51.3504 71.6515 51.673 71.8568C51.7903 71.9448 52.3768 72.8833 52.9633 73.939ZM96.0729 73.2058C99.2108 75.5813 104.695 81.4465 104.695 82.4436C104.695 82.7075 101.146 84.8777 100.706 84.8777C100.56 84.8777 100.12 84.3791 99.7093 83.7926C98.7122 82.297 94.5772 78.1913 92.8763 76.9596C92.1138 76.4317 91.5273 75.8159 91.5566 75.6692C91.7032 75.0827 93.6974 71.6809 93.8734 71.6809C93.9614 71.6809 94.9585 72.3554 96.0729 73.2058ZM40.617 87.7223C41.6727 88.3382 42.5232 88.9833 42.5232 89.2179C42.5232 89.4232 42.3472 89.9511 42.1126 90.391C41.3795 91.7987 40.2651 95.5817 39.8838 97.8105C39.268 101.711 39.6199 101.3 36.8339 101.3C34.4585 101.3 34.3998 101.271 34.4878 100.626C35.0157 96.8134 35.3676 94.9366 35.9248 92.9424C36.6286 90.5376 38.2709 86.6372 38.5641 86.6372C38.6521 86.6372 39.5906 87.1358 40.617 87.7223ZM108.155 88.7487C109.68 92.5318 110.589 95.9923 111 99.5994L111.176 101.3H108.712H106.22L106.014 99.5994C105.721 97.1067 104.841 93.6755 103.815 91.1535C103.316 89.9218 102.965 88.866 102.994 88.8367C103.375 88.4848 106.689 86.6666 106.953 86.6372C107.129 86.6372 107.686 87.605 108.155 88.7487ZM39.4146 106.462C39.5026 106.726 39.5906 107.312 39.5906 107.752C39.5906 109.13 40.705 113.529 41.6434 115.875C42.1419 117.078 42.5232 118.163 42.5232 118.31C42.5232 118.456 41.6141 119.072 40.4703 119.747L38.4175 120.92L37.8017 119.541C36.218 116.022 35.045 111.477 34.5171 106.931L34.3998 105.993H36.8339C38.7401 105.993 39.268 106.081 39.4146 106.462ZM111 107.811C110.619 111.359 109.475 115.582 107.979 119.043C107.569 120.01 107.187 120.832 107.187 120.89C107.1 120.978 102.935 118.603 102.935 118.456C102.935 118.398 103.346 117.342 103.815 116.139C104.841 113.617 105.721 110.186 106.014 107.664L106.22 105.993H108.712H111.205L111 107.811Z" fill="white"></path><path d="M70.09 97.3713C67.568 98.4563 65.9844 100.89 65.9844 103.735C65.9844 105.289 66.131 105.817 66.9521 107.166C68.741 110.158 72.6121 111.301 75.75 109.718L77.099 109.014L83.7561 113.119C90.7064 117.401 91.5275 117.724 92.7006 116.668C93.4044 116.023 93.4337 114.38 92.7299 113.677C92.4366 113.383 89.328 111.389 85.8382 109.248L79.4744 105.319V103.676C79.4451 99.8054 76.5125 96.8727 72.6708 96.9021C71.8203 96.9314 70.6472 97.1367 70.09 97.3713Z" fill="white"></path><path d="M70.09 97.3713C67.568 98.4563 65.9844 100.89 65.9844 103.735C65.9844 105.289 66.131 105.817 66.9521 107.166C68.741 110.158 72.6121 111.301 75.75 109.718L77.099 109.014L83.7561 113.119C90.7064 117.401 91.5275 117.724 92.7006 116.668C93.4044 116.023 93.4337 114.38 92.7299 113.677C92.4366 113.383 89.328 111.389 85.8382 109.248L79.4744 105.319V103.676C79.4451 99.8054 76.5125 96.8727 72.6708 96.9021C71.8203 96.9314 70.6472 97.1367 70.09 97.3713ZM74.401 101.946C75.8966 103.354 74.8409 105.993 72.7587 105.993C71.3804 105.993 70.3833 105.055 70.3833 103.676C70.3833 101.565 72.8467 100.48 74.401 101.946Z" fill="#807E7E"></path><path d="M127.013 140.744C126.485 140.979 124.139 143.061 121.822 145.349L117.599 149.513L116.191 148.135C115.429 147.402 114.314 146.58 113.728 146.316C110.913 145.173 108.068 146.346 106.719 149.249C105.429 152.035 106.338 153.912 111.118 158.428C115.634 162.68 117.1 163.296 119.71 162.065C121.147 161.419 133.494 149.454 134.139 148.135C135.077 146.14 134.52 143.12 132.937 141.712C131.47 140.363 128.86 139.953 127.013 140.744ZM130.151 145.583C130.209 146.228 129.3 147.255 124.08 152.27C120.707 155.525 117.775 158.194 117.54 158.194C117.335 158.194 115.634 156.669 113.786 154.821C110.913 151.947 110.473 151.361 110.737 150.921C111.382 149.924 112.056 150.188 114.373 152.446C117.716 155.701 117.394 155.818 123.64 149.66C127.628 145.759 128.889 144.674 129.417 144.762C129.857 144.821 130.092 145.085 130.151 145.583Z" fill="#807E7E"></path></svg>