<svg xmlns="http://www.w3.org/2000/svg" width="160" height="155" viewBox="0 0 160 155" fill="none"><path d="M160 62.7095C160 97.1874 132.05 125.137 97.5723 125.137C63.0944 125.137 35.1445 97.1874 35.1445 62.7095C35.1445 28.2316 63.0944 0.281738 97.5723 0.281738C132.05 0.281738 160 28.2316 160 62.7095Z" fill="#FBF8D5"></path><path d="M96.185 125.137C96.185 139.95 84.1769 151.958 69.3642 151.958C54.5514 151.958 42.5434 139.95 42.5434 125.137C42.5434 110.325 54.5514 98.3164 69.3642 98.3164C84.1769 98.3164 96.185 110.325 96.185 125.137Z" fill="white"></path><path d="M90.5117 3.9523C90.2085 4.67245 90.2085 5.05148 90.6633 5.73372C91.1561 6.45387 92.0657 6.79499 95.2874 7.51514C97.4858 8.00787 99.3051 8.53851 99.3051 8.65222C99.3051 8.76592 97.8269 9.71348 95.9697 10.7369C94.1504 11.7602 86.4561 16.1948 78.8756 20.5536L65.117 28.4752L63.7525 27.1865C62.9945 26.5043 62.2743 25.86 62.1606 25.7462C58.5599 22.2592 57.5365 21.5391 56.7406 21.8044C56.0204 22.0318 48.5915 26.5422 23.121 42.3475C18.2695 45.3418 17.8147 45.7209 17.8147 46.82C17.8147 47.9192 19.3308 48.9805 20.3163 48.6015C20.6953 48.4499 22.3251 47.5402 23.8791 46.5547C25.4331 45.5693 32.5967 41.1726 39.7982 36.738C46.9617 32.3034 53.7084 28.0962 54.8075 27.414L56.7406 26.1632L60.4171 29.5744C62.426 31.4316 64.359 32.9477 64.7001 32.9477C65.0033 32.9477 67.846 31.4695 70.9919 29.6881C74.0999 27.9067 77.2079 26.1253 77.8523 25.7841C78.4966 25.4051 84.1062 22.1834 90.3222 18.6206C102.906 11.3812 101.958 11.5328 100.177 16.8013C99.0019 20.3262 99.0019 21.8802 100.215 22.1834C102.299 22.6761 102.413 22.5245 104.877 15.1335C106.165 11.2675 107.227 7.93207 107.227 7.70465C107.34 6.49177 106.09 5.96114 99.722 4.48294C91.9141 2.70152 91.1181 2.66362 90.5117 3.9523Z" fill="#807E7E"></path><path d="M79.4825 32.4934C78.914 33.0999 78.8382 34.5023 78.8382 44.4327V55.6898H59.1289V51.2173C59.1289 47.3133 59.0152 46.6311 58.4466 46.1004C57.8023 45.5319 56.3241 45.4561 45.1808 45.4561C34.3027 45.4561 32.5592 45.5319 32.0665 46.0625C31.5358 46.5553 31.46 48.1093 31.46 57.2438V67.8186H20.1651C9.6661 67.8186 8.79434 67.8565 8.2258 68.5008C7.65727 69.1452 7.58146 70.7371 7.58146 83.8513C7.58146 98.0269 7.61937 98.5575 8.33951 99.2776C9.32498 100.263 10.4242 100.225 11.1443 99.2018C11.6749 98.4817 11.7507 96.4729 11.7507 84.9884V71.6088L21.5296 71.6846L31.2705 71.7983L31.46 83.4723C31.6117 93.289 31.7254 95.1842 32.2181 95.4874C33.0519 96.018 33.9995 95.9422 34.6439 95.26C35.1745 94.7293 35.2503 92.1141 35.2503 72.1394V49.6254H54.9596L54.9975 55.197C55.1112 87.9069 55.187 92.8342 55.5281 93.1374C56.3999 93.9713 57.5749 94.0092 58.3329 93.2511C59.1289 92.4552 59.1289 92.0762 59.1289 75.9676V59.48H78.8382V75.7402C78.8382 84.6852 78.9519 92.3036 79.0656 92.6068C79.4446 93.5923 80.5438 94.0092 81.643 93.5923L82.6284 93.2511L82.7042 64.521L82.8179 35.7909H102.527L102.603 65.3549C102.717 92.6068 102.755 94.9568 103.361 95.3737C104.233 96.018 105.18 95.9801 105.901 95.26C106.431 94.7293 106.507 92.1141 106.507 71.9499V49.2463H126.216V73.883C126.216 98.0269 126.216 98.5196 126.974 99.2776C127.922 100.225 128.68 100.225 129.628 99.2776C130.386 98.5196 130.386 98.0269 130.386 72.6322C130.386 51.0277 130.31 46.6311 129.855 46.0246C129.362 45.3424 128.642 45.2666 117.916 45.1529L106.507 45.0013V38.7852C106.507 33.062 106.469 32.5692 105.787 32.1902C105.294 31.9628 100.443 31.8112 92.5589 31.8112C80.9607 31.8112 80.0511 31.8491 79.4825 32.4934Z" fill="#807E7E"></path><path d="M61.7811 97.0031C56.5505 98.4055 51.7748 101.134 48.4394 104.659C47.6814 105.455 46.9233 106.1 46.7717 106.1C46.6201 106.1 45.5967 105.228 44.4975 104.205C43.3984 103.143 42.3371 102.309 42.1476 102.309C41.9202 102.309 40.9347 102.916 39.9492 103.636C37.3719 105.493 37.3719 105.493 35.5147 104.659C33.8848 103.939 33.8469 103.863 33.5816 101.741C33.1647 98.0264 33.3542 98.1401 27.3277 98.1401C21.5286 98.1401 21.4528 98.178 21.0359 100.604C20.4674 104.167 20.5053 104.091 18.7996 104.735L17.1319 105.38L14.8957 103.826C13.0006 102.499 12.5078 102.309 11.7498 102.613C10.3853 103.143 4.5483 109.283 4.5483 110.155C4.5483 110.572 5.23055 111.861 6.0644 112.998L7.5805 115.12L6.97406 116.599C6.21601 118.38 6.1023 118.456 3.37332 118.759C0.227415 119.138 0 119.555 0 125.089C0 130.547 0.227415 130.926 3.75235 131.456C5.07894 131.684 6.17811 131.911 6.21601 131.949C6.48133 132.442 7.5805 134.943 7.5805 135.057C7.5805 135.095 6.89826 136.081 6.0644 137.18C5.23055 138.279 4.5483 139.53 4.5483 139.947C4.5483 140.894 10.8401 147.375 12.0151 147.641C12.6594 147.83 13.4554 147.451 15.0094 146.276L17.094 144.684L18.7617 145.405C20.3157 146.049 20.4674 146.201 20.6948 147.792C21.0738 150.635 21.5665 151.848 22.4762 152.113C22.931 152.227 25.2431 152.341 27.593 152.341C32.7478 152.341 33.1647 152.075 33.5816 148.55C33.8469 146.201 33.8469 146.201 35.5147 145.48C37.334 144.684 37.2961 144.684 39.7218 146.542C40.6315 147.224 41.6928 147.792 42.1097 147.792C42.5266 147.792 43.7774 146.959 44.8766 145.897L46.8475 144.002L48.1741 145.367C54.2385 151.621 63.6762 154.956 72.318 153.895C78.6098 153.099 84.1057 150.559 88.7298 146.314L91.2692 144.002L93.1265 145.897C94.1877 146.959 95.3627 147.792 95.8175 147.792C96.2345 147.792 97.3336 147.224 98.2433 146.542C100.669 144.684 100.631 144.684 102.45 145.48C104.118 146.201 104.118 146.238 104.384 148.475C104.8 152.113 104.876 152.151 110.6 152.151C116.778 152.151 116.626 152.265 117.308 147.603C117.498 146.238 117.687 146.011 119.203 145.405L120.871 144.684L122.956 146.276C124.51 147.451 125.306 147.83 125.95 147.641C127.125 147.375 133.417 140.894 133.417 139.947C133.417 139.53 132.735 138.279 131.901 137.18C131.067 136.081 130.385 135.095 130.385 135.057C130.385 134.943 131.484 132.442 131.749 131.949C131.787 131.911 132.886 131.684 134.213 131.456C137.738 130.926 137.965 130.547 137.965 125.089C137.965 119.555 137.738 119.138 134.592 118.759C131.939 118.456 131.901 118.456 131.029 116.599L130.385 115.158L131.901 113.036C132.735 111.861 133.417 110.572 133.417 110.155C133.417 109.283 127.58 103.143 126.291 102.651C125.306 102.272 124.51 102.575 122.349 104.28L120.909 105.417L119.203 104.773C117.725 104.205 117.498 103.939 117.308 102.726C116.816 99.732 116.626 99.0877 116.285 98.595C115.982 98.2917 114.39 98.1401 110.637 98.1401C104.611 98.1401 104.8 98.0264 104.384 101.741C104.118 103.863 104.08 103.939 102.45 104.659C100.593 105.493 100.593 105.493 98.0159 103.636C97.0304 102.916 96.045 102.309 95.8175 102.309C95.628 102.309 94.5668 103.143 93.4676 104.205C92.3684 105.228 91.383 106.1 91.3071 106.1C91.1934 106.1 90.1322 105.152 88.9193 103.977C86.0766 101.324 81.7936 98.7845 77.8897 97.4958C73.6446 96.0934 65.9883 95.866 61.7811 97.0031ZM76.601 101.286C84.75 104.053 90.4733 109.928 93.1644 118.38C93.6192 119.782 93.8087 121.678 93.7708 125.24C93.7708 129.599 93.6571 130.509 92.7853 132.935C91.3071 137.028 89.6015 139.643 86.4177 142.865C84.2573 145.026 82.7412 146.125 80.3533 147.338C75.7292 149.65 73.1139 150.18 68.035 149.953C61.023 149.65 56.1715 147.527 51.3579 142.676C48.3257 139.605 46.6201 136.914 45.1798 132.935C44.2701 130.433 44.1564 129.675 44.1943 125.051C44.1943 120.275 44.2701 119.707 45.3693 116.902C47.9846 109.966 52.0022 105.531 58.5215 102.461C62.3875 100.604 65.3818 100.035 69.9301 100.187C72.697 100.301 74.4784 100.604 76.601 101.286ZM29.7156 102.764C29.8293 103.257 30.0188 104.318 30.1325 105.152C30.4357 106.896 30.8905 107.616 31.8002 107.616C32.1413 107.616 33.5058 108.146 34.7945 108.753C36.1211 109.397 37.4098 109.89 37.6751 109.89C37.9404 109.89 38.9638 109.283 39.9871 108.525L41.7686 107.123L43.0573 108.412L44.308 109.7L42.8677 112.619C39.0396 120.465 39.0775 130.168 43.0193 137.976L44.3838 140.705L43.3605 141.766C42.7919 142.372 42.1855 142.865 41.996 142.865C41.8065 142.865 40.7452 142.259 39.5702 141.463L37.4856 140.098L35.3251 141.084C34.1502 141.652 32.5204 142.334 31.7623 142.638C30.5115 143.13 30.3599 143.358 30.1325 145.026C29.6777 148.285 29.7914 148.171 27.1003 148.171H24.7124L24.4471 145.973C24.1818 143.813 23.4617 142.486 22.4762 142.486C22.173 142.486 20.8464 141.993 19.5198 141.349C16.8666 140.098 16.4497 140.136 14.3651 141.804C13.607 142.372 12.811 142.865 12.6594 142.865C12.2046 142.865 9.47563 140.136 9.47563 139.643C9.47563 139.454 10.0063 138.582 10.6127 137.786C11.9772 135.967 12.0151 135.171 10.8022 132.556C10.2716 131.456 9.85465 130.281 9.85465 129.94C9.85465 128.879 8.60387 128.159 6.32972 127.894L4.13137 127.628L4.24508 125.089C4.35879 122.625 4.35879 122.587 5.49586 122.474C8.22484 122.17 9.47563 121.64 9.70304 120.578C9.85465 120.01 10.3853 118.645 10.8401 117.508C12.0151 114.893 11.9772 114.173 10.6127 112.391C9.96836 111.558 9.47563 110.724 9.47563 110.496C9.47563 110.042 12.1288 107.237 12.5836 107.237C12.7352 107.237 13.6449 107.843 14.6304 108.563C16.6013 110.079 17.1698 110.155 18.7617 109.208C19.4061 108.791 20.8085 108.184 21.8697 107.843C23.9165 107.161 24.0302 107.009 24.4471 104.205C24.5987 103.257 24.7882 102.385 24.9019 102.196C24.9778 102.044 26.0769 101.93 27.2898 101.93C29.3365 101.93 29.564 102.006 29.7156 102.764ZM113.518 104.129C113.632 105.342 113.897 106.517 114.011 106.744C114.238 107.085 115.337 107.578 120.227 109.625C121.099 109.966 121.478 109.852 123.335 108.563L125.495 107.085L127.163 108.753L128.831 110.383L127.542 112.202C126.14 114.097 125.874 115.462 126.746 116.826C127.049 117.281 127.58 118.57 127.921 119.631C128.49 121.412 128.717 121.678 129.968 121.981C130.726 122.208 131.863 122.398 132.469 122.474C133.606 122.587 133.606 122.625 133.72 125.089L133.834 127.59L131.635 127.856C129.399 128.121 128.11 128.879 128.11 129.94C128.11 130.281 127.694 131.456 127.163 132.556C125.95 135.171 125.988 135.967 127.352 137.786C127.959 138.582 128.49 139.416 128.49 139.643C128.49 140.098 125.798 142.865 125.344 142.865C125.154 142.865 124.358 142.372 123.6 141.804C121.515 140.174 121.136 140.136 118.559 141.349C117.232 141.993 115.868 142.486 115.527 142.486C114.428 142.486 113.783 143.547 113.518 145.897L113.253 148.209L110.751 148.096C108.856 148.02 108.212 147.83 108.136 147.413C108.098 147.11 107.946 146.011 107.833 145.026C107.643 143.623 107.378 143.13 106.771 142.865C106.317 142.676 104.687 141.993 103.209 141.349C100.214 140.098 100.063 140.098 97.5611 141.993C96.045 143.13 95.8554 143.093 94.6426 141.728L93.6192 140.591L94.7563 138.355C96.424 135.095 96.9925 133.238 97.599 129.41C98.4707 123.459 97.4474 117.167 94.7563 111.785L93.6571 109.625L96.1966 107.161L98.0159 108.525C99.0014 109.283 100.025 109.89 100.29 109.89C100.555 109.89 101.844 109.397 103.171 108.753C104.459 108.146 105.824 107.616 106.165 107.616C107.075 107.616 107.529 106.896 107.833 105.152C108.363 101.703 108.174 101.93 110.827 101.93H113.253L113.518 104.129Z" fill="#807E7E"></path><path d="M75.6154 123.535L66.5188 132.631L60.644 126.756C57.3843 123.535 54.4658 120.882 54.0868 120.882C52.7981 120.882 51.9264 121.64 51.9264 122.701C51.9264 123.535 53.2151 125.013 58.673 130.471C64.3963 136.194 65.5713 137.18 66.5188 137.18C67.5422 137.18 68.9825 135.891 77.4348 127.401C86.0007 118.759 87.1757 117.432 87.1757 116.409C87.1757 115.234 86.3798 114.438 85.2048 114.438C84.9395 114.438 80.6186 118.532 75.6154 123.535Z" fill="#807E7E"></path><path d="M24.1054 116.523C22.0966 117.243 20.0878 118.911 19.1781 120.73C18.5717 121.867 18.3822 122.891 18.3822 125.317C18.3822 128.121 18.4959 128.538 19.5192 130.017C21.4523 132.783 23.3853 133.845 26.607 134.034C29.0707 134.186 29.6013 134.11 31.4585 133.125C35.2488 131.191 36.9923 127.25 36.0068 122.853C35.6278 121.109 35.2109 120.389 33.5811 118.797C30.8142 116.068 27.5925 115.272 24.1054 116.523ZM28.6917 120.162C30.2836 120.768 31.7997 122.398 32.2166 123.952C33.3537 128.083 28.3126 131.874 24.7119 129.637C21.3765 127.515 21.0732 123.118 24.1434 120.958C25.8111 119.783 27.0997 119.555 28.6917 120.162Z" fill="#807E7E"></path><path d="M107.643 116.409C106.923 116.675 105.445 117.736 104.384 118.797C102.754 120.389 102.337 121.109 101.958 122.853C100.328 130.054 106.506 135.777 113.745 133.769C115.565 133.276 118.218 130.926 119.052 129.069C119.848 127.287 119.999 123.914 119.355 121.981C118.218 118.57 115.11 116.333 111.32 116.106C110.031 116.03 108.363 116.182 107.643 116.409ZM113.253 120.579C114.693 121.261 115.982 123.383 115.982 125.013C115.982 127.969 113.253 130.509 110.41 130.244C108.212 130.016 106.961 129.107 106.089 127.098C105.179 125.051 105.559 123.08 107.15 121.564C109.083 119.707 110.865 119.441 113.253 120.579Z" fill="#807E7E"></path></svg>