<svg xmlns="http://www.w3.org/2000/svg" width="384" height="512" viewBox="0 0 384 512" fill="none"><g clip-path="url(#clip0_132_297)"><path d="M0 256L28.5 28C30.5 12 44.1 0 60.3 0H228.9C243.9 0 256 12.1 256 27.1C256 30.3 255.4 33.6 254.3 36.6L208 160H347.3C367.5 160 384 176.4 384 196.7C384 204.1 381.8 211.3 377.6 217.4L185.4 498.4C179.5 507 169.8 512.1 159.5 512.1H156.6C140.9 512.1 128.1 499.3 128.1 483.6C128.1 481.3 128.4 479 129 476.7L176 288H32C14.3 288 0 273.7 0 256Z" fill="#1D49C3"></path></g><defs><clipPath id="clip0_132_297"><rect width="384" height="512" fill="white"></rect></clipPath></defs></svg>