<svg xmlns="http://www.w3.org/2000/svg" width="160" height="153" viewBox="0 0 160 153" fill="none"><path d="M89.1716 2.98729C94.1368 -0.620111 100.86 -0.620112 105.825 2.98729L154.159 38.1041C159.125 41.7115 161.202 48.1058 159.306 53.9427L140.844 110.763C138.947 116.6 133.508 120.552 127.371 120.552H67.6263C61.489 120.552 56.0497 116.6 54.1532 110.763L35.6912 53.9427C33.7947 48.1058 35.8723 41.7115 40.8374 38.1041L89.1716 2.98729Z" fill="#E4EFFB"></path><path d="M58.929 30.543C48.8726 31.5301 38.5077 35.4169 30.4255 41.1855C27.3099 43.4066 21.8189 48.2189 21.1094 49.3294C20.8318 49.7613 21.4796 49.2985 22.5593 48.2497C31.0116 40.1984 40.7904 35.201 52.7594 32.8566C56.2453 32.1471 66.1166 31.9003 70.2811 32.363C80.8928 33.5969 91.5045 38.0699 99.9568 44.8873C107.916 51.2728 114.085 59.7869 117.725 69.3189C122.476 81.8432 122.784 95.5705 118.589 108.28C115.288 118.275 109.15 127.344 101.129 134.069C91.597 142.028 81.1396 146.254 68.461 147.241C64.5125 147.518 63.5562 147.518 60.7491 147.025C56.8931 146.377 57.2941 146.47 55.2273 145.791C50.4767 144.218 43.1349 139.93 38.6002 136.074C37.6748 135.303 32.6774 130.398 27.5258 125.185C16.8215 114.388 13.7984 110.686 10.8062 104.732C7.5363 98.1617 6.39493 93.5962 6.42577 87.149C6.42577 83.5706 6.58001 82.3059 7.22782 79.8072C8.55428 74.6247 9.81905 72.9589 14.292 70.3986C16.5439 69.1029 16.6673 69.0721 17.9629 69.4114C20.0914 69.9975 21.1094 71.0155 23.5464 75.0874C27.0939 81.0103 27.5566 82.0591 27.4024 84.0642C27.3099 84.9588 27.0939 85.9151 26.878 86.1927C26.6929 86.4395 24.9037 87.5809 22.9911 88.7223C18.9501 91.1284 19.166 90.6348 19.9063 95.3237C20.6467 100.29 22.3742 104.393 25.3047 108.311C26.9088 110.439 42.703 126.357 45.3559 128.485C49.1811 131.601 53.7466 133.544 58.9907 134.316C62.3223 134.809 61.6745 135.303 64.6667 130.12C66.9495 126.11 67.2888 125.863 70.1577 125.863C71.3608 125.863 72.4404 126.203 74.8157 127.282C76.5124 128.053 79.1344 129.164 80.646 129.781C83.6999 131.015 84.9647 131.971 86.3529 134.1L87.3092 135.519V134.007C87.2783 132.28 86.7539 130.645 85.7359 129.071C84.9647 127.899 78.4249 122.47 75.7412 120.742C72.4096 118.645 68.3994 118.244 64.7284 119.663C62.5074 120.527 61.6128 121.421 59.7619 124.598C58.4046 126.943 58.2504 127.097 57.4483 126.912C55.5974 126.48 52.1425 124.845 50.5692 123.673C49.0268 122.532 36.7493 110.532 32.2455 105.75C30.0553 103.437 28.297 100.506 27.4332 97.7299C26.477 94.6451 26.5387 94.4291 29.099 92.9176C31.752 91.3135 32.8316 90.0179 33.6337 87.3649C34.4357 84.7429 34.4049 82.1208 33.5411 79.5913C32.7082 77.2468 27.5566 68.6094 25.8291 66.7276C23.2688 63.9205 19.4745 62.4089 15.9578 62.7174C14.4154 62.8408 13.6442 63.1801 10.9604 64.8151C7.99902 66.5734 4.11218 69.7199 4.79083 69.7199C4.97592 69.7199 4.85253 69.8741 4.54405 70.0592C3.77285 70.5219 2.1996 73.761 1.36671 76.6607C-0.391629 82.7686 -0.453325 90.5731 1.18162 96.8661C2.66232 102.542 5.25355 108.187 8.61598 113.061C12.1326 118.182 12.4411 118.491 24.5644 130.49C35.4537 141.256 38.6619 143.817 45.9729 147.704C54.1476 152.022 61.366 153.38 70.5896 152.362C84.5328 150.85 97.1805 144.742 107.052 134.84C110.599 131.262 111.494 130.213 114.394 126.326C115.103 125.339 116.46 123.118 117.787 120.742C120.718 115.406 122.846 109.606 124.203 103.19C125.283 98.1926 125.561 88.6606 124.82 83.1388C122.383 64.9693 112.08 49.0518 96.3476 39.2113C85.52 32.4555 71.7926 29.2782 58.929 30.543Z" fill="#807E7E"></path><path d="M19.5671 50.9643L18.981 51.6738L19.6905 51.0877C20.3383 50.5324 20.5234 50.2857 20.2766 50.2857C20.2149 50.2857 19.9064 50.5941 19.5671 50.9643Z" fill="#807E7E"></path><path d="M86.1678 64.7226C85.9827 64.8459 85.6743 65.3395 85.4892 65.7714C84.8105 67.5606 80.4609 85.9768 80.4301 87.2724C80.3684 88.4755 80.4609 88.7223 81.2321 89.1233C82.4661 89.8328 83.6074 89.1233 84.1319 87.3033C84.9956 84.3727 89.1601 66.8202 89.1601 66.1416C89.1601 64.9693 87.2475 64.0439 86.1678 64.7226Z" fill="#807E7E"></path><path d="M48.5332 65.0618C46.5897 65.5554 44.7697 66.9127 43.8134 68.5785C42.2093 71.3856 42.7646 74.0386 44.9857 74.0386C46.0653 74.0386 46.6514 73.4216 47.5152 71.509C48.3481 69.5656 49.3969 68.7944 51.1244 68.7944C52.2349 68.7944 52.6668 68.9795 53.4072 69.689C55.0421 71.3239 54.3326 74.2237 51.8031 76.2596C48.4098 78.9742 44.5538 82.6451 43.7517 83.8791C42.6721 85.6066 42.5795 87.3032 43.5666 88.2286C44.2145 88.8147 44.6155 88.8456 51.3403 88.8456C55.258 88.8456 58.6205 88.7222 58.8055 88.5988C59.4534 88.1978 59.8544 86.9947 59.6693 86.2235C59.33 84.8354 58.1577 84.5269 53.4688 84.5269H49.2118L51.0627 82.7377C52.0807 81.7814 53.9933 80.0539 55.2889 78.9125C58.1269 76.383 59.2374 74.4396 59.2374 71.9718C59.2374 69.1337 57.911 66.9435 55.4123 65.6479C54.055 64.9693 50.199 64.6299 48.5332 65.0618Z" fill="#807E7E"></path><path d="M71.8234 65.6171C71.3915 66.1107 68.7386 69.5965 65.9006 73.3908C60.2554 81.0103 60.0703 81.4113 61.6744 83.0154L62.569 83.91H71.8851V85.7917C71.8851 87.9511 72.2244 88.7531 73.3349 89.185C75.2475 89.8945 76.5123 88.3829 76.5123 85.4215C76.5123 83.91 76.5123 83.91 77.5303 83.91C78.0547 83.91 78.6716 83.7866 78.8567 83.6632C79.3194 83.3547 79.9056 82.2133 79.9056 81.6272C79.9056 80.7635 78.7333 79.8997 77.592 79.8997H76.5123V73.6067C76.5123 65.6171 76.2346 64.7842 73.6743 64.7842C72.9339 64.7842 72.3787 65.031 71.8234 65.6171ZM71.7617 79.4987C71.5766 79.9306 66.4867 80.0848 66.2399 79.653C66.1782 79.5296 67.3813 77.7404 68.9237 75.6427L71.7308 71.8484L71.8234 75.4576C71.8542 77.4627 71.8234 79.2828 71.7617 79.4987Z" fill="#807E7E"></path><path d="M92.4915 65.4321C91.9979 65.6171 91.5969 66.049 91.4735 66.5426C91.2576 67.468 91.782 68.9796 92.4298 69.2264C92.6766 69.3189 94.9593 69.4114 97.4889 69.4423C100.049 69.4731 102.116 69.5348 102.116 69.5657C102.116 69.5965 101.468 70.5837 100.697 71.7559C97.9824 75.797 95.6997 81.0103 95.021 84.7737C94.7434 86.3161 94.7743 86.8406 95.1444 87.7351C95.6997 89.0925 96.7794 89.6477 97.9824 89.2467C99.3706 88.784 99.895 87.7043 100.574 83.9408C100.944 82.0283 101.653 79.3136 102.178 77.9563C103.042 75.7353 105.602 71.4783 107.052 69.8742C108.625 68.1775 108.44 66.049 106.682 65.4321C105.478 65.0002 93.6329 65.031 92.4915 65.4321Z" fill="#807E7E"></path><path d="M45.1708 93.7505C44.2453 94.1515 43.1965 95.5705 43.1965 96.4343C43.1965 97.699 44.7081 98.9638 47.0525 99.735C48.9342 100.321 49.2119 100.506 49.3044 101.216C49.4278 102.234 48.8108 102.727 47.4227 102.789C46.1888 102.82 45.4176 102.357 45.0165 101.247C44.6155 100.229 43.3816 100.414 43.2582 101.524C43.104 102.82 44.4921 104.208 46.1271 104.455C49.3044 104.917 51.5255 103.498 51.5255 100.969C51.4946 99.5191 50.6 98.717 47.9471 97.8224C45.3867 96.9587 44.7389 96.2183 45.8494 95.4163C46.8674 94.6759 48.0088 94.9227 49.0268 96.1566C49.8288 97.1129 50.0756 97.2672 50.5383 96.9895C51.3712 96.4343 51.3095 95.7556 50.3532 94.6759C49.5512 93.7813 49.2427 93.658 47.6386 93.5654C46.6515 93.5346 45.5101 93.5963 45.1708 93.7505Z" fill="#807E7E"></path><path d="M54.0549 93.7813C53.3763 94.0589 53.3763 94.1206 53.438 99.0871L53.5305 104.115L57.4791 104.208C60.8415 104.27 61.4276 104.208 61.6127 103.807C61.9212 102.974 61.3659 102.758 58.4662 102.665L55.6899 102.573L55.5973 101.092L55.5048 99.6424H57.9418C59.7927 99.6424 60.5022 99.519 60.7798 99.1797C61.4585 98.3468 60.6256 97.9457 58.0035 97.8224L55.5356 97.7298V95.3237H58.312C60.6256 95.3237 61.15 95.2311 61.3042 94.8301C61.6435 93.9047 60.6256 93.5345 57.6025 93.5345C56.0601 93.5036 54.456 93.627 54.0549 93.7813Z" fill="#807E7E"></path><path d="M63.9264 93.7814C63.2477 94.059 63.2477 94.1207 63.3094 99.0564C63.4019 103.406 63.4636 104.085 63.9264 104.393C64.8518 104.948 65.4071 104.054 65.4379 101.864L65.4996 99.951H66.5176C67.5973 99.951 67.6281 99.9818 69.5098 102.882C70.5895 104.578 71.7001 105.072 72.0394 103.992C72.2553 103.283 71.6692 102.018 70.4353 100.537C69.9109 99.9201 69.7258 99.4882 69.9417 99.4266C70.7438 99.1489 71.8234 98.0692 72.0085 97.3289C72.317 96.095 71.4533 94.4292 70.2194 93.9356C69.0163 93.4112 65.0677 93.3495 63.9264 93.7814ZM69.1397 95.6323C69.7875 96.0024 69.9109 97.1747 69.3556 97.7299C69.1397 97.9459 68.1834 98.1001 67.1963 98.1001H65.4379L65.5305 96.7736C65.5922 96.0641 65.6539 95.4472 65.6847 95.3855C65.7772 95.1695 68.6153 95.3855 69.1397 95.6323Z" fill="#807E7E"></path><path d="M73.1499 93.9048C72.8722 94.2441 73.1499 95.3546 74.5072 99.0872C75.4326 101.678 76.4506 103.992 76.7282 104.177C78.1472 105.257 78.8259 104.362 80.8002 98.9021C82.3734 94.6451 82.4351 94.3366 81.9415 93.8431C81.5714 93.442 81.3246 93.4112 80.8927 93.658C80.4608 93.9356 79.1961 97.0512 77.9004 101.031C77.7771 101.463 77.3452 100.568 76.3272 97.7916C75.556 95.6939 74.7848 93.8431 74.5689 93.7197C74.0136 93.3495 73.5509 93.4112 73.1499 93.9048Z" fill="#807E7E"></path><path d="M84.2861 93.843C83.7617 94.3675 83.7617 103.684 84.2861 104.208C84.7797 104.702 85.3041 104.671 85.8902 104.085C86.2912 103.684 86.3838 102.758 86.3838 98.9021C86.3838 94.1207 86.2295 93.4729 85.1498 93.4729C84.8722 93.4729 84.502 93.6271 84.2861 93.843Z" fill="#807E7E"></path><path d="M91.1344 93.9048C90.61 94.1515 89.7771 94.861 89.2835 95.5089C88.4815 96.5577 88.3889 96.897 88.3889 99.0255C88.3889 101.123 88.4815 101.493 89.2527 102.511C90.7951 104.547 92.831 105.072 95.2372 104.115C96.4094 103.653 97.7976 102.018 97.7976 101.154C97.7976 100.599 97.1806 99.951 96.6562 99.951C96.4403 99.951 95.9775 100.506 95.6382 101.185C95.1446 102.141 94.8053 102.419 93.9107 102.604C92.43 102.882 91.3812 102.357 90.8259 101.031C90.2707 99.7042 90.2707 98.3777 90.8259 97.0204C91.3195 95.8173 92.1215 95.3238 93.448 95.3238C94.3734 95.3238 94.8362 95.6322 96.0392 97.1438C96.4711 97.6682 96.687 97.7608 97.1806 97.4831C97.9518 97.0821 97.9518 96.6502 97.2115 95.4472C96.1318 93.6888 93.2938 92.9793 91.1344 93.9048Z" fill="#807E7E"></path><path d="M100.728 93.7505L99.8025 93.9356L99.7099 98.8404C99.6482 102.573 99.7408 103.807 100.018 104.023C100.234 104.146 102.054 104.27 104.06 104.27C107.083 104.27 107.73 104.177 107.885 103.776C108.193 102.974 107.638 102.789 104.738 102.666L101.962 102.573L101.869 101.092L101.777 99.6425H104.214C106.095 99.6425 106.774 99.5191 107.083 99.1489C107.792 98.2851 106.651 97.7916 104.06 97.7916H101.808V95.3237H104.584C106.898 95.3237 107.422 95.2312 107.576 94.8302C107.916 93.9047 106.805 93.4729 104.152 93.5037C102.764 93.5346 101.252 93.6271 100.728 93.7505Z" fill="#807E7E"></path></svg>