<svg xmlns="http://www.w3.org/2000/svg" width="85" height="93" viewBox="0 0 85 93" fill="none"><path d="M40.5601 0.0512294C36.8231 0.309321 33.0002 1.3847 29.6665 3.10531C25.9457 5.03024 22.6765 7.79934 20.1171 11.176C17.1759 15.0635 15.2994 19.6984 14.6972 24.5645C14.6434 25.0216 14.5789 25.6722 14.5574 26.0055L14.5198 26.6185L14.1326 26.7959C12.826 27.3874 11.8797 28.4251 11.4065 29.7801C11.1592 30.4952 11.1484 30.7372 11.1484 36.8507C11.1484 40.5716 11.1699 42.7653 11.2076 43.0611C11.4657 45.1473 13.0519 46.8464 15.1435 47.2766C15.6113 47.3733 16.4662 47.3895 16.934 47.3034C18.5309 47.0238 19.9074 45.9646 20.5903 44.4913C20.9183 43.7816 20.9989 43.3568 21.0258 42.2653C21.0419 41.7276 21.0634 41.2867 21.0742 41.2867C21.085 41.2867 21.3914 41.4749 21.7517 41.7115C26.6017 44.8193 31.6667 46.997 36.2317 47.9272L37.092 48.1046L37.2802 48.4756C37.8071 49.5026 38.6889 50.25 39.8073 50.5995C40.2052 50.7231 40.2482 50.7231 42.4958 50.7231C44.7433 50.7231 44.7863 50.7231 45.1842 50.5995C46.5983 50.1532 47.6468 49.0671 48.0125 47.6583C48.1576 47.0991 48.1469 46.0237 47.991 45.4645C47.7813 44.7333 47.4479 44.1526 46.9263 43.631C46.4048 43.1095 45.8079 42.7653 45.0821 42.561C44.7111 42.4588 44.5067 42.4481 42.7324 42.4266C40.5493 42.4051 40.1138 42.4481 39.3987 42.7438C38.6029 43.0772 37.8609 43.6955 37.4953 44.3515C37.3931 44.529 37.2856 44.7118 37.2533 44.7548C37.2049 44.8247 37.0866 44.8086 36.3661 44.6419C33.1292 43.8891 29.9945 42.6578 26.5264 40.7597C24.8972 39.8672 23.0368 38.7058 21.6065 37.6895L21.0688 37.3024L21.0366 33.9042C21.0097 30.5867 21.0043 30.4952 20.886 30.0812C20.4774 28.6456 19.5687 27.5433 18.2675 26.8927L17.7513 26.6346L17.7889 26.1507C18.2298 20.2522 20.7731 14.7302 24.994 10.5039C26.9511 8.54136 29.0374 7.0412 31.5 5.82602C33.3604 4.90657 34.71 4.4119 36.5812 3.94948C38.619 3.44943 40.259 3.25586 42.4958 3.25586C43.6195 3.25586 44.3239 3.28275 44.9154 3.34727C49.0341 3.79355 52.6151 5.05175 55.9918 7.24015C59.105 9.26186 61.8472 12.1116 63.7614 15.3216C65.7401 18.6392 66.9177 22.3492 67.2026 26.1507L67.2403 26.6346L66.7241 26.8927C65.4067 27.5487 64.498 28.6617 64.1002 30.1081L63.9765 30.5598V36.8776V43.1955L64.1002 43.6471C64.5572 45.314 65.7294 46.5722 67.3478 47.126C68.4716 47.5078 69.9879 47.411 71.0095 46.9002C72.3806 46.2065 73.2732 45.115 73.6979 43.6095C73.8162 43.1955 73.8162 43.174 73.8323 37.2271C73.8485 30.9792 73.8377 30.6135 73.6173 29.893C73.1925 28.5219 72.2031 27.4035 70.8589 26.7959L70.4718 26.6185L70.4341 26.0055C70.2997 23.8494 69.7997 21.3706 69.0577 19.1339C67.3102 13.8752 63.955 9.17583 59.519 5.77763C55.0938 2.3848 49.8783 0.422236 44.2809 0.0458525C43.3292 -0.0186703 41.5333 -0.0132934 40.5601 0.0512294ZM16.8049 29.7909C17.1813 29.9629 17.4717 30.2533 17.6491 30.635L17.7889 30.9361V36.8776V42.8191L17.6491 43.1202C17.1222 44.2386 15.7672 44.4752 14.9069 43.6041C14.3584 43.0503 14.4015 43.588 14.4015 36.8776C14.4015 30.3124 14.3746 30.7372 14.8101 30.2425C15.3424 29.6403 16.0952 29.4683 16.8049 29.7909ZM69.6222 29.8016C69.9879 29.9844 70.3642 30.3985 70.4933 30.7641C70.5847 31.0276 70.5901 31.3717 70.5901 36.8776C70.5901 43.588 70.6331 43.0503 70.0846 43.6041C69.2243 44.4752 67.8694 44.2386 67.3424 43.1202L67.2026 42.8191V36.8776C67.2026 30.3178 67.1757 30.8232 67.5306 30.3124C67.9662 29.6833 68.9017 29.4521 69.6222 29.8016ZM44.5229 45.8355C44.7971 46.056 44.8777 46.2388 44.867 46.6206C44.8616 46.997 44.7648 47.2013 44.5282 47.3733C44.3508 47.497 44.34 47.497 42.5495 47.5131C40.5332 47.5293 40.5063 47.5239 40.2482 47.1421C40.1353 46.9808 40.1246 46.9109 40.1407 46.5345C40.1568 46.1151 40.1568 46.1098 40.388 45.9054C40.5224 45.7871 40.6945 45.6904 40.7913 45.6796C40.8881 45.6635 41.7161 45.6581 42.6409 45.6635L44.3132 45.6689L44.5229 45.8355Z" fill="#1D49C3"></path><path d="M60.3364 17.9132C60.0568 17.9938 59.7611 18.2035 59.5137 18.4885C57.6802 20.6446 55.4112 21.8544 51.7172 22.6502C50.5397 22.9029 49.6149 23.0589 47.0124 23.4353C44.5928 23.7901 43.6357 23.9407 42.3076 24.1934C35.8876 25.4086 31.2742 27.7637 27.2469 31.8824C26.2415 32.9147 25.3758 33.9363 25.193 34.2966C24.9886 34.7106 24.9886 35.2752 25.193 35.6677C25.5048 36.2699 25.9834 36.571 26.634 36.5764C27.177 36.5818 27.5427 36.4043 27.9406 35.9527C29.6666 33.9471 30.6989 32.947 32.1991 31.8232C34.2638 30.28 36.1135 29.323 38.7051 28.4627C41.0387 27.683 42.8507 27.312 47.6846 26.6076C48.7223 26.4571 50.002 26.2635 50.5343 26.1721C54.0938 25.5753 56.5296 24.7741 58.5889 23.5213L59.1696 23.1718L59.1481 31.9469C59.132 40.6198 59.132 40.7274 59.0191 41.421C58.7018 43.3298 58.2555 44.7708 57.4705 46.3677C56.1585 49.0562 54.1852 51.2876 51.6097 52.9975C49.9966 54.0675 47.8082 54.9708 45.8564 55.3687C44.5391 55.6321 44.1519 55.6698 42.4958 55.6698C41.2376 55.6698 40.7806 55.6483 40.2913 55.573C38.3879 55.2773 37.1566 54.9063 35.3714 54.1105C33.6293 53.3308 32.1722 52.3146 30.715 50.8574C29.5429 49.6853 28.5266 48.3142 27.7416 46.8248C27.3437 46.0774 27.1609 45.8569 26.7684 45.6526C26.5479 45.5397 26.4243 45.5128 26.0694 45.5128C25.5694 45.5074 25.2682 45.6257 24.9241 45.9591C24.6015 46.2763 24.4617 46.6151 24.4563 47.0936C24.4563 47.4592 24.4778 47.5399 24.6875 47.9808C24.8166 48.2443 25.1392 48.825 25.4027 49.2713C26.3221 50.8091 27.1287 51.8414 28.4352 53.1426C29.4837 54.1965 30.3763 54.9331 31.5108 55.6752C31.9464 55.9601 32.3227 56.2128 32.3442 56.2343C32.4303 56.2989 31.8603 57.842 31.3764 58.869C30.914 59.8476 30.1397 61.0252 29.6934 61.4338C29.5644 61.5467 29.5483 61.5467 26.5533 61.5736C23.3433 61.6005 23.096 61.6166 21.5259 61.9124C16.9448 62.7727 12.7186 65.0632 9.13754 68.6335C4.11552 73.6448 0.937768 80.6078 0.152741 88.3076C0.0344487 89.5174 -0.0408279 91.3294 0.0236949 91.6036C0.13661 92.1198 0.44847 92.5231 0.910884 92.7489L1.17435 92.8779H42.4958H83.8173L84.0808 92.7489C84.5432 92.5231 84.8551 92.1198 84.968 91.6036C85.0755 91.1466 84.8981 88.4689 84.6454 86.7483C83.7313 80.4519 81.1396 74.6126 77.2736 70.1605C73.4238 65.7192 68.6867 62.891 63.4658 61.9124C61.8957 61.6166 61.6484 61.6005 58.4384 61.5736C54.9864 61.5467 55.4165 61.6166 54.8896 60.966C54.3304 60.267 53.8035 59.3368 53.3088 58.1808C53.0023 57.4657 52.5722 56.2451 52.6098 56.2128C52.6205 56.2021 52.9485 55.9924 53.3303 55.7397C55.3198 54.4438 57.0135 52.8577 58.4706 50.9273C60.2665 48.5454 61.5408 45.6203 62.0893 42.62C62.428 40.7758 62.4173 41.2704 62.4173 29.6993C62.4173 19.4617 62.4119 19.1552 62.3151 18.8971C62.0194 18.1283 61.1322 17.6927 60.3364 17.9132ZM49.916 58.4066C50.3515 59.568 50.787 60.5251 51.2763 61.3693C52.1205 62.8318 53.4056 64.3427 54.0562 64.6438C54.2928 64.7514 54.4003 64.7567 57.6856 64.789C61.2505 64.8213 61.6161 64.8428 62.9818 65.1116C69.1922 66.3214 74.6605 70.6337 78.1393 77.0752C80.0105 80.5379 81.2042 84.4953 81.6128 88.5979C81.6558 89.055 81.6935 89.4797 81.6935 89.5496V89.6787H71.9881H62.2882L62.2721 86.1944L62.256 82.7156L62.1162 82.4145C61.7559 81.651 60.944 81.2853 60.159 81.538C59.7611 81.6617 59.3309 82.0435 59.1589 82.4306L59.0298 82.7156L59.0137 86.1998L58.9976 89.6787H42.4958H25.9941L25.978 86.1998L25.9619 82.7156L25.8328 82.4306C25.6608 82.0435 25.2306 81.6617 24.8327 81.538C24.0477 81.2853 23.2358 81.651 22.8755 82.4145L22.7357 82.7156L22.7196 86.1944L22.7035 89.6787H13.0035H3.29823V89.5227C3.29823 89.4421 3.33587 89.0119 3.37888 88.571C3.80903 84.4201 4.98657 80.5272 6.85236 77.0752C10.3312 70.6391 15.7995 66.3214 22.0098 65.1116C23.3756 64.8428 23.7412 64.8213 27.3061 64.789C31.2097 64.7514 30.8979 64.7944 31.5485 64.1868C32.925 62.9017 34.2315 60.7509 35.1026 58.3313C35.2155 58.0195 35.3231 57.7453 35.3499 57.7184C35.3714 57.6915 35.5919 57.7453 35.8392 57.8367C36.4683 58.0625 37.7265 58.4066 38.5169 58.5679C41.9313 59.2615 45.5876 59.0303 48.8675 57.9066C49.2815 57.7668 49.6256 57.6539 49.631 57.6539C49.6364 57.6592 49.7654 57.998 49.916 58.4066Z" fill="#1D49C3"></path></svg>