<svg xmlns="http://www.w3.org/2000/svg" width="86" height="88" viewBox="0 0 86 88" fill="none"><path d="M6.10765 0.0957072C3.51836 0.51941 1.43123 2.21422 0.411204 4.69366C0.0659652 5.54107 0.0659651 5.698 0.0188871 13.0265C-0.028191 19.743 0.00319438 20.5276 0.222892 20.763C0.458282 20.9827 1.16445 21.0141 6.4372 21.0141H12.3847L12.4161 51.8031L12.4632 82.6079L13.0438 83.8319C14.1109 86.0446 15.9627 87.4726 18.3166 87.8649C19.0698 87.9748 28.0146 88.0218 49.4195 87.9905C77.6192 87.9434 79.518 87.9277 80.2713 87.6609C82.2172 87.0018 83.9591 85.3227 84.7594 83.3454C85.1203 82.4666 85.1203 82.3725 85.1674 75.0126C85.2145 68.202 85.1988 67.5586 84.9477 67.2918C84.4769 66.7739 83.9591 66.9309 82.2643 68.0921C80.4125 69.3632 80.7735 69.3946 78.5451 67.8567C77.8546 67.386 77.1485 66.9936 76.9601 66.9936C76.7875 66.9936 76.3011 67.1976 75.893 67.4644C75.485 67.7155 75.1084 67.9352 75.077 67.9352C75.0299 67.9352 74.9829 53.4352 74.9672 35.7181L74.9201 3.51671L74.4964 2.71639C73.7118 1.24127 72.4093 0.472331 70.0711 0.158477C68.9098 -0.0141425 7.0649 -0.0612196 6.10765 0.0957072ZM9.19911 2.41823C10.3604 2.93608 11.3176 3.89334 11.8512 5.0546L12.3063 6.02755L12.3533 12.5714L12.4004 19.1309H7.12768H1.85493L1.90201 12.4929C1.94909 6.09032 1.96478 5.83923 2.29433 5.13306C3.51836 2.4653 6.59412 1.25697 9.19911 2.41823ZM70.8871 2.22992C71.9228 2.59085 72.7545 3.29702 72.9585 4.03457C73.0997 4.58382 73.2096 69.0337 73.0527 69.0337C73.0213 69.0337 72.3151 68.5786 71.4991 68.0137C70.6831 67.4487 69.8357 66.9936 69.6473 66.9936C69.4433 66.9936 68.5332 67.4958 67.6073 68.1078L65.9282 69.2063L64.2805 68.1078C63.3546 67.4958 62.4601 66.9936 62.2718 66.9936C62.0835 66.9936 61.2047 67.4958 60.2945 68.1078L58.6468 69.222L56.9677 68.1078C56.0418 67.4958 55.1473 66.9936 54.959 66.9936C54.7707 66.9936 53.8762 67.4958 52.966 68.1078L51.3026 69.222L49.6706 68.1078C48.7604 67.4958 47.8659 66.9936 47.6776 66.9936C47.4736 66.9936 46.5634 67.4958 45.6375 68.1078L43.9427 69.222L42.3107 68.1078C41.4162 67.4958 40.506 66.9936 40.302 66.9936C40.098 66.9936 39.2035 67.4958 38.3247 68.0921C36.473 69.3632 36.8339 69.3946 34.6056 67.8567C33.9151 67.386 33.2089 66.9936 33.0206 66.9936C32.8323 66.9936 31.9221 67.4958 31.0119 68.1078L29.3485 69.2063L27.7008 68.1078C25.7078 66.7739 25.1743 66.6798 24.7976 67.6527C24.7035 67.9195 24.6407 70.7128 24.6407 75.0911L24.625 82.1057L24.2484 82.9217C23.7148 84.083 22.8674 84.9618 21.6905 85.5424C20.8117 85.9661 20.5135 86.0446 19.4464 86.0446C18.4264 86.0446 18.0812 85.9661 17.3279 85.5895C16.2137 85.0559 15.3663 84.2242 14.7857 83.1257L14.3463 82.294L14.2678 44.0039L14.1894 5.71369L13.8598 4.85059C13.4989 3.90903 12.934 2.93608 12.4004 2.38684C12.2121 2.19853 12.0709 1.99452 12.0709 1.94744C12.0709 1.90037 25.1115 1.88467 41.071 1.90036C68.4233 1.94744 70.1024 1.96314 70.8871 2.22992ZM36.7712 71.2934C36.9438 71.2464 37.7755 70.7442 38.5915 70.1949C39.4075 69.6457 40.1765 69.1906 40.2863 69.1906C40.4119 69.1906 41.1808 69.6614 42.0125 70.2263C42.8913 70.8383 43.7073 71.2777 43.927 71.2777C44.1624 71.2777 44.9941 70.8383 45.9828 70.1793L47.6148 69.0808L49.1998 70.1322C50.0629 70.7128 50.926 71.2307 51.0986 71.2934C51.334 71.3719 51.8675 71.1051 53.0916 70.2891C54.0174 69.6928 54.8491 69.1906 54.9433 69.1906C55.0375 69.1906 55.8535 69.6771 56.7637 70.2891C57.6738 70.8854 58.4898 71.3876 58.5997 71.3876C58.7095 71.3876 59.5413 70.8854 60.4671 70.2891C61.3773 69.6771 62.1933 69.1906 62.3032 69.1906C62.3973 69.1906 63.0878 69.5986 63.8254 70.1165C65.5516 71.2777 65.8026 71.4033 66.1636 71.2777C66.3205 71.215 67.1522 70.6971 68.0153 70.1165L69.6003 69.0651L71.2323 70.1793C72.2053 70.8383 73.037 71.2777 73.2724 71.2777C73.5234 71.2777 74.3081 70.854 75.2967 70.1636L76.8974 69.0494L78.6393 70.2263C79.5808 70.8697 80.4596 71.3876 80.5695 71.3876C80.695 71.3876 81.2599 71.058 81.8406 70.6657C82.4055 70.2734 82.9861 69.9125 83.096 69.8654C83.2843 69.8026 83.3157 70.7285 83.3157 75.5932C83.3157 81.0386 83.3 81.4623 82.9861 82.4666C82.7037 83.3611 82.4997 83.675 81.6993 84.491C79.9574 86.2329 83.1901 86.0603 51.8205 86.1073C35.8767 86.123 24.4681 86.0916 24.4681 85.9975C24.4681 85.919 24.5779 85.7778 24.7192 85.6522C25.1743 85.2756 25.8334 84.1928 26.1786 83.2356C26.5238 82.3254 26.5238 82.1371 26.5081 76.0326C26.5081 70.446 26.5238 69.7869 26.7435 69.8811C26.8691 69.9282 27.4183 70.2577 27.9519 70.6186C28.4854 70.9796 29.1131 71.2777 29.3328 71.2777C29.5839 71.2777 30.3685 70.854 31.3572 70.1636L32.9735 69.0494L34.6997 70.2263C35.9865 71.1051 36.5201 71.3719 36.7712 71.2934Z" fill="#1D49C3"></path><path d="M23.1657 8.42849C22.8204 8.80512 22.8204 9.46421 23.1657 9.73099C23.3697 9.9193 26.7279 9.95068 43.6132 9.95068C63.2605 9.95068 63.8254 9.93499 64.155 9.65252C64.5473 9.29159 64.5787 8.96204 64.2334 8.49126L63.998 8.14602H43.7074C24.2485 8.14602 23.4011 8.16172 23.1657 8.42849Z" fill="#1D49C3"></path><path d="M34.3073 13.2934C33.9307 13.7014 33.9621 14.5331 34.3387 14.7371C34.5427 14.8313 37.7754 14.894 43.7386 14.894C52.3382 14.894 52.8404 14.8784 53.0758 14.6116C53.4524 14.2036 53.4053 13.5445 52.9973 13.262C52.6834 13.0423 51.5379 13.0109 43.5974 13.0109C35.0449 13.0109 34.5427 13.0266 34.3073 13.2934Z" fill="#1D49C3"></path><path d="M20.1686 22.9915C19.8233 23.321 19.8547 24.0429 20.2 24.3568C20.4667 24.6078 22.3185 24.6235 43.6605 24.6235C66.6346 24.6235 66.8386 24.6235 67.1525 24.3097C67.3251 24.1371 67.4663 23.8546 67.4663 23.682C67.4663 23.5094 67.3251 23.2269 67.1525 23.0543C66.8386 22.7404 66.6346 22.7404 43.6291 22.7404C22.7265 22.7404 20.3883 22.7718 20.1686 22.9915Z" fill="#1D49C3"></path><path d="M20.2622 28.9549C19.8542 29.2373 19.7914 29.9749 20.1681 30.3358C20.3878 30.5555 22.7417 30.5869 43.6757 30.5869C66.0221 30.5869 66.9637 30.5712 67.1991 30.3044C67.56 29.9121 67.5286 29.3943 67.152 29.0176C66.8381 28.7038 66.6341 28.7038 43.7228 28.7038C23.0555 28.7038 20.5761 28.7352 20.2622 28.9549Z" fill="#1D49C3"></path><path d="M20.2622 34.9178C19.8542 35.2002 19.7914 35.9378 20.1681 36.2987C20.3878 36.5184 22.7417 36.5498 43.6914 36.5498H66.9793L67.2147 36.2046C67.5443 35.7338 67.5286 35.3572 67.152 34.9805C66.8381 34.6667 66.6341 34.6667 43.7228 34.6667C23.0555 34.6667 20.5761 34.6981 20.2622 34.9178Z" fill="#1D49C3"></path><path d="M29.1758 38.2289C22.4437 39.3587 17.8457 45.322 18.646 51.8972C19.6347 60.0103 27.7478 64.8751 35.5 61.9719C36.6612 61.5325 38.513 60.3085 39.5801 59.2728C41.1337 57.7663 42.4675 55.3653 43.0011 53.1055C43.3149 51.8187 43.2365 48.7587 42.8598 47.362C41.8555 43.5958 39.0465 40.4259 35.5314 39.0449C33.5541 38.276 30.9177 37.9307 29.1758 38.2289ZM32.8636 40.2375C36.7554 41.0536 39.6742 43.6742 40.8826 47.4562C41.3847 49.0254 41.4632 51.4264 41.0395 53.0271C39.2662 59.8691 31.5297 63.039 25.488 59.414C20.9999 56.7149 19.211 50.9243 21.4079 46.2008C23.4637 41.7597 28.2656 39.2646 32.8636 40.2375Z" fill="#1D49C3"></path><path d="M30.5886 41.854C30.1963 41.9795 29.9609 42.3876 29.9609 42.9996C29.9609 43.5488 29.9295 43.5802 29.239 43.7685C28.831 43.8784 28.1719 44.2393 27.7639 44.5688C26.7753 45.3535 26.3516 46.248 26.3516 47.5504C26.3516 49.3708 27.2304 50.485 29.0978 51.0342L29.8824 51.2539L29.9295 53.3254C29.9766 55.5694 29.9609 55.6008 29.0978 55.0672C28.6113 54.7691 28.3916 54.4082 28.1405 53.498C27.9051 52.6192 27.3402 52.3524 26.6968 52.8075C26.43 52.9958 26.3516 53.1998 26.3516 53.7491C26.3516 55.13 27.4814 56.5424 29.0664 57.123C29.9452 57.4525 29.9609 57.4839 29.9609 58.0646C29.9609 58.5039 30.055 58.7236 30.3689 58.9747C31.028 59.4926 31.844 58.9904 31.844 58.0489C31.844 57.4839 31.8754 57.4525 32.7542 57.123C33.7742 56.7621 34.7785 55.8833 35.2022 55.0202C35.5318 54.2983 35.5318 52.5564 35.2022 51.8816C34.6844 50.8616 33.8841 50.2653 32.5031 49.9044L31.844 49.716V47.5975V45.4947L32.4717 45.8086C33.1465 46.1538 33.3976 46.5147 33.6487 47.4563C33.7585 47.8643 33.9468 48.1468 34.2136 48.3037C34.5902 48.5077 34.6687 48.5077 35.061 48.2566C35.469 47.9898 35.4847 47.9114 35.4219 47.0483C35.3121 45.5418 34.1508 44.2236 32.5188 43.7528C31.8754 43.5802 31.844 43.5331 31.844 42.9996C31.844 42.1051 31.3105 41.6186 30.5886 41.854ZM29.9609 47.472V49.2923L29.5529 49.1982C28.3759 48.9 27.8424 47.8486 28.3288 46.8129C28.5956 46.2636 29.3489 45.6516 29.7726 45.6516C29.9138 45.6516 29.9609 46.1224 29.9609 47.472ZM32.7856 52.0072C33.5702 52.4152 33.8213 53.3097 33.429 54.2512C33.225 54.722 32.4089 55.3811 32.0166 55.3811C31.9068 55.3811 31.844 54.8162 31.844 53.5764C31.844 51.5835 31.8754 51.5364 32.7856 52.0072Z" fill="#1D49C3"></path><path d="M44.5393 41.1635C44.3196 41.6343 44.4608 42.2934 44.8217 42.4189C44.963 42.4817 49.9846 42.5288 55.9949 42.5131C65.8656 42.5131 66.9327 42.4817 67.1838 42.2463C67.529 41.9324 67.5447 41.3675 67.2152 41.038C66.9955 40.8183 65.7558 40.7869 55.838 40.7869H44.7119L44.5393 41.1635Z" fill="#1D49C3"></path><path d="M47.3948 46.7973C46.5788 47.2053 46.5474 48.1311 47.3321 48.4607C47.6616 48.5862 50.4235 48.6333 57.3911 48.6019C66.7125 48.5548 67.0264 48.5391 67.2461 48.2567C67.5599 47.8173 67.5129 47.3151 67.1362 46.9699C66.8224 46.6874 66.3987 46.6717 57.2812 46.6403C49.9214 46.6089 47.693 46.6403 47.3948 46.7973Z" fill="#1D49C3"></path><path d="M48.4306 52.996C48.0697 53.3883 48.101 53.9062 48.4777 54.2828C48.7915 54.5967 48.9955 54.5967 57.8148 54.5967C66.6341 54.5967 66.8381 54.5967 67.152 54.2828C67.5443 53.8905 67.56 53.3099 67.1833 52.9803C66.9166 52.7449 66.0378 52.7136 57.7834 52.7136C49.1681 52.7136 48.666 52.7292 48.4306 52.996Z" fill="#1D49C3"></path><path d="M44.0841 58.3629C43.6918 58.7552 43.6761 59.3358 44.0527 59.6654C44.3038 59.8851 44.7589 59.9321 47.0343 59.9321C49.6236 59.9321 49.7178 59.9164 49.9532 59.5869C50.2827 59.1161 50.267 58.7395 49.8904 58.3629C49.6079 58.0804 49.3725 58.049 46.9872 58.049C44.602 58.049 44.3666 58.0804 44.0841 58.3629Z" fill="#1D49C3"></path><path d="M44.0369 61.3128C43.7073 61.6737 43.6916 62.1288 43.9898 62.5368C44.1938 62.8036 44.4292 62.835 46.8772 62.835C49.2782 62.835 49.5764 62.8036 49.8745 62.5368C50.2826 62.1602 50.2982 61.6423 49.9216 61.2971C49.6705 61.0774 49.2311 61.0303 46.9557 61.0303C44.5704 61.0303 44.2566 61.0617 44.0369 61.3128Z" fill="#1D49C3"></path><path d="M52.8249 61.3128C52.4954 61.6737 52.4797 62.1288 52.7779 62.5368C52.9976 62.8193 53.2487 62.835 60.0122 62.835C66.7757 62.835 67.0268 62.8193 67.2465 62.5368C67.5447 62.1131 67.529 61.5952 67.1838 61.2971C66.917 61.0617 66.1951 61.0303 59.9808 61.0303C53.4997 61.0303 53.0603 61.046 52.8249 61.3128Z" fill="#1D49C3"></path></svg>