<svg xmlns="http://www.w3.org/2000/svg" width="384" height="512" viewBox="0 0 384 512" fill="none"><g clip-path="url(#clip0_83_48)"><path d="M173.8 5.50002C184.8 -1.79998 199.2 -1.79998 210.2 5.50002L228 17.2C234 21.1 241 23 248.1 22.6L269.4 21.3C282.6 20.5 295 27.7 300.9 39.5L310.5 58.6C313.7 65 318.9 70.1 325.2 73.3L344.5 83C356.3 88.9 363.5 101.3 362.7 114.5L361.4 135.8C361 142.9 362.9 150 366.8 155.9L378.6 173.7C385.9 184.7 385.9 199.1 378.6 210.1L366.8 228C362.9 234 361 241 361.4 248.1L362.7 269.4C363.5 282.6 356.3 295 344.5 300.9L325.4 310.5C319 313.7 313.9 318.9 310.7 325.2L301 344.5C295.1 356.3 282.7 363.5 269.5 362.7L248.2 361.4C241.1 361 234 362.9 228.1 366.8L210.3 378.6C199.3 385.9 184.9 385.9 173.9 378.6L156 366.8C150 362.9 143 361 135.9 361.4L114.6 362.7C101.4 363.5 89 356.3 83.1 344.5L73.5 325.4C70.3 319 65.1 313.9 58.8 310.7L39.5 301C27.7 295.1 20.5 282.7 21.3 269.5L22.6 248.2C23 241.1 21.1 234 17.2 228.1L5.49997 210.2C-1.80003 199.2 -1.80003 184.8 5.49997 173.8L17.2 156C21.1 150 23 143 22.6 135.9L21.3 114.6C20.5 101.4 27.7 89 39.5 83.1L58.6 73.5C65 70.2 70.2 65 73.4 58.6L83 39.5C88.9 27.7 101.3 20.5 114.5 21.3L135.8 22.6C142.9 23 150 21.1 155.9 17.2L173.8 5.50002ZM272 192C272 148.113 235.887 112 192 112C148.113 112 112 148.113 112 192C112 235.887 148.113 272 192 272C235.887 272 272 235.887 272 192ZM1.29997 441.8L44.4 339.3C44.6 339.4 44.7 339.5 44.8 339.7L54.4 358.8C66.1 382 90.4 396.1 116.4 394.6L137.7 393.3C137.9 393.3 138.2 393.3 138.4 393.5L156.2 405.3C161.3 408.6 166.7 411.2 172.3 413L134.7 502.3C132.4 507.8 127.3 511.5 121.4 512C115.5 512.5 109.8 509.8 106.6 504.8L74.4 455.5L18.3 463.8C12.6 464.6 6.89997 462.3 3.29997 457.8C-0.300034 453.3 -1.00003 447.1 1.19997 441.8H1.29997ZM249.3 502.2L211.7 413C217.3 411.2 222.7 408.7 227.8 405.3L245.6 393.5C245.8 393.4 246 393.3 246.3 393.3L267.6 394.6C293.6 396.1 317.9 382 329.6 358.8L339.2 339.7C339.3 339.5 339.4 339.4 339.6 339.3L382.8 441.8C385 447.1 384.2 453.2 380.7 457.8C377.2 462.4 371.4 464.7 365.7 463.8L309.6 455.5L277.4 504.7C274.2 509.7 268.5 512.4 262.6 511.9C256.7 511.4 251.6 507.6 249.3 502.2Z" fill="#048504"></path></g><defs><clipPath id="clip0_83_48"><rect width="384" height="512" fill="white"></rect></clipPath></defs></svg>