<svg xmlns="http://www.w3.org/2000/svg" width="85" height="85" viewBox="0 0 85 85" fill="none"><path d="M42.3673 0.18262C37.7521 0.81348 33.2863 2.78907 30.2814 5.54493C28.1398 7.50391 26.8449 9.44629 25.9816 12.0361L25.4669 13.5137L24.4875 14.0947C23.9396 14.4102 22.8771 15.2734 22.1466 16.0039C19.0421 19.0918 18.2951 22.9434 20.0714 26.6621C20.8517 28.2891 22.4123 30.0156 24.089 31.1445C24.7365 31.5596 25.2345 32.0244 25.2345 32.1738C25.2511 32.3232 25.3507 33.3027 25.4669 34.332C25.7326 36.4902 25.9318 36.8555 26.8781 36.8555C27.4093 36.8555 27.6418 36.6729 29.0861 35.2451L30.713 33.6182L32.4396 33.6846C35.2287 33.7676 38.1173 33.1699 40.3918 32.0078L41.3712 31.5264L43.546 31.709C45.09 31.8418 46.2687 31.8584 47.5138 31.7422L49.2902 31.5762L51.3986 33.7178C52.5773 34.8965 53.59 35.9756 53.6564 36.0918C53.8556 36.4404 54.7355 36.7393 55.2003 36.623C55.8478 36.457 56.047 35.8096 56.3459 32.9541C56.7775 28.9863 56.6613 29.3018 57.8234 28.6211C60.5793 27.0107 63.1525 24.4043 64.381 21.9971C68.9796 12.9326 62.505 2.92188 50.4855 0.481452C48.5929 0.0996156 44.1935 -0.066403 42.3673 0.18262ZM49.4894 2.92188C55.4992 3.95117 60.1974 7.12207 62.256 11.5381C63.0197 13.1484 63.2521 14.1943 63.2521 15.9873C63.2521 17.6973 62.9367 18.959 62.09 20.7022C60.9777 22.9766 58.2384 25.583 55.4992 26.9609C55.0177 27.1934 54.5529 27.5254 54.4699 27.708C54.3703 27.874 54.2043 28.9033 54.1046 29.9824C53.9884 31.0781 53.8556 32.0576 53.7892 32.1738C53.7228 32.3066 53.1085 31.7754 51.9796 30.6133L50.2697 28.8535L49.5724 28.9531C47.796 29.1855 44.2765 29.252 42.7658 29.0693C38.2003 28.4883 34.3654 26.7285 31.5265 23.9063C29.9494 22.3457 29.1027 21.0342 28.422 19.1084C28.0402 17.9961 27.9904 17.5977 27.9904 15.8545C28.007 14.1445 28.0568 13.6797 28.4386 12.6504C29.0197 10.957 29.7668 9.77832 31.1115 8.35059C33.7843 5.51172 37.3039 3.70215 41.7531 2.90528C43.4464 2.58985 47.5968 2.60645 49.4894 2.92188ZM25.9982 19.9219C27.0773 23.1426 29.4347 26.0313 32.7384 28.1729C33.8341 28.8867 36.1252 30.0488 36.8888 30.2813C37.2375 30.3975 37.2043 30.4307 36.5236 30.6465C35.3117 31.0283 33.0041 31.2109 31.4435 31.0283C29.8166 30.8457 29.6837 30.8955 28.671 31.9912C28.007 32.7217 27.9738 32.7383 27.8742 32.3564C27.8078 32.1406 27.758 31.7256 27.7414 31.4268C27.7082 30.5137 27.3927 30.0654 26.3302 29.501C24.8361 28.7207 23.0763 26.9775 22.3957 25.6162C21.8644 24.5537 21.8312 24.3877 21.8312 22.7441C21.8312 21.1504 21.881 20.918 22.3127 20.0049C22.6281 19.374 23.2589 18.5605 24.0558 17.7637L25.2843 16.5186L25.4337 17.5977C25.5168 18.1787 25.7658 19.2246 25.9982 19.9219Z" fill="#1D49C3"></path><path d="M34.3655 11.6709C33.8342 11.9365 33.5852 12.6338 33.801 13.2314C34.0998 14.1113 33.9338 14.1113 45.6711 14.1113C56.4455 14.1113 56.5783 14.1113 57.01 13.7627C57.5744 13.3145 57.6242 12.335 57.093 11.8535C56.761 11.5547 56.2961 11.5381 45.7541 11.5049C37.1545 11.4717 34.6975 11.5049 34.3655 11.6709Z" fill="#1D49C3"></path><path d="M40.8731 17.8799C40.7569 17.9297 40.5577 18.1787 40.4083 18.4443C40.1427 18.9756 40.2091 19.4902 40.6407 19.9551C40.8731 20.2373 41.4708 20.2539 48.8419 20.2539C56.5616 20.2539 56.794 20.2373 57.1095 19.9219C57.5743 19.457 57.5411 18.5771 57.0597 18.1289C56.6778 17.7637 56.6612 17.7637 48.8751 17.7803C44.5919 17.7803 40.9893 17.8301 40.8731 17.8799Z" fill="#1D49C3"></path><path d="M22.3292 40.4082C19.839 40.9062 18.1622 41.7861 16.6515 43.3799C14.6427 45.5215 13.7462 48.1279 13.7296 51.8799C13.7296 56.2461 14.9747 60.3965 17.2989 63.8662L18.2286 65.2441L17.1993 65.8086C14.9747 67.0371 12.1192 68.3818 10.4591 68.9795C9.4962 69.3115 8.28428 69.8262 7.76963 70.0918C6.57432 70.7227 5.11338 72.1504 4.1837 73.5615C2.75596 75.7695 1.61045 79.4717 1.39463 82.626C1.27842 84.1035 1.29502 84.1533 1.71006 84.5684L2.1417 85H42.5001H82.8585L83.2569 84.585C83.7716 84.0703 83.8048 83.2734 83.3565 80.6504C82.6427 76.5664 81.2647 73.6113 79.0899 71.5361C77.8282 70.3408 77.0479 69.8926 74.7071 69.0459C72.7149 68.332 69.9923 67.0537 67.9503 65.9082L66.7384 65.2441L67.4523 64.2646C69.046 62.1064 70.4405 58.7197 70.9884 55.6152C71.3868 53.3242 71.3536 49.9541 70.9054 48.2275C70.3409 46.1025 69.5108 44.5752 68.1661 43.2471C66.0079 41.1055 63.7501 40.2754 60.0978 40.2754C56.4454 40.2754 54.1876 41.1055 52.0294 43.2471C50.6847 44.5752 49.8546 46.1025 49.2901 48.2275C48.8419 49.9375 48.8087 53.3408 49.2071 55.582C49.7716 58.7363 51.1495 62.1064 52.7433 64.2646L53.4571 65.2441L52.2452 65.9082C50.2032 67.0703 47.4806 68.332 45.4884 69.0625C44.4425 69.4443 43.3302 69.8926 43.048 70.0586C42.5167 70.374 42.4835 70.374 41.9689 70.0586C41.67 69.8926 40.5245 69.4111 39.4288 69.0127C37.4532 68.2822 34.8136 67.0537 32.672 65.8418L31.5597 65.2275L32.3233 64.1982C34.5978 61.0938 36.0753 56.2627 36.0753 51.8799C36.0587 48.1113 35.1622 45.5215 33.1202 43.3633C31.8917 42.0518 30.2149 41.0889 28.3058 40.5908C26.9112 40.209 23.7735 40.126 22.3292 40.4082ZM28.4718 43.3135C31.8087 44.4922 33.5353 47.4141 33.5353 51.8467C33.5353 58.4043 29.8497 65.1777 25.8155 66.0908C22.5616 66.8213 18.9425 63.3184 17.1993 57.7734C16.3194 54.9844 16.0538 51.6641 16.5187 49.2402C17.0997 46.1855 18.6437 44.293 21.3331 43.3633C22.7276 42.8652 22.8937 42.8486 25.3175 42.915C26.9942 42.9482 27.6915 43.0312 28.4718 43.3135ZM63.6671 43.3135C67.004 44.4922 68.7306 47.4141 68.7306 51.8467C68.7306 58.4043 65.045 65.1777 61.0108 66.0908C57.7569 66.8213 54.1378 63.3184 52.3946 57.7734C51.5148 54.9844 51.2491 51.6641 51.714 49.2402C52.295 46.1855 53.839 44.293 56.5284 43.3633C57.923 42.8652 58.089 42.8486 60.5128 42.915C62.1896 42.9482 62.8868 43.0312 63.6671 43.3135ZM21.4825 67.9004C23.5411 69.0957 26.8282 68.9463 28.8868 67.5684L29.6173 67.0869L30.381 67.5186C30.796 67.751 31.1944 68 31.2608 68.0664C31.4601 68.2324 26.8946 71.3369 24.9689 72.3496C24.67 72.5156 24.2882 72.3164 22.0636 70.8057C20.6524 69.8594 19.2579 68.8633 18.9425 68.5977L18.378 68.1328L19.2745 67.6016C20.1212 67.1201 20.1876 67.1035 20.5694 67.3525C20.7853 67.4854 21.2003 67.751 21.4825 67.9004ZM56.6778 67.9004C58.7364 69.0957 62.0235 68.9463 64.0821 67.5684L64.8126 67.0869L65.5763 67.5186C65.9913 67.751 66.3898 68 66.4562 68.0664C66.7384 68.3154 60.048 72.6318 59.6993 72.4326C59.0187 72.0342 54.6026 68.9961 54.1378 68.5977L53.5733 68.1328L54.4698 67.6016C55.3165 67.1201 55.3829 67.1035 55.7648 67.3525C55.9806 67.4854 56.3956 67.751 56.6778 67.9004ZM17.5978 70.8057C20.4864 72.9971 24.089 75.2715 24.6534 75.2715C25.2677 75.2715 29.003 73.0469 31.9415 70.9551C33.0206 70.1914 33.9503 69.5605 34.0167 69.5605C34.0997 69.5605 34.8468 69.8926 35.7101 70.291C36.5733 70.6895 37.9513 71.2539 38.7648 71.5361C39.5948 71.835 40.5577 72.25 40.923 72.4658C43.0812 73.7275 44.7081 76.5332 45.4718 80.3018C45.671 81.2314 45.8204 82.0615 45.8204 82.1611C45.8204 82.2939 39.9269 82.3438 24.9024 82.3438H3.96788L4.06748 81.7129C4.74815 77.7451 5.94346 75.0557 7.80284 73.3125C8.69932 72.4658 9.28038 72.167 11.7042 71.2871C12.6173 70.9551 13.8458 70.4404 14.4435 70.125C15.0411 69.8262 15.6222 69.5771 15.7384 69.5605C15.8546 69.5605 16.7013 70.125 17.5978 70.8057ZM53.1583 71.0879C56.13 73.3291 59.2345 75.2715 59.8487 75.2715C60.5626 75.2715 65.3605 72.3662 68.0997 70.2744C68.6144 69.8926 69.1124 69.5605 69.212 69.5605C69.3282 69.5605 69.9093 69.8096 70.5235 70.125C71.1378 70.4238 72.3829 70.9551 73.296 71.2871C75.7198 72.167 76.3009 72.4658 77.2306 73.3457C79.0733 75.0391 80.4513 78.1602 80.9493 81.7129L81.0489 82.5098H64.7628H48.4767L48.4103 82.1279C48.3605 81.9287 48.2442 81.2314 48.1446 80.6006C47.7462 78.0273 46.6505 75.1553 45.3058 73.1797C44.9405 72.6484 44.6583 72.1836 44.6583 72.1504C44.6583 72.1172 45.3722 71.8516 46.2355 71.5527C47.0987 71.2539 48.4601 70.6895 49.2569 70.291C50.0538 69.9092 50.8009 69.5771 50.9171 69.5771C51.0333 69.5605 52.0294 70.2578 53.1583 71.0879Z" fill="#1B1D22"></path></svg>