<svg xmlns="http://www.w3.org/2000/svg" width="88" height="89" viewBox="0 0 88 89" fill="none"><path fill-rule="evenodd" clip-rule="evenodd" d="M18.6 61.5C17.7001 59.9 17 58.2 16.3 56.4C15.3 53.8 15 49.9 15.2 45.7C15.4 36.3 17.6 25.4 17.6 25.4C17.7 24.8 18.3 24.4 18.9 24.4C18.9 24.4 34.3 24.8 46.3 14.6C46.8 14.2 47.5 14.2 47.9001 14.6C52.4001 18.4 57.4 20.7 61.8 22.2C62.2001 22.2 62.6 22.1 63 22.2L65.5 22.4C65.5 22.4 65.6 22.4 65.7 22.4C65.7 22.4 65.7001 22.4 65.8 22.4L67.7 20.8C68.4 20.2 69.3 19.9 70.2 19.9C71.1 19.9 72 20.2 72.7 20.8L74.6 22.4C74.6 22.4 74.6 22.4 74.7 22.4C74.7 22.4 74.8 22.4 74.9 22.4L77.4 22.2C78.3 22.2 79.2 22.4 80 22.9C80.7 23.4 81.3 24.2 81.5 25.1L82.1 27.5C82.1 27.5 82.1 27.5 82.1 27.6C82.1 27.6 82.1 27.6 82.2 27.7L84.3 29C85.1001 29.5 85.7 30.2 86 31.1C86.3 32 86.3 32.9 86 33.8L85.1 36.1C85.1 36.1 85.1 36.1 85.1 36.3C85.1 36.5 85.1 36.4 85.1 36.5L86 38.8C86.3 39.7 86.4 40.6 86 41.5C85.7 42.4 85.1001 43.1 84.3 43.6L82.2 44.9C82.2 44.9 82.2 44.9 82.1 45C82.1 45 82.1 45 82.1 45.1L81.5 47.5C81.3 48.4 80.7 49.2 80 49.7C79.3 50.2 78.3 50.5 77.4 50.4L74.9 50.2C74.9 50.2 74.8 50.2 74.7 50.2C74.7 50.2 74.7 50.2 74.6 50.2L72.7 51.8C72 52.4 71.1 52.7 70.2 52.7C69.3 52.7 68.4 52.4 67.7 51.8L65.8 50.2C65.8 50.2 65.8 50.2 65.7 50.2C65.7 50.2 65.6 50.2 65.5 50.2L63 50.4C62.1 50.4 61.2001 50.2 60.4001 49.7C60.2001 49.5 60 49.4 59.8 49.2H48.3V80.7H45.8V49.2H20V46.7H45.8V19.5H48.3V46.7H58.7001L58.3 45.1C58.3 45.1 58.3 45.1 58.3 45C58.3 45 58.3 45 58.2001 44.9L56.1 43.6C55.3 43.1 54.7001 42.4 54.4001 41.5C54.1001 40.6 54.1001 39.7 54.4001 38.8L55.3 36.5C55.3 36.5 55.3 36.5 55.3 36.3C55.3 36.1 55.3 36.2 55.3 36.1L54.4001 33.8C54.1001 32.9 54 32 54.4001 31.1C54.7001 30.2 55.3 29.5 56.1 29L58.2001 27.7C58.2001 27.7 58.2001 27.7 58.3 27.6C58.3 27.6 58.3 27.6 58.3 27.5L58.9001 25.1C58.9001 24.7 59.1 24.4 59.3 24C55.3 22.6 51 20.4 47 17.2C36.4 25.8 23.5 26.8 19.8 26.9C19.3 29.8 17.8 38.2 17.6 45.7C17.6 49.5 17.7001 53.1 18.6 55.5C19.2001 57.2 19.9001 58.8 20.7001 60.3L28.2001 56.2L39.5 62.4C39.5 62.4 39.5 64.3 39.5 67.9C39.5 71.8 38.1001 75 36.2001 77.3C41.2001 80.9 45.5 82.9 46.9001 83.5C50.1001 82.1 68.9 73.2 75.3 55.5C75.5 54.9 75.7001 54.2 75.8 53.5L78.3 54C78.1001 54.9 77.9 55.7 77.7 56.4C70.3 76.7 47.4001 86 47.4001 86C47.1001 86.1 46.8 86.1 46.5 86C46.5 86 41 83.8 34.6 79.1C31.6 82.1 28.3 83.4 28.3 83.4C28.3 83.4 16.9 78.7 17 67.8C17 64.2 17 62.3 17 62.3L18.5 61.5H18.6ZM68.6 79.2C68.3 79.1 68.1 78.8 68.1 78.5C68.1 78.2 68.3 77.9 68.6 77.8C71.4 76.7 73.7 74.7 75 70.6C75.1 70.3 75.4 70.1 75.7 70.1C76 70.1 76.3 70.3 76.4 70.6C77.1 73.3 78.6001 76.8 81.8 78.4C82.1001 78.5 82.3 78.8 82.2 79.1C82.2 79.4 82 79.7 81.7 79.8C79.6 80.4 76.7001 81.8 75.8 85C75.8 85.3 75.5 85.5 75.2 85.5C74.9 85.5 74.6 85.4 74.5 85.1C73.5 83.1 71.7 80.4 68.6 79.1V79.2ZM32.1 66V65C32.1 63 30.5 61.3 28.4 61.3C26.4 61.3 24.7001 62.9 24.7001 65V66H23.8C23.1 66 22.5 66.6 22.5 67.3V70.7C22.5 73.9 25.1 76.6 28.4 76.6C31.6 76.6 34.3 74 34.3 70.7V67.3C34.3 66.6 33.7001 66 33 66H32.1ZM31.8 68.5V70.6C31.8 72.5 30.3 74 28.4 74C26.5 74 25 72.5 25 70.6V68.5H31.7001H31.8ZM29.6 65.9H27.3V64.9C27.3 64.3 27.8 63.7 28.5 63.7C29.1 63.7 29.7001 64.2 29.7001 64.9V65.9H29.6ZM2.20005 43.1C2.00005 43.1 1.80005 42.8 1.80005 42.5C1.80005 42.3 2.00005 42 2.20005 42C4.50005 41.1 6.40005 39.5 7.40005 36.2C7.40005 36 7.70005 35.8 8.00005 35.8C8.30005 35.8 8.50005 36 8.50005 36.2C9.10005 38.3 10.3 41.2 12.9 42.5C13.1 42.5 13.3 42.8 13.3 43.1C13.3 43.3 13.1 43.6 12.9 43.6C11.2 44.1 8.90005 45.2 8.10005 47.8C8.10005 48 7.80005 48.2 7.60005 48.2C7.40005 48.2 7.10005 48.1 7.00005 47.9C6.20005 46.3 4.80005 44.1 2.20005 43.1ZM61.8 36.3L66.8 41.7C67 42 67.4 42.1 67.7 42.1C68.1 42.1 68.4 42 68.6 41.7L78.6 30.8L76.7 29.1L67.6 39L63.6 34.6L61.8 36.3ZM27.9 10.1C27.6 10 27.4 9.7 27.4 9.4C27.4 9.1 27.6 8.8 27.9 8.7C30.7 7.6 33 5.6 34.3 1.5C34.4 1.2 34.7001 1 35 1C35.3 1 35.6001 1.2 35.7001 1.5C36.4001 4.2 37.9 7.7 41.1 9.3C41.4 9.4 41.6 9.7 41.5 10C41.5 10.3 41.3 10.6 41 10.7C38.9001 11.3 36 12.7 35.1 15.9C35.1 16.2 34.8 16.4 34.5 16.4C34.2001 16.4 33.9 16.3 33.8 16C32.8 14 31 11.3 27.9 10V10.1Z" fill="#1D49C3"></path></svg>