<svg xmlns="http://www.w3.org/2000/svg" width="24" height="24" viewBox="0 0 24 24" fill="none"><path d="M12 14.25C15 14.25 17.6063 13.5609 19.3828 12.5625C21.2297 11.5219 21.75 10.4391 21.75 9.75C21.75 9.06094 21.2297 7.97813 19.3828 6.9375C17.6063 5.93906 15 5.25 12 5.25C9 5.25 6.39375 5.93906 4.61719 6.9375C2.77031 7.97813 2.25 9.06094 2.25 9.75C2.25 10.4391 2.77031 11.5219 4.61719 12.5625C6.39375 13.5609 9 14.25 12 14.25ZM0 9.75C0 6.02344 5.37188 3 12 3C18.6281 3 24 6.02344 24 9.75V12V15C24 18.3141 18.6281 21 12 21C5.37188 21 0 18.3141 0 15V12V9.75ZM12 16.5C11.3625 16.5 10.7344 16.4719 10.125 16.4203V18.6703C10.7297 18.7219 11.3578 18.75 12 18.75C12.6422 18.75 13.2703 18.7219 13.875 18.6703V16.4203C13.2656 16.4719 12.6375 16.5 12 16.5ZM5.625 15.4688V17.7047C6.50156 18.0328 7.51406 18.3 8.625 18.4828V16.2281C7.55625 16.05 6.54844 15.7969 5.625 15.4688ZM4.125 14.8453C3.42188 14.4984 2.79375 14.1094 2.25 13.6875V15C2.25 15.3188 2.54063 16.1344 4.125 17.0203V14.8406V14.8453ZM15.375 16.2328V18.4875C16.4859 18.3047 17.4984 18.0375 18.375 17.7094V15.4734C17.4516 15.8016 16.4438 16.0594 15.375 16.2328ZM21.75 15V13.6875C21.2062 14.1141 20.5781 14.5031 19.875 14.8453V17.025C21.4594 16.1391 21.75 15.3234 21.75 15.0047V15Z" fill="#4B494B"></path></svg>