<svg xmlns="http://www.w3.org/2000/svg" width="160" height="148" viewBox="0 0 160 148" fill="none"><path d="M33.6113 13.0153C32.2635 4.46186 40.6804 -2.34304 48.7618 0.766431L152.788 40.7928C160.87 43.9023 162.554 54.5941 155.821 60.038L69.1437 130.114C62.4101 135.558 52.3085 131.671 50.9607 123.118L33.6113 13.0153Z" fill="#DEF7EA"></path><path d="M81.0608 26.7752C80.9184 26.805 80.7197 26.858 66.2971 30.712C55.6092 33.5693 56.4071 33.3343 55.9668 33.7779C55.5661 34.1753 55.3542 34.6951 55.3542 35.2679C55.3542 35.8473 55.5496 36.3208 55.9668 36.7678C56.0959 36.9068 57.7944 38.7279 59.7413 40.8138C70.8364 52.7035 72.9853 54.9981 73.1111 55.0908C73.9256 55.6901 75.0513 55.6404 75.7963 54.9782C75.9983 54.7994 76.2135 54.508 76.3161 54.273C76.3492 54.1968 76.932 52.2102 77.6074 49.866L78.8358 45.5982L78.8391 45.2505C78.8424 44.8466 78.7795 44.5817 78.6106 44.2572C78.3855 43.8268 78.0809 43.5321 77.6538 43.3235C76.8161 42.9229 75.9056 43.0752 75.25 43.7308C74.856 44.1182 74.8328 44.1811 74.058 46.8828L73.3859 49.2237L73.2303 49.0681C72.8131 48.641 61.473 36.4665 61.4597 36.4333C61.4498 36.4035 61.867 36.281 62.7775 36.036C63.5125 35.8407 67.3135 34.8242 71.2304 33.7779C75.144 32.7317 78.3491 31.8807 78.3524 31.884C78.3557 31.8874 78.0511 32.9403 77.6769 34.2249L76.9982 36.5592L76.9949 37.0227C76.9916 37.4266 77.0015 37.516 77.0677 37.7048C77.2266 38.165 77.5445 38.5623 77.9815 38.8504C78.1107 38.9331 78.2597 39.0391 78.3126 39.0821C78.4881 39.2278 78.7729 39.347 79.6569 39.6384C88.4674 42.5487 96.1026 47.4722 102.34 54.2564C106.622 58.915 110.138 64.5039 112.522 70.4372C114.522 75.4136 115.773 80.6913 116.21 86.0088C116.359 87.8133 116.422 90.8461 116.346 92.5678C116.24 95.008 116.005 97.1966 115.611 99.4514C115.459 100.312 115.439 100.663 115.528 101.008C115.717 101.756 116.336 102.372 117.071 102.544C117.349 102.61 117.829 102.61 118.081 102.547C118.859 102.345 119.458 101.736 119.637 100.965C119.703 100.68 119.965 99.0971 120.064 98.3753C120.471 95.4484 120.637 92.7996 120.604 89.7502C120.584 88.0252 120.561 87.4755 120.448 85.9757C119.935 79.261 118.24 72.682 115.412 66.4408C115.041 65.6197 114.015 63.5669 113.578 62.7656C112.211 60.2692 110.582 57.7462 108.916 55.5477C105.304 50.7799 101.026 46.6444 96.1787 43.2341C92.6558 40.7575 88.8879 38.6981 84.8816 37.0525C84.0605 36.7181 82.7163 36.2082 82.0507 35.9797C81.8256 35.9036 81.6435 35.8208 81.6435 35.7976C81.6435 35.7778 82.0607 34.3077 82.5739 32.533C83.4513 29.4902 83.5043 29.2882 83.5208 28.9737C83.5573 28.3214 83.3718 27.838 82.9215 27.3844C82.7096 27.1725 82.5938 27.0864 82.3719 26.9772C81.9448 26.7686 81.468 26.6957 81.0608 26.7752Z" fill="#807E7E"></path><path d="M47.9276 36.8905C47.6196 36.9601 45.9377 37.5163 44.9411 37.8739C41.8089 39.0096 38.478 40.5624 35.6206 42.2278C29.9886 45.5123 25.0817 49.5981 20.8602 54.5216C15.4699 60.8058 11.4703 68.229 9.18238 76.192C8.07982 80.0261 7.37789 84.0092 7.09645 87.9956C6.99381 89.4757 6.96732 90.2802 6.96732 91.9854C6.96732 95.7069 7.27193 99.008 7.94407 102.624C8.00035 102.922 8.04008 103.173 8.03346 103.18C8.02353 103.186 6.52696 103.564 4.70592 104.018C2.11672 104.66 1.34526 104.865 1.17971 104.948C0.477785 105.302 0.0539787 105.945 0.00431387 106.736C-0.0188631 107.103 0.0506677 107.431 0.229461 107.795L0.368523 108.077L8.20894 115.94C12.5199 120.265 16.5725 124.327 17.2181 124.966C18.3505 126.095 18.3969 126.132 18.6684 126.267C19.0359 126.443 19.2776 126.502 19.6451 126.502C20.0027 126.502 20.2576 126.443 20.5722 126.287C20.9761 126.089 21.3138 125.757 21.5125 125.363C21.6151 125.165 28.853 101.524 28.949 101.074C29.045 100.634 28.9821 100.173 28.7569 99.7165C28.4888 99.1669 27.9424 98.7431 27.3233 98.6041C26.8564 98.5014 26.6876 98.5312 24.5288 99.0709C23.4627 99.3358 21.5423 99.8159 20.2576 100.134C18.7379 100.511 17.8539 100.743 17.7247 100.806C16.9798 101.157 16.5195 101.892 16.5162 102.73C16.5162 103.63 17.1056 104.438 17.973 104.723C18.1154 104.769 18.3075 104.796 18.5359 104.806C18.9465 104.825 18.7644 104.862 21.678 104.137C22.817 103.855 23.7507 103.63 23.754 103.633C23.764 103.643 18.665 120.354 18.6452 120.377C18.6386 120.384 15.8474 117.606 12.4437 114.202C9.04 110.798 6.26539 108.004 6.27864 107.991C6.29188 107.977 7.37126 107.706 8.68242 107.381C11.4305 106.703 11.4206 106.706 11.8477 106.276C12.0166 106.107 12.1391 105.945 12.2219 105.786C12.3609 105.517 12.4768 105.11 12.4768 104.885C12.4768 104.802 12.4934 104.613 12.5165 104.465C12.5629 104.133 12.543 103.961 12.3278 102.945C11.7517 100.213 11.414 97.5743 11.2451 94.5183C11.1921 93.5515 11.1921 90.4458 11.2451 89.4856C11.3709 87.2308 11.5663 85.3932 11.9007 83.3603C13.2847 74.9272 16.7513 66.8384 21.9429 59.935C25.6777 54.9652 30.3263 50.6245 35.5047 47.2705C37.3192 46.0951 38.7826 45.2607 40.7527 44.2774C43.1829 43.0688 45.3781 42.1616 47.8547 41.3537C49.2917 40.8836 49.2784 40.8869 49.5533 40.7048C50.2254 40.2545 50.5863 39.4003 50.4406 38.5957C50.338 38.013 49.9605 37.46 49.4705 37.162C49.0301 36.8938 48.4077 36.7846 47.9276 36.8905Z" fill="#807E7E"></path><path d="M58.8073 58.4452C58.1319 58.5677 57.4763 59.114 57.2412 59.7464C57.2015 59.849 56.8804 61.2496 56.5294 62.8587C56.1751 64.4678 55.8837 65.7922 55.8771 65.7989C55.8705 65.8055 55.642 65.8783 55.3705 65.9644C54.0826 66.3617 52.5761 66.9842 51.3576 67.6199L50.8246 67.898L48.3347 66.3054C46.9672 65.4313 45.7621 64.6731 45.6594 64.6202C45.2124 64.3983 44.6032 64.3453 44.1463 64.4877C43.6132 64.6533 43.7589 64.5208 40.5671 67.7126C37.6402 70.6395 37.6137 70.666 37.4813 70.9342C37.1667 71.5699 37.1667 72.2586 37.4713 72.8612C37.5144 72.9407 38.2594 74.1194 39.1335 75.4835C40.0042 76.8476 40.7194 77.9767 40.7194 77.9932C40.7194 78.0065 40.6366 78.172 40.534 78.3641C39.9082 79.5328 39.2924 81.0029 38.8355 82.4167L38.6302 83.0491L35.6602 83.7014C32.879 84.3106 32.6737 84.3603 32.4088 84.4894C31.8725 84.751 31.4387 85.2973 31.303 85.8767C31.2268 86.2012 31.2268 94.1608 31.303 94.4853C31.4387 95.0647 31.8725 95.611 32.4088 95.8726C32.6737 96.0017 32.8724 96.0481 35.637 96.654C37.2594 97.0082 38.5938 97.2996 38.6037 97.2996C38.6169 97.2996 38.7196 97.5877 38.8322 97.9353C39.2924 99.3657 39.8917 100.789 40.5605 102.044C40.6466 102.21 40.7194 102.359 40.7194 102.372C40.7194 102.385 40.0042 103.514 39.1335 104.878C38.2594 106.243 37.5078 107.435 37.4581 107.531C37.1634 108.11 37.18 108.842 37.4945 109.461C37.6104 109.683 37.8256 109.905 40.5671 112.649C43.4311 115.513 43.5238 115.603 43.7655 115.719C44.1032 115.881 44.3648 115.94 44.7191 115.94C45.0932 115.94 45.3051 115.897 45.6031 115.762C45.7323 115.702 46.9573 114.934 48.3281 114.057C49.6988 113.179 50.8312 112.464 50.8444 112.471C50.8577 112.477 51.1126 112.61 51.4139 112.769C52.4502 113.312 53.7746 113.871 54.96 114.265C55.3143 114.381 55.6652 114.494 55.7414 114.517C55.844 114.543 55.8871 114.573 55.9003 114.626C55.9102 114.666 56.1983 115.987 56.5426 117.563C56.887 119.139 57.2015 120.51 57.2379 120.612C57.4863 121.268 58.1352 121.798 58.8405 121.92C59.0755 121.96 59.7576 121.966 63.1547 121.957C66.8332 121.95 67.2073 121.943 67.3729 121.89C68.0218 121.692 68.5417 121.231 68.78 120.649C68.8231 120.543 69.1409 119.155 69.4886 117.563C69.8396 115.97 70.1309 114.643 70.1375 114.616C70.1475 114.58 70.3495 114.5 70.7103 114.388C71.9487 113.997 73.1373 113.51 74.4021 112.878L75.2199 112.467L77.68 114.043C79.0309 114.907 80.2129 115.659 80.3023 115.709C80.8784 116.033 81.6167 116.043 82.2392 115.739L82.5206 115.603L85.4707 112.649C88.2122 109.908 88.4274 109.683 88.5433 109.461C88.8579 108.842 88.8744 108.11 88.5798 107.531C88.5334 107.438 87.7785 106.246 86.9077 104.885C86.0336 103.521 85.3184 102.395 85.3184 102.382C85.3184 102.369 85.5005 101.991 85.7257 101.541C86.3548 100.283 86.8349 99.1074 87.2189 97.889L87.3977 97.3162L87.7421 97.24C87.9275 97.197 89.2684 96.9023 90.7153 96.5844C93.1787 96.0481 93.3641 96.0017 93.629 95.8726C94.1654 95.6077 94.5991 95.0647 94.7349 94.4853C94.811 94.1608 94.811 86.2012 94.7349 85.8767C94.5991 85.2973 94.1654 84.7543 93.629 84.4894C93.3641 84.3603 93.1721 84.3139 90.4041 83.708C88.7817 83.3537 87.4474 83.0624 87.4341 83.0624C87.4176 83.0624 87.3381 82.8438 87.2554 82.5723C86.8514 81.291 86.3614 80.0924 85.7257 78.821C85.5005 78.3707 85.3184 77.9932 85.3184 77.98C85.3184 77.9667 86.0336 76.841 86.9077 75.4769C87.7785 74.1161 88.5334 72.9241 88.5798 72.8314C88.8744 72.252 88.8579 71.5203 88.5433 70.9011C88.4274 70.6793 88.2122 70.4541 85.4873 67.7292C82.3087 64.5473 82.4246 64.6533 81.8916 64.4877C81.4313 64.3453 80.8254 64.3983 80.3851 64.6202C80.2791 64.6731 79.0739 65.4313 77.7032 66.3088L75.21 67.9013L74.9252 67.749C73.6174 67.0504 71.8758 66.3253 70.5117 65.9114C70.2832 65.8419 70.1508 65.7823 70.1409 65.7492C70.1309 65.7194 69.8396 64.3917 69.4886 62.7991C69.1409 61.2065 68.8231 59.8159 68.78 59.7133C68.545 59.1305 68.0218 58.6703 67.3729 58.4716C67.2073 58.4187 66.8365 58.412 63.1182 58.4087C59.8602 58.4021 58.9994 58.4087 58.8073 58.4452Z" fill="white"></path><path d="M58.8073 58.4452C58.1319 58.5677 57.4763 59.114 57.2412 59.7464C57.2015 59.849 56.8804 61.2496 56.5294 62.8587C56.1751 64.4678 55.8837 65.7922 55.8771 65.7989C55.8705 65.8055 55.642 65.8783 55.3705 65.9644C54.0826 66.3617 52.5761 66.9842 51.3576 67.6199L50.8246 67.898L48.3347 66.3054C46.9672 65.4313 45.7621 64.6731 45.6594 64.6202C45.2124 64.3983 44.6032 64.3453 44.1463 64.4877C43.6132 64.6533 43.7589 64.5208 40.5671 67.7126C37.6402 70.6395 37.6137 70.666 37.4813 70.9342C37.1667 71.5699 37.1667 72.2586 37.4713 72.8612C37.5144 72.9407 38.2594 74.1194 39.1335 75.4835C40.0042 76.8476 40.7194 77.9767 40.7194 77.9932C40.7194 78.0065 40.6366 78.172 40.534 78.3641C39.9082 79.5328 39.2924 81.0029 38.8355 82.4167L38.6302 83.0491L35.6602 83.7014C32.879 84.3106 32.6737 84.3603 32.4088 84.4894C31.8725 84.751 31.4387 85.2973 31.303 85.8767C31.2268 86.2012 31.2268 94.1608 31.303 94.4853C31.4387 95.0647 31.8725 95.611 32.4088 95.8726C32.6737 96.0017 32.8724 96.0481 35.637 96.654C37.2594 97.0082 38.5938 97.2996 38.6037 97.2996C38.6169 97.2996 38.7196 97.5877 38.8322 97.9353C39.2924 99.3657 39.8917 100.789 40.5605 102.044C40.6466 102.21 40.7194 102.359 40.7194 102.372C40.7194 102.385 40.0042 103.514 39.1335 104.878C38.2594 106.243 37.5078 107.435 37.4581 107.531C37.1634 108.11 37.18 108.842 37.4945 109.461C37.6104 109.683 37.8256 109.905 40.5671 112.649C43.4311 115.513 43.5238 115.603 43.7655 115.719C44.1032 115.881 44.3648 115.94 44.7191 115.94C45.0932 115.94 45.3051 115.897 45.6031 115.762C45.7323 115.702 46.9573 114.934 48.3281 114.057C49.6988 113.179 50.8312 112.464 50.8444 112.471C50.8577 112.477 51.1126 112.61 51.4139 112.769C52.4502 113.312 53.7746 113.871 54.96 114.265C55.3143 114.381 55.6652 114.494 55.7414 114.517C55.844 114.543 55.8871 114.573 55.9003 114.626C55.9102 114.666 56.1983 115.987 56.5426 117.563C56.887 119.139 57.2015 120.51 57.2379 120.612C57.4863 121.268 58.1352 121.798 58.8405 121.92C59.0755 121.96 59.7576 121.966 63.1547 121.957C66.8332 121.95 67.2073 121.943 67.3729 121.89C68.0218 121.692 68.5417 121.231 68.78 120.649C68.8231 120.543 69.1409 119.155 69.4886 117.563C69.8396 115.97 70.1309 114.643 70.1375 114.616C70.1475 114.58 70.3495 114.5 70.7103 114.388C71.9487 113.997 73.1373 113.51 74.4021 112.878L75.2199 112.467L77.68 114.043C79.0309 114.907 80.2129 115.659 80.3023 115.709C80.8784 116.033 81.6167 116.043 82.2392 115.739L82.5206 115.603L85.4707 112.649C88.2122 109.908 88.4274 109.683 88.5433 109.461C88.8579 108.842 88.8744 108.11 88.5798 107.531C88.5334 107.438 87.7785 106.246 86.9077 104.885C86.0336 103.521 85.3184 102.395 85.3184 102.382C85.3184 102.369 85.5005 101.991 85.7257 101.541C86.3548 100.283 86.8349 99.1074 87.2189 97.889L87.3977 97.3162L87.7421 97.24C87.9275 97.197 89.2684 96.9023 90.7153 96.5844C93.1787 96.0481 93.3641 96.0017 93.629 95.8726C94.1654 95.6077 94.5991 95.0647 94.7349 94.4853C94.811 94.1608 94.811 86.2012 94.7349 85.8767C94.5991 85.2973 94.1654 84.7543 93.629 84.4894C93.3641 84.3603 93.1721 84.3139 90.4041 83.708C88.7817 83.3537 87.4474 83.0624 87.4341 83.0624C87.4176 83.0624 87.3381 82.8438 87.2554 82.5723C86.8514 81.291 86.3614 80.0924 85.7257 78.821C85.5005 78.3707 85.3184 77.9932 85.3184 77.98C85.3184 77.9667 86.0336 76.841 86.9077 75.4769C87.7785 74.1161 88.5334 72.9241 88.5798 72.8314C88.8744 72.252 88.8579 71.5203 88.5433 70.9011C88.4274 70.6793 88.2122 70.4541 85.4873 67.7292C82.3087 64.5473 82.4246 64.6533 81.8916 64.4877C81.4313 64.3453 80.8254 64.3983 80.3851 64.6202C80.2791 64.6731 79.0739 65.4313 77.7032 66.3088L75.21 67.9013L74.9252 67.749C73.6174 67.0504 71.8758 66.3253 70.5117 65.9114C70.2832 65.8419 70.1508 65.7823 70.1409 65.7492C70.1309 65.7194 69.8396 64.3917 69.4886 62.7991C69.1409 61.2065 68.8231 59.8159 68.78 59.7133C68.545 59.1305 68.0218 58.6703 67.3729 58.4716C67.2073 58.4187 66.8365 58.412 63.1182 58.4087C59.8602 58.4021 58.9994 58.4087 58.8073 58.4452ZM65.1346 62.6898C65.1446 62.723 65.4128 63.9546 65.7372 65.4313C66.0584 66.9047 66.3498 68.1927 66.3862 68.2887C66.4756 68.5304 66.7537 68.9344 66.9292 69.0834C67.3067 69.3979 67.4623 69.4641 68.5317 69.7522C70.3859 70.2488 72.1142 70.9806 73.8558 72.0103C74.1538 72.1858 74.465 72.3447 74.6173 72.3944C75.1007 72.55 75.7629 72.5003 76.2132 72.2685C76.2761 72.2354 77.3787 71.5368 78.6633 70.7157L80.9976 69.2224L82.4809 70.7057C83.2954 71.5203 83.9609 72.1957 83.9609 72.2056C83.9609 72.2189 83.2888 73.2751 82.4677 74.5564C81.6465 75.8378 80.938 76.9668 80.8916 77.0662C80.7625 77.3509 80.7128 77.5926 80.7128 77.9303C80.7095 78.4038 80.8188 78.7515 81.1267 79.2382C81.4711 79.7745 82.0439 80.8738 82.3882 81.6552C82.8219 82.6352 83.2325 83.8206 83.5272 84.943C83.6199 85.2907 83.7325 85.6615 83.7788 85.7608C84.0371 86.3005 84.5602 86.7342 85.1396 86.8832C85.2919 86.923 90.0664 87.9726 90.4604 88.052L90.5498 88.0686V92.2934L90.3942 92.3298C90.3048 92.3464 89.0665 92.6179 87.6361 92.9291C84.7754 93.5516 84.7258 93.5681 84.3185 93.9025C84.1232 94.0615 83.8914 94.3561 83.7656 94.6111C83.7258 94.6906 83.6133 95.0647 83.5139 95.4388C82.9974 97.4254 82.2624 99.1968 81.2128 100.991C80.8056 101.68 80.746 101.849 80.7228 102.316C80.7062 102.716 80.7393 102.935 80.8618 103.233C80.9049 103.336 81.6101 104.468 82.4312 105.753C83.2557 107.034 83.9344 108.107 83.9444 108.13C83.9543 108.16 83.408 108.729 82.4776 109.66L80.991 111.143L78.6931 109.676C75.9351 107.911 76.2165 108.084 75.9152 107.981C75.5808 107.868 75.2398 107.845 74.8954 107.908C74.5809 107.964 74.3359 108.07 73.8359 108.372C72.0844 109.418 70.1309 110.226 68.1278 110.726C67.4192 110.904 67.0749 111.096 66.7206 111.517C66.4028 111.888 66.3961 111.914 65.7505 114.871C65.4227 116.361 65.1479 117.613 65.138 117.656L65.1215 117.728L63.0123 117.722L60.8999 117.712L60.2973 114.947C59.592 111.726 59.6252 111.825 59.1484 111.355C58.8107 111.017 58.5524 110.888 57.92 110.729C55.9996 110.249 53.97 109.421 52.3741 108.471C51.4967 107.951 51.3179 107.882 50.8014 107.882C50.4339 107.878 50.2054 107.925 49.9074 108.06C49.7981 108.11 48.6592 108.822 47.3745 109.646L45.0436 111.143L43.5602 109.66C42.7457 108.845 42.0769 108.166 42.0769 108.153C42.0769 108.136 42.7424 107.087 43.5536 105.819C44.3681 104.547 45.0767 103.418 45.1263 103.309C45.272 103.008 45.3316 102.677 45.3151 102.303C45.2919 101.875 45.2124 101.657 44.8582 101.058C43.7556 99.1836 43.0404 97.4718 42.5239 95.4753C42.2988 94.6078 42.1994 94.4025 41.8319 94.035C41.3651 93.5681 41.4545 93.5946 38.2627 92.8993C36.7595 92.5682 35.5179 92.3 35.5079 92.3C35.498 92.3 35.4881 91.3498 35.4881 90.1876V88.0752L38.2461 87.4693C40.7393 86.923 41.0273 86.8534 41.2657 86.7376C41.7028 86.5257 42.014 86.221 42.2292 85.7972C42.3054 85.6516 42.408 85.3304 42.5239 84.8867C43.0437 82.8935 43.7986 81.089 44.8681 79.2878C45.1992 78.7316 45.2919 78.4833 45.3118 78.0595C45.3316 77.6952 45.2753 77.3642 45.1363 77.0695C45.0899 76.9701 44.3847 75.8444 43.5636 74.5664C42.7457 73.285 42.0769 72.2288 42.0769 72.2123C42.0769 72.199 42.7424 71.5203 43.5602 70.7057L45.0403 69.2224L47.3745 70.719C48.6592 71.5401 49.7981 72.2553 49.9074 72.305C50.2021 72.4407 50.606 72.5136 50.9305 72.4871C51.308 72.454 51.6225 72.3381 52.1225 72.0401C53.9899 70.9276 55.7116 70.2124 57.9001 69.6396C58.6087 69.4509 58.7974 69.3582 59.1517 69.0039C59.6252 68.5404 59.5921 68.6364 60.2907 65.4446C60.6185 63.9447 60.8933 62.6965 60.8999 62.6733C60.9098 62.6435 61.3634 62.6336 63.0156 62.6336C64.989 62.6336 65.1181 62.6369 65.1346 62.6898Z" fill="#807E7E"></path><path d="M62.0422 75.384C58.165 75.629 54.4633 77.4567 51.8741 80.4068C48.9141 83.7807 47.6526 88.2472 48.4042 92.7137C48.7287 94.6474 49.5035 96.6042 50.606 98.2861C52.0496 100.485 53.9832 102.216 56.3307 103.408C58.3306 104.425 60.5556 104.978 62.7044 104.994C63.2772 104.998 63.4129 104.988 63.5818 104.938C64.3202 104.709 64.9029 104.107 65.0718 103.385C65.1347 103.117 65.1347 102.673 65.0718 102.402C64.9062 101.7 64.3069 101.074 63.5984 100.859C63.4759 100.822 63.1944 100.796 62.7408 100.776C61.9992 100.74 61.6813 100.706 61.1151 100.607C58.8769 100.207 56.7281 99.0179 55.1984 97.3326C53.9005 95.8989 53.0198 94.1772 52.6357 92.3197C52.4834 91.5715 52.4271 91.0152 52.4271 90.1808C52.4271 89.6875 52.4469 89.2803 52.4834 88.9723C52.9237 85.3203 55.1355 82.2212 58.4398 80.6286C59.4861 80.1254 60.4728 79.8307 61.6879 79.6618C62.2607 79.5824 63.7871 79.5824 64.3433 79.6618C66.7471 80.0095 68.7337 80.973 70.3826 82.5788C71.3295 83.5059 71.9354 84.3369 72.5215 85.5289C72.8758 86.2474 73.081 86.7904 73.2664 87.5089C73.4817 88.3466 73.5512 88.82 73.5975 89.8001C73.6174 90.2073 73.6505 90.5782 73.6803 90.694C73.8293 91.2768 74.2631 91.8132 74.7928 92.0681C75.4385 92.376 76.094 92.3694 76.7165 92.0449C77.233 91.7734 77.6502 91.237 77.7859 90.6709C77.9118 90.1312 77.8025 88.532 77.5542 87.2837C77.1734 85.3766 76.4715 83.6748 75.3921 82.0358C74.7961 81.1286 74.2763 80.4929 73.4651 79.685C72.3923 78.6156 71.2964 77.8011 69.9687 77.0892C67.5649 75.8012 64.8069 75.2086 62.0422 75.384Z" fill="#807E7E"></path><path d="M71.0652 96.5846C70.6149 96.6905 70.3467 96.8395 70.0023 97.1805C69.5719 97.6077 69.3832 98.0679 69.3898 98.687C69.3931 99.4949 69.85 100.21 70.5884 100.561C71.3698 100.932 72.2637 100.799 72.9028 100.223C73.363 99.8062 73.5981 99.2764 73.5981 98.6572C73.5981 98.2036 73.4756 97.8129 73.2074 97.4289C72.969 97.0812 72.5054 96.7501 72.075 96.6243C71.8201 96.5481 71.3102 96.5283 71.0652 96.5846Z" fill="#807E7E"></path><path d="M114.671 110.659C113.936 110.832 106.542 112.543 104.373 113.043C94.9769 115.215 90.964 116.152 90.805 116.209C90.2389 116.421 89.7853 116.891 89.5634 117.503C89.484 117.718 89.474 117.791 89.474 118.175C89.474 118.655 89.5071 118.795 89.719 119.202C89.8051 119.374 89.9442 119.543 90.2355 119.847C90.4574 120.076 91.8712 121.543 93.381 123.105C95.3312 125.125 96.1821 125.986 96.3211 126.075C96.7118 126.33 97.0628 126.416 97.5826 126.397C98.1488 126.37 98.5759 126.185 98.9732 125.787C99.2116 125.549 99.3606 125.307 99.4831 124.973C99.5593 124.761 99.5692 124.681 99.5692 124.317C99.5692 123.96 99.556 123.867 99.4798 123.639C99.4302 123.493 99.3308 123.278 99.2547 123.162C99.1388 122.99 97.4005 121.149 95.9867 119.708C95.8311 119.549 95.7086 119.41 95.7185 119.4C95.7285 119.394 96.4735 119.215 97.374 119.006C98.2746 118.798 100.298 118.328 101.874 117.963C103.45 117.599 106.539 116.881 108.741 116.371C110.942 115.861 112.75 115.45 112.76 115.457C112.773 115.474 108.271 132.254 108.234 132.323C108.218 132.35 107.638 131.767 106.579 130.668C105.681 129.734 104.86 128.893 104.751 128.8C104.37 128.473 103.923 128.314 103.397 128.314C102.976 128.314 102.774 128.373 102.132 128.684C101.609 128.939 101.579 128.959 101.162 129.34C98.0727 132.144 94.7815 134.499 91.06 136.568C90.2422 137.022 88.2026 138.048 87.3384 138.435C81.3489 141.137 75.0613 142.69 68.4492 143.107C64.0092 143.385 59.5129 143.094 55.106 142.243C46.61 140.601 38.6934 136.945 31.9323 131.542C30.992 130.79 30.353 130.244 29.4028 129.39C28.575 128.645 28.383 128.516 27.9393 128.4C27.6645 128.33 27.1943 128.33 26.9129 128.403C26.1712 128.592 25.5587 129.198 25.3733 129.929C25.3071 130.188 25.3104 130.698 25.3766 130.969C25.4428 131.231 25.5852 131.525 25.7474 131.744C25.8765 131.909 26.4427 132.436 27.3268 133.211C32.717 137.922 38.9516 141.597 45.6862 144.028C50.699 145.835 56.0099 146.951 61.3306 147.309C63.7145 147.471 66.6216 147.478 68.979 147.329C77.72 146.769 86.173 144.243 93.7618 139.919C96.8807 138.141 99.9235 136.002 102.642 133.674C102.91 133.446 103.145 133.257 103.162 133.257C103.182 133.257 104.234 134.333 105.503 135.647C106.771 136.965 107.876 138.094 107.953 138.161C108.158 138.336 108.35 138.439 108.648 138.545C108.873 138.621 108.962 138.634 109.307 138.634C109.628 138.637 109.747 138.624 109.936 138.564C110.572 138.362 111.068 137.872 111.29 137.23C111.432 136.81 117.796 113.083 117.833 112.835C117.952 111.987 117.472 111.09 116.69 110.706C116.091 110.414 115.76 110.404 114.671 110.659Z" fill="#807E7E"></path></svg>