<svg xmlns="http://www.w3.org/2000/svg" width="228" height="228" viewBox="0 0 228 228" fill="none"><rect width="228" height="228" rx="114" fill="#1D49C3"></rect><path fill-rule="evenodd" clip-rule="evenodd" d="M84.4834 133.288L118.694 113.586C122.195 111.569 123.406 107.053 121.389 103.554C119.372 100.055 114.856 98.8409 111.356 100.859L62.0303 129.342C60.6753 122.752 58.2887 120.266 54.0661 120.03C49.3095 119.763 45.2478 123.254 44.7535 127.994C42.6024 148.593 37.6915 152.376 46.8582 170.583C54.7246 186.207 73.6582 190.605 87.701 182.549L106.742 171.355C110.244 169.338 111.454 164.822 109.436 161.323C107.419 157.824 102.905 156.61 99.4018 158.635C102.901 156.625 104.112 152.109 102.095 148.61C100.079 145.11 95.5623 143.896 92.0612 145.92C95.559 143.908 96.7698 139.392 94.753 135.893C92.7379 132.394 87.9729 131.251 84.4834 133.288ZM147.461 50.4404C147.461 51.5914 146.527 52.5251 145.376 52.5251C144.225 52.5251 143.291 51.5914 143.291 50.4404V43.5846C143.291 42.4337 144.225 41.5 145.376 41.5C146.527 41.5 147.461 42.4337 147.461 43.5846V50.4404ZM135.903 114.092H143.293V89.461L135.199 84.7893C134.206 84.2188 133.863 82.9501 134.435 81.9567C135.005 80.9633 136.274 80.62 137.268 81.1922L145.378 85.8739L153.488 81.1922C154.481 80.6217 155.75 80.9633 156.321 81.9567C156.891 82.9501 156.55 84.2188 155.556 84.7893L147.462 89.461V114.09H154.853C155.644 103.494 158.543 99.0067 161.071 95.0995C162.966 92.1675 164.618 89.6119 164.618 84.3C164.618 73.6747 156.006 65.0626 145.379 65.0626C134.753 65.0626 126.141 73.6747 126.141 84.3C126.141 89.6119 127.792 92.1675 129.688 95.0995C132.211 99.0084 135.111 103.496 135.903 114.092ZM158.994 114.611C160.006 115.233 160.684 116.349 160.684 117.616V125.223C160.684 127.161 159.099 128.747 157.16 128.747H153.536V132.281C153.536 134.11 152.04 135.606 150.211 135.606H140.545C138.715 135.606 137.219 134.11 137.219 132.281V128.747H133.596C131.657 128.747 130.071 127.161 130.071 125.223V117.616C130.071 116.349 130.75 115.231 131.761 114.611C131.058 104.859 128.462 100.844 126.204 97.3483C123.943 93.8508 121.973 90.8026 121.973 84.3017C121.973 71.3761 132.453 60.8967 145.379 60.8967C158.306 60.8967 168.786 71.3761 168.786 84.3017C168.786 90.8043 166.816 93.8508 164.555 97.3483C162.293 100.844 159.697 104.859 158.994 114.611ZM179.522 71.3545C178.528 71.925 177.259 71.5834 176.689 70.59C176.118 69.5966 176.46 68.328 177.454 67.7575L183.391 64.3296C184.385 63.7591 185.653 64.1007 186.224 65.0941C186.794 66.0875 186.453 67.3561 185.459 67.9266L179.522 71.3545ZM166.293 56.5964C165.723 57.5898 164.454 57.9331 163.461 57.361C162.467 56.7905 162.124 55.5218 162.696 54.5284L166.124 48.5913C166.695 47.5979 167.963 47.2547 168.957 47.8268C169.95 48.3973 170.294 49.666 169.722 50.6594L166.293 56.5964ZM113.299 67.7558C114.292 68.3263 114.635 69.595 114.063 70.5884C113.491 71.5818 112.224 71.925 111.23 71.3529L105.293 67.925C104.299 67.3545 103.956 66.0858 104.528 65.0924C105.099 64.099 106.368 63.7558 107.361 64.3279L113.299 67.7558ZM128.059 54.5201C128.635 55.5135 128.297 56.7855 127.301 57.361C126.308 57.9364 125.036 57.5981 124.46 56.6031L121.032 50.666C120.457 49.6726 120.795 48.4006 121.79 47.8251C122.784 47.2497 124.056 47.588 124.631 48.583L128.059 54.5201Z" fill="white"></path></svg>