<svg xmlns="http://www.w3.org/2000/svg" width="160" height="121" viewBox="0 0 160 121" fill="none"><path d="M26.0287 10.2339C26.0287 4.73747 30.4844 0.281738 35.9809 0.281738H150.048C155.544 0.281738 160 4.73747 160 10.2339V81.4301C160 86.9265 155.544 91.3822 150.048 91.3822H35.9809C30.4844 91.3822 26.0287 86.9265 26.0287 81.4301V10.2339Z" fill="#F4EBFC"></path><path d="M12.2488 92.1478C12.2488 89.611 14.3053 87.5545 16.8421 87.5545H42.8708C45.4076 87.5545 47.4641 89.611 47.4641 92.1478V113.583C47.4641 116.12 45.4076 118.176 42.8708 118.176H16.8421C14.3053 118.176 12.2488 116.12 12.2488 113.583V92.1478Z" fill="white"></path><path d="M68.134 20.9516C68.134 18.4148 70.1905 16.3583 72.7273 16.3583H98.756C101.293 16.3583 103.349 18.4148 103.349 20.9516V42.387C103.349 44.9238 101.293 46.9803 98.756 46.9803H72.7273C70.1905 46.9803 68.134 44.9238 68.134 42.387V20.9516Z" fill="white"></path><path d="M60.4785 27.8415H67.3684V38.5593H60.4785V27.8415Z" fill="white"></path><path d="M48.9952 97.5066H55.8852V108.224H48.9952V97.5066Z" fill="white"></path><path d="M71.3679 16.0206C68.2844 17.4132 66.2951 19.6512 65.5988 22.5855C65.0517 24.6743 64.9522 24.7738 63.1121 24.7738C60.2275 24.7738 58.7355 25.5695 57.8901 27.5091C57.4922 28.4541 57.2435 29.4985 57.2932 29.8466C57.3927 30.3439 53.2648 30.5429 37.7976 30.7418C16.2629 31.0402 16.3624 31.0402 11.6874 34.2232C6.46538 37.804 3.43163 43.7223 3.43163 50.138C3.48136 58.5927 7.46006 64.7597 15.2185 68.3902L18.1528 69.7828L96.7321 70.2801L99.0696 71.424C104.242 73.9604 107.624 79.4311 107.624 85.2002C107.624 89.8752 106.132 93.1576 102.65 96.3406C98.2738 100.319 98.0749 100.369 76.7889 100.369H58.2879L57.9895 98.7278C57.4425 95.893 56.597 95.1967 53.414 94.8983L50.5295 94.6496L49.7337 92.1629C48.8385 89.1292 46.0534 86.1949 43.4175 85.4986C42.2737 85.1505 35.4601 84.9516 26.2594 84.9516H10.9414V93.4063H0V97.8823H10.9414V107.829H0V111.758L10.6928 112.056L10.9912 120.76H26.2594C41.2293 120.76 41.5774 120.71 44.0143 119.566C47.0978 118.174 49.0872 115.886 49.8332 113.001L50.43 110.813H52.8172C55.8012 110.813 57.7409 109.321 57.9398 106.834L58.0393 105.094L77.6343 104.845C99.0696 104.547 99.0696 104.547 103.645 101.413C113.393 94.6994 114.984 80.9231 106.977 71.9213C105.585 70.3298 103.595 68.9373 101.059 67.694L97.2792 65.8041L18.6501 65.3067L16.1137 63.9639C10.842 61.1788 7.75846 56.1557 7.75846 50.3866C7.75846 45.7117 9.25047 42.4292 12.7318 39.2463C17.1084 35.2676 17.3073 35.2178 38.9415 35.2178C55.3536 35.2178 57.7409 35.3173 57.4922 35.9638C57.0943 37.1077 58.1387 39.4949 59.3323 40.0917C59.9291 40.3901 61.4212 40.7383 62.6148 40.788C64.7533 40.9372 64.803 40.987 65.748 43.5731C66.8919 46.7063 69.3785 49.2428 72.0642 50.0385C73.3075 50.4364 79.0766 50.6353 89.2223 50.6353H104.441V42.6779H114.935L114.785 40.5393L114.636 38.4505L104.441 38.1521V27.2604H114.935L114.636 23.1823L109.663 23.0828L104.689 23.0331L104.391 14.827H89.1228C74.153 14.827 73.8048 14.8768 71.3679 16.0206ZM99.4674 45.6619H73.0091L70.1245 42.7774V33.2782C70.1245 27.3102 70.3235 23.3812 70.6716 22.5855C71.8155 20.0491 73.2578 19.8004 86.9345 19.8004H99.4674V45.6619ZM65.1512 36.7596L63.5597 36.6104L61.9185 36.4612L61.6201 29.2498H65.1512V36.7596ZM42.771 90.1736C45.5561 91.6159 45.8545 92.909 45.6556 103.453L45.5064 112.902L43.8651 114.344L42.2737 115.786H15.4175V89.4276H28.3482C38.9912 89.4276 41.5774 89.5768 42.771 90.1736ZM53.613 102.707L53.7622 106.337H50.2311V102.955C50.2311 101.065 50.3803 99.3743 50.5792 99.1754C50.7781 98.9765 51.5241 98.877 52.2204 98.9765C53.414 99.1257 53.4638 99.2749 53.613 102.707Z" fill="#807E7E"></path><path d="M19.893 112.305H24.369V93.4059H19.893V112.305Z" fill="#807E7E"></path><path d="M81.1903 41.0616H85.6663V22.1627H81.1903V41.0616Z" fill="#807E7E"></path><path d="M28.845 112.305H33.321V93.4059H28.845V112.305Z" fill="#807E7E"></path><path d="M90.1423 41.0616H94.6183V22.1627H90.1423V41.0616Z" fill="#807E7E"></path><path d="M17.5567 41.1856C13.1304 43.722 11.2405 48.4467 12.633 53.2709C13.7769 57.2496 18.2032 61.0293 21.784 61.0791C22.729 61.0791 22.8782 60.8304 22.8782 58.8908C22.8782 56.8517 22.7787 56.7025 21.3364 56.4041C17.9545 55.7576 15.5673 51.3313 16.9101 48.1483C17.7059 46.2087 20.1428 44.1696 21.6846 44.1696C22.7787 44.1696 22.8782 43.9707 22.8782 41.9316C22.8782 39.8428 22.7787 39.6936 21.5354 39.6936C20.7396 39.6936 18.999 40.3898 17.5567 41.1856Z" fill="#807E7E"></path><path d="M22.877 52.6246H27.353V48.1486H22.877V52.6246Z" fill="#807E7E"></path><path d="M31.829 52.6246H36.305V48.1486H31.829V52.6246Z" fill="#807E7E"></path><path d="M40.781 52.6744L42.9195 52.5252C45.0084 52.376 45.0084 52.376 45.1576 50.2375L45.3068 48.1486H40.781V52.6744Z" fill="#807E7E"></path><path d="M92.5042 76.6961C92.5042 78.7352 92.6037 78.8844 94.0459 79.1828C97.4278 79.8293 99.8151 84.2556 98.4723 87.4386C97.6765 89.3782 95.2396 91.4173 93.6978 91.4173C92.6037 91.4173 92.5042 91.6162 92.5042 93.6553C92.5042 95.6944 92.6037 95.8933 93.7475 95.8933C94.4438 95.8933 96.1348 95.3463 97.5273 94.65C105.435 90.6216 104.938 79.1828 96.7316 75.4528C95.6374 74.9554 94.2449 74.5078 93.6481 74.5078C92.6534 74.5078 92.5042 74.7565 92.5042 76.6961Z" fill="#807E7E"></path><path d="M70.5724 83.2109C70.5724 83.3601 70.5226 84.3051 70.4729 85.2998C70.4729 87.1896 70.4729 87.1896 72.512 87.3388L74.6008 87.488V82.9623H72.6114C71.5173 82.9623 70.6221 83.0617 70.5724 83.2109Z" fill="#807E7E"></path><path d="M79.0762 87.4382H83.5522V82.9622H79.0762V87.4382Z" fill="#807E7E"></path><path d="M88.0282 87.4382H92.5042V82.9622H88.0282V87.4382Z" fill="#807E7E"></path></svg>