<svg width="56" height="56" viewBox="0 0 56 56" fill="none" xmlns="http://www.w3.org/2000/svg">
<g clip-path="url(#clip0_125_4)">
<rect width="56" height="56" fill="#3E4644"/>
<circle cx="7.87262" cy="21.0919" r="41.5381" transform="rotate(-0.403168 7.87262 21.0919)" fill="url(#paint0_linear_125_4)" stroke="url(#paint1_linear_125_4)" stroke-width="0.085853"/>
<circle cx="28.0909" cy="50.775" r="41.5381" transform="rotate(-0.403168 28.0909 50.775)" fill="url(#paint2_linear_125_4)" stroke="url(#paint3_radial_125_4)" stroke-width="0.085853"/>
<g clip-path="url(#clip1_125_4)">
<path d="M38.8667 26.528C38.8297 26.3704 38.7545 26.2244 38.6476 26.1028C38.5406 25.9812 38.4054 25.8879 38.2539 25.831L31.1609 23.1712L32.966 14.1461C33.008 13.936 32.9803 13.718 32.8872 13.525C32.794 13.3321 32.6406 13.1748 32.45 13.077C32.2595 12.9792 32.0422 12.9462 31.8312 12.9831C31.6201 13.0199 31.4268 13.1246 31.2806 13.2812L17.496 28.0504C17.3856 28.1687 17.306 28.3125 17.2643 28.469C17.2227 28.6253 17.2203 28.7896 17.2572 28.9472C17.2942 29.1048 17.3695 29.2509 17.4764 29.3725C17.5833 29.4939 17.7185 29.5874 17.8701 29.6442L24.9631 32.304L23.158 41.3291C23.116 41.5392 23.1436 41.7573 23.2368 41.9503C23.3299 42.1432 23.4834 42.3005 23.674 42.3983C23.8646 42.496 24.0819 42.5291 24.2929 42.4922C24.504 42.4554 24.6972 42.3507 24.8434 42.1941L38.628 27.4248C38.7385 27.3064 38.818 27.1627 38.8596 27.0063C38.9012 26.8499 38.9038 26.6856 38.8667 26.528Z" fill="white"/>
</g>
</g>
<defs>
<linearGradient id="paint0_linear_125_4" x1="7.87262" y1="-20.4892" x2="7.87262" y2="62.673" gradientUnits="userSpaceOnUse">
<stop stop-color="#3E4644" stop-opacity="0.56"/>
<stop offset="1" stop-color="white" stop-opacity="0.2"/>
</linearGradient>
<linearGradient id="paint1_linear_125_4" x1="51.4246" y1="16.9578" x2="-44.9089" y2="38.3012" gradientUnits="userSpaceOnUse">
<stop stop-color="#3E4644"/>
<stop offset="1" stop-color="#FFD9C6" stop-opacity="0"/>
</linearGradient>
<linearGradient id="paint2_linear_125_4" x1="28.0909" y1="9.19393" x2="28.0909" y2="92.3561" gradientUnits="userSpaceOnUse">
<stop stop-color="#3E4644" stop-opacity="0.5"/>
<stop offset="1" stop-color="#FF935A" stop-opacity="0.08"/>
</linearGradient>
<radialGradient id="paint3_radial_125_4" cx="0" cy="0" r="1" gradientUnits="userSpaceOnUse" gradientTransform="translate(28.0909 50.775) rotate(89.968) scale(86.1425)">
<stop offset="0.046875" stop-color="white" stop-opacity="0.06"/>
<stop offset="1" stop-color="#FFD1B9"/>
</radialGradient>
<clipPath id="clip0_125_4">
<rect width="56" height="56" fill="white"/>
</clipPath>
<clipPath id="clip1_125_4">
<rect width="32" height="32" fill="white" transform="translate(12 12)"/>
</clipPath>
</defs>
</svg>
