<svg xmlns="http://www.w3.org/2000/svg" width="24" height="24" viewBox="0 0 24 24" fill="none"><path d="M12 2.25C14.5859 2.25 17.0658 3.27723 18.8943 5.10571C20.7228 6.93419 21.75 9.41414 21.75 12C21.75 14.5859 20.7228 17.0658 18.8943 18.8943C17.0658 20.7228 14.5859 21.75 12 21.75C9.41414 21.75 6.93419 20.7228 5.10571 18.8943C3.27723 17.0658 2.25 14.5859 2.25 12C2.25 9.41414 3.27723 6.93419 5.10571 5.10571C6.93419 3.27723 9.41414 2.25 12 2.25ZM12 24C15.1826 24 18.2348 22.7357 20.4853 20.4853C22.7357 18.2348 24 15.1826 24 12C24 8.8174 22.7357 5.76516 20.4853 3.51472C18.2348 1.26428 15.1826 0 12 0C8.8174 0 5.76516 1.26428 3.51472 3.51472C1.26428 5.76516 0 8.8174 0 12C0 15.1826 1.26428 18.2348 3.51472 20.4853C5.76516 22.7357 8.8174 24 12 24ZM12 5.67188C11.7141 5.67188 11.4516 5.83594 11.3297 6.08906L9.8625 9.05625L6.58594 9.53437C6.30469 9.57656 6.07031 9.77344 5.98125 10.0453C5.89219 10.3172 5.96719 10.6172 6.16875 10.8141L8.54062 13.125L7.98281 16.3875C7.93594 16.6688 8.04844 16.9547 8.28281 17.1188C8.51719 17.2828 8.82188 17.3109 9.075 17.175L12 15.6375L14.9297 17.1797C15.1828 17.3109 15.4875 17.2922 15.7172 17.1234C15.9469 16.9547 16.0641 16.6734 16.0172 16.3922L15.4594 13.125L17.8312 10.8141C18.0375 10.6125 18.1078 10.3172 18.0187 10.0453C17.9297 9.77344 17.6953 9.57656 17.4141 9.53437L14.1375 9.05625L12.6703 6.08906C12.5437 5.83125 12.2812 5.67188 12 5.67188Z" fill="#00458A"></path></svg>