<svg xmlns="http://www.w3.org/2000/svg" width="86" height="79" viewBox="0 0 86 79" fill="none"><path d="M42.3149 0.0646624C41.9098 0.189305 41.8653 0.260529 40.7079 2.73112C39.0564 6.24781 38.9495 6.47038 38.8917 6.50154C38.8605 6.51935 37.3603 6.71967 35.5619 6.94224C32.5126 7.32062 32.2767 7.35623 32.0675 7.46307C31.7603 7.62777 31.5867 7.91712 31.5645 8.29995C31.5333 8.76291 31.5778 8.82078 32.9444 10.0984C33.6122 10.7216 34.636 11.6876 35.2281 12.2395C35.8157 12.7915 36.3721 13.3124 36.4656 13.3969L36.6347 13.5483L36.1896 15.8853C35.9448 17.1718 35.6643 18.6453 35.5664 19.1661C35.464 19.6825 35.3839 20.1499 35.3839 20.2077C35.3839 20.5371 35.6643 20.9556 35.9804 21.098C36.0872 21.147 36.2653 21.1826 36.4166 21.1826C36.6347 21.1826 36.7282 21.1515 37.0621 20.9778C37.4583 20.7686 40.9126 18.8723 42.0122 18.258C42.5018 17.982 42.6265 17.933 42.7021 17.9686C42.7556 17.9909 43.4678 18.3915 44.2869 18.8545C47.3495 20.5906 48.5203 21.1826 48.8942 21.1826C49.2726 21.1826 49.5975 20.9734 49.7622 20.6173C49.8424 20.4437 49.8557 20.3546 49.8379 20.092C49.829 19.9228 49.5575 18.4138 49.2325 16.74C48.912 15.0707 48.6494 13.664 48.6494 13.6195C48.6494 13.5705 49.0322 13.1788 49.642 12.609C50.1851 12.0971 50.7816 11.5407 50.9641 11.367C51.1467 11.1934 51.4805 10.8818 51.6986 10.6726C53.1409 9.3238 53.5193 8.94987 53.6039 8.78517C53.8576 8.29995 53.6128 7.62332 53.1009 7.40965C53.0163 7.37404 51.4672 7.16037 49.6331 6.93334L46.3212 6.5149L46.2233 6.29232C46.1654 6.17213 45.6357 5.037 45.0436 3.77722C44.4516 2.51744 43.8773 1.28438 43.7616 1.03954C43.4366 0.336204 43.2764 0.153693 42.8802 0.0424049C42.6621 -0.0199162 42.5775 -0.0154647 42.3149 0.0646624ZM43.7126 5.73588C44.278 6.94669 44.7988 8.0106 44.8656 8.09518C45.1149 8.41569 45.146 8.42459 47.8703 8.76291C49.237 8.93652 50.3676 9.08342 50.3765 9.09677C50.3854 9.10568 50.2653 9.23477 50.1139 9.37722C49.9581 9.52412 49.1301 10.3031 48.271 11.1089C46.6061 12.6713 46.5126 12.7782 46.5126 13.1699C46.5126 13.2812 46.5839 13.7352 46.6684 14.1715C47.3184 17.5457 47.443 18.2179 47.4341 18.2268C47.4296 18.2313 46.6239 17.795 45.6446 17.2564C44.6653 16.7178 43.6325 16.1569 43.3521 16.01C42.8535 15.7473 42.8357 15.7429 42.5641 15.7651C42.3149 15.7829 42.2036 15.8319 41.3622 16.2993C39.5594 17.2965 37.988 18.1511 37.9123 18.1823C37.8634 18.1957 37.8322 18.1868 37.8322 18.16C37.8322 18.1333 38.0414 17.0116 38.2996 15.6717C38.6201 14.0112 38.7626 13.1877 38.7448 13.0809C38.678 12.7069 38.58 12.6001 36.6971 10.8373C35.6821 9.88469 34.8541 9.10122 34.8586 9.09232C34.8675 9.08787 36.0026 8.94097 37.3826 8.76291C40.0401 8.42905 40.0802 8.42014 40.3339 8.15305C40.4408 8.04177 40.9572 6.99121 42.0834 4.57849C42.5508 3.57245 42.6087 3.46116 42.6443 3.49678C42.6621 3.51903 43.1428 4.52507 43.7126 5.73588Z" fill="#1D49C3"></path><path d="M40.3918 24.833C37.8945 25.0734 36.0515 25.6253 34.449 26.6047C30.9234 28.7637 29.6102 32.7834 30.7809 37.8314C30.9813 38.6905 31.3774 39.9013 31.7069 40.6581L31.9561 41.2323V41.949C31.9606 43.4892 32.0363 45.1452 32.1297 45.7996C32.5037 48.3636 33.5498 50.6562 35.179 52.4857C35.5708 52.9264 36.2118 53.5363 36.5323 53.7722L36.7193 53.9102L36.7104 55.4504L36.697 56.9951L36.0293 57.0263C34.7072 57.0841 33.2782 57.3735 31.787 57.8854C31.462 57.9967 31.1682 58.0857 31.1371 58.0857C31.1014 58.0857 31.0258 58.0101 30.9679 57.9166C30.9145 57.8276 30.7142 57.5605 30.5228 57.329C29.2674 55.771 27.0995 54.253 25.0118 53.4651C23.6852 52.9621 22.6525 52.735 21.3927 52.6638L20.8941 52.6326L20.8808 51.5509L20.8719 50.4648L21.1256 50.2377C23.0442 48.5373 24.1972 46.3961 24.5889 43.7964C24.629 43.5516 24.6735 42.6613 24.7046 41.6597L24.7491 39.9458L25.0118 39.3894C25.4347 38.4991 25.6884 37.6177 25.8442 36.5004C25.9511 35.7614 25.9511 33.8562 25.8442 32.9792C25.635 31.301 25.1631 29.3557 24.8649 28.9595C24.3218 28.2473 23.0709 28.0514 21.967 28.5055L21.7043 28.6123L21.4105 28.3764C20.0261 27.259 18.4369 26.7204 16.1043 26.5646C14.8534 26.48 13.1174 26.6225 11.9244 26.9074C10.8382 27.1656 9.64518 27.6641 8.83055 28.2072C6.68493 29.6361 5.61211 31.9198 5.70559 34.8489C5.75901 36.398 6.06617 37.818 6.69828 39.4206L6.98318 40.1417V41.1344C6.98763 42.3897 7.0455 43.3512 7.16124 44.0546C7.47284 45.8753 8.21624 47.5535 9.33357 48.9423C9.67634 49.3697 10.4732 50.171 10.7002 50.3223L10.8115 50.3935V51.5198V52.6415L10.3174 52.6727C9.33803 52.735 8.19399 52.9754 7.03659 53.3627C4.48588 54.2174 2.23787 55.6819 1.04932 57.2622C0.697646 57.7341 0.261399 58.5843 0.11895 59.0873L0.0165657 59.4434L0.00321114 64.7185C-0.00569188 68.4845 0.00321114 70.0425 0.0388232 70.1627C0.0655323 70.2562 0.159014 70.412 0.243593 70.5054C0.555198 70.8482 -0.522067 70.8171 12.0356 70.8304L23.298 70.8393L23.3202 74.5786C23.3425 77.9528 23.3514 78.3312 23.4181 78.4514C23.5116 78.6205 23.6986 78.7942 23.8989 78.901C24.0503 78.9811 24.6022 78.9856 42.5285 78.9989C55.4913 79.0034 61.069 78.9945 61.2337 78.9633C61.5097 78.9054 61.7768 78.7229 61.9192 78.487L62.0261 78.3178L62.0483 74.5786L62.0706 70.8393L73.3107 70.8304C80.8203 70.826 84.6041 70.8037 84.7065 70.777C84.9469 70.7058 85.2229 70.4476 85.3164 70.2027C85.392 70.0024 85.3965 69.7309 85.3965 64.9856C85.3965 60.267 85.392 59.9554 85.3119 59.626C85.0448 58.4686 84.386 57.4269 83.2464 56.3497C81.1676 54.3776 77.7533 52.8463 75.0289 52.6727C74.7351 52.6549 74.5571 52.6237 74.5571 52.5926C74.5571 52.5659 74.5571 52.0628 74.5526 51.4752V50.4069L74.744 50.2555C76.0483 49.1916 77.1879 47.5045 77.7577 45.7729C78.2162 44.3973 78.3231 43.6317 78.3676 41.4594L78.3987 39.9058L78.6569 39.3671C79.0709 38.4991 79.3113 37.6756 79.4849 36.5182C79.5917 35.7792 79.5917 33.8918 79.4804 32.9792C79.3781 32.129 79.2223 31.2877 79.0086 30.4419C78.6836 29.1465 78.5723 28.9195 78.1183 28.6123C77.4951 28.1894 76.4846 28.1449 75.6076 28.5055L75.3494 28.6123L75.0067 28.3363C73.5377 27.1389 71.5657 26.5557 68.9704 26.5513C67.0563 26.5513 65.4938 26.8139 64.0916 27.3703C61.572 28.3764 60.0318 30.1614 59.5154 32.6899C59.1059 34.6797 59.4531 37.3239 60.4324 39.6565L60.6105 40.0838L60.6417 41.4594C60.6728 42.9595 60.7129 43.4581 60.8509 44.2371C61.2515 46.4896 62.489 48.7242 64.0871 50.0953L64.4522 50.4069V51.5509V52.6994H64.2874C63.9669 52.6994 62.9119 52.8374 62.2487 52.9665C60.1164 53.3849 58.18 54.2218 56.5863 55.4237C55.7361 56.0603 54.8057 57.0441 54.3606 57.7741C54.2493 57.9566 54.1514 58.1169 54.1469 58.1258C54.138 58.1303 53.8442 58.0368 53.497 57.9077C52.0681 57.3913 50.6302 57.0841 49.317 57.0263L48.6716 56.9951L48.6582 55.4549L48.6493 53.9147L48.9253 53.6966C49.3304 53.3805 50.1806 52.5214 50.5724 52.0317C52.0235 50.2155 52.9317 48.0387 53.2566 45.5904C53.3278 45.0651 53.408 43.0574 53.4124 41.7398V41.0365L53.7418 40.3598C54.2671 39.2737 54.552 38.3433 54.7434 37.0702C55.1218 34.5684 54.8413 31.4924 53.9644 28.5055C53.7863 27.909 53.6661 27.673 53.4213 27.4327C52.7402 26.7694 51.2178 26.716 50.0515 27.3125L49.8779 27.4015L49.5218 27.0899C48.173 25.9236 46.4414 25.2203 44.131 24.8953C43.5167 24.8107 41.0639 24.7706 40.3918 24.833ZM42.9514 26.8361C44.6207 26.9474 45.8716 27.259 47.0067 27.8466C47.6433 28.1716 48.1596 28.5722 48.6805 29.1331C48.9208 29.3913 49.1924 29.6406 49.2814 29.6896C49.6242 29.8676 49.9313 29.7875 50.7103 29.3112C51.2846 28.964 51.6006 28.8482 51.8188 28.9106C51.9612 28.9506 51.9701 28.9729 52.0903 29.3958C52.6022 31.2253 52.8515 32.9881 52.8515 34.7821C52.8471 36.0018 52.7981 36.5716 52.6022 37.4842C52.491 38.0139 52.5488 38.0762 52.0992 36.9188C51.7297 35.9751 50.9285 34.3414 50.5501 33.7716C49.8557 32.7166 49.2102 32.1379 48.5736 31.9954C48.1285 31.8931 47.8614 32.0266 46.9577 32.7789C45.4932 33.9986 44.0598 34.7465 42.1635 35.2673C40.3739 35.7614 38.6022 35.9795 35.9135 36.0419L34.6404 36.073L34.4668 36.1888C34.2264 36.349 34.0929 36.6117 33.7991 37.5242C33.5231 38.37 33.296 38.922 33.2471 38.8686C33.1269 38.735 32.7084 37.1414 32.5482 36.1888C32.4414 35.5656 32.428 35.3786 32.428 34.3815C32.4235 33.1617 32.4681 32.7967 32.7173 31.9331C32.891 31.35 33.3495 30.4241 33.71 29.9478C35.0366 28.1894 37.3603 27.121 40.3918 26.8851C41.5981 26.7872 42.0922 26.7783 42.9514 26.8361ZM16.9768 28.6835C18.6906 28.9462 19.9282 29.5694 20.7517 30.5843C21.1657 31.0918 21.6464 31.0962 22.4344 30.5932C22.7148 30.4152 23.0398 30.2638 23.1377 30.2638C23.2356 30.2638 23.2579 30.3261 23.427 30.9983C23.7387 32.2447 23.9123 33.5891 23.9167 34.7821C23.9167 35.5255 23.8455 36.536 23.7787 36.6473C23.7654 36.6651 23.6585 36.4559 23.5428 36.1754C22.7371 34.2346 21.8423 32.9303 21.0366 32.5341C20.4134 32.2314 20.1819 32.2937 19.2248 33.0505C18.2277 33.8384 17.4976 34.2835 16.6207 34.6396C15.5612 35.0714 14.4172 35.3563 13.1174 35.5121C12.1024 35.6368 11.7463 35.6546 10.4687 35.6679L9.35138 35.6813L9.14661 35.8015C8.87952 35.9573 8.76378 36.1665 8.5145 36.9233C8.40766 37.2616 8.30082 37.5554 8.27857 37.5776C8.2385 37.6177 8.10941 37.1726 7.96251 36.5093C7.73993 35.4899 7.67761 34.2568 7.80671 33.4021C8.20734 30.7401 10.1838 29.102 13.5046 28.688C14.3015 28.5856 14.3994 28.5811 15.4856 28.5945C16.1444 28.6034 16.6563 28.6346 16.9768 28.6835ZM70.6398 28.6835C71.2363 28.777 71.6859 28.8883 72.2334 29.0886C73.0569 29.3869 73.6 29.743 74.29 30.4463C74.6684 30.8336 74.7886 30.9315 74.9266 30.9538C75.1892 31.0028 75.4429 30.9449 75.8035 30.7446C76.5113 30.3573 76.7161 30.2594 76.8006 30.2727C76.8986 30.2861 76.9698 30.5042 77.1612 31.3633C77.4862 32.8056 77.6331 34.4393 77.544 35.5923C77.4862 36.4024 77.4506 36.674 77.4105 36.674C77.3971 36.674 77.3037 36.4692 77.2057 36.2155C76.9475 35.5522 76.3599 34.4082 76.0038 33.8695C75.6165 33.2819 75.0378 32.6943 74.6728 32.5207C74.5304 32.4495 74.3078 32.3827 74.1742 32.3694C73.8448 32.3338 73.6178 32.454 72.8432 33.0772C72.5005 33.3487 72.0197 33.7048 71.7749 33.8651C70.7332 34.5417 69.4022 35.0447 67.8798 35.3341C66.7758 35.5433 66.0547 35.6056 64.4299 35.6457C62.8852 35.6813 62.8674 35.6813 62.6181 35.9484C62.449 36.1309 62.3065 36.4425 62.1151 37.0613C62.0216 37.364 61.9281 37.6088 61.9059 37.6088C61.8881 37.6088 61.8703 37.5999 61.8703 37.591C61.8703 37.5776 61.808 37.3284 61.7367 37.0346C61.4696 35.9662 61.4118 35.5299 61.4073 34.515C61.4029 33.5045 61.4474 33.1617 61.6744 32.4673C62.3599 30.3528 64.2429 29.053 67.1453 28.688C67.9288 28.5856 68.0712 28.5811 69.1708 28.5989C69.8029 28.6078 70.346 28.639 70.6398 28.6835ZM48.9698 35.0492C49.5708 36.1086 50.3587 37.956 50.9641 39.7233L51.2846 40.6581L51.3024 42.6167C51.3247 44.5843 51.3024 45.0517 51.1599 45.8886C50.5501 49.4187 48.2754 52.3611 45.2973 53.474C44.3625 53.8256 43.4722 53.9681 42.4573 53.9325C41.6204 53.9058 41.104 53.8167 40.3472 53.5675C37.3781 52.597 35.0633 49.8415 34.3021 46.3783C34.0483 45.2342 34.0127 44.5487 34.0662 41.9846C34.0751 41.4638 34.0795 41.4326 34.1908 41.3169C34.6092 40.8673 35.1879 39.7322 35.7177 38.3166C35.7889 38.1163 35.7978 38.1074 36.0204 38.0807C36.1495 38.0673 36.4344 38.0539 36.6614 38.0539C37.5695 38.0539 39.2655 37.8937 40.4363 37.6934C43.5879 37.1636 46.3479 36.0196 48.2041 34.4705L48.449 34.2702L48.5692 34.4126C48.6359 34.4927 48.814 34.7776 48.9698 35.0492ZM20.6404 34.9245C21.1301 35.708 21.78 37.1948 22.3631 38.8775L22.6436 39.6832L22.648 41.308C22.6525 43.0619 22.6213 43.4759 22.4121 44.3528C22.1628 45.3722 21.6821 46.4495 21.1034 47.2686C20.6894 47.8606 19.8035 48.7287 19.2426 49.107C18.2232 49.7837 17.2706 50.0997 16.0865 50.1487C12.9972 50.2733 10.2283 47.963 9.33803 44.5131C9.08429 43.5382 9.05758 43.24 9.06648 41.722L9.07093 40.3331L9.32022 39.9681C9.62292 39.5229 9.95678 38.8686 10.2105 38.2098L10.4064 37.7201L10.9539 37.6889C12 37.6266 12.7746 37.5643 13.2954 37.4975C16.0598 37.1369 18.6283 36.1754 20.2264 34.8978C20.3511 34.7999 20.4623 34.7198 20.4757 34.7198C20.4935 34.7153 20.5647 34.8088 20.6404 34.9245ZM74.3122 34.9691C74.7752 35.708 75.6878 37.8492 76.1507 39.3093L76.2887 39.7366L76.2976 41.4015C76.311 43.1954 76.2843 43.4848 76.0483 44.4241C75.3762 47.0772 73.5911 49.1382 71.3342 49.8727C70.6398 50.0953 70.3415 50.1398 69.5046 50.1398C68.6677 50.1398 68.2938 50.0819 67.5905 49.8415C65.5695 49.156 63.9002 47.3442 63.139 45.0206C62.7828 43.9433 62.6716 42.9506 62.7072 41.2902L62.725 40.3153L62.9698 39.9547C63.2725 39.5051 63.5529 38.9532 63.8334 38.2543C63.9892 37.8714 64.0693 37.7156 64.1272 37.7112C64.1717 37.7067 64.6169 37.68 65.1199 37.6533C67.5949 37.5242 69.7316 37.0568 71.5612 36.2466C72.4471 35.8549 73.3017 35.3563 73.8671 34.8978C73.9917 34.7999 74.103 34.7198 74.1208 34.7198C74.1342 34.7153 74.2232 34.8311 74.3122 34.9691ZM13.4913 51.8314C15.0849 52.3344 16.8922 52.3121 18.4503 51.7601C18.6506 51.6889 18.8286 51.6311 18.842 51.6311C18.8553 51.6311 18.8687 52.0094 18.8687 52.4679V53.3048L17.4887 55.1522C16.7275 56.1671 16.0509 57.0708 15.9797 57.1643L15.855 57.329L14.3549 55.3303L12.8592 53.3315V52.4768C12.8592 51.7512 12.8681 51.6266 12.9215 51.6444C12.9571 51.6578 13.2153 51.7423 13.4913 51.8314ZM66.9183 51.7601C68.503 52.321 70.3281 52.3344 71.9396 51.8091C72.2378 51.7112 72.4871 51.6311 72.496 51.6311C72.5005 51.6311 72.5094 52.0139 72.5094 52.4813V53.3315L71.0226 55.308C70.2035 56.3986 69.5224 57.2934 69.5091 57.2978C69.4957 57.3023 68.8146 56.4075 67.9911 55.3124L66.4998 53.3137V52.4724C66.4998 52.0094 66.5132 51.6311 66.5266 51.6311C66.5399 51.6311 66.718 51.6889 66.9183 51.7601ZM21.8735 54.7516C22.3809 54.8139 23.4849 55.0899 24.0592 55.3035C26.187 56.1004 27.9676 57.3201 28.9736 58.6644C29.0716 58.7935 29.1517 58.9271 29.1517 58.9538C29.1517 58.9805 29.0359 59.0562 28.898 59.1274C28.2035 59.4657 27.153 60.1423 26.4363 60.7121C24.994 61.8651 24.028 63.1248 23.5873 64.4469C23.3603 65.1236 23.3514 65.1903 23.3247 67.0333L23.298 68.7916L15.7437 68.805L8.18954 68.8139L8.17618 65.7334C8.16283 62.8444 8.15837 62.6352 8.07825 62.4616C7.75774 61.7182 6.61815 61.6959 6.24868 62.4215C6.14629 62.6263 6.13739 62.6886 6.13739 63.2806V63.9172H4.06299H1.99304L2.00639 61.8339C2.0242 59.5058 2.01084 59.6082 2.38032 58.936C2.9234 57.9522 4.17873 56.8972 5.78572 56.0826C7.53516 55.1923 9.30241 54.707 10.7759 54.7026H11.3412L13.2464 57.2355C14.6042 59.0428 15.1962 59.7996 15.3209 59.8841C15.6592 60.1023 16.1533 60.0756 16.4738 59.8218C16.5317 59.7773 17.4309 58.6066 18.4681 57.2221L20.36 54.707L20.6048 54.6892C20.903 54.6714 21.3393 54.6937 21.8735 54.7516ZM66.8871 57.2132C67.9199 58.5932 68.828 59.7729 68.9126 59.8352C69.2642 60.1023 69.7851 60.0934 70.1234 59.8129C70.2169 59.7372 71.1339 58.5531 72.1622 57.1821L74.0318 54.6892L74.7975 54.7159C76.1863 54.7605 77.455 55.1166 79.0531 55.909C80.2728 56.5144 81.2121 57.1776 82.0223 58.0012C82.6366 58.6288 82.9482 59.0784 83.2064 59.715L83.3488 60.0667L83.3622 61.9897L83.3755 63.9172H81.3011H79.2312V62.8889C79.2312 62.2969 79.2089 61.7849 79.1822 61.6737C78.973 60.8457 77.7132 60.721 77.3037 61.4867L77.2057 61.6692L77.1924 65.2438L77.179 68.8139L69.6248 68.805L62.0706 68.7916L62.0483 67.3449C62.0261 66.1964 62.0083 65.8269 61.946 65.5554C61.6165 64.1086 60.9088 62.9112 59.6223 61.6247C58.7275 60.7299 57.7437 59.991 56.5062 59.2876C56.2391 59.1318 56.0121 59.0027 56.0032 58.9938C55.9943 58.9894 56.0833 58.838 56.1991 58.6644C57.1116 57.28 59.3329 55.8555 61.6833 55.1477C62.7606 54.8272 63.4506 54.7115 64.3631 54.707H65.0086L66.8871 57.2132ZM39.1542 55.308C40.8324 55.9846 42.7421 56.1582 44.5584 55.7977C45.1014 55.6864 45.9828 55.4193 46.379 55.2412C46.4859 55.1923 46.5927 55.1655 46.6105 55.1745C46.655 55.2012 46.655 57.467 46.6105 57.5338C46.5927 57.5605 46.1075 57.9611 45.5332 58.4241C44.959 58.887 44.0865 59.5903 43.5968 59.9865C43.1072 60.3872 42.6976 60.7121 42.6843 60.7121C42.6709 60.7121 41.9409 60.129 41.0595 59.4123C40.1781 58.7 39.2922 57.9878 39.0919 57.8276L38.7224 57.5338V56.3407C38.7224 55.6864 38.7313 55.1477 38.7402 55.1477C38.7536 55.1477 38.9406 55.219 39.1542 55.308ZM38.4553 59.9287C40.4096 61.5134 40.7034 61.7493 40.9793 61.9719C41.1307 62.0921 41.2509 62.2078 41.2375 62.2212C41.1574 62.3547 38.0414 66.2587 38.0057 66.2676C37.9835 66.2765 37.3158 64.9767 36.5234 63.3741C35.731 61.776 34.952 60.2002 34.7873 59.8708C34.5914 59.4791 34.5069 59.2609 34.538 59.2431C34.7161 59.1318 35.9981 59.0295 36.8305 59.0606L37.4092 59.0784L38.4553 59.9287ZM50.0293 59.114C50.4076 59.1586 50.8751 59.2387 50.8751 59.2609C50.8751 59.3277 47.394 66.2765 47.3628 66.2765C47.3406 66.2765 47.0245 65.9026 46.6639 65.4396C46.2989 64.9811 45.5778 64.0686 45.0525 63.4097C44.2779 62.4349 44.1132 62.2034 44.1622 62.1633C44.229 62.0965 44.7364 61.6826 45.422 61.135C45.6935 60.9169 46.3746 60.3649 46.9444 59.902L47.9727 59.0695L48.4134 59.0517C48.9565 59.0339 49.5351 59.0562 50.0293 59.114ZM33.7145 62.2791C37.0131 68.9385 36.9329 68.7827 37.1154 68.9563C37.4449 69.2679 38.0102 69.3169 38.3441 69.0587C38.4286 68.9964 38.5043 68.9474 38.5132 68.9474C38.5266 68.9474 38.7046 69.1121 38.9094 69.3169C39.1097 69.5217 39.3456 69.7353 39.4258 69.7977L39.5771 69.9045L39.1008 72.976C38.8382 74.6632 38.5933 76.2479 38.5533 76.4927L38.4776 76.9379L35.1523 76.9512L31.827 76.9601L31.8137 73.0339L31.8003 69.1032L31.6757 68.894C31.5956 68.756 31.4798 68.6403 31.3418 68.5601C31.1638 68.4533 31.0836 68.4355 30.7943 68.4355C30.496 68.4355 30.4337 68.4533 30.2379 68.569C30.0999 68.6581 29.9797 68.7783 29.9084 68.9029L29.7972 69.1032L29.7838 70.6969L29.7704 72.2861H27.5447H25.3189L25.3323 68.9341C25.3501 65.5999 25.3501 65.5865 25.4525 65.2527C25.586 64.812 25.9021 64.2066 26.2315 63.7659C27.1441 62.5328 29.0137 61.2018 31.0881 60.307C31.5644 60.1023 32.3835 59.7862 32.4503 59.7818C32.4636 59.7773 33.0334 60.9035 33.7145 62.2791ZM53.4569 60.031C53.6661 60.1156 53.9243 60.2403 54.0356 60.3115C54.1469 60.3827 54.2983 60.4539 54.3695 60.4673C54.7479 60.5563 56.0967 61.3487 56.9425 61.9853C58.545 63.1872 59.5688 64.487 59.9339 65.7646L60.0452 66.1652L60.0363 69.2145L60.0229 72.2638L57.8105 72.2771L55.5981 72.2861L55.5847 70.7147L55.5714 69.1433L55.4557 68.9252C55.3755 68.7694 55.282 68.6625 55.1262 68.569C54.9348 68.4488 54.8725 68.4355 54.5698 68.4355C54.2671 68.4355 54.2048 68.4488 54.0089 68.569C53.8709 68.6581 53.7507 68.7783 53.6795 68.9029L53.5682 69.1032L53.5549 73.0339L53.546 76.9601H50.2118H46.8776L46.8509 76.8132C46.8375 76.7376 46.7352 76.0876 46.6283 75.3798C46.517 74.6676 46.3568 73.626 46.2677 73.0651C45.9205 70.8438 45.8003 70.0425 45.8003 69.9713C45.8003 69.9312 45.8849 69.8333 45.9917 69.7576C46.2277 69.584 46.4414 69.3792 46.655 69.1299L46.8197 68.9385L46.9488 69.032C47.3495 69.3124 47.9193 69.2813 48.2665 68.9563C48.351 68.8762 49.1479 67.3182 50.6347 64.3268C52.7625 60.0444 52.8827 59.8174 52.9762 59.8441C53.034 59.8619 53.2477 59.9465 53.4569 60.031ZM44.0509 65.4129C44.7809 66.3344 45.3997 67.1178 45.4309 67.1579C45.4709 67.2202 45.462 67.2826 45.3641 67.4784C45.1371 67.9592 44.634 68.3287 43.9886 68.4889C43.7437 68.5512 43.4633 68.5646 42.5507 68.569C41.4557 68.569 41.4067 68.5646 41.1262 68.4622C40.966 68.3999 40.7523 68.293 40.6499 68.2218C40.4407 68.0749 40.1647 67.701 40.0178 67.3716C39.9377 67.1891 39.9332 67.1401 39.9822 67.0822C40.0534 66.9977 40.5075 66.419 41.3088 65.4085C41.6382 64.99 41.9587 64.5805 42.0299 64.4959C42.0967 64.4113 42.2658 64.1932 42.3994 64.0196C42.5374 63.8415 42.6665 63.708 42.6887 63.7169C42.7065 63.7303 43.3208 64.4959 44.0509 65.4129ZM6.10623 65.9649C6.12404 65.9649 6.13739 66.6059 6.13739 67.3894V68.8139H4.06744H1.99749V67.3983C1.99749 66.6193 2.00639 65.9694 2.01529 65.9605C2.02865 65.9471 5.08683 65.9516 6.10623 65.9649ZM83.3622 67.3894L83.3711 68.8139H81.3011H79.2312V67.3983C79.2312 66.6193 79.2401 65.9694 79.249 65.9605C79.2579 65.9516 80.1882 65.9471 81.31 65.9516L83.3488 65.9649L83.3622 67.3894ZM43.8417 70.6345C43.8417 70.6702 44.7809 76.7242 44.8032 76.8399L44.8299 76.9601H42.6887C41.5091 76.9601 40.5476 76.9512 40.5476 76.9379C40.5476 76.8934 41.4824 70.8393 41.5046 70.728L41.5269 70.6167H42.6843C43.3208 70.6167 43.8417 70.6256 43.8417 70.6345ZM29.6325 74.3159L29.7749 74.3426V75.6514V76.9601H27.5491H25.3234V75.6558C25.3234 74.9347 25.3367 74.3382 25.3501 74.3248C25.3857 74.2848 29.4544 74.2803 29.6325 74.3159ZM59.9472 74.3159L60.0452 74.3426L60.0363 75.6425L60.0229 76.9379L57.8105 76.9512L55.5937 76.9601V75.6291V74.2937H57.7215C58.8878 74.2937 59.8894 74.3026 59.9472 74.3159Z" fill="#1D49C3"></path><path d="M37.8719 41.5084C36.9816 41.6687 36.5854 42.007 36.5854 42.599C36.5854 43.0486 36.8971 43.4938 37.2932 43.614C37.5381 43.6852 37.6939 43.6763 37.9921 43.565C38.3527 43.4315 38.967 43.4359 39.6614 43.5695C40.249 43.6852 40.4093 43.6674 40.712 43.4448C41.0281 43.2178 41.2061 42.6792 41.0859 42.3141C40.9034 41.7666 40.0398 41.4327 38.8112 41.4416C38.4818 41.4416 38.0589 41.4728 37.8719 41.5084Z" fill="#1D49C3"></path><path d="M45.6848 41.477C44.9236 41.5972 44.4607 41.8643 44.3049 42.2605C44.1268 42.7368 44.3984 43.36 44.8836 43.5781C45.1195 43.685 45.3421 43.685 45.6581 43.5737C46.0766 43.4268 46.4149 43.4179 47.0693 43.5336C47.7904 43.6672 47.9996 43.6627 48.2489 43.5247C48.5071 43.3823 48.6763 43.1552 48.7564 42.857C48.9166 42.2249 48.5561 41.7975 47.648 41.5438C47.3453 41.4592 46.0721 41.4192 45.6848 41.477Z" fill="#1D49C3"></path><path d="M39.7374 47.2419C39.1231 47.4066 38.8115 48.0521 39.0786 48.613C39.2032 48.8845 39.6439 49.2985 40.0579 49.5389C41.6159 50.447 43.6592 50.4781 45.1682 49.6145C45.6535 49.3386 46.0719 49.0047 46.2322 48.7643C46.4013 48.5106 46.428 48.1099 46.2945 47.8295C46.1565 47.549 45.8983 47.3309 45.6 47.2463C45.3775 47.1796 45.333 47.1796 45.1193 47.2419C44.9902 47.2775 44.8077 47.3799 44.7097 47.46C44.1489 47.9408 43.5791 48.1634 42.8312 48.1945C42.021 48.2257 41.3667 48.0254 40.7969 47.5579C40.3962 47.233 40.1024 47.144 39.7374 47.2419Z" fill="#1D49C3"></path></svg>