<svg xmlns="http://www.w3.org/2000/svg" width="160" height="175" viewBox="0 0 160 175" fill="none"><path d="M78.6894 4.8621C85.1722 -1.6207 95.6829 -1.6207 102.166 4.86209L155.138 57.8343C161.621 64.3171 161.621 74.8277 155.138 81.3105L102.166 134.283C95.6829 140.765 85.1723 140.766 78.6895 134.283L25.7173 81.3105C19.2345 74.8277 19.2345 64.3171 25.7173 57.8343L78.6894 4.8621Z" fill="#E4EFFB"></path><path d="M78.6327 161.747C78.6327 168.503 73.1563 173.979 66.4009 173.979C59.6455 173.979 54.1692 168.503 54.1692 161.747C54.1692 154.992 59.6455 149.516 66.4009 149.516C73.1563 149.516 78.6327 154.992 78.6327 161.747Z" fill="white"></path><path d="M24.4635 131.168C24.4635 137.923 18.9872 143.4 12.2318 143.4C5.47634 143.4 0 137.923 0 131.168C0 124.413 5.47634 118.936 12.2318 118.936C18.9872 118.936 24.4635 124.413 24.4635 131.168Z" fill="white"></path><path d="M25.3372 69.1355C25.3372 75.891 19.8609 81.3673 13.1054 81.3673C6.35004 81.3673 0.873697 75.891 0.873697 69.1355C0.873697 62.3801 6.35004 56.9038 13.1054 56.9038C19.8609 56.9038 25.3372 62.3801 25.3372 69.1355Z" fill="white"></path><path d="M78.6327 39.4299C78.6327 46.1853 73.1563 51.6616 66.4009 51.6616C59.6455 51.6616 54.1692 46.1853 54.1692 39.4299C54.1692 32.6745 59.6455 27.1981 66.4009 27.1981C73.1563 27.1981 78.6327 32.6745 78.6327 39.4299Z" fill="white"></path><path d="M131.054 70.0092C131.054 76.7647 125.578 82.241 118.823 82.241C112.067 82.241 106.591 76.7647 106.591 70.0092C106.591 63.2538 112.067 57.7775 118.823 57.7775C125.578 57.7775 131.054 63.2538 131.054 70.0092Z" fill="white"></path><path d="M131.054 131.168C131.054 137.923 125.578 143.4 118.823 143.4C112.067 143.4 106.591 137.923 106.591 131.168C106.591 124.413 112.067 118.936 118.823 118.936C125.578 118.936 131.054 124.413 131.054 131.168Z" fill="white"></path><path d="M115.415 82.369C116.519 82.6679 117.658 82.8204 118.801 82.8225C121.491 82.8199 124.113 81.9821 126.306 80.4249C128.499 78.8677 130.154 76.6679 131.043 74.1294C131.932 71.5909 132.011 68.839 131.268 66.2539C130.526 63.6688 128.999 61.3781 126.898 59.6982C124.798 58.0183 122.228 57.0322 119.543 56.876C116.857 56.7199 114.19 57.4014 111.909 58.8265C109.628 60.2516 107.846 62.3499 106.809 64.8315C105.772 67.3131 105.531 70.0556 106.119 72.68L98.2745 76.7158C94.9263 72.1297 90.6433 68.3059 85.7083 65.4971C80.7734 62.6883 75.2987 60.9583 69.6458 60.4214V51.6998C72.6196 50.794 75.169 48.8502 76.8299 46.2225C78.4907 43.5948 79.1524 40.4579 78.6946 37.3832C78.2367 34.3085 76.6896 31.5006 74.3352 29.4708C71.9808 27.441 68.9756 26.3244 65.867 26.3244C62.7584 26.3244 59.7532 27.441 57.3987 29.4708C55.0443 31.5006 53.4973 34.3085 53.0394 37.3832C52.5815 40.4579 53.2433 43.5948 54.9041 46.2225C56.565 48.8502 59.1144 50.794 62.0881 51.6998V60.4063C56.4379 60.9453 50.9662 62.6762 46.0339 65.485C41.1017 68.2937 36.8211 72.1163 33.4746 76.7007L25.6297 72.6649C26.2119 70.0432 25.9658 67.3054 24.9255 64.8295C23.8851 62.3536 22.1018 60.2617 19.8218 58.8427C17.5417 57.4236 14.8774 56.7474 12.1966 56.9074C9.51574 57.0674 6.95071 58.0556 4.85557 59.7357C2.76044 61.4158 1.23855 63.7049 0.500025 66.2869C-0.238504 68.869 -0.157248 71.6166 0.732576 74.1505C1.6224 76.6844 3.2769 78.8795 5.46766 80.4329C7.65841 81.9862 10.2774 82.8212 12.9629 82.8225C14.1065 82.82 15.2449 82.6676 16.3488 82.369C18.4317 81.8014 20.3391 80.7204 21.8962 79.225L29.5899 83.2003C27.0424 88.5689 25.7208 94.4367 25.7208 100.379C25.7208 106.321 27.0424 112.189 29.5899 117.558L21.8962 121.548C19.64 119.41 16.6909 118.153 13.5859 118.007C10.4809 117.86 7.4266 118.834 4.97921 120.75C2.53183 122.667 0.854176 125.399 0.251779 128.448C-0.350618 131.498 0.162316 134.662 1.69717 137.365C3.23202 140.068 5.68669 142.13 8.61413 143.175C11.5416 144.22 14.7471 144.179 17.6468 143.06C20.5466 141.94 22.9477 139.816 24.4129 137.074C25.8781 134.333 26.3099 131.157 25.6297 128.123L33.4746 124.088C36.8241 128.666 41.106 132.483 46.0381 135.287C50.9701 138.09 56.4403 139.816 62.0881 140.352V149.058C59.1144 149.964 56.565 151.908 54.9041 154.536C53.2433 157.163 52.5815 160.3 53.0394 163.375C53.4973 166.45 55.0443 169.258 57.3987 171.287C59.7532 173.317 62.7584 174.434 65.867 174.434C68.9756 174.434 71.9808 173.317 74.3352 171.287C76.6896 169.258 78.2367 166.45 78.6946 163.375C79.1524 160.3 78.4907 157.163 76.8299 154.536C75.169 151.908 72.6196 149.964 69.6458 149.058V140.352C75.2949 139.815 80.7658 138.086 85.698 135.28C90.6301 132.474 94.9113 128.654 98.2594 124.072L106.104 128.108C105.419 131.141 105.847 134.319 107.308 137.063C108.77 139.807 111.169 141.934 114.068 143.058C116.967 144.182 120.173 144.226 123.102 143.184C126.031 142.142 128.488 140.082 130.026 137.38C131.564 134.678 132.08 131.514 131.48 128.463C130.88 125.412 129.204 122.679 126.758 120.76C124.311 118.842 121.257 117.866 118.151 118.01C115.046 118.155 112.095 119.411 109.838 121.548L102.144 117.573C104.692 112.204 106.013 106.336 106.013 100.394C106.013 94.4519 104.692 88.584 102.144 83.2155L109.838 79.225C111.403 80.7248 113.322 81.806 115.415 82.369ZM14.3687 75.0682C13.1593 75.3901 11.8757 75.2827 10.7365 74.7645C9.59732 74.2463 8.67298 73.3493 8.12087 72.2261C7.56876 71.103 7.42302 69.8232 7.70847 68.6047C7.99391 67.3861 8.6929 66.3042 9.6864 65.5431C10.6799 64.7821 11.9065 64.3889 13.1573 64.4306C14.4081 64.4722 15.6058 64.9461 16.5465 65.7716C17.4871 66.5971 18.1126 67.7232 18.3163 68.958C18.52 70.1928 18.2895 71.46 17.6638 72.544C17.3091 73.1619 16.8351 73.7033 16.2695 74.1366C15.7038 74.5699 15.0577 74.8866 14.3687 75.0682ZM18.1929 132.326C17.9306 133.3 17.4008 134.183 16.6635 134.872C15.9261 135.562 15.0105 136.031 14.0202 136.228C13.0299 136.424 12.0044 136.34 11.0596 135.984C10.1148 135.628 9.28848 135.015 8.67395 134.214C8.05942 133.413 7.68124 132.456 7.58214 131.451C7.48305 130.446 7.667 129.434 8.11321 128.528C8.55941 127.623 9.25007 126.86 10.1071 126.326C10.9641 125.793 11.9534 125.509 12.9629 125.508C13.4374 125.508 13.91 125.568 14.3687 125.69C15.7542 126.065 16.9345 126.974 17.6512 128.218C18.3679 129.462 18.5627 130.939 18.1929 132.326ZM117.365 125.69C117.824 125.568 118.297 125.508 118.771 125.508C120.149 125.512 121.473 126.04 122.477 126.984C123.48 127.929 124.086 129.219 124.172 130.594C124.259 131.969 123.819 133.326 122.942 134.388C122.066 135.451 120.817 136.14 119.451 136.317C118.085 136.493 116.702 136.143 115.585 135.338C114.467 134.532 113.697 133.332 113.432 131.98C113.166 130.628 113.425 129.226 114.156 128.058C114.886 126.89 116.034 126.043 117.365 125.69ZM60.4556 39.29C60.4586 38.2204 60.7785 37.1757 61.375 36.2878C61.9714 35.3999 62.8176 34.7086 63.8066 34.3014C64.7957 33.8941 65.8832 33.7891 66.9319 33.9996C67.9806 34.2101 68.9434 34.7267 69.6987 35.4841C70.454 36.2415 70.9678 37.2057 71.1754 38.255C71.383 39.3042 71.2749 40.3915 70.8649 41.3794C70.4549 42.3673 69.7613 43.2116 68.8718 43.8055C67.9822 44.3994 66.9366 44.7164 65.867 44.7164C64.4304 44.7124 63.0541 44.139 62.0397 43.1217C61.0253 42.1045 60.4556 40.7266 60.4556 39.29ZM71.2934 161.468C71.2934 162.538 70.9764 163.583 70.3825 164.473C69.7885 165.362 68.9443 166.056 67.9564 166.466C66.9685 166.876 65.8812 166.984 64.8319 166.776C63.7827 166.569 62.8184 166.055 62.061 165.3C61.3037 164.544 60.7871 163.582 60.5766 162.533C60.3661 161.484 60.4711 160.397 60.8784 159.408C61.2856 158.419 61.9768 157.572 62.8647 156.976C63.7526 156.38 64.7974 156.06 65.867 156.057C67.3035 156.061 68.6799 156.634 69.6943 157.651C70.7087 158.669 71.2783 160.047 71.2783 161.483L71.2934 161.468ZM65.867 132.975C59.4215 132.975 53.1208 131.064 47.7616 127.483C42.4023 123.902 38.2254 118.813 35.7588 112.858C33.2922 106.903 32.6468 100.35 33.9043 94.0288C35.1617 87.7072 38.2655 81.9004 42.8232 77.3428C47.3808 72.7851 53.1876 69.6813 59.5092 68.4239C65.8308 67.1664 72.3834 67.8118 78.3382 70.2784C84.293 72.745 89.3827 76.922 92.9636 82.2812C96.5446 87.6404 98.4559 93.9411 98.4559 100.387C98.4439 109.026 95.0066 117.308 88.8976 123.417C82.7886 129.526 74.5064 132.963 65.867 132.975ZM113.541 68.4326C113.865 67.2192 114.599 66.1556 115.619 65.423C116.638 64.6904 117.881 64.3342 119.134 64.4151C120.387 64.496 121.573 65.009 122.491 65.8666C123.408 66.7243 123.999 67.8734 124.164 69.1183C124.329 70.3632 124.057 71.6266 123.394 72.6933C122.732 73.76 121.72 74.564 120.531 74.9681C119.342 75.3722 118.05 75.3514 116.874 74.9094C115.699 74.4674 114.713 73.6314 114.085 72.544C113.727 71.9287 113.495 71.2485 113.401 70.5428C113.308 69.837 113.355 69.1198 113.541 68.4326Z" fill="#807E7E"></path><path d="M75.8893 100.477C77.0209 99.0853 77.8478 97.4715 78.3164 95.74C78.7851 94.0085 78.8851 92.1979 78.6101 90.4253C78.2374 87.1073 76.592 84.0631 74.0203 81.9337C71.4485 79.8042 68.151 78.7554 64.8216 79.008C61.4922 79.2607 58.3907 80.795 56.1697 83.2882C53.9487 85.7814 52.7816 89.0389 52.9138 92.3752C52.9088 95.3261 53.9233 98.1882 55.7857 100.477L51.7953 111.874C51.2787 113.306 51.3438 114.884 51.9768 116.268C52.6097 117.653 53.7601 118.734 55.1811 119.281C62.0518 121.97 69.6836 121.97 76.5544 119.281C77.9754 118.734 79.1257 117.653 79.7587 116.268C80.3916 114.884 80.4568 113.306 79.9402 111.874L75.8893 100.477Z" fill="white"></path><path d="M75.8893 100.477C77.0209 99.0853 77.8478 97.4715 78.3164 95.74C78.7851 94.0085 78.8851 92.1979 78.6101 90.4253C78.2374 87.1073 76.592 84.0631 74.0203 81.9337C71.4485 79.8042 68.151 78.7554 64.8216 79.008C61.4922 79.2607 58.3907 80.795 56.1697 83.2882C53.9487 85.7814 52.7816 89.0389 52.9138 92.3752C52.9088 95.3261 53.9233 98.1882 55.7857 100.477L51.7953 111.874C51.2787 113.306 51.3438 114.884 51.9768 116.268C52.6097 117.653 53.7601 118.734 55.1811 119.281C62.0518 121.97 69.6836 121.97 76.5544 119.281C77.9754 118.734 79.1257 117.653 79.7587 116.268C80.3916 114.884 80.4568 113.306 79.9402 111.874L75.8893 100.477ZM59.4891 112.781L63.7668 100.689C64.0291 99.9472 64.0536 99.1424 63.8368 98.3865C63.62 97.6306 63.1729 96.9611 62.5575 96.4713C61.6884 95.7839 61.0549 94.8428 60.745 93.7789C60.4351 92.715 60.4641 91.5809 60.828 90.5342C61.1919 89.4876 61.8727 88.5801 62.7759 87.938C63.679 87.2959 64.7597 86.9508 65.8678 86.9508C66.976 86.9508 68.0566 87.2959 68.9598 87.938C69.8629 88.5801 70.5437 89.4876 70.9076 90.5342C71.2715 91.5809 71.3006 92.715 70.9906 93.7789C70.6807 94.8428 70.0472 95.7839 69.1781 96.4713C68.5628 96.9611 68.1156 97.6306 67.8988 98.3865C67.6821 99.1424 67.7065 99.9472 67.9689 100.689L72.2465 112.781C68.0895 114.055 63.6461 114.055 59.4891 112.781Z" fill="#807E7E"></path></svg>