<svg xmlns="http://www.w3.org/2000/svg" width="228" height="228" viewBox="0 0 228 228" fill="none"><rect width="228" height="228" rx="114" fill="#1D49C3"></rect><path fill-rule="evenodd" clip-rule="evenodd" d="M150.697 165.039L143.004 157.551C143.993 156.569 144.935 155.539 145.827 154.466L153.605 162.043L155.925 159.653C157.248 158.288 159.459 158.255 160.826 159.578L181.758 179.893C183.125 181.215 183.158 183.417 181.824 184.793L174.269 192.577C172.945 193.942 170.745 193.974 169.367 192.653L148.446 172.338C147.068 171.015 147.036 168.804 148.37 167.437L150.697 165.039ZM41.5 87.6873C42.66 76.8754 51.8109 68.4561 62.9259 68.4561C74.0482 68.4561 83.199 76.8754 84.3536 87.6873H41.5ZM62.9259 66.7552C56.9263 66.7552 52.0341 61.8594 52.0341 55.858C52.0341 49.8585 56.9263 44.9608 62.9259 44.9608C68.9327 44.9608 73.8231 49.8585 73.8231 55.858C73.8231 61.8594 68.9327 66.7552 62.9259 66.7552ZM92.5732 74.2905C93.7332 63.4786 102.884 55.0593 113.999 55.0593C125.121 55.0593 134.272 63.4786 135.427 74.2905H92.5732ZM113.999 53.3602C108 53.3602 103.109 48.4625 103.109 42.4612C103.109 36.4616 108 31.564 113.999 31.564C120.006 31.564 124.898 36.4616 124.898 42.4612C124.898 48.4625 120.006 53.3602 113.999 53.3602ZM143.646 87.6873C144.808 76.8754 153.957 68.4561 165.072 68.4561C176.195 68.4561 185.345 76.8754 186.5 87.6873H143.646ZM165.072 66.7552C159.073 66.7552 154.182 61.8594 154.182 55.858C154.182 49.8585 159.073 44.9608 165.072 44.9608C171.079 44.9608 175.971 49.8585 175.971 55.858C175.971 61.8594 171.079 66.7552 165.072 66.7552ZM145.818 177.366C140.39 180.67 134.463 183.094 128.273 184.566L123.704 196.436H104.315L99.7454 184.566C93.401 183.061 87.367 180.543 81.8212 177.145L70.1834 182.3L56.4762 168.593L61.6515 156.955C58.2334 151.429 55.7355 145.377 54.2125 139.051L42.3405 134.482V120.018H69.2594C68.929 122.178 68.7584 124.391 68.7584 126.643C68.7584 150.7 88.2564 170.198 112.313 170.198C122.329 170.198 131.557 166.818 138.914 161.136C139.008 161.243 143.187 165.318 143.187 165.318C141.147 168.771 141.65 173.336 144.663 176.244L145.818 177.366ZM153.681 154.525C153.681 154.525 149.241 150.226 149.036 150.075C153.362 143.31 155.869 135.27 155.869 126.643C155.869 124.391 155.698 122.178 155.368 120.018H185.66V134.482L173.788 139.051C172.284 145.377 169.765 151.409 166.368 156.955L166.695 157.696L164.613 155.674L164.609 155.67C161.623 152.78 157.069 152.412 153.681 154.525ZM112.313 88.5278C133.366 88.5278 150.43 105.592 150.43 126.643C150.43 147.695 133.366 164.759 112.313 164.759C91.2608 164.759 74.197 147.695 74.197 126.643C74.197 105.592 91.2608 88.5278 112.313 88.5278ZM112.313 91.9787C93.1668 91.9787 77.6479 107.498 77.6479 126.643C77.6479 145.789 93.1668 161.31 112.313 161.31C131.459 161.31 146.979 145.789 146.979 126.643C146.979 107.498 131.459 91.9787 112.313 91.9787ZM112.313 97.4173C128.456 97.4173 141.541 110.502 141.541 126.643C141.541 142.785 128.456 155.87 112.313 155.87C96.1711 155.87 83.0865 142.785 83.0865 126.643C83.0865 110.502 96.1711 97.4173 112.313 97.4173ZM112.318 115.57C103.63 115.57 95.9533 119.845 91.2626 126.398C91.1482 126.545 91.1482 126.743 91.2626 126.889C95.9533 133.442 103.63 137.717 112.318 137.717C120.993 137.717 128.681 133.442 133.372 126.889C133.477 126.743 133.477 126.545 133.372 126.398C128.681 119.845 120.993 115.57 112.318 115.57ZM112.318 131.746C109.499 131.746 107.21 129.457 107.21 126.638C107.21 123.83 109.499 121.541 112.318 121.541C115.126 121.541 117.425 123.83 117.425 126.638C117.425 129.457 115.126 131.746 112.318 131.746Z" fill="white"></path></svg>
