<svg xmlns="http://www.w3.org/2000/svg" width="85" height="85" viewBox="0 0 85 85" fill="none"><path d="M62.9198 6.57432C59.7655 7.17197 59.4335 7.33799 59.4335 8.33408C59.4335 8.93174 60.0975 9.629 60.6454 9.629C60.8778 9.629 61.6747 9.51279 62.4218 9.36338C63.1688 9.23057 63.8163 9.14756 63.8495 9.18076C63.9491 9.28037 61.6083 12.8995 59.8153 15.423C58.039 17.9132 55.6151 20.9845 53.4071 23.5743C51.0663 26.297 44.3427 32.9044 41.5204 35.2618C32.0741 43.131 21.7645 49.1905 10.8739 53.2911C9.59559 53.7726 8.43348 54.2706 8.26747 54.4034C7.6034 54.9845 7.88563 56.3292 8.73231 56.545C9.36317 56.711 9.89442 56.545 13.2479 55.2169C34.0497 46.9493 51.4149 32.838 63.9823 13.9952C65.078 12.3351 66.0077 11.0069 66.0409 11.0235C66.0575 11.0567 66.1903 11.6544 66.3231 12.3849C66.4726 13.0987 66.6884 13.8458 66.8212 14.045C67.3192 14.7921 68.5976 14.6427 69.0126 13.7794C69.2782 13.2149 68.1327 6.83994 67.6513 6.32529C67.2362 5.84385 66.4559 5.89365 62.9198 6.57432Z" fill="#1D49C3"></path><path d="M67.286 18.0791C66.622 18.2451 66.2899 18.5107 65.9745 19.1084C65.6093 19.8223 65.6259 77.3135 65.9911 78.0273C66.5058 79.0234 66.539 79.0234 71.6854 79.0234C75.7694 79.0234 76.4335 78.9902 76.7987 78.7578C77.745 78.127 77.6952 80.0693 77.6952 48.5264C77.6952 20.0879 77.6952 19.4902 77.3632 18.9756C76.7987 18.0459 76.6659 18.0127 72.0507 17.9795C69.7265 17.9629 67.5683 18.0127 67.286 18.0791ZM75.039 48.4766V76.3672H71.7186H68.3983V48.4766V20.5859H71.7186H75.039V48.4766Z" fill="#1B1D22"></path><path d="M52.6767 34.0166C52.0126 34.1826 51.6806 34.4482 51.3651 35.0459C50.9999 35.7598 51.0165 77.3135 51.3817 78.0273C51.8964 79.0234 51.9296 79.0234 57.0761 79.0234C61.1601 79.0234 61.8241 78.9902 62.1893 78.7578C63.1356 78.127 63.0858 79.3555 63.0858 56.4951C63.0858 35.9424 63.0692 35.4277 62.7538 34.9131C62.1893 33.9834 62.0565 33.9502 57.4413 33.917C55.1171 33.9004 52.9589 33.9502 52.6767 34.0166ZM60.4296 56.4453V76.3672H57.1093H53.789V56.4453V36.5234H57.1093H60.4296V56.4453Z" fill="#1B1D22"></path><path d="M38.0673 47.2979C37.4032 47.4639 37.0712 47.7295 36.7558 48.3271C36.3905 49.041 36.4071 77.3135 36.7724 78.0273C37.287 79.0234 37.3202 79.0234 42.4667 79.0234C46.5507 79.0234 47.2147 78.9902 47.58 78.7578C48.5097 78.1436 48.4765 78.7578 48.4765 63.1357C48.4765 49.1572 48.4599 48.709 48.1444 48.1943C47.58 47.2646 47.4472 47.2314 42.8319 47.1982C40.5077 47.1816 38.3495 47.2314 38.0673 47.2979ZM45.8202 63.0859V76.3672H42.4999H39.1796V63.0859V49.8047H42.4999H45.8202V63.0859Z" fill="#1B1D22"></path><path d="M23.4579 55.2666C22.7938 55.4326 22.4618 55.6982 22.1464 56.2959C21.7811 57.0098 21.7977 77.3135 22.163 78.0273C22.6776 79.0234 22.7108 79.0234 27.8573 79.0234C31.9413 79.0234 32.6054 78.9902 32.9706 78.7578C33.8837 78.1436 33.8671 78.4092 33.8671 67.1201C33.8671 57.0928 33.8505 56.6777 33.5351 56.1631C32.9706 55.2334 32.8378 55.2002 28.2226 55.167C25.8983 55.1504 23.7401 55.2002 23.4579 55.2666ZM31.2108 67.0703V76.3672H27.8905H24.5702V67.0703V57.7734H27.8905H31.2108V67.0703Z" fill="#1B1D22"></path><path d="M8.84855 63.2354C8.18448 63.4014 7.85245 63.667 7.53702 64.2646C7.18839 64.9619 7.18839 77.3301 7.55363 78.0273C8.06827 79.0234 8.10148 79.0234 13.248 79.0234C17.3319 79.0234 17.996 78.9902 18.3612 78.7578C19.2411 78.1768 19.2577 78.0605 19.2577 71.1045C19.2577 65.0117 19.2411 64.6299 18.9257 64.1318C18.3612 63.2021 18.2284 63.1689 13.6132 63.1357C11.289 63.1191 9.13077 63.1689 8.84855 63.2354ZM16.6015 71.0547V76.3672H13.2812H9.96085V71.0547V65.7422H13.2812H16.6015V71.0547Z" fill="#1B1D22"></path></svg>