<svg xmlns="http://www.w3.org/2000/svg" width="81" height="78" viewBox="0 0 81 78" fill="none"><path d="M65.2364 0.383487C64.5014 0.958659 51.5601 18.9168 51.5601 19.3961C51.5601 20.4186 52.5506 20.7701 55.3945 20.7701H58.2384L58.3343 24.9561C58.4302 28.5669 58.526 29.206 59.0053 29.5255C59.3888 29.7812 59.7083 29.7812 60.1237 29.5255C60.603 29.206 60.6669 28.5349 60.7628 24.1253C60.8267 20.7701 60.7309 18.9488 60.4752 18.6612C60.2515 18.4055 59.261 18.2138 57.7911 18.1499L55.4265 18.054L60.5072 11.0242C63.3191 7.15773 65.7476 3.99429 65.9074 3.99429C66.2269 3.99429 76.1327 17.5428 76.1646 17.9582C76.1646 18.086 75.0462 18.2138 73.7042 18.2777L71.2118 18.3736V36.4276V54.4816L71.9787 54.5774C73.6083 54.8331 73.6083 54.8011 73.6083 37.1625V20.7701H76.4522C78.6251 20.7701 79.4239 20.6423 79.8074 20.2589C80.6382 19.4281 81.3092 20.5145 73.0012 8.94716C67.569 1.40601 66.4506 3.90535e-05 65.9394 3.90535e-05C65.8435 3.90535e-05 65.524 0.191763 65.2364 0.383487Z" fill="#1D49C3"></path><path d="M27.5943 15.2101C14.1098 16.8397 3.40517 26.4579 0.561267 39.4951C-0.237583 43.2337 -0.173675 49.2091 0.689083 52.8199C3.98034 66.1767 15.0364 75.5392 28.7127 76.5617C33.7934 76.9452 39.9286 75.699 44.3702 73.3663C45.4247 72.8231 46.3833 72.3438 46.5431 72.2799C46.6709 72.216 46.7667 73.3024 46.7667 74.6765C46.7667 76.2102 46.9265 77.3606 47.1502 77.5843C47.7254 78.1594 60.9223 78.1275 61.4336 77.5523C61.6573 77.2647 61.8171 73.5261 61.849 65.953L61.9449 54.8011L65.1403 54.6413C69.518 54.4176 69.518 54.3857 64.9805 48.0907C61.4656 43.2657 61.3697 43.074 60.9543 40.5816C58.4938 26.4259 46.4152 15.8172 31.972 15.2101C30.1826 15.1462 28.2015 15.1462 27.5943 15.2101ZM34.2088 17.9262C44.3382 19.3002 53.1895 26.2023 56.8322 35.5009C57.2796 36.5873 57.5672 37.5459 57.5352 37.6098C57.4713 37.6737 56.9281 36.9708 56.321 36.108C55.2665 34.5423 54.0522 33.8073 53.4771 34.3825C53.3493 34.5423 50.2497 38.7602 46.6389 43.777C41.6541 50.6471 40.0564 53.0756 40.1203 53.6827C40.2162 54.4496 40.2801 54.4815 43.4116 54.6413L46.607 54.8011L46.7028 61.8949L46.7667 68.9567L45.8401 69.6277C44.2104 70.7781 40.312 72.5036 37.6598 73.2066C34.113 74.1971 27.2748 74.1971 23.7279 73.2385C18.9029 71.9284 14.9725 69.7236 11.2659 66.2086C3.30931 58.7314 0.497359 47.3878 3.98034 36.9068C5.32241 32.8167 7.43137 29.4296 10.6587 26.1703C14.0139 22.7832 17.5608 20.5464 21.7787 19.2043C26.5399 17.6386 29.7992 17.3191 34.2088 17.9262ZM59.5164 44.9273L64.5651 51.9252L62.2005 52.085C60.6028 52.1808 59.74 52.4045 59.5483 52.7241C59.3566 53.0117 59.2288 57.9006 59.2288 64.2914V75.4114H54.2759H49.323V64.2595C49.323 54.2898 49.2591 53.0756 48.8118 52.6921C48.4922 52.4365 47.3099 52.1808 46.0957 52.085L43.9228 51.9252L49.0674 44.7995C51.8794 40.9011 54.2759 37.7376 54.3398 37.8016C54.4037 37.8974 56.7364 41.0928 59.5164 44.9273Z" fill="#1D49C3"></path><path d="M29.8951 19.1087C29.6075 19.3004 29.5117 20.1632 29.5756 22.2402C29.6714 24.9882 29.7034 25.0841 30.4383 25.18C31.5887 25.3717 32.068 24.477 32.068 22.1124C32.068 19.2685 31.333 18.214 29.8951 19.1087Z" fill="#1D49C3"></path><path d="M29.8952 29.4614C29.6076 29.749 29.5118 31.6662 29.5118 36.1078C29.5118 42.3708 29.5118 42.4028 28.7768 42.7862C27.0833 43.7129 26.4761 46.0455 27.5306 47.7711L28.1058 48.7297L26.0927 53.395C24.9743 55.9832 24.0796 58.3798 24.0796 58.7632C24.0796 59.1147 24.3991 59.5621 24.7506 59.7858C25.7732 60.329 26.2525 59.594 28.5531 54.2258C29.7994 51.3179 30.726 49.5285 31.0136 49.5285C31.9722 49.5285 33.2823 48.5379 33.8256 47.4196C34.5285 45.9177 34.2729 44.4798 33.0267 43.2975L32.0681 42.3708V36.2676C32.0681 30.7396 32.0042 30.0685 31.4929 29.6212C30.7899 28.9821 30.4065 28.9502 29.8952 29.4614Z" fill="#1D49C3"></path><path d="M3.82076 45.215C3.27755 46.6849 4.1403 47.292 6.79249 47.292C9.25294 47.292 10.1477 46.8446 9.95593 45.6623C9.86007 44.9274 9.76421 44.8954 6.95226 44.7996C4.4918 44.7357 3.98053 44.7996 3.82076 45.215Z" fill="#1D49C3"></path><path d="M29.8951 66.7201C29.6075 66.9118 29.5117 67.7746 29.5756 69.8516C29.6714 72.5996 29.7034 72.6955 30.4383 72.7914C31.6206 72.9831 32.068 72.0884 32.068 69.6279C32.068 66.9438 31.2691 65.8893 29.8951 66.7201Z" fill="#1D49C3"></path></svg>