<svg xmlns="http://www.w3.org/2000/svg" width="88" height="89" viewBox="0 0 88 89" fill="none"><g clip-path="url(#clip0_107_4)"><path fill-rule="evenodd" clip-rule="evenodd" d="M26 45.8V77.1C26 78.2 26.8 79.5 28.7 80.4C31.7 81.9 37.7 82.9 44.6 82.9C51.5 82.9 57.5 81.9 60.5 80.4C62.4 79.5 63.2 78.2 63.2 77.1V72.5H60.3C60.3 72.5 56 76.7 48.5 79.8C47.2 79.8 45.9 79.9 44.5 79.9C39 79.9 34.1 79.2 31.1 78.2C30.2 77.9 29.5 77.6 29.1 77.2C29 77.2 28.8 77 28.8 76.9V69.9C31.8 71.3 37.8 72.3 44.6 72.3C51.4 72.3 57.5 71.3 60.5 69.8C62.4 68.9 63.2 67.6 63.2 66.5V61.6H60.3C60.3 61.6 55.8 66.1 47.7 69.3C46.7 69.3 45.6 69.3 44.5 69.3C39 69.3 34.1 68.6 31.1 67.6C30.2 67.3 29.5 67 29.1 66.6C29 66.6 28.8 66.4 28.8 66.3V59.3C31.8 60.7 37.8 61.7 44.6 61.7C51.4 61.7 57.5 60.7 60.5 59.2C62.4 58.3 63.2 57 63.2 55.9V51.3H60.3C60.3 51.3 56.1 55.5 48.7 58.7C47.4 58.7 46 58.8 44.5 58.8C39 58.8 34.1 58.1 31.1 57.1C30.2 56.8 29.5 56.5 29.1 56.1C29 56.1 28.8 55.9 28.8 55.8V48.8C31.8 50.2 37.8 51.2 44.6 51.2C51.4 51.2 57.5 50.2 60.5 48.7C62.4 47.8 63.2 46.5 63.2 45.4C63.2 44.3 62.4 43 60.5 42.1C57.5 40.6 51.5 39.6 44.6 39.6C37.7 39.6 31.7 40.6 28.7 42.1C26.8 43 26 44.3 26 45.4V45.8ZM80.2 32C78.9 30.6 77.4 29.4 75.8 28.4C75.5 28.2 75.3 28 75.2 27.6C71.4 17.1 61.1 9.6 49 9.6C36.9 9.6 22.2 20.6 21.3 34.5C21.3 35.2 20.6 35.8 19.9 35.8C12.2 35.9 6.1 41.9 6.1 49.4C6.1 56.9 12.4 63 20.2 63H22.3V65.9H20.2C10.8 65.9 3.2 58.5 3.2 49.5C3.2 40.5 9.9 33.9 18.6 33.1C20.3 18.3 33.3 6.7 49.1 6.7C64.9 6.7 73.6 14.8 77.9 26.1C84.1 30 88.2 36.6 88.2 44.3C88.2 55.2 79.8 64.3 68.9 65.7C67.9 65.8 66.8 65.9 66.8 65.9L66.6 63C66.6 61.9 66.5 60.5 66.4 59.3C69.1 58.5 71.5 57.7 74.9 54.9C80.6 50.2 82.5 41.7 80.4 31.8L80.2 32ZM60.4 45.8L60.2 46C59.7 46.4 59 46.7 58.2 47C55.2 48 50.3 48.7 44.8 48.7C39.3 48.7 34.4 48 31.4 47C30.5 46.7 29.8 46.4 29.4 46L29.2 45.8L29.4 45.6C29.9 45.2 30.6 44.9 31.4 44.6C34.4 43.6 39.3 42.9 44.8 42.9C50.3 42.9 55.2 43.6 58.2 44.6C59.1 44.9 59.8 45.2 60.2 45.6C60.2 45.6 60.4 45.7 60.4 45.8ZM48.7 18.2C59.7 18.2 68.6 27.1 68.6 38.1V39.5H71.5V38.1C71.5 25.5 61.3 15.3 48.7 15.3H47.3V18.2H48.7ZM1.5 25.5H14.4V22.6H1.5V25.5ZM0 3L16.1 19.1L18.1 17.1L2 1L0 3ZM21.2 1.6V14.5H24.1V1.6H21.2Z" fill="#1D49C3"></path></g><defs><clipPath id="clip0_107_4"><rect width="88" height="89" fill="white"></rect></clipPath></defs></svg>