<svg xmlns="http://www.w3.org/2000/svg" width="78" height="78" viewBox="0 0 78 78" fill="none"><g clip-path="url(#clip0_162_104)"><path fill-rule="evenodd" clip-rule="evenodd" d="M71.227 43.126L74.0327 45.9316C74.3874 46.2884 74.5865 46.7711 74.5865 47.2742C74.5865 47.7773 74.3874 48.2599 74.0327 48.6167L71.7729 50.8765C72.402 52.0471 72.8737 53.2957 73.1758 54.5898H76.102C76.6071 54.5898 77.0915 54.7905 77.4486 55.1476C77.8057 55.5047 78.0063 55.9891 78.0063 56.4941V60.4614C78.0063 60.9665 77.8057 61.4508 77.4486 61.808C77.0915 62.1651 76.6071 62.3657 76.102 62.3657H72.9282C72.5422 63.6441 71.9871 64.8652 71.2778 65.9966L73.3472 68.0659C73.7038 68.423 73.9041 68.907 73.9041 69.4116C73.9041 69.9163 73.7038 70.4003 73.3472 70.7573L70.5415 73.563C70.1847 73.9177 69.7021 74.1167 69.199 74.1167C68.6959 74.1167 68.2132 73.9177 67.8564 73.563L65.5967 71.3032C64.4154 71.9334 63.1562 72.405 61.8516 72.7061V75.6323C61.8516 76.1374 61.6509 76.6217 61.2938 76.9789C60.9367 77.336 60.4523 77.5366 59.9473 77.5366H55.9609C55.4559 77.5366 54.9715 77.336 54.6144 76.9789C54.2573 76.6217 54.0566 76.1374 54.0566 75.6323V72.4585C52.7789 72.0679 51.5582 71.5108 50.4258 70.8018L48.3501 72.8711C47.9933 73.2258 47.5107 73.4248 47.0076 73.4248C46.5045 73.4248 46.0218 73.2258 45.665 72.8711L42.8594 70.0654C42.5047 69.7086 42.3056 69.226 42.3056 68.7229C42.3056 68.2198 42.5047 67.7372 42.8594 67.3804L45.1191 65.1206C44.4864 63.9427 44.0145 62.6852 43.7163 61.3818H40.79C40.285 61.3818 39.8006 61.1812 39.4435 60.8241C39.0864 60.467 38.8857 59.9826 38.8857 59.4775V55.5103C38.8857 55.0052 39.0864 54.5208 39.4435 54.1637C39.8006 53.8066 40.285 53.606 40.79 53.606H43.9639C44.3521 52.3253 44.9092 51.1022 45.6206 49.9688L43.5449 47.8994C43.1902 47.5426 42.9912 47.06 42.9912 46.5569C42.9912 46.0538 43.1902 45.5712 43.5449 45.2144L46.3506 42.4087C46.7074 42.054 47.19 41.8549 47.6931 41.8549C48.1962 41.8549 48.6788 42.054 49.0356 42.4087L51.3018 44.6685C52.4805 44.0377 53.7378 43.566 55.0405 43.2656V40.3457C55.0405 39.8407 55.2412 39.3563 55.5983 38.9992C55.9554 38.642 56.4398 38.4414 56.9448 38.4414H60.9375C61.4425 38.4414 61.9269 38.642 62.284 38.9992C62.6412 39.3563 62.8418 39.8407 62.8418 40.3457V43.5195C64.1229 43.9065 65.3462 44.4637 66.479 45.1763L68.5547 43.126C68.9117 42.7694 69.3957 42.5691 69.9004 42.5691C70.405 42.5691 70.889 42.7694 71.2461 43.126H71.227ZM11.4258 17.2593C16.6689 19.0112 23.9687 20.0903 32.0747 20.0903C40.1807 20.0903 47.4995 19.043 52.7427 17.2593C57.3447 15.7231 60.1885 13.8633 60.1885 12.0415C60.1885 10.2197 57.3447 8.36621 52.7427 6.83008C47.4995 5.07813 40.1997 3.99268 32.0938 3.99268C23.9878 3.99268 16.688 5.07813 11.4258 6.83008C1.68213 10.0864 1.40918 13.9077 11.4258 17.2593ZM31.2178 60.3027C23.0483 60.2266 15.6343 59.0776 10.1816 57.2559C8.01304 56.5735 5.94627 55.602 4.03711 54.3677V66.333C4.39893 68.0278 7.16016 69.7354 11.4448 71.1636C16.688 72.9155 23.9878 74.001 32.0938 74.001C33.4585 74.001 34.8042 74.001 36.1182 73.9058C36.4835 74.4844 36.9091 75.0227 37.3877 75.5117L39.5776 77.6953C37.1655 77.8984 34.6455 78.0063 32.0557 78.0063C23.5435 78.0063 15.793 76.8384 10.1436 74.9531C7.1665 73.9629 -0.0126953 70.6938 -0.0126953 66.79V65.5205C0.0253906 47.6921 0.0296224 29.8721 -2.83762e-10 12.0605C-2.83762e-10 8.31543 3.89111 5.1543 10.1563 3.05322C15.8311 1.16797 23.5815 0 32.0938 0C40.606 0 48.3564 1.16797 54.0059 3.05322C59.6553 4.93848 63.4766 7.75684 64.1113 11.0513C64.1882 11.2672 64.2269 11.4949 64.2256 11.7241V31.313C63.1721 30.9283 62.059 30.7327 60.9375 30.7354H60.1821C60.1852 30.6867 60.1852 30.638 60.1821 30.5894V18.1035C58.2545 19.3566 56.1663 20.3431 53.9741 21.0361C48.3564 22.9214 40.625 24.1211 32.0938 24.1211C23.5625 24.1211 15.8311 22.9214 10.1563 21.0361C7.98732 20.3518 5.92053 19.3782 4.01172 18.1416V30.9639C4.37354 32.665 7.13477 34.3726 11.4194 35.8008C16.6626 37.5527 23.9624 38.6382 32.0684 38.6382C34.6646 38.6382 37.1846 38.5239 39.5776 38.3145L38.543 39.3555C38.397 39.4824 38.2573 39.6094 38.1177 39.749C37.3113 40.5526 36.6556 41.4943 36.1816 42.5293C34.8423 42.5864 33.4712 42.6182 32.0874 42.6182C23.5752 42.6182 15.8247 41.4502 10.1753 39.5649C8.00955 38.886 5.94498 37.9189 4.03711 36.6895V48.6548C4.39893 50.3496 7.16016 52.0508 11.4258 53.4854C16.5039 55.1738 23.4229 56.2402 31.1606 56.3164V59.4902C31.1606 59.7695 31.1606 60.0488 31.1987 60.3218L31.2178 60.3027ZM58.4492 50.1909C59.9919 50.1922 61.4996 50.6508 62.7816 51.5088C64.0637 52.3667 65.0626 53.5856 65.6521 55.0112C66.2416 56.4368 66.3952 58.0051 66.0935 59.518C65.7917 61.0309 65.0482 62.4204 63.957 63.5108C62.8657 64.6012 61.4756 65.3435 59.9625 65.644C58.4494 65.9445 56.8811 65.7897 55.456 65.199C54.0309 64.6084 52.8128 63.6085 51.9559 62.3257C51.099 61.0429 50.6416 59.5349 50.6416 57.9922C50.6416 56.9672 50.8436 55.9522 51.236 55.0053C51.6285 54.0584 52.2037 53.1981 52.9288 52.4736C53.6539 51.7491 54.5146 51.1746 55.4619 50.7829C56.4091 50.3913 57.4242 50.1901 58.4492 50.1909Z" fill="#1D49C3"></path></g><defs><clipPath id="clip0_162_104"><rect width="78" height="78" fill="white"></rect></clipPath></defs></svg>