<svg xmlns="http://www.w3.org/2000/svg" width="78" height="78" viewBox="0 0 78 78" fill="none"><g clip-path="url(#clip0_160_68)"><path d="M18.9668 0.182638C18.2203 0.593966 18.1289 0.868185 18.1289 3.07717V5.17951H16.2246C13.0406 5.17951 12.7969 5.42326 12.7969 8.60725V10.5115H10.7098C8.47031 10.5115 8.18086 10.603 7.78477 11.3799C7.66289 11.6237 7.61719 19.7893 7.61719 41.2393C7.61719 70.2303 7.61719 70.7787 7.92188 71.251C8.37891 72.028 8.85117 72.0889 13.7262 72.028C17.7785 71.9823 18.1137 71.967 18.4184 71.6928C18.6316 71.4948 18.7383 71.2205 18.7383 70.8244C18.7383 69.8037 18.6316 69.7733 13.9852 69.7733H9.90234V41.285V12.7967H30.5449H51.1875V23.278V33.7744L47.8816 35.8158C46.0688 36.9432 44.5301 37.8725 44.4539 37.903C44.393 37.9334 44.332 37.7201 44.332 37.4307C44.332 36.3338 45.2918 36.41 30.5145 36.41C17.8699 36.41 17.2453 36.4252 17.0168 36.6842C16.6512 37.0955 16.6816 37.9791 17.0777 38.3295C17.3824 38.6037 17.8852 38.619 30.2555 38.6951L43.1133 38.7713L40.7063 40.249L38.284 41.742H33.9422C29.9355 41.742 29.5852 41.7572 29.3566 42.0162C28.991 42.4276 29.0215 43.3112 29.4176 43.6615C29.707 43.9205 30.0422 43.951 32.632 43.9967C35.1305 44.0424 35.5113 44.0881 35.4352 44.2862C35.3895 44.408 35.3438 45.0936 35.3438 45.7944V47.074H26.3098C17.7328 47.074 17.2453 47.0893 17.0168 47.3483C16.6512 47.7596 16.6816 48.6432 17.0777 48.9936C17.3824 49.2678 17.7938 49.283 26.3707 49.3287L35.3438 49.3744V50.8826V52.4061H26.3098C17.7328 52.4061 17.2453 52.4213 17.0168 52.6803C16.6512 53.0916 16.6816 53.9752 17.0777 54.3256C17.3824 54.5998 17.7938 54.6151 26.3707 54.6608L35.3438 54.7065V56.2147V57.7381H26.3098C17.7328 57.7381 17.2453 57.7533 17.0168 58.0123C16.6512 58.4237 16.6816 59.3073 17.0777 59.6576C17.3824 59.9319 17.7938 59.9471 26.5078 59.9928L35.6027 60.0385L35.9227 61.1506C36.3949 62.735 37.4613 64.8069 38.4668 65.9951C38.9238 66.574 40.0055 67.6252 40.8434 68.3565L42.382 69.6971L32.4035 69.7733C24.2684 69.8342 22.3945 69.8951 22.1965 70.0627C21.8156 70.3674 21.8613 71.3272 22.2574 71.6928C22.5621 71.967 23.0039 71.9823 33.8813 72.028L45.1699 72.0584L48.5672 74.953C52.2082 78.0455 52.5281 78.2283 53.5488 77.8323C54.0973 77.619 63.893 69.3619 66.0258 67.3358C68.966 64.5174 70.3828 61.0135 70.3828 56.5346C70.3828 54.9502 70.3523 54.7065 70.0781 54.417C69.6516 53.96 68.8289 53.96 68.4023 54.417C68.1281 54.7065 68.0977 54.9502 68.0977 56.5498C68.0977 60.267 67.1379 62.8569 64.8984 65.2182C63.8016 66.376 53.0156 75.5928 52.8328 75.5319C52.4977 75.41 40.9957 65.4772 40.4473 64.8373C39.5637 63.7862 38.9238 62.7198 38.4516 61.4553C37.7051 59.5053 37.6441 58.6522 37.6289 51.4768V44.8346L39.5027 43.692C41.407 42.519 43.2199 41.3916 49.2527 37.6592C51.1723 36.4709 52.8023 35.4959 52.8785 35.4959C52.9699 35.4959 56.4129 37.5983 60.5566 40.1576L68.0977 44.8346V47.5158C68.0977 50.0295 68.1129 50.2428 68.4023 50.5475C68.8289 51.0045 69.6516 51.0045 70.0781 50.5475C70.3676 50.2428 70.3828 50.0295 70.3828 47.2569C70.3828 44.8498 70.3371 44.21 70.1391 43.7834C69.941 43.3569 69.3316 42.9151 66.9398 41.4221L63.9844 39.5787V20.551C63.9844 4.44826 63.9539 1.43186 63.7711 0.99006C63.3141 -0.0763466 64.9898 -0.000174713 40.95 -0.000174713C25.4871 0.0150597 19.1801 0.0607628 18.9668 0.182638ZM61.6992 20.1854C61.6992 30.0268 61.6535 38.0858 61.5926 38.0705C61.5164 38.0705 60.8613 37.6744 60.0996 37.1869L58.7285 36.3186L58.6523 28.3053C58.5914 21.8307 58.5305 20.2615 58.3629 20.0635C58.0582 19.6826 57.0984 19.7283 56.7328 20.1244C56.4586 20.4291 56.4434 20.81 56.3977 27.6502L56.352 34.8561L54.9199 33.9877L53.4879 33.1346L53.4727 22.4248C53.4727 10.8924 53.4879 11.1209 52.6805 10.6944C52.4063 10.5572 48.0797 10.4963 33.7441 10.4658L15.1582 10.4354V8.98811V7.54084L35.7551 7.49514L56.352 7.46467L56.3977 11.7151C56.4434 15.6455 56.4586 15.9959 56.7328 16.2854C56.9309 16.4987 57.2051 16.6053 57.6012 16.6053C58.6523 16.6053 58.6523 16.5748 58.6523 11.0905V6.24592L58.2106 5.75842L57.7688 5.25568L39.0914 5.20998L20.4141 5.17951V3.73225V2.28498H41.0566H61.6992V20.1854Z" fill="#1D49C3"></path><path d="M22.1964 18.2508C21.8308 18.6621 21.8612 19.5457 22.2573 19.8961C22.562 20.1703 22.9276 20.1855 30.5448 20.1855C38.162 20.1855 38.5276 20.1703 38.8323 19.8961C39.2437 19.5152 39.2741 18.5859 38.878 18.2355C38.619 18.007 37.8269 17.9766 30.5144 17.9766C22.8819 17.9766 22.4249 17.9918 22.1964 18.2508Z" fill="#1D49C3"></path><path d="M17.0167 26.0203C16.6511 26.4316 16.6815 27.3152 17.0776 27.6656C17.3823 27.9398 17.8241 27.9551 30.5448 27.9551C43.2655 27.9551 43.7073 27.9398 44.012 27.6656C44.4233 27.2848 44.4538 26.3555 44.0577 26.0051C43.7987 25.7613 42.6409 25.7461 30.5144 25.7461C17.8698 25.7461 17.2452 25.7613 17.0167 26.0203Z" fill="#1D49C3"></path><path d="M17.0167 31.3523C16.6511 31.7637 16.6815 32.6473 17.0776 32.9977C17.3823 33.2719 17.8241 33.2871 30.5448 33.2871C43.2655 33.2871 43.7073 33.2719 44.012 32.9977C44.4233 32.6168 44.4538 31.6875 44.0577 31.3371C43.7987 31.0934 42.6409 31.0781 30.5144 31.0781C17.8698 31.0781 17.2452 31.0934 17.0167 31.3523Z" fill="#1D49C3"></path><path d="M17.0167 42.0164C16.6511 42.4277 16.6815 43.3113 17.0776 43.6617C17.3823 43.9359 17.687 43.9512 22.1659 43.9512C26.6448 43.9512 26.9495 43.9359 27.2542 43.6617C27.6655 43.2809 27.696 42.3516 27.2999 42.0012C27.0409 41.7727 26.462 41.7422 22.1355 41.7422C17.6108 41.7422 17.2452 41.7574 17.0167 42.0164Z" fill="#1D49C3"></path><path d="M50.8067 43.1895C45.4137 44.3777 41.8489 49.2984 42.5039 54.6305C42.8239 57.1594 43.7075 58.9418 45.5508 60.7852C47.6379 62.8875 49.8926 63.832 52.8785 63.832C55.834 63.832 58.0582 62.918 60.191 60.7852C61.166 59.8102 61.6383 59.1855 62.1106 58.2715C63.9235 54.7371 63.7102 50.8676 61.5317 47.6074C59.216 44.1492 54.7676 42.3059 50.8067 43.1895ZM55.5598 45.7488C58.4391 46.7391 60.5262 49.2984 60.968 52.3605C61.3032 54.6305 60.511 57.1441 58.9418 58.8656C55.6817 62.4305 50.2125 62.4762 46.9219 58.9723C45.4746 57.4336 44.7586 55.5902 44.7586 53.4574C44.7586 51.1723 45.5203 49.2832 47.1047 47.6988C48.1254 46.6934 49.6336 45.825 50.9743 45.4746C52.2692 45.1547 54.1887 45.2613 55.5598 45.7488Z" fill="#1D49C3"></path><path d="M54.402 52.3301L52.4825 54.2191L51.3246 53.0918C50.0297 51.8121 49.6184 51.6902 48.9786 52.3301C48.2625 53.0309 48.4149 53.3812 50.3192 55.2703C51.736 56.6871 52.1016 56.9766 52.4977 56.9766C52.8786 56.9766 53.3203 56.6109 55.4227 54.4934C58.1192 51.7816 58.2563 51.5379 57.5098 50.8066C56.809 50.0906 56.5043 50.243 54.402 52.3301Z" fill="#1D49C3"></path></g><defs><clipPath id="clip0_160_68"><rect width="78" height="78" fill="white"></rect></clipPath></defs></svg>