<svg xmlns="http://www.w3.org/2000/svg" width="78" height="78" viewBox="0 0 78 78" fill="none"><path d="M32.9062 9.75H20.7188C20.046 9.75 19.5 9.204 19.5 8.53125C19.5 7.8585 20.046 7.3125 20.7188 7.3125H32.9062C33.579 7.3125 34.125 7.8585 34.125 8.53125C34.125 9.204 33.579 9.75 32.9062 9.75ZM28.0312 70.6875H25.5938C24.921 70.6875 24.375 70.1415 24.375 69.4688C24.375 68.796 24.921 68.25 25.5938 68.25H28.0312C28.704 68.25 29.25 68.796 29.25 69.4688C29.25 70.1415 28.704 70.6875 28.0312 70.6875Z" fill="#1D49C3"></path><path d="M40.2188 75.5625H13.4062C10.0449 75.5625 7.3125 72.8301 7.3125 69.4688V8.53125C7.3125 5.16994 10.0449 2.4375 13.4062 2.4375H40.2188C43.5801 2.4375 46.3125 5.16994 46.3125 8.53125V18.2812C46.3125 18.954 45.7665 19.5 45.0938 19.5C44.421 19.5 43.875 18.954 43.875 18.2812V8.53125C43.875 6.51544 42.2346 4.875 40.2188 4.875H13.4062C11.3904 4.875 9.75 6.51544 9.75 8.53125V69.4688C9.75 71.4846 11.3904 73.125 13.4062 73.125H40.2188C42.2346 73.125 43.875 71.4846 43.875 69.4688C43.875 68.796 44.421 68.25 45.0938 68.25C45.7665 68.25 46.3125 68.796 46.3125 69.4688C46.3125 72.8301 43.5801 75.5625 40.2188 75.5625Z" fill="#1D49C3"></path><path d="M32.9062 65.8127H30.4639C29.7911 65.8127 29.2451 65.2667 29.2451 64.5939C29.2451 63.9212 29.7911 63.3752 30.4639 63.3752H32.9062C40.6014 63.3752 58.5 59.931 58.5 28.0314V19.5002H54.8437C54.4074 19.5002 54.0052 19.2662 53.7859 18.8884C53.5665 18.5106 53.5714 18.0426 53.7883 17.6672L62.3196 3.04219C62.7583 2.29388 63.9892 2.29388 64.4256 3.04219L72.9568 17.6672C73.1762 18.0426 73.1786 18.5106 72.9592 18.8884C72.7399 19.2662 72.3426 19.5002 71.9062 19.5002H68.25V28.0314C68.25 28.7042 67.704 29.2502 67.0312 29.2502C66.3585 29.2502 65.8125 28.7042 65.8125 28.0314V18.2814C65.8125 17.6087 66.3585 17.0627 67.0312 17.0627H69.7832L63.375 6.07444L56.9668 17.0627H59.7187C60.3915 17.0627 60.9375 17.6087 60.9375 18.2814V28.0314C60.9375 62.1296 41.3351 65.8127 32.9062 65.8127Z" fill="#1D49C3"></path><path d="M67.0264 34.125C67.6995 34.125 68.2451 33.5793 68.2451 32.9062C68.2451 32.2332 67.6995 31.6875 67.0264 31.6875C66.3533 31.6875 65.8076 32.2332 65.8076 32.9062C65.8076 33.5793 66.3533 34.125 67.0264 34.125Z" fill="#1D49C3"></path><path d="M32.9062 60.9375C22.8247 60.9375 14.625 52.7378 14.625 42.6562C14.625 32.5747 22.8247 24.375 32.9062 24.375C42.9878 24.375 51.1875 32.5747 51.1875 42.6562C51.1875 52.7378 42.9878 60.9375 32.9062 60.9375ZM32.9062 26.8125C24.1702 26.8125 17.0625 33.9202 17.0625 42.6562C17.0625 51.3923 24.1702 58.5 32.9062 58.5C41.6423 58.5 48.75 51.3923 48.75 42.6562C48.75 33.9202 41.6423 26.8125 32.9062 26.8125Z" fill="#1D49C3"></path><path d="M42.9342 30.0714C42.6856 30.0714 42.4345 29.9959 42.22 29.8374C41.674 29.4426 41.5546 28.6796 41.9519 28.1361L44.1018 25.1794C44.4942 24.6334 45.2571 24.5164 45.8031 24.9113C46.3491 25.3061 46.4686 26.0691 46.0713 26.6126L43.9214 29.5693C43.6825 29.8984 43.312 30.0714 42.9342 30.0714ZM22.8785 30.0714C22.5006 30.0714 22.1301 29.8984 21.8913 29.5693L19.7438 26.6102C19.3465 26.0642 19.4684 25.3037 20.012 24.9088C20.558 24.5139 21.3185 24.6358 21.7133 25.1769L23.8632 28.1361C24.2605 28.6821 24.1386 29.4426 23.5951 29.8374C23.3781 29.9959 23.1271 30.0714 22.8785 30.0714ZM35.3438 21.9375H30.4688C29.7961 21.9375 29.2501 21.3915 29.2501 20.7187C29.2501 20.046 29.7961 19.5 30.4688 19.5H35.3438C36.0166 19.5 36.5626 20.046 36.5626 20.7187C36.5626 21.3915 36.0166 21.9375 35.3438 21.9375ZM39.6046 31.0635C39.8824 31.2219 40.0945 31.4852 40.1628 31.8069C40.2651 32.1189 40.2115 32.4529 40.0531 32.7259C39.8946 33.0013 39.6314 33.2134 39.3096 33.2841C38.7003 33.4644 38.0031 33.0622 37.8301 32.4309C37.7301 32.1165 37.7838 31.7826 37.9398 31.5096C38.1006 31.2366 38.3639 31.0196 38.6856 30.9514C39.0001 30.849 39.3291 30.9051 39.6046 31.0635ZM27.4195 52.1722C27.695 52.3307 27.907 52.5939 27.9728 52.9157C28.0655 53.2496 28.024 53.5616 27.8631 53.8346C27.7047 54.1101 27.4439 54.3246 27.1441 54.405C26.4908 54.5586 25.7913 54.1588 25.6426 53.5397C25.5426 53.2252 25.5963 52.8913 25.7498 52.6183C25.9107 52.3453 26.1618 52.1503 26.4713 52.0528C26.8101 51.9602 27.1416 52.0138 27.4195 52.1722ZM44.5088 35.9677C44.6697 36.2432 44.7209 36.5771 44.6185 36.8891C44.5503 37.2109 44.3382 37.4717 44.0628 37.6301C43.7873 37.7886 43.4534 37.8422 43.1414 37.7422C42.5223 37.5936 42.1201 36.8964 42.2858 36.2651C42.3565 35.9434 42.5686 35.6826 42.8416 35.5217C43.117 35.3657 43.4534 35.3096 43.7654 35.412C44.0896 35.4802 44.3504 35.6923 44.5088 35.9677ZM23.4001 48.1552C23.5585 48.4307 23.6121 48.7646 23.5073 49.0766C23.4196 49.4106 23.2295 49.6592 22.9516 49.8176C22.6761 49.9761 22.3446 50.0321 22.0424 49.9541C21.3989 49.7616 20.9943 49.0644 21.1771 48.4526C21.2478 48.1309 21.4598 47.8701 21.7328 47.7092C22.0107 47.5532 22.3251 47.5093 22.642 47.5776C22.9784 47.6677 23.2392 47.8798 23.4001 48.1552ZM46.3028 42.666C46.3028 42.9853 46.1834 43.2997 45.9372 43.5191C45.7178 43.7653 45.4034 43.8847 45.0841 43.8823C44.7672 43.8823 44.4528 43.7604 44.231 43.5191C43.7703 43.0804 43.7703 42.276 44.231 41.8129C44.4528 41.5691 44.7696 41.4497 45.0841 41.4472C45.401 41.4497 45.7203 41.5716 45.9396 41.8153C46.1834 42.0322 46.3053 42.3467 46.3028 42.666ZM21.9303 42.666C21.9303 42.9853 21.8084 43.2997 21.5646 43.5191C21.3209 43.7653 21.0308 43.8847 20.7115 43.8823C20.3946 43.8823 20.0778 43.7629 19.856 43.5435C19.3953 43.056 19.3928 42.2492 19.856 41.8104C20.0778 41.5667 20.3946 41.4472 20.7091 41.4448C21.026 41.4472 21.3185 41.5691 21.5622 41.7885C21.8084 42.0322 21.9278 42.3467 21.9303 42.666Z" fill="#1D49C3"></path><path d="M44.5087 49.3644C44.3503 49.6398 44.087 49.8519 43.7653 49.9201C43.4533 50.0225 43.1194 49.9713 42.8439 49.8104C42.5709 49.652 42.3564 49.3887 42.2857 49.067C42.1054 48.4576 42.5075 47.7605 43.1389 47.5899C43.4509 47.4899 43.7872 47.5411 44.0602 47.6995C44.3357 47.858 44.5502 48.1237 44.6184 48.4454C44.7208 48.755 44.6672 49.0889 44.5087 49.3644ZM23.4 37.1769C23.2416 37.4523 22.9783 37.6644 22.6565 37.7326C22.3226 37.8228 22.0106 37.7814 21.7352 37.6229C21.4597 37.4645 21.2477 37.2012 21.1648 36.9014C21.0088 36.2482 21.411 35.5486 22.0301 35.4024C22.3445 35.3024 22.6785 35.3536 22.9515 35.512C23.2269 35.6705 23.4195 35.924 23.5194 36.2335C23.612 36.5675 23.5584 36.9014 23.4 37.1769Z" fill="#1D49C3"></path><path d="M39.6045 54.2684C39.3291 54.4268 38.9952 54.4805 38.6832 54.3781C38.3614 54.3098 38.0982 54.0978 37.9397 53.8199C37.7813 53.5469 37.7277 53.213 37.83 52.8985C37.9787 52.2794 38.6758 51.8772 39.3072 52.0454C39.6289 52.1137 39.8922 52.3257 40.0506 52.6012C40.209 52.8766 40.2602 53.213 40.1603 53.525C40.092 53.8467 39.88 54.1075 39.6045 54.2684ZM27.417 33.1597C27.1416 33.3181 26.8077 33.3717 26.4957 33.2693C26.1617 33.1816 25.9107 32.989 25.7522 32.7112C25.5938 32.4382 25.5402 32.1042 25.6182 31.802C25.8107 31.1585 26.5078 30.7538 27.1172 30.9367C27.439 31.0073 27.7022 31.2194 27.8607 31.4948C28.0191 31.7703 28.0605 32.0847 27.9923 32.404C27.9045 32.738 27.6925 32.9988 27.417 33.1597Z" fill="#1D49C3"></path><path d="M32.9062 56.0624C32.5894 56.0624 32.2725 55.9405 32.0531 55.6968C31.8094 55.4774 31.6875 55.1605 31.6875 54.8437C31.6875 54.5268 31.8094 54.2099 32.0531 53.9881C32.4919 53.5274 33.2963 53.5274 33.7594 53.9881C34.0031 54.2099 34.125 54.5268 34.125 54.8437C34.125 55.1605 34.0031 55.4774 33.7594 55.6968C33.54 55.9405 33.2231 56.0624 32.9062 56.0624ZM32.9062 31.6874C32.5894 31.6874 32.2725 31.5655 32.0531 31.3218C31.8094 31.078 31.6875 30.7855 31.6875 30.4687C31.6875 30.1518 31.8094 29.8349 32.0288 29.6131C32.5163 29.1524 33.3206 29.1524 33.7594 29.6131C34.0031 29.8349 34.125 30.1518 34.125 30.4687C34.125 30.7855 34.0031 31.078 33.7837 31.3218C33.54 31.5655 33.2231 31.6874 32.9062 31.6874Z" fill="#1D49C3"></path><path d="M32.9062 40.2188C33.3596 40.2188 33.7618 40.3747 34.125 40.5917V30.4688C34.125 29.796 33.579 29.25 32.9062 29.25C32.2335 29.25 31.6875 29.796 31.6875 30.4688V40.5917C32.0507 40.3747 32.4529 40.2188 32.9062 40.2188Z" fill="#1D49C3"></path><path d="M32.9062 46.3125C30.8904 46.3125 29.25 44.6721 29.25 42.6562C29.25 40.6404 30.8904 39 32.9062 39C34.9221 39 36.5625 40.6404 36.5625 42.6562C36.5625 44.6721 34.9221 46.3125 32.9062 46.3125ZM32.9062 41.4375C32.2335 41.4375 31.6875 41.9859 31.6875 42.6562C31.6875 43.3266 32.2335 43.875 32.9062 43.875C33.579 43.875 34.125 43.3266 34.125 42.6562C34.125 41.9859 33.579 41.4375 32.9062 41.4375Z" fill="#1D49C3"></path><path d="M67.0264 43.875C67.6995 43.875 68.2451 43.3293 68.2451 42.6562C68.2451 41.9832 67.6995 41.4375 67.0264 41.4375C66.3533 41.4375 65.8076 41.9832 65.8076 42.6562C65.8076 43.3293 66.3533 43.875 67.0264 43.875Z" fill="#1D49C3"></path><path d="M67.0264 48.75C67.6995 48.75 68.2451 48.2043 68.2451 47.5312C68.2451 46.8582 67.6995 46.3125 67.0264 46.3125C66.3533 46.3125 65.8076 46.8582 65.8076 47.5312C65.8076 48.2043 66.3533 48.75 67.0264 48.75Z" fill="#1D49C3"></path><path d="M67.0312 56.0625C66.3585 56.0625 65.8125 55.5165 65.8125 54.8438V52.4062C65.8125 51.7335 66.3585 51.1875 67.0312 51.1875C67.704 51.1875 68.25 51.7335 68.25 52.4062V54.8438C68.25 55.5165 67.704 56.0625 67.0312 56.0625ZM67.0312 70.6875H54.8438C54.171 70.6875 53.625 70.1415 53.625 69.4688C53.625 68.796 54.171 68.25 54.8438 68.25H65.8125V59.7188C65.8125 59.046 66.3585 58.5 67.0312 58.5C67.704 58.5 68.25 59.046 68.25 59.7188V69.4688C68.25 70.1415 67.704 70.6875 67.0312 70.6875Z" fill="#1D49C3"></path></svg>