<svg xmlns="http://www.w3.org/2000/svg" width="62" height="62" viewBox="0 0 62 62" fill="none"><path d="M46.9871 36.998V24.998C46.9871 24.7328 46.8817 24.4785 46.6942 24.2909C46.5066 24.1034 46.2523 23.998 45.9871 23.998H39.9871C39.7218 23.998 39.4675 24.1034 39.28 24.2909C39.0924 24.4785 38.9871 24.7328 38.9871 24.998V36.998C38.9871 37.2633 39.0924 37.5176 39.28 37.7052C39.4675 37.8927 39.7218 37.998 39.9871 37.998H45.9871C46.2523 37.998 46.5066 37.8927 46.6942 37.7052C46.8817 37.5176 46.9871 37.2633 46.9871 36.998ZM44.9871 35.998H40.9871V25.998H44.9871V35.998Z" fill="#1D49C3"></path><path d="M27.9871 29.998C27.7218 29.998 27.4675 30.1034 27.28 30.2909C27.0924 30.4785 26.9871 30.7328 26.9871 30.998V36.998C26.9871 37.2633 27.0924 37.5176 27.28 37.7052C27.4675 37.8927 27.7218 37.998 27.9871 37.998H33.9871C34.2523 37.998 34.5066 37.8927 34.6942 37.7052C34.8817 37.5176 34.9871 37.2633 34.9871 36.998V30.998C34.9871 30.7328 34.8817 30.4785 34.6942 30.2909C34.5066 30.1034 34.2523 29.998 33.9871 29.998H27.9871ZM32.9871 35.998H28.9871V31.998H32.9871V35.998Z" fill="#1D49C3"></path><path d="M54.1871 9.39826L48.1871 17.3983C48.0756 17.5468 48.0078 17.7235 47.9911 17.9084C47.9744 18.0934 48.0096 18.2794 48.0926 18.4455C48.1757 18.6116 48.3034 18.7513 48.4613 18.8489C48.6193 18.9465 48.8013 18.9983 48.9871 18.9983H50.9871V36.9983C50.9871 37.2635 51.0924 37.5178 51.28 37.7054C51.4675 37.8929 51.7218 37.9983 51.9871 37.9983H57.9871C58.2523 37.9983 58.5066 37.8929 58.6942 37.7054C58.8817 37.5178 58.9871 37.2635 58.9871 36.9983V18.9983H60.9871C61.1728 18.9983 61.3548 18.9465 61.5128 18.8489C61.6708 18.7513 61.7984 18.6116 61.8815 18.4455C61.9645 18.2794 61.9997 18.0934 61.983 17.9084C61.9663 17.7235 61.8985 17.5468 61.7871 17.3983L55.7871 9.39826C55.6899 9.28014 55.5677 9.18501 55.4294 9.11969C55.2911 9.05438 55.14 9.02051 54.9871 9.02051C54.8341 9.02051 54.683 9.05438 54.5447 9.11969C54.4064 9.18501 54.2843 9.28014 54.1871 9.39826ZM57.9871 16.9983C57.7218 16.9983 57.4675 17.1036 57.28 17.2911C57.0924 17.4787 56.9871 17.733 56.9871 17.9983V35.9983H52.9871V17.9983C52.9871 17.733 52.8817 17.4787 52.6942 17.2911C52.5066 17.1036 52.2523 16.9983 51.9871 16.9983H50.9871L54.9871 11.6653L58.9871 16.9983H57.9871Z" fill="#1D49C3"></path><path d="M4.98706 28.545V33.451C4.98812 34.3285 5.33722 35.1697 5.95777 35.79C6.57831 36.4104 7.41961 36.7593 8.29706 36.76C8.5814 36.7568 8.85948 36.8435 9.09154 37.0079C9.3236 37.1722 9.49774 37.4058 9.58906 37.675C9.99024 38.9603 10.5074 40.2064 11.1341 41.398C11.2617 41.6547 11.3047 41.9452 11.2569 42.2278C11.2091 42.5104 11.073 42.7706 10.8681 42.971C10.2487 43.5921 9.90085 44.4334 9.90085 45.3105C9.90085 46.1877 10.2487 47.029 10.8681 47.65L14.3371 51.118C14.9671 51.7213 15.8058 52.0581 16.6781 52.0581C17.5504 52.0581 18.389 51.7213 19.0191 51.118C19.2194 50.914 19.4793 50.7787 19.7613 50.7315C20.0434 50.6842 20.3331 50.7275 20.5891 50.855C21.7798 51.4814 23.0249 51.9985 24.3091 52.4C24.5785 52.4913 24.8121 52.6654 24.9766 52.8975C25.1411 53.1295 25.2281 53.4076 25.2251 53.692C25.2272 54.5689 25.5767 55.4092 26.1971 56.0288C26.8175 56.6485 27.6582 56.997 28.5351 56.998H33.4351C34.3126 56.997 35.1539 56.6479 35.7744 56.0274C36.3949 55.4069 36.744 54.5656 36.7451 53.688C36.742 53.4036 36.829 53.1255 36.9935 52.8935C37.158 52.6614 37.3917 52.4873 37.6611 52.396C38.9472 51.9946 40.1943 51.4775 41.3871 50.851C41.6435 50.7237 41.9337 50.6808 42.2161 50.7284C42.4984 50.776 42.7585 50.9117 42.9591 51.116C43.5892 51.718 44.4271 52.0539 45.2986 52.0539C46.17 52.0539 47.0079 51.718 47.6381 51.116L51.1071 47.647C51.7272 47.0256 52.0754 46.1835 52.0754 45.3055C52.0754 44.4276 51.7272 43.5855 51.1071 42.964C50.9031 42.7638 50.7678 42.5042 50.7206 42.2223C50.6733 41.9404 50.7166 41.6508 50.8441 41.395C51.0841 40.94 51.2921 40.468 51.4991 39.995H49.2871C49.2111 40.149 49.1481 40.31 49.0681 40.463C48.7373 41.096 48.6192 41.8186 48.7312 42.5239C48.8433 43.2293 49.1795 43.8797 49.6901 44.379C49.9351 44.625 50.0726 44.9579 50.0726 45.305C50.0726 45.6522 49.9351 45.9851 49.6901 46.231L46.2211 49.7C45.9719 49.9395 45.6397 50.0732 45.2941 50.0732C44.9485 50.0732 44.6163 49.9395 44.3671 49.7C43.8675 49.1908 43.2174 48.8556 42.5128 48.7442C41.8082 48.6327 41.0864 48.7508 40.4541 49.081C39.3693 49.6498 38.2358 50.1204 37.0671 50.487C36.3886 50.7016 35.797 51.1284 35.3794 51.7045C34.9617 52.2806 34.7401 52.9755 34.7471 53.687C34.7471 54.0342 34.6094 54.3672 34.3641 54.613C34.1189 54.8588 33.7862 54.9973 33.4391 54.998H28.5391C28.1917 54.9978 27.8587 54.8597 27.613 54.6141C27.3674 54.3684 27.2293 54.0354 27.2291 53.688C27.2361 52.9765 27.0144 52.2816 26.5967 51.7055C26.1791 51.1294 25.5875 50.7026 24.9091 50.488C23.7406 50.1216 22.6074 49.651 21.5231 49.082C21.05 48.8307 20.5227 48.6989 19.9871 48.698C19.5431 48.6993 19.1037 48.7884 18.6943 48.96C18.2848 49.1316 17.9133 49.3824 17.6011 49.698C17.3518 49.9361 17.0203 50.069 16.6756 50.069C16.3308 50.069 15.9994 49.9361 15.7501 49.698L12.2871 46.234C12.0414 45.9879 11.9034 45.6543 11.9034 45.3065C11.9034 44.9588 12.0414 44.6252 12.2871 44.379C12.7966 43.8797 13.132 43.2296 13.2434 42.5249C13.3549 41.8202 13.2366 41.0983 12.9061 40.466C12.3364 39.382 11.8659 38.2487 11.5001 37.08C11.2856 36.4015 10.8589 35.8098 10.2828 35.3922C9.70666 34.9745 9.01162 34.7529 8.30006 34.76C7.95244 34.7603 7.61893 34.6226 7.37275 34.3772C7.12657 34.1318 6.98786 33.7987 6.98706 33.451V28.545C6.98785 28.198 7.12616 27.8653 7.37169 27.62C7.61722 27.3746 7.94996 27.2366 8.29706 27.236C9.00855 27.2429 9.70344 27.0212 10.2795 26.6035C10.8555 26.1859 11.2823 25.5944 11.4971 24.916C11.8605 23.7474 12.3291 22.6141 12.8971 21.53C13.2278 20.8971 13.3459 20.1745 13.2339 19.4691C13.1219 18.7638 12.7857 18.1134 12.2751 17.614C12.0301 17.3681 11.8925 17.0352 11.8925 16.688C11.8925 16.3409 12.0301 16.008 12.2751 15.762L15.7511 12.298C16.0003 12.0586 16.3325 11.9249 16.6781 11.9249C17.0237 11.9249 17.3558 12.0586 17.6051 12.298C18.1046 12.8073 18.7547 13.1425 19.4593 13.2539C20.1639 13.3654 20.8857 13.2473 21.5181 12.917C22.6166 12.3399 23.7658 11.8646 24.9511 11.497C25.6204 11.277 26.2019 10.849 26.611 10.2754C27.02 9.70178 27.2352 9.01251 27.2251 8.30805C27.2253 7.96069 27.3634 7.62764 27.609 7.38203C27.8547 7.13641 28.1877 6.99831 28.5351 6.99805H33.4351C33.7824 6.99831 34.1155 7.13641 34.3611 7.38203C34.6067 7.62764 34.7448 7.96069 34.7451 8.30805C34.7381 9.01957 34.9597 9.71454 35.3774 10.2906C35.795 10.8667 36.3866 11.2935 37.0651 11.508C38.2335 11.8745 39.3667 12.3451 40.4511 12.914C41.0842 13.2449 41.807 13.363 42.5125 13.251C43.2179 13.139 43.8686 12.8027 44.3681 12.292C44.6174 12.054 44.9488 11.9211 45.2936 11.9211C45.6383 11.9211 45.9698 12.054 46.2191 12.292L48.0551 14.127L49.2821 12.527L47.6371 10.88C47.007 10.2768 46.1684 9.94003 45.2961 9.94003C44.4238 9.94003 43.5851 10.2768 42.9551 10.88C42.7547 11.0841 42.4948 11.2194 42.2128 11.2666C41.9308 11.3139 41.641 11.2706 41.3851 11.143C40.1943 10.5167 38.9492 9.9996 37.6651 9.59805C37.3957 9.50676 37.162 9.33266 36.9975 9.10062C36.833 8.86858 36.746 8.59047 36.7491 8.30605C36.7475 7.42885 36.3982 6.58807 35.7777 5.96798C35.1573 5.3479 34.3163 4.9991 33.4391 4.99805H28.5391C28.1008 5 27.6673 5.08858 27.2634 5.25868C26.8594 5.42878 26.4932 5.67706 26.1855 5.98922C25.8779 6.30139 25.6351 6.67129 25.4709 7.07765C25.3068 7.48401 25.2246 7.91881 25.2291 8.35705C25.233 8.62686 25.1513 8.89098 24.9957 9.11145C24.8401 9.33191 24.6186 9.49737 24.3631 9.58405C23.0593 9.9879 21.7954 10.5104 20.5871 11.145C20.3306 11.2725 20.0404 11.3156 19.758 11.268C19.4756 11.2203 19.2155 11.0846 19.0151 10.88C18.3849 10.2781 17.547 9.94223 16.6756 9.94223C15.8041 9.94223 14.9662 10.2781 14.3361 10.88L10.8681 14.348C10.2479 14.9695 9.89968 15.8116 9.89968 16.6895C9.89968 17.5675 10.2479 18.4096 10.8681 19.031C11.072 19.2313 11.2073 19.4909 11.2545 19.7728C11.3018 20.0547 11.2586 20.3443 11.1311 20.6C10.5048 21.7911 9.98804 23.0365 9.58706 24.321C9.49574 24.5903 9.3216 24.8239 9.08954 24.9882C8.85748 25.1525 8.5794 25.2393 8.29506 25.236C7.41796 25.2374 6.57717 25.5865 5.95706 26.2068C5.33695 26.8271 4.98812 27.6679 4.98706 28.545Z" fill="#1D49C3"></path><path d="M41.8631 22.1979L43.1061 20.5789C40.9268 18.0449 38.0083 16.2573 34.7607 15.4675C31.5131 14.6777 28.0997 14.9254 25.0001 16.1756C21.9005 17.4259 19.2706 19.6159 17.4798 22.438C15.6891 25.2601 14.8277 28.5723 15.0165 31.9092C15.2054 35.2461 16.435 38.44 18.5327 41.042C20.6304 43.644 23.4906 45.5233 26.7115 46.4159C29.9324 47.3084 33.352 47.1694 36.4897 46.0182C39.6275 44.867 42.3257 42.7617 44.2051 39.9979H41.6951C39.8407 42.2067 37.3494 43.7888 34.5617 44.5281C31.7741 45.2674 28.8261 45.1277 26.1209 44.1282C23.4156 43.1287 21.085 41.318 19.4478 38.9438C17.8105 36.5696 16.9464 33.7477 16.9736 30.8638C17.0008 27.9799 17.918 25.1748 19.5998 22.8319C21.2816 20.489 23.6459 18.7227 26.3696 17.7744C29.0932 16.8261 32.0433 16.7421 34.8165 17.5338C37.5897 18.3256 40.0507 19.9545 41.8631 22.1979Z" fill="#1D49C3"></path><path d="M8.53114 49.352C4.30413 44.1691 1.99564 37.686 1.99564 30.998C1.99564 24.3099 4.30413 17.8268 8.53114 12.644L6.98714 11.377C2.46804 16.9175 0 23.8481 0 30.998C0 38.1478 2.46804 45.0784 6.98714 50.6189L8.53114 49.352Z" fill="#1D49C3"></path><path d="M9.06712 52.9182C9.31112 53.1629 9.55879 53.4029 9.81012 53.6382L11.1751 52.1762C10.9401 51.9562 10.7101 51.7322 10.4751 51.5032C10.2401 51.2742 10.0221 51.0422 9.80112 50.8032L8.34912 52.1772C8.58712 52.4272 8.82312 52.6752 9.06712 52.9182Z" fill="#1D49C3"></path><path d="M12.633 53.4552L11.366 54.9981C16.9065 59.5173 23.8372 61.9853 30.987 61.9853C38.1368 61.9853 45.0674 59.5173 50.608 54.9981L49.341 53.4521C44.158 57.6787 37.6753 59.9872 30.9875 59.9877C24.2997 59.9883 17.8166 57.6809 12.633 53.4552Z" fill="#1D49C3"></path><path d="M51.4931 51.5041C51.2641 51.7321 51.0341 51.9561 50.7991 52.1761L52.1641 53.6381C52.4154 53.4034 52.6627 53.1638 52.9061 52.9191C53.1494 52.6744 53.3891 52.4271 53.6251 52.1771L52.1681 50.8081C51.9471 51.0421 51.7231 51.2741 51.4931 51.5041Z" fill="#1D49C3"></path><path d="M10.4811 10.4919C10.7101 10.2639 10.9401 10.0399 11.1751 9.81991L9.81012 8.35791C9.55879 8.59324 9.31145 8.83291 9.06812 9.07691C8.82479 9.32091 8.58512 9.56824 8.34912 9.81891L9.80612 11.1879C10.0271 10.9539 10.2511 10.7219 10.4811 10.4919Z" fill="#1D49C3"></path><path d="M51.113 10.1483L52.337 8.55429C46.8723 3.3432 39.6915 0.308887 32.146 0.0223202C24.6004 -0.264247 17.2101 2.21669 11.366 6.99829L12.633 8.54429C18.1293 4.04973 25.0849 1.73032 32.1787 2.02657C39.2726 2.32283 46.0106 5.21411 51.113 10.1513V10.1483Z" fill="#1D49C3"></path><path d="M60.6471 39.998H58.5301C57.4289 43.4044 55.704 46.5763 53.4431 49.352L54.9871 50.619C57.551 47.4835 59.4741 43.8748 60.6471 39.998Z" fill="#1D49C3"></path></svg>