<svg xmlns="http://www.w3.org/2000/svg" width="78" height="78" viewBox="0 0 78 78" fill="none"><path d="M45.2308 3.36688C44.6976 4.53993 44.2253 5.53017 44.1644 5.57587C44.1035 5.60634 43.2199 5.36259 42.2144 5.0122C34.3382 2.39188 25.9289 2.98602 18.5554 6.73368C9.20152 11.4716 2.97066 20.3532 1.67574 30.7735C1.47769 32.4341 1.47769 36.2731 1.69097 37.9337C3.41246 51.9188 14.1832 62.9638 28.0312 64.9595C32.5863 65.6145 37.4003 65.2489 41.5898 63.9388L42.7324 63.5731L42.6867 62.4458C42.6562 61.8364 42.6105 61.3032 42.58 61.2727C42.5496 61.2423 41.8793 61.4251 41.0871 61.6841C35.3285 63.5274 29.2195 63.4665 23.3847 61.5317C12.3246 57.845 4.50933 47.7446 3.83902 36.2579C3.35152 28.0161 6.06324 20.5208 11.639 14.6708C16.4988 9.56727 23.3238 6.27665 29.9812 5.83485L31.3828 5.74345V10.2528V14.7774H30.941C30.1945 14.7774 27.8636 15.2192 26.5839 15.6153C24.9996 16.0876 22.3183 17.4282 20.9015 18.4337C16.9406 21.2368 14.107 25.6548 13.0101 30.6974C12.614 32.5559 12.6445 36.1817 13.071 38.1927C14.7925 46.2212 21.0539 52.2997 29.0519 53.7013C30.7886 54.0059 34.1402 54.0059 35.8921 53.7013C40.0664 52.97 43.9511 50.8677 46.8914 47.7751C49.8925 44.5911 51.614 40.8587 52.1777 36.2884L52.2843 35.4962H57.921H63.573L63.4816 33.3177C63.314 29.9661 62.8418 27.4677 61.7601 24.238C61.4554 23.3696 61.2726 22.6079 61.3488 22.547C61.4097 22.5013 62.2324 22.1204 63.1464 21.7091C64.0757 21.313 65.005 20.8864 65.2335 20.7645L65.6601 20.5665L64.6089 18.4642C61.4554 12.1876 56.7328 7.06884 50.8066 3.53446C49.4812 2.75751 46.48 1.21883 46.2515 1.21883C46.221 1.21883 45.764 2.1786 45.2308 3.36688ZM48.3386 4.73798C53.6097 7.38876 58.9875 12.736 62.0039 18.327L62.6437 19.5001L62.2781 19.6372C62.08 19.7134 58.9418 21.1149 55.3007 22.745C51.6597 24.3751 46.4191 26.7059 43.6464 27.9399L38.6191 30.1794L37.5832 29.1587C36.6843 28.2903 36.5472 28.0923 36.6691 27.8181C37.4613 26.0204 47.3179 4.26571 47.3484 4.26571C47.3636 4.26571 47.8207 4.47899 48.3386 4.73798ZM38.1164 6.24618C39.8683 6.61181 43.2046 7.64774 43.1742 7.83056C43.1589 7.89149 42.3363 9.75009 41.346 11.9743C39.9445 15.0821 39.4875 15.9809 39.3046 15.9048C38.3753 15.5544 36.2578 15.0364 35.0847 14.8993L33.6679 14.7165V10.2224V5.74345L35.1 5.83485C35.8921 5.89579 37.248 6.0786 38.1164 6.24618ZM31.3828 22.0595V27.0411L30.3773 27.3306C26.6449 28.397 24.3902 32.3884 25.3652 36.1513C25.8984 38.1927 27.3914 40.0513 29.25 40.9501C33.348 42.9458 38.2687 40.752 39.5332 36.3645L39.7769 35.4962H44.8957H49.9992L49.8925 36.4407C49.466 40.1122 47.775 43.5856 45.0175 46.404C38.6648 52.8786 28.8386 53.5489 21.6328 47.9731C16.8035 44.2407 14.2593 38.0403 15.0972 32.0532C15.8894 26.3251 19.5 21.3739 24.7558 18.7841C26.6906 17.8395 29.25 17.1083 30.7429 17.0778L31.3828 17.0626V22.0595ZM37.0195 17.5958C37.7964 17.8091 38.482 18.0071 38.5125 18.0528C38.5734 18.1138 34.6277 26.9497 34.4449 27.1477C34.3992 27.2087 34.2011 27.2239 34.0031 27.1782L33.6679 27.0868V22.0442V17.0169L34.6277 17.1235C35.1457 17.1692 36.2273 17.3825 37.0195 17.5958ZM59.5359 24.695C60.2824 26.7059 60.9222 29.6157 61.166 32.1751L61.2726 33.211H56.7785H52.2843L52.1777 32.4036C52.0101 31.002 51.6293 29.2653 51.2636 28.1989L50.9132 27.1782L54.9046 25.3958C57.0832 24.4208 58.9418 23.6438 59.0179 23.6591C59.0941 23.6895 59.3226 24.1466 59.5359 24.695ZM49.207 29.1739C49.5269 30.1489 49.9535 32.2056 49.9687 32.8606V33.211H44.8804C40.3863 33.211 39.7769 33.1806 39.7007 32.9673C39.4418 32.3122 39.5484 32.2513 44.073 30.2251C46.5105 29.113 48.5976 28.2142 48.7043 28.1989C48.7957 28.1837 49.0242 28.6255 49.207 29.1739ZM34.8714 29.8595C36.6234 30.7888 37.5375 32.3427 37.5375 34.3536C37.5375 35.8313 37.0957 36.9434 36.1054 37.9337C35.0847 38.9544 34.0031 39.3809 32.4492 39.3809C31.3371 39.3809 31.0324 39.32 30.2859 38.9544C27.3 37.4919 26.4773 33.5005 28.6558 31.0325C29.7984 29.7224 30.9867 29.2196 32.7539 29.2958C33.7136 29.3415 34.064 29.4329 34.8714 29.8595Z" fill="#1D49C3"></path><path d="M55.8188 37.0044C55.6512 37.0806 55.316 37.3548 55.1027 37.629C54.7066 38.0861 54.6914 38.1775 54.6914 39.9294V41.7423L55.2094 42.3212L55.7273 42.8849L57.4641 42.9611L59.1855 43.0372L59.2313 43.738L59.277 44.4236L58.0125 44.6216C50.0297 45.8404 44.1797 52.6044 44.1797 60.6329C44.1797 68.0673 49.1766 74.4353 56.5195 76.3396C58.0277 76.7357 60.968 76.8728 62.6285 76.6443C68.1586 75.8216 73.0641 72.0587 75.2121 66.9857C76.1871 64.6548 76.3852 63.6036 76.4004 60.6329C76.4004 58.3173 76.3547 57.7993 76.05 56.672C75.4254 54.4021 74.6027 52.772 72.7441 50.1822C72.6375 50.0298 72.7898 49.7708 73.384 49.1767C74.3438 48.1865 74.4961 47.8818 74.4961 47.0439C74.4961 46.0993 73.5973 44.8958 72.2262 44.0122C71.0074 43.2353 70.3219 43.4333 68.707 45.0177L67.5645 46.145L66.559 45.7033C65.5078 45.2615 63.5426 44.7283 62.2781 44.5454L61.5469 44.454V43.7075V42.9611H63.0703C65.3555 42.9611 65.8734 42.5802 66.0563 40.6911C66.2238 39.1829 66.0105 38.1318 65.4316 37.4919L64.9289 36.9435L60.5262 36.913C58.1191 36.8978 56.0016 36.9435 55.8188 37.0044ZM63.8016 39.9447L63.7559 40.7521L60.3738 40.7978L56.9766 40.8283V39.9904V39.1525H60.4195H63.8473L63.8016 39.9447ZM71.6777 46.465L72.2719 47.0743L71.6016 47.7599L70.916 48.4302L70.2305 47.8361L69.5449 47.2419L70.2305 46.5564C70.5961 46.1755 70.9465 45.8556 70.9922 45.8556C71.0379 45.8556 71.3578 46.1298 71.6777 46.465ZM63.4816 47.0896C68.6766 48.2779 72.6527 52.254 73.902 57.5251C74.359 59.4447 74.3285 62.0497 73.8258 64.015C72.7746 68.1283 69.9867 71.4646 66.0715 73.2775C63.9996 74.2372 63.0398 74.42 60.252 74.4048C58.0582 74.4048 57.6773 74.3591 56.4738 73.9935C51.3094 72.4091 47.5465 68.2044 46.6324 63.0095C46.4191 61.8365 46.4191 59.4294 46.6324 58.2564C48.0188 50.365 55.6816 45.2919 63.4816 47.0896Z" fill="#1D49C3"></path><path d="M59.292 49.5421L59.3377 51.2636L60.3737 51.3093L61.3944 51.355V49.5878V47.8358H60.328H59.2463L59.292 49.5421Z" fill="#1D49C3"></path><path d="M53.9754 49.5121C53.5336 49.771 53.168 50.03 53.168 50.1062C53.168 50.2128 54.5695 52.7113 54.7828 52.9855C54.8285 53.0464 56.5195 52.0867 56.5195 51.9953C56.5195 51.9191 54.8438 49.055 54.798 49.055C54.7828 49.055 54.402 49.2683 53.9754 49.5121Z" fill="#1D49C3"></path><path d="M65.1573 50.2281C64.0299 52.2238 64.0452 51.98 65.0049 52.5437C65.4772 52.8027 65.8733 53.0007 65.9038 52.9855C65.919 52.955 66.3151 52.2847 66.7874 51.5078L67.6253 50.0605L66.7874 49.5578C66.3303 49.2836 65.919 49.055 65.8885 49.055C65.8581 49.055 65.5381 49.5882 65.1573 50.2281Z" fill="#1D49C3"></path><path d="M69.4688 54.1888C68.6766 54.6459 67.991 55.0572 67.9606 55.0877C67.9301 55.1181 68.7375 56.5806 68.9356 56.7939C68.966 56.8396 71.5863 55.3314 71.7996 55.1486C71.891 55.0724 71.2207 53.6861 70.9313 53.3662C70.916 53.3509 70.2609 53.7166 69.4688 54.1888Z" fill="#1D49C3"></path><path d="M49.6182 53.5792C49.5877 53.6554 49.3745 54.021 49.1459 54.4019L48.7346 55.1179L49.6182 55.6054C50.1057 55.8796 50.7913 56.2604 51.1417 56.4737L51.7663 56.8394L52.2385 56.0167C52.4975 55.5597 52.7108 55.1483 52.7108 55.1179C52.7108 54.996 50.0295 53.4726 49.8467 53.4726C49.7553 53.4726 49.6487 53.5183 49.6182 53.5792Z" fill="#1D49C3"></path><path d="M53.5336 55.971C53.0918 56.4128 53.0156 56.5957 53.0156 57.1746C53.0156 57.6164 53.1223 57.982 53.3203 58.2257C53.6402 58.6371 58.2715 62.2324 59.018 62.6437C60.8461 63.6644 63.116 61.8058 62.5828 59.7339C62.3391 58.7589 61.6992 58.3171 58.3781 56.8394C54.7676 55.2246 54.3563 55.1484 53.5336 55.971ZM58.5762 59.155C60.5262 60.0386 60.8613 60.3128 60.45 60.7242C60.2063 60.9679 60.1605 60.9679 59.7645 60.7089C59.216 60.3433 56.6262 58.3476 56.7023 58.3476C56.748 58.3476 57.5859 58.7132 58.5762 59.155Z" fill="#1D49C3"></path><path d="M47.5312 60.6328V61.6992H49.2832H51.0352V60.6328V59.5664H49.2832H47.5312V60.6328Z" fill="#1D49C3"></path><path d="M69.6514 60.587L69.6971 61.6229L71.4186 61.6687L73.1249 61.7144V60.6327V59.5663H71.3729H69.6057L69.6514 60.587Z" fill="#1D49C3"></path><path d="M50.1516 65.3099L48.75 66.1478L49.1613 66.9095C49.4051 67.3208 49.6641 67.7017 49.7707 67.7474C49.9078 67.7931 52.3605 66.4829 52.6957 66.1782C52.7719 66.1173 51.7969 64.4415 51.675 64.4567C51.6141 64.4567 50.9285 64.8376 50.1516 65.3099Z" fill="#1D49C3"></path><path d="M68.4023 65.2946C68.1433 65.7669 67.9453 66.163 67.9758 66.1934C68.0062 66.2087 68.6613 66.5895 69.4535 67.0466C71.0531 67.9454 70.9617 67.9606 71.6168 66.6962L71.9062 66.1325L70.459 65.2946C69.682 64.8224 68.9965 64.4415 68.966 64.4415C68.9203 64.4415 68.6765 64.8224 68.4023 65.2946Z" fill="#1D49C3"></path><path d="M53.9449 69.6211C53.5031 70.3828 53.168 71.0684 53.1985 71.1598C53.2289 71.2359 53.5946 71.5102 54.0363 71.7539L54.8285 72.2109L55.636 70.8094C56.0778 70.0324 56.4586 69.3469 56.4891 69.2859C56.5348 69.1945 55.0418 68.25 54.8438 68.25C54.7981 68.25 54.3867 68.8746 53.9449 69.6211Z" fill="#1D49C3"></path><path d="M64.9288 68.7223L64.1213 69.1945L64.487 69.8344C64.7002 70.1695 65.0811 70.8551 65.3553 71.3273L65.8428 72.2109L66.7264 71.7234C67.2139 71.4492 67.5948 71.1902 67.5795 71.1445C67.2292 70.4437 65.9038 68.25 65.8276 68.25C65.7819 68.25 65.3706 68.4633 64.9288 68.7223Z" fill="#1D49C3"></path><path d="M59.2617 71.6777V73.4297H60.3281H61.3945V71.6777V69.9258H60.3281H59.2617V71.6777Z" fill="#1D49C3"></path></svg>