<svg xmlns="http://www.w3.org/2000/svg" width="95" height="118" viewBox="0 0 95 118" fill="none"><path d="M88.32 0H6.4C2.816 0 0 2.816 0 6.4V92.16C0 95.744 2.816 98.56 6.4 98.56H38.4V113.92C38.4 116.096 40.064 117.76 42.24 117.76H52.48C54.656 117.76 56.32 116.096 56.32 113.92V98.56H88.32C91.904 98.56 94.72 95.744 94.72 92.16V6.4C94.72 2.816 91.904 0 88.32 0ZM53.76 113.92C53.76 114.688 53.248 115.2 52.48 115.2H42.24C41.472 115.2 40.96 114.688 40.96 113.92V89.6C40.96 88.832 41.472 88.32 42.24 88.32H52.48C53.248 88.32 53.76 88.832 53.76 89.6V113.92ZM75.776 35.072L74.24 32.256L85.12 33.408L80.64 43.648L79.36 41.344C79.232 41.088 78.848 40.832 78.592 40.704C78.208 40.576 77.952 40.704 77.568 40.832L67.968 46.848L46.08 60.8L39.168 50.176C39.04 49.92 38.656 49.664 38.4 49.664C38.016 49.536 37.76 49.664 37.376 49.92L27.392 56.832C27.008 55.296 26.88 53.888 26.88 52.48C26.88 52.096 26.88 51.712 26.88 51.328L40.192 42.368L47.104 52.992C47.488 53.632 48.256 53.76 48.896 53.376L66.56 42.24L75.264 36.736C75.904 36.352 76.16 35.584 75.776 35.072ZM67.84 52.48C67.84 63.744 58.624 72.96 47.36 72.96C38.656 72.96 30.976 67.584 28.032 59.392L37.632 52.736L44.544 63.36C44.8 63.744 45.184 64 45.568 64C45.824 64 46.08 64 46.208 63.744L67.584 50.176C67.84 50.944 67.84 51.712 67.84 52.48ZM27.392 47.744C29.568 38.656 37.76 32 47.36 32C54.144 32 60.288 35.2 64.128 40.832L48.64 50.432L41.728 39.808C41.6 39.552 41.216 39.296 40.96 39.296C40.576 39.168 40.32 39.296 39.936 39.424L27.392 47.744ZM66.304 39.296C62.08 33.024 55.04 29.44 47.36 29.44C35.456 29.44 25.472 38.656 24.448 50.432C24.32 50.944 24.32 51.712 24.32 52.48C24.32 54.784 24.704 57.088 25.344 59.264C28.288 68.864 37.12 75.52 47.36 75.52C60.032 75.52 70.4 65.152 70.4 52.48C70.4 51.2 70.272 50.048 70.016 48.768L73.472 46.592C73.856 48.512 74.112 50.56 74.112 52.608C74.112 67.456 62.08 79.488 47.232 79.488C36.224 79.488 26.112 72.576 22.144 62.208C21.248 59.776 20.608 57.344 20.48 54.784C20.48 53.888 20.48 53.12 20.48 52.48C20.48 37.632 32.512 25.6 47.36 25.6C56.32 25.6 64.512 29.952 69.632 37.376L66.304 39.296ZM51.2 81.664V85.76H43.52V81.664C44.8 81.792 46.08 81.92 47.36 81.92C48.64 81.92 49.92 81.792 51.2 81.664ZM92.16 92.16C92.16 94.336 90.496 96 88.32 96H56.32V89.6C56.32 87.936 55.296 86.528 53.76 86.016V81.28C66.944 78.336 76.8 66.56 76.8 52.48C76.8 49.92 76.416 47.488 75.776 45.056L77.696 43.776L79.488 47.104C79.744 47.488 80.128 47.744 80.64 47.744C81.152 47.744 81.536 47.488 81.792 46.976L88.064 32.768C88.192 32.384 88.192 32 87.936 31.616C87.68 31.232 87.424 30.976 86.912 30.976L72.064 29.44C71.552 29.44 71.168 29.568 70.912 29.952C70.656 30.336 70.656 30.848 70.912 31.232L73.088 35.072L71.936 35.84C66.304 27.776 57.216 23.04 47.36 23.04C31.104 23.04 17.92 36.224 17.92 52.48C17.92 52.992 17.92 53.632 17.92 54.144L6.912 61.568C6.4 61.952 6.144 62.72 6.528 63.232L10.368 69.76C10.496 70.016 10.88 70.272 11.136 70.4C11.264 70.4 11.264 70.4 11.392 70.4C11.648 70.4 11.904 70.272 12.16 70.144L20.48 64.512C24.32 72.96 32 79.232 40.96 81.152V86.016C39.424 86.528 38.4 87.936 38.4 89.6V96H6.4C4.224 96 2.56 94.336 2.56 92.16V17.92H92.16V92.16ZM19.584 62.08L11.904 67.328L9.344 62.976L18.176 56.96C18.56 58.752 18.944 60.416 19.584 62.08ZM92.16 15.36H2.56V6.4C2.56 4.224 4.224 2.56 6.4 2.56H88.32C90.496 2.56 92.16 4.224 92.16 6.4V15.36Z" fill="#1D49C3"></path><path d="M84.4799 11.5199C85.8938 11.5199 87.0399 10.3738 87.0399 8.9599C87.0399 7.54605 85.8938 6.3999 84.4799 6.3999C83.0661 6.3999 81.9199 7.54605 81.9199 8.9599C81.9199 10.3738 83.0661 11.5199 84.4799 11.5199Z" fill="#1D49C3"></path><path d="M76.8 11.5199C78.2138 11.5199 79.36 10.3738 79.36 8.9599C79.36 7.54605 78.2138 6.3999 76.8 6.3999C75.3861 6.3999 74.24 7.54605 74.24 8.9599C74.24 10.3738 75.3861 11.5199 76.8 11.5199Z" fill="#1D49C3"></path><path d="M69.1201 11.5199C70.5339 11.5199 71.6801 10.3738 71.6801 8.9599C71.6801 7.54605 70.5339 6.3999 69.1201 6.3999C67.7062 6.3999 66.5601 7.54605 66.5601 8.9599C66.5601 10.3738 67.7062 11.5199 69.1201 11.5199Z" fill="#1D49C3"></path></svg>