<svg xmlns="http://www.w3.org/2000/svg" width="78" height="78" viewBox="0 0 78 78" fill="none"><path d="M3.04688 39V72.668H39H74.9531V39V5.33203H39H3.04688V39ZM20.3836 10.1461V13.5586H12.4312H4.47891V10.1461V6.73359H12.4312H20.3836V10.1461ZM72.668 10.1461V13.5586H47.6531H22.6688V10.1461V6.73359H47.6836H72.6984V10.1461H72.668ZM72.668 43.1133V70.3828H38.5734H4.47891V43.1133V15.8438H38.5734H72.668V43.1133Z" fill="#1D49C3"></path><path d="M6.73364 10.1459V11.2732H7.86099H8.98833V10.1459V9.01855H7.86099H6.73364V10.1459Z" fill="#1D49C3"></path><path d="M11.304 10.1459V11.2732H12.4313H13.5586V10.1459V9.01855H12.4313H11.304V10.1459Z" fill="#1D49C3"></path><path d="M15.8438 10.1459V11.2732H16.9711H18.0984V10.1459V9.01855H16.9711H15.8438V10.1459Z" fill="#1D49C3"></path><path d="M24.9233 10.1459V11.2732H47.653H70.3827V10.1459V9.01855H47.653H24.9233V10.1459Z" fill="#1D49C3"></path><path d="M6.73364 43.1135V68.1283H38.5735H70.4133V43.1135V18.0986H38.5735H6.73364V43.1135ZM68.1282 43.1135V65.8432H38.5735H9.0188V43.1135V20.3838H38.5735H68.1282V43.1135Z" fill="#1D49C3"></path><path d="M13.5586 26.0814V27.2088H38.5734H63.5883V26.0814V24.9541H38.5734H13.5586V26.0814Z" fill="#1D49C3"></path><path d="M24.9235 34.247C22.8516 34.9173 21.5415 36.8064 21.5415 39.122C21.5415 40.158 21.7547 40.7369 22.3336 41.4377C22.6993 41.8337 27.4219 45.0634 28.4883 45.6423C28.7016 45.7642 29.0063 45.9775 29.1891 46.1603C29.4938 46.465 29.5243 46.5869 29.4633 47.5923C29.4024 48.8416 29.1586 49.3291 28.336 49.7251C27.7266 50.0298 25.7157 50.0908 25.0149 49.7861C24.4055 49.5423 23.9485 48.933 23.8571 48.2626L23.7657 47.7142H22.6383H21.511L21.6024 48.3236C21.8461 49.7556 22.943 51.1572 24.3446 51.8275C25.0454 52.1627 25.3196 52.1931 26.6907 52.1931C28.1227 52.1931 28.336 52.1627 29.0063 51.797C29.9813 51.3095 30.7735 50.4869 31.261 49.5423C31.5657 48.9634 31.6571 48.5064 31.718 47.5923C31.8399 45.49 31.5047 45.0634 27.9094 42.6869C26.4165 41.7119 25.0454 40.8283 24.8321 40.7369C24.6188 40.615 24.2836 40.4017 24.1008 40.2189C23.7961 39.9142 23.7657 39.7923 23.8266 38.7869C23.8875 37.5377 24.1313 37.0502 24.954 36.6541C25.5633 36.3494 27.5743 36.2884 28.2751 36.5931C28.8844 36.8369 29.3415 37.4462 29.4329 38.1166L29.5243 38.665H30.6516H31.779L31.6875 38.1166C31.4133 36.5931 30.3469 35.1916 28.9454 34.5517C27.9399 34.0337 25.9594 33.9119 24.9235 34.247Z" fill="#1D49C3"></path><path d="M35.4352 34.3078C35.161 34.4602 34.7649 34.7953 34.5211 35.1L34.0945 35.6485L34.0641 42.9914C34.0336 51.2485 33.9727 50.8524 35.1 51.7664L35.6485 52.193L39.3961 52.2235L43.1438 52.2539V51.0961V49.9688H39.7313H36.3188V47.1352V44.3016H38.6039H40.8891V43.1743V42.0469H38.6039H36.3188V39.2133V36.3797H39.7313H43.1438V35.2524V34.125H39.5485C36.2883 34.0336 35.8922 34.0641 35.4352 34.3078Z" fill="#1D49C3"></path><path d="M48.9938 34.1554C48.293 34.3382 47.1047 35.039 46.6477 35.557C46.4344 35.8312 46.0688 36.3796 45.825 36.7757L45.429 37.507V43.1132V48.7195L45.825 49.4812C46.3125 50.4257 47.1352 51.2484 48.0797 51.7359C48.75 52.1015 48.9633 52.132 50.3954 52.132C51.7969 52.132 52.0407 52.1015 52.7415 51.7663C53.7774 51.2788 54.661 50.3953 55.118 49.3898L55.4836 48.5976V43.1132C55.4836 37.7203 55.4836 37.6288 55.1485 36.9585C54.661 35.8921 53.9602 35.1304 52.9852 34.6124C52.1625 34.1859 51.9493 34.1249 50.7305 34.0945C50.0602 34.064 49.2375 34.0945 48.9938 34.1554ZM52.4672 36.6843C53.3508 37.3242 53.3508 37.4156 53.3508 43.1437C53.3508 48.8718 53.3508 48.9632 52.4672 49.6031C52.1016 49.8468 51.8579 49.9078 50.5172 49.9078C48.7805 49.9078 48.4149 49.7554 47.9274 48.8413C47.7141 48.4148 47.6836 47.8968 47.7141 42.9913C47.7446 37.8421 47.775 37.6288 48.0493 37.2328C48.5672 36.5015 49.1461 36.3187 50.7 36.3796C51.7969 36.3492 52.1321 36.4406 52.4672 36.6843Z" fill="#1D49C3"></path><path d="M13.5586 43.1132V44.2405H14.6859H15.8438V43.1132V41.9858H14.7164H13.5891V43.1132H13.5586Z" fill="#1D49C3"></path><path d="M61.3032 43.1132V44.2405H62.4306H63.5579V43.1132V41.9858H62.461H61.3337V43.1132H61.3032Z" fill="#1D49C3"></path><path d="M13.5586 60.1757V61.303H38.5734H63.5883V60.1757V59.0483H38.5734H13.5586V60.1757Z" fill="#1D49C3"></path></svg>