<svg xmlns="http://www.w3.org/2000/svg" width="800" height="800" viewBox="0 0 800 800" fill="none"><g clip-path="url(#clip0_1_2757)"><path d="M735.244 205.986C734.833 184.388 734.441 163.983 734.441 144.244C734.441 128.779 721.908 116.242 706.439 116.242C586.684 116.242 495.506 81.8253 419.504 7.92976C408.632 -2.64382 391.33 -2.64008 380.462 7.92976C304.468 81.8253 213.305 116.242 93.5566 116.242C78.092 116.242 65.5545 128.779 65.5545 144.244C65.5545 163.987 65.1662 184.399 64.7518 206.001C60.9136 407.004 55.6567 682.286 390.811 798.458C393.783 799.488 396.882 800.003 399.981 800.003C403.08 800.003 406.183 799.488 409.151 798.458C744.332 682.283 739.082 406.993 735.244 205.986ZM399.985 742.285C112.546 637.868 116.892 409.128 120.748 207.069C120.98 194.942 121.204 183.189 121.361 171.667C233.518 166.933 323.207 132.946 399.985 66.062C476.77 132.946 566.474 166.937 678.639 171.667C678.796 183.185 679.02 194.931 679.251 207.05C683.104 409.117 687.447 637.864 399.985 742.285Z" fill="#1D49C3"></path><path d="M496.412 302.728L361.26 437.874L303.587 380.201C292.651 369.269 274.92 369.269 263.988 380.201C253.052 391.14 253.052 408.867 263.988 419.803L341.46 497.275C346.926 502.741 354.095 505.474 361.26 505.474C368.424 505.474 375.593 502.741 381.059 497.275L536.007 342.331C546.947 331.395 546.947 313.664 536.011 302.732C525.079 291.796 507.348 291.793 496.412 302.728Z" fill="#1D49C3"></path></g><defs><clipPath id="clip0_1_2757"><rect width="800" height="800" fill="white"></rect></clipPath></defs></svg>