<svg xmlns="http://www.w3.org/2000/svg" width="646" height="683" viewBox="0 0 646 683" fill="none"><path d="M57.0664 1.99977C33.1998 7.19977 13.9998 23.8664 4.9331 47.4664L1.3331 56.6664L0.933095 336.666C0.666429 539.733 0.933095 618.8 1.99976 624.666C7.19976 652.266 31.1998 676.266 58.5331 681.2C62.9331 682 80.1331 682.666 96.9331 682.666H127.333L131.6 678.8C137.466 673.6 137.733 665.733 132.266 660.266L128.666 656.666L94.9331 656C62.2664 655.333 61.1998 655.2 53.9998 651.866C44.3998 647.333 35.8664 638.933 31.5998 629.6C28.1331 622.133 27.9998 621.333 27.5998 591.066L27.0664 560H143.6H260.133L265.2 566.133C271.733 574 279.066 579.2 288.133 582.666C293.066 584.4 312.133 587.333 349.066 592C378.533 595.6 404.933 599.066 407.866 599.466L413.066 600.266L412.133 611.066C410.533 630.266 400.933 644.933 385.066 652.4C378.8 655.333 377.466 655.333 307.733 656L236.666 656.666L233.066 660.266C227.6 665.866 227.866 673.6 233.733 678.933L238.133 682.8L310.4 682.4C381.333 682 382.8 681.866 390.533 678.933C402.4 674.533 409.866 669.733 418.266 661.2C430.933 648.266 439.333 627.6 439.333 608.933C439.333 602.933 437.6 603.066 467.066 606.8C497.733 610.666 513.733 608.933 532 600C538.8 596.666 546.933 589.066 585.466 550.4C629.466 506.133 631.2 504.266 636.533 493.333C649.866 466 648.933 437.066 633.733 407.733C628.266 397.066 614.4 379.6 608.266 375.6C599.066 369.6 587.333 375.866 587.333 386.533C587.333 391.466 588.266 393.066 596.4 401.733C619.733 427.066 625.333 456.266 611.866 483.066C606.8 493.066 528.266 572 518.666 576.666C508 581.866 495.333 583.066 474.8 580.666C409.066 572.933 300.266 558.533 296.533 556.933C287.2 552.933 280.533 543.466 280.133 533.466C280 525.866 282.533 519.466 287.2 516.4C290.4 514.266 294.4 514 331.333 514C371.066 514 372.133 513.866 376.8 511.066C379.333 509.466 382.266 506.533 383.066 504.666C385.466 499.6 384.933 491.866 382.133 487.333C380.8 485.066 343.2 446.933 298.666 402.666C254.133 358.266 215.866 319.333 213.866 316.133C209.466 309.333 209.066 305.6 212 299.866C216 292.266 226.133 288.666 233.066 292.133C234.666 292.933 268.133 325.6 307.333 364.8C376 433.2 378.933 436 383.733 436C391.2 436 397.333 430 397.333 422.8C397.333 417.466 396.666 416.666 369.866 389.6C354.8 374.4 340.8 360 338.933 357.6C329.733 346.133 340.133 328.933 354.666 331.6C357.6 332.133 366.8 340.4 389.466 362.8L420.266 393.333H426.266C431.466 393.333 432.933 392.666 435.866 389.2C439.6 384.8 440.266 379.066 437.866 374.266C437.066 372.666 427.066 362 415.866 350.533C395.333 329.866 395.333 329.866 395.333 323.733C395.333 316.266 399.6 310.266 406.666 308C414.666 305.333 418.533 307.733 439.333 328.8C459.2 348.666 463.466 352 469.2 352C473.866 352 480.4 346 481.466 340.666C482.533 334.666 480.933 331.866 467.2 317.866C456.4 306.8 455.333 305.2 455.333 300.533C455.333 290 464.933 281.333 474.533 283.466C477.333 284 483.466 289.066 494.133 299.466C508.933 314 510 314.666 515.333 314.666C523.2 314.666 528.666 309.2 528.666 301.2C528.666 295.733 528.133 294.933 512.933 279.866C493.6 260.533 486.8 256.8 471.333 256.8C459.866 256.8 452.266 259.6 444.266 266.666L439.333 270.933V237.866V204.666L448.266 200C474.133 186.666 494.133 162.266 502.266 133.733C504.666 125.333 505.333 120 505.333 106C505.333 85.3331 503.333 76.6664 494.666 59.3331C483.866 37.4664 468.4 21.8664 446.666 11.3331C423.066 -0.133564 440.933 0.799769 242 0.399769C96.5331 0.266436 63.8664 0.533102 57.0664 1.99977ZM327.333 27.4664C327.333 27.8664 323.733 32.2664 319.2 37.0664C309.733 47.4664 299.333 67.4664 295.866 81.9998C292.8 94.6664 292.933 117.733 295.866 130C299.866 146.133 309.866 164.8 320.666 176.4C342.266 199.6 365.6 210.266 396.666 211.466L412 212L412.4 245.866L412.666 279.6L406.533 280.533C398.933 281.466 389.733 285.466 384.266 290.133C380.266 293.466 372 304 371.066 306.933C370.8 307.733 367.2 307.333 362 306C352.133 303.466 343.2 304.133 334.4 308C327.866 310.8 317.866 319.733 313.866 326.133L311.066 330.666L282.266 301.6C248.8 267.866 244.933 265.2 228.533 264.266C219.2 263.733 217.333 264 209.733 267.6C199.866 272.266 192.4 279.333 187.6 288.666C184.666 294.266 184.133 297.066 184.133 306.666C184 325.6 181.2 322.266 268.933 410.133L346.266 487.6L315.866 487.466C286.533 487.333 285.066 487.466 279.2 490.4C264.933 497.466 255.2 510.933 253.333 526.266L252.4 533.333H139.866H27.3331L27.5998 296.933L27.9998 60.6664L30.9331 54.3998C36.9331 41.3331 49.9998 30.7998 63.4664 28.1331C69.9998 26.7998 327.333 26.2664 327.333 27.4664ZM416 28.6664C431.2 31.8664 443.866 38.9331 455.333 50.5331C461.333 56.5331 467.2 63.9998 469.733 68.9331C475.2 79.3331 479.333 95.3331 479.333 106C479.333 116.8 475.2 132.8 469.733 143.066C464.266 153.333 451.2 167.333 441.6 173.066C424.4 183.466 403.066 187.333 384.666 183.466C354.533 177.2 330.133 154.533 322.8 125.866C320.133 115.333 320.133 96.6664 322.8 86.1331C333.2 45.5998 374.8 19.9998 416 28.6664Z" fill="#1D49C3"></path><path d="M202.4 163.867C196.266 167.734 195.066 173.867 195.6 198.8L196 219.867L199.866 223.867C207.466 231.867 220.266 228 222.533 217.2C222.933 214.8 223.333 204.4 223.333 193.734C223.333 168.8 221.2 163.334 211.066 161.867C208 161.467 205.333 162 202.4 163.867Z" fill="#1D49C3"></path><path d="M119.199 198.4C115.466 201.733 114.666 203.333 114.666 207.866C114.666 213.333 115.333 214.133 132.799 231.466C149.866 248.4 151.199 249.333 156.133 249.333C165.199 249.333 171.466 241.066 168.666 232.8C167.866 230.266 160.533 221.866 150.933 212.266C136.399 197.733 133.733 195.733 129.066 195.066C124.399 194.4 123.066 194.933 119.199 198.4Z" fill="#1D49C3"></path><path d="M266.399 213.733C248.799 231.333 248.666 231.466 248.666 237.599C248.666 242.799 249.333 244.266 252.799 247.199C257.333 251.066 262.933 251.599 268.399 248.799C272.266 246.666 297.599 221.466 301.199 215.999C307.066 207.066 299.999 195.999 288.399 195.999C284.666 195.999 281.866 198.266 266.399 213.733Z" fill="#1D49C3"></path><path d="M87.7333 278.533C80.5333 282.933 79.4666 292.533 85.4666 298.799L89.2 302.666H114.667C138.667 302.666 140.4 302.533 143.2 299.866C150.133 293.333 149.333 283.333 141.467 278.533C137.867 276.266 134.667 275.999 114.667 275.999C94.6666 275.999 91.4666 276.266 87.7333 278.533Z" fill="#1D49C3"></path><path d="M152 329.466C147.6 332 119.334 360.4 117.067 364.533C111.334 375.466 123.067 387.333 134.4 382C140.667 379.066 169.334 349.6 170.134 345.333C171.2 340.266 168.934 333.6 165.6 331.333C161.334 328.533 155.2 327.733 152 329.466Z" fill="#1D49C3"></path><path d="M432 72.2663C430.533 73.0663 419.866 81.733 408.266 91.5997L387.066 109.333L376.933 98.6663C368.266 89.5997 366 87.9997 362.4 87.9997C356 87.9997 351.733 90.533 349.333 95.5997C345.466 103.6 347.6 106.933 371.466 132.266C378.666 139.866 380.666 141.333 384.4 141.333C386.8 141.333 390.133 140.666 391.733 139.733C396.933 137.066 446.533 94.6663 448.933 90.933C456.4 79.4663 443.733 65.5997 432 72.2663Z" fill="#1D49C3"></path><path d="M551.466 332.533C549.733 333.467 547.466 335.733 546.533 337.467C539.2 350.8 556.666 364.133 567.466 353.467C578.133 342.667 564.8 325.2 551.466 332.533Z" fill="#1D49C3"></path><path d="M178.267 598C173.467 602 172.267 607.2 174.667 612.933C178.267 621.333 178.933 621.467 221.333 621.067L259.6 620.667L262.8 616.933C267.467 611.467 267.2 603.733 262.133 598.533L258.267 594.667H220.267H182.267L178.267 598Z" fill="#1D49C3"></path><path d="M173.733 659.867C170.133 663.067 169.333 664.667 169.333 669.333C169.333 674 170.133 675.6 173.733 678.8C181.066 685.467 190.933 683.2 194.666 674.133C197.066 668.533 195.733 663.333 191.066 659.333C185.6 654.667 179.333 654.933 173.733 659.867Z" fill="#1D49C3"></path></svg>