<svg xmlns="http://www.w3.org/2000/svg" width="88" height="89" viewBox="0 0 88 89" fill="none"><path d="M79.2584 63.5481L76.5618 60.1708V63.9534C76.5618 64.2236 76.5618 64.4938 76.2921 64.764C76.2921 65.0342 75.8876 65.0342 75.4831 65.0342C75.0786 65.0342 74.9438 65.0342 74.6742 64.764C74.6742 64.4938 74.4045 64.2236 74.4045 63.9534V38.5559C74.4045 37.4752 73.5955 36.6646 72.5169 36.5295C71.4382 36.5295 70.6292 37.4752 70.6292 38.5559V60.441C70.6292 60.9814 70.2247 61.5217 69.5506 61.5217C68.8764 61.5217 68.4719 61.1165 68.4719 60.441V50.7143C68.4719 49.6335 67.6629 48.823 66.5843 48.823C65.5056 48.823 64.6966 49.6335 64.5618 50.7143V60.441C64.5618 60.9814 64.0225 61.3867 63.4831 61.3867C62.9438 61.3867 62.5393 60.9814 62.4045 60.441V53.6863C62.4045 52.6056 61.4607 51.795 60.5169 51.795C59.573 51.795 58.6292 52.6056 58.6292 53.6863V60.441C58.6292 60.9814 58.0899 61.3867 57.5506 61.3867C57.0112 61.3867 56.6067 60.9814 56.4719 60.441V56.5233C56.4719 55.4425 55.6629 54.4969 54.4494 54.4969C53.236 54.4969 52.5618 55.4425 52.5618 56.5233V60.8463L55.2584 72.5994C55.2584 72.8696 55.2584 73.0047 55.6629 73.1398C55.6629 73.1398 56.0674 73.4099 56.3371 73.4099H72.9213C72.9213 73.4099 73.191 73.4099 73.3258 73.1398L79.1236 65.0342C79.3932 64.6289 79.3932 64.0885 79.1236 63.8183V63.5481H79.2584ZM48.382 19.913C48.1124 19.913 47.8427 19.913 47.573 19.6429C47.3034 19.6429 47.3034 19.2376 47.3034 18.8323C47.3034 18.427 47.3034 18.2919 47.573 18.0217C47.8427 17.7516 48.1124 17.7516 48.382 17.7516H71.9775C72.2472 17.7516 72.5169 17.7516 72.7865 18.0217C73.0562 18.0217 73.0562 18.427 73.0562 18.8323C73.0562 19.2376 73.0562 19.3727 72.7865 19.6429C72.5169 19.6429 72.2472 19.913 71.9775 19.913H48.382ZM48.382 12.618C48.1124 12.618 47.8427 12.618 47.573 12.3478C47.3034 12.0776 47.3034 11.9425 47.3034 11.5373C47.3034 11.132 47.3034 10.9969 47.573 10.7267C47.8427 10.4565 48.1124 10.4565 48.382 10.4565H71.9775C72.2472 10.4565 72.5169 10.4565 72.7865 10.7267C73.0562 10.9969 73.0562 11.132 73.0562 11.5373C73.0562 11.9425 73.0562 12.0776 72.7865 12.3478C72.5169 12.618 72.2472 12.618 71.9775 12.618H48.382ZM75.7528 88H53.1011C52.5618 88 52.0225 87.5947 52.0225 86.9193V81.7857C52.0225 81.2453 52.427 80.8401 52.9663 80.705H54.0449V74.2205C53.6404 73.8152 53.5056 73.4099 53.3708 72.8696L53.1011 71.9239H14.5393C14 71.9239 13.4607 71.5186 13.4607 70.8432V63.9534C13.4607 63.4131 13.8652 62.8727 14.5393 62.8727H30.3146V55.4426H3.07865C2.53932 55.4426 2 54.9022 2 54.3618V2.08074C2 1.54037 2.40449 1 3.07865 1H85.0562C85.3258 1 85.5955 1.13509 85.7303 1.40528C85.7303 1.54037 86 1.81056 86 2.08074V54.3618C86 54.9022 85.5955 55.4426 84.9213 55.4426H76.2921V56.6584L80.6067 62.1972C81.4157 63.278 81.5506 64.764 80.6067 65.9798L74.809 74.0854C74.809 74.0854 74.5393 74.3556 74.4045 74.4907V77.7329H75.3483C75.8876 77.7329 76.427 77.7329 76.5618 78.4084V86.9193C76.5618 87.4596 76.1573 88 75.4831 88H75.7528ZM56.2022 80.2997L71.9775 78.0031H72.6517V75.3012H56.2022V80.2997ZM54.1798 85.9736H74.809V79.7593L72.2472 80.1646L55.5281 82.8665H55.2584C54.9888 82.8665 54.8539 82.8665 54.7191 82.8665H54.1798V86.2438V85.9736ZM52.8315 69.8975L51.7528 65.1693H15.7528V69.8975H52.8315ZM51.2135 63.1429L50.809 61.2516V55.7127H32.6067V63.1429H51.2135ZM51.8876 53.5512C53.1011 52.3354 55.1236 52.0652 56.7416 52.8758C57.0112 50.8494 58.764 49.3634 60.6517 49.3634C62.5393 49.3634 62 49.3634 62.6742 49.9037C62.9438 47.8773 64.6966 46.3913 66.5843 46.3913C68.4719 46.3913 67.9326 46.3913 68.4719 46.9317V45.1755C67.7978 44.7702 67.2584 44.3649 66.7191 43.9596H4.29214V53.4162H51.8876V53.5512ZM68.6067 42.8789V38.4208C68.6067 36.2593 70.3596 34.5031 72.6517 34.5031C74.9438 34.5031 76.5618 36.2593 76.6966 38.4208V43.5544C77.236 43.2842 77.7753 42.8789 78.3146 42.3385C78.5843 42.0683 78.8539 41.7981 78.9888 41.528C80.6067 39.3665 80.8764 36.3944 79.6629 33.9627C78.4494 31.5311 76.0225 29.9099 73.3258 29.7748C70.6292 29.7748 68.0674 31.1258 66.7191 33.5575C65.3708 35.9891 65.5056 38.8261 66.9888 41.2578C67.2584 41.663 67.6629 42.0683 67.9326 42.4736C67.9326 42.4736 68.3371 42.8789 68.6067 43.014V42.8789ZM76.5618 45.7158V53.5512H84.2472V43.9596H79.3933C78.5843 44.6351 77.6404 45.3106 76.5618 45.7158ZM65.1011 41.9332C63.3483 38.9612 63.2135 35.3137 64.8315 32.3416C66.4494 29.3696 69.6854 27.4783 73.0562 27.4783C76.427 27.4783 79.6629 29.3696 81.2809 32.3416C82.8989 35.3137 82.8989 38.9612 81.0112 41.9332H84.1124V3.29658H4.29214V41.9332H65.1011ZM25.4607 13.4286C29.3708 13.4286 32.7416 16.2655 33.5506 20.0481C34.3596 23.8307 32.2022 27.7484 28.6966 29.2345C25.0562 30.7205 20.8764 29.5047 18.7191 26.2624C16.5618 23.0202 16.9663 18.6972 19.7978 15.8602C21.2809 14.3742 23.4382 13.4286 25.5955 13.4286H25.4607ZM29.7753 17.3463C27.7528 15.3199 24.382 14.9146 21.9551 16.5357C19.5281 18.1568 18.5843 21.264 19.6629 24.1009C20.7416 26.8028 23.7079 28.4239 26.5393 27.7484C29.3708 27.2081 31.5281 24.6413 31.5281 21.6693C31.5281 18.6972 30.8539 18.427 29.7753 17.3463ZM32.2022 10.3214H32.4719C33.2809 9.78106 34.3596 9.91615 35.0337 10.5916L36.5168 12.0776C37.191 12.7531 37.3258 13.8338 36.9213 14.6444V14.9146C36.6517 14.9146 36.6517 15.3199 36.6517 15.455C36.6517 15.5901 36.6517 15.8602 36.6517 15.9953C36.6517 16.2655 36.9213 16.5357 37.0562 16.8059C37.0562 17.0761 37.3258 17.3463 37.3258 17.6165C37.3258 17.8866 37.3258 18.0217 37.5955 18.1568C37.8652 18.2919 37.8652 18.427 38.1348 18.427H38.4045C38.809 18.427 39.2135 18.8323 39.4831 19.2376C39.7528 19.6429 39.8876 20.0481 39.8876 20.5885V22.6149C39.8876 23.5606 39.2135 24.5062 38.4045 24.7764H38.1348C37.7303 24.7764 37.4607 25.3168 37.3258 25.722C37.3258 25.9922 37.3258 26.2624 37.0562 26.5326C37.0562 26.8028 36.7865 27.073 36.6517 27.3432C36.6517 27.3432 36.6517 27.7484 36.6517 27.8835C36.6517 28.0186 36.6517 28.2888 36.6517 28.4239V28.6941C36.9213 29.0994 36.9213 29.6398 36.9213 30.045C36.9213 30.4503 36.6517 30.9907 36.2472 31.2609L34.764 32.7469C34.4944 33.1522 33.9551 33.2873 33.5506 33.4224C33.1461 33.4224 32.6067 33.4224 32.2022 33.1522H31.9326C31.9326 32.882 31.5281 32.882 31.3933 32.882C31.2584 32.882 30.9888 32.882 30.8539 32.882C30.5843 32.882 30.3146 33.1522 30.0449 33.2873C29.7753 33.4224 29.5056 33.5575 29.236 33.5575C28.9663 33.5575 28.8315 33.5575 28.6966 33.8276C28.5618 34.0978 28.427 34.0978 28.427 34.368V34.6382C28.0225 35.5839 27.2135 36.2593 26.2697 36.2593H24.2472C23.3034 36.2593 22.3596 35.5839 22.0899 34.6382V34.368C22.0899 34.368 21.8202 33.9627 21.6854 33.8276C21.6854 33.8276 21.4157 33.5575 21.1461 33.5575C20.8764 33.5575 20.6067 33.5575 20.3371 33.2873C20.0674 33.2873 19.7978 33.0171 19.5281 32.882C19.5281 32.882 19.1236 32.882 18.9888 32.882C18.8539 32.882 18.5843 32.882 18.4494 32.882H18.1798C17.7753 33.2873 17.236 33.2873 16.8315 33.2873C16.427 33.2873 15.8876 33.0171 15.618 32.6118L14.1348 31.1258C13.4607 30.4503 13.3258 29.3696 13.7303 28.559V28.2888C14 28.2888 14 27.8835 14 27.7484C14 27.6134 14 27.3432 13.8652 27.2081C13.8652 26.9379 13.5955 26.6677 13.4607 26.3975C13.3258 26.1273 13.3258 25.8571 13.191 25.587C13.191 25.587 13.0562 25.1817 12.9213 25.0466C12.7865 25.0466 12.6517 24.7764 12.382 24.7764H12.1124C11.1685 24.3711 10.4944 23.5606 10.6292 22.6149V20.5885C10.6292 19.6429 11.3034 18.6972 12.2472 18.427H12.5169C12.6517 18.427 12.9213 18.427 13.0562 18.1568C13.191 18.1568 13.3258 17.8866 13.3258 17.6165C13.3258 17.3463 13.4607 17.0761 13.5955 16.8059C13.5955 16.5357 13.8652 16.2655 14 15.9953C14 15.9953 14 15.5901 14 15.455C14 15.3199 14 15.0497 14 14.9146V14.6444C13.7303 14.2391 13.7303 13.6988 13.7303 13.2935C13.7303 12.8882 14 12.3478 14.4045 12.0776L15.8876 10.5916C16.5618 9.91615 17.6404 9.78106 18.4494 10.1863H18.7191C19.1236 10.4565 19.5281 10.4565 19.7978 10.3214C20.0674 10.3214 20.3371 10.0512 20.6067 9.91615C20.8764 9.91615 21.1461 9.78106 21.4157 9.64596C21.4157 9.64596 21.8202 9.51087 21.9551 9.37578C21.9551 9.24068 22.2247 9.10559 22.2247 8.8354V8.56522C22.4944 7.61956 23.4382 6.9441 24.382 7.07919H26.4045C26.9438 7.07919 27.3483 7.21428 27.7528 7.48447C28.1573 7.75466 28.427 8.15994 28.5618 8.56522V8.8354C28.5618 8.9705 28.5618 9.24068 28.8315 9.37578C28.8315 9.51087 29.1011 9.64596 29.3708 9.64596C29.6404 9.64596 29.9101 9.78105 30.1798 9.91615C30.4494 10.0512 30.7191 10.1863 30.9888 10.3214C30.9888 10.3214 31.3933 10.4565 31.5281 10.4565C31.6629 10.4565 31.9326 10.4565 32.0674 10.3214H32.2022ZM33.2809 11.9425H33.0112C32.0674 12.4829 30.9888 12.4829 30.0449 11.9425C29.7753 11.9425 29.6404 11.8075 29.3708 11.6724C29.1011 11.5373 28.9663 11.5373 28.6966 11.4022C28.1573 11.2671 27.7528 10.9969 27.3483 10.5916C26.9438 10.1863 26.6742 9.78105 26.5393 9.24068V8.9705H24.382V9.24068C23.9775 10.1863 23.1685 10.9969 22.2247 11.4022C21.9551 11.4022 21.8202 11.5373 21.5506 11.6724C21.2809 11.8075 21.1461 11.8075 20.8764 11.9425C20.4719 12.2127 19.9326 12.3478 19.3933 12.3478C18.8539 12.3478 18.3146 12.3478 17.9101 11.9425H17.6404L16.1573 13.4286V13.6988C16.5618 14.104 16.6966 14.6444 16.6966 15.1848C16.6966 15.7252 16.6966 16.2655 16.2921 16.6708C16.2921 16.6708 16.2921 17.0761 16.0225 17.3463C16.0225 17.6165 16.0225 17.7516 15.7528 18.0217C15.7528 18.5621 15.3483 18.9674 14.9438 19.3727C14.5393 19.778 14.1348 20.0481 13.5955 20.1832H13.3258V22.2096H13.5955C14.1348 22.2096 14.5393 22.6149 14.9438 23.0202C15.3483 23.4255 15.618 23.8307 15.7528 24.3711C15.7528 24.6413 15.7528 24.7764 16.0225 25.0466C16.0225 25.3168 16.0225 25.4519 16.2921 25.722C16.5618 26.1273 16.6966 26.6677 16.6966 27.2081C16.6966 27.7484 16.6966 28.2888 16.2921 28.6941V28.9643L17.7753 30.4503H18.0449C18.4494 30.045 18.9888 29.9099 19.5281 29.9099C20.0674 29.9099 20.6067 29.9099 21.0112 30.3152C21.0112 30.3152 21.4157 30.3152 21.6854 30.5854C21.9551 30.5854 22.0899 30.5854 22.3595 30.8556C22.8989 30.8556 23.3034 31.2609 23.7079 31.6662C24.1124 32.0714 24.382 32.4767 24.5169 33.0171V33.2873H26.6742V33.0171C26.6742 32.4767 27.0787 32.0714 27.4831 31.6662C27.8876 31.2609 28.2921 30.9907 28.8315 30.8556C29.1011 30.8556 29.236 30.8556 29.5056 30.5854C29.7753 30.3152 29.9101 30.5854 30.1798 30.3152C30.5843 30.045 31.1236 29.9099 31.6629 29.9099C32.2022 29.9099 32.7416 29.9099 33.1461 30.3152H33.4157L34.8989 28.9643V28.6941C34.4944 28.2888 34.3596 27.7484 34.3596 27.2081C34.3596 26.6677 34.3595 26.1273 34.764 25.722C34.764 25.722 34.764 25.3168 35.0337 25.0466C35.0337 24.7764 35.0337 24.6413 35.3034 24.3711C35.573 23.4255 36.382 22.6149 37.4607 22.3447H37.7303V20.3183H37.4607C36.5168 20.0481 35.7079 19.2376 35.3034 18.2919C35.3034 18.0217 35.3034 17.8866 35.0337 17.6165C34.764 17.3463 35.0337 17.2112 34.764 16.941C34.4944 16.5357 34.3596 15.9953 34.3596 15.455C34.3596 14.9146 34.3595 14.3742 34.764 13.9689V13.6988L33.2809 12.2127V11.9425Z" fill="#1D49C3"></path></svg>